<?xml version="1.0" encoding="UTF-8"?>
<svg width="72px" height="60px" viewBox="0 0 72 60" version="1.1" xmlns="http://www.w3.org/2000/svg" xmlns:xlink="http://www.w3.org/1999/xlink">
	<g transform="translate(-767.000000, -1040.000000)">
		<path d="M839,1060.52632 L839,1052.63158 L831,1052.63158 L831,1047.89474 L831,1044.73684 L831,1040 L775.8,1040 L775.8,1044.73684 L775.8,1047.89474 L775.8,1052.63158 L767,1052.63158 L767,1060.52632 L772.6,1060.52632 L772.6,1092.89474 L770.2,1092.89474 L770.2,1095.26316 L767,1095.26316 L767,1100 L839,1100 L839,1095.26316 L835.8,1095.26316 L835.8,1092.89474 L833.4,1092.89474 L833.4,1060.52632 L839,1060.52632 L839,1060.52632 Z M801.4,1092.89474 L785.4,1092.89474 L785.4,1064.47368 L801.4,1064.47368 L801.4,1092.89474 L801.4,1092.89474 Z M820.6,1092.89474 L804.6,1092.89474 L804.6,1064.47368 L820.6,1064.47368 L820.6,1092.89474 L820.6,1092.89474 Z" id="icon-emtpy-biz"></path>
	</g>
</svg>