<?xml version="1.0" encoding="UTF-8"?>
<svg width="87px" height="60px" viewBox="0 0 87 60" version="1.1" xmlns="http://www.w3.org/2000/svg" xmlns:xlink="http://www.w3.org/1999/xlink">  
	<g transform="translate(-757.000000, -1041.000000)">
		<path d="M815.326742,1101 L757.00002,1101 L757.00002,1092.80786 C756.995496,1091.08678 757.763105,1089.45375 759.092894,1088.35541 C764.380989,1084.11097 770.112838,1080.4469 776.189114,1077.42669 C776.372432,1077.33886 776.489107,1077.15421 776.489358,1076.95153 L776.489358,1071.43437 C775.663564,1070.04036 775.100897,1068.50748 774.829188,1066.91153 C774.193378,1066.85873 773.363293,1065.97001 772.462562,1062.81106 C771.305741,1058.73699 772.391916,1057.92745 773.442769,1057.93625 C772.886435,1055.56044 771.464694,1047.2891 777.646178,1043.5318 C776.903438,1042.90501 776.474098,1041.98505 776.471696,1041.0152 C776.471696,1041.0152 783.53625,1041.80714 786.927236,1041.112 C790.318222,1040.41685 793.99179,1043.08304 794.583446,1045.64363 C794.583446,1045.64363 801.497878,1045.64363 798.813348,1057.96265 C799.890692,1057.91865 801.065174,1058.65779 799.881861,1062.83746 C798.998792,1066.0052 798.115723,1066.89393 797.515236,1066.93793 C797.243527,1068.53387 796.680859,1070.06676 795.855066,1071.46077 L795.855066,1076.97792 C795.855317,1077.18061 795.971992,1077.36526 796.155309,1077.45309 C802.227311,1080.46552 807.956129,1084.1207 813.242699,1088.35541 C814.572488,1089.45375 815.340097,1091.08678 815.335573,1092.80786 L815.326742,1101 Z M812.774672,1078.37701 L812.774672,1081.65035 C812.773087,1082.00124 812.675379,1082.34505 812.49209,1082.64467 C813.578265,1083.44541 814.673271,1084.29014 815.759446,1085.17887 C818.01737,1087.05255 819.313613,1089.83602 819.291723,1092.76386 L819.291723,1100.91201 L844,1100.91201 L844,1093.21262 C843.787861,1091.04741 842.445194,1089.15429 840.467723,1088.23222 C838.81232,1087.4204 837.082363,1086.76919 835.301768,1086.28758 C835.204631,1086.23478 829.71194,1084.8005 827.106886,1083.41901 L826.877288,1083.31342 C826.326265,1082.95802 825.993762,1082.34839 825.994218,1081.69435 L825.994218,1079.14255 L825.994218,1079.14255 L825.994218,1078.26262 C825.994218,1078.26262 833.54446,1078.4914 837.120891,1074.84849 C837.120891,1074.84849 831.910782,1073.37901 832.846836,1063.91977 C833.782889,1054.46053 831.681184,1046.16279 824.016143,1046.86674 C824.016143,1046.86674 820.713465,1042.90705 814.134599,1045.39725 C811.873942,1046.27718 805.816087,1048.41541 806.125161,1061.51756 C806.434235,1074.61971 801.453725,1074.71651 801.453725,1074.71651 C801.453725,1074.71651 804.032287,1078.45621 812.774672,1078.37701 Z" id="icon-empty-friends"></path>
	</g> 
</svg>