<?xml version="1.0" encoding="UTF-8"?>
<svg width="52px" height="60px" viewBox="0 0 52 60" version="1.1" xmlns="http://www.w3.org/2000/svg" xmlns:xlink="http://www.w3.org/1999/xlink"> 
	<g id="4.1---Notifications" transform="translate(-996.000000, -144.000000)">
		<g id="Group-18" transform="translate(848.000000, 56.000000)">
			<path d="M166.560105,140.496719 L181.407544,140.496719 C181.407544,144.64021 178.088727,148 173.988465,148 C169.886347,148 166.560105,144.64021 166.560105,140.496719 L166.560105,140.496719 Z M199.508835,129.247422 C198.842473,128.251859 197.812303,126.978814 197.812303,126.978814 C191.6814,120.765452 187.603413,112.31723 186.981598,102.999063 L186.981598,101.12418 C186.981598,93.8777576 181.160675,88 173.988465,88 C166.806975,88 160.995332,93.8777576 160.995332,101.12418 L160.995332,102.999063 C160.371661,112.31723 156.293674,120.939816 150.157203,127.155053 C150.157203,127.155053 148.958122,128.309981 148.464383,129.247422 C147.970644,130.184863 148.000342,132.166615 148.000342,133.002812 C148.000342,135.072683 149.663464,136.750703 151.71081,136.750703 L196.262408,136.750703 C198.306042,136.750703 199.971019,135.072683 199.971019,133.002812 C199.971019,132.166615 200.173341,130.242985 199.508835,129.247422 L199.508835,129.247422 Z" id="icon-natification-off"></path>
		</g>
	</g> 
</svg>