<?xml version="1.0" encoding="UTF-8"?>
<svg width="81px" height="88px" viewBox="0 0 81 88" version="1.1" xmlns="http://www.w3.org/2000/svg" xmlns:xlink="http://www.w3.org/1999/xlink">
    <!-- Generator: sketchtool 46.2 (44496) - http://www.bohemiancoding.com/sketch -->
    <title>18CFC2D7-778D-4F8C-8FE4-0897C6997E3D</title>
    <desc>Created with sketchtool.</desc>
    <defs>
        <linearGradient x1="0%" y1="12.7412903%" x2="100%" y2="12.74129%" id="linearGradient-1">
            <stop stop-color="#990B9B" offset="0%"></stop>
            <stop stop-color="#B71A85" offset="100%"></stop>
        </linearGradient>
    </defs>
    <g id="Page-1" stroke="none" stroke-width="1" fill="none" fill-rule="evenodd">
        <g id="1.4---Login" transform="translate(-120.000000, -110.000000)" fill-rule="nonzero" fill="url(#linearGradient-1)">
            <path d="M183.55128,135.189227 L155.501995,168.139141 L137.021361,153.44273 C135.989448,152.600261 134.488483,152.787476 133.738,153.817161 C132.893707,154.846846 133.081328,156.344569 134.113242,157.093431 L154.376271,173.193957 C154.845322,173.568388 155.314374,173.661996 155.877236,173.661996 C156.533908,173.661996 157.19058,173.381172 157.659632,172.819526 L187.209883,138.091066 C188.054176,137.061381 187.960365,135.657265 186.928452,134.814796 C185.896538,134.159542 184.395573,134.25315 183.55128,135.189227 Z M200.343328,135.844481 C198.842363,131.257703 196.309484,127.981433 192.650881,125.922064 C188.710848,123.581871 184.770815,121.335286 180.830781,119.088701 C176.890748,116.842116 172.950714,114.595531 169.010681,112.255338 C166.477802,110.851222 163.944923,110.102361 161.130614,110.008753 C157.753442,109.915145 154.845322,110.570399 152.312444,112.068123 C150.060996,113.378631 147.809548,114.595531 145.558101,115.906039 C139.929481,119.088701 134.113242,122.458578 128.390812,125.828456 C122.949813,129.104726 120.041693,134.159542 120.041693,140.337651 C119.947883,146.422152 120.041693,152.600261 120.041693,158.591154 C120.041693,161.586601 120.041693,164.675655 120.041693,167.671102 C120.041693,169.449649 120.323124,171.134587 120.792176,172.538703 C122.293141,176.844658 124.82602,180.120927 128.390812,182.180297 C132.237035,184.426882 136.083258,186.673467 140.023292,188.826444 C143.963325,191.073029 147.903359,193.319615 151.843392,195.659807 C154.18865,197.063923 156.627718,197.812785 159.442028,198 C159.91108,198 160.380131,198 160.755373,198 C163.757303,198 166.477802,197.251138 168.91687,195.847023 C176.609317,191.353853 184.583194,186.767075 192.463261,182.180297 C194.996139,180.776181 197.059967,178.81042 198.560932,176.189404 C200.249517,173.287565 201,170.853764 201,168.232748 L201,140.244043 C201,138.933535 200.812379,137.342204 200.343328,135.844481 Z M196.309484,168.419964 C196.309484,170.104903 195.746622,171.883449 194.433278,174.036426 C193.401364,175.908581 191.994209,177.312696 190.118003,178.342381 C182.144126,182.929159 174.170248,187.515937 166.477802,192.009107 C164.507785,193.132399 162.350148,193.600438 159.723459,193.50683 C157.659632,193.319615 155.877236,192.757968 154.18865,191.728283 C150.248617,189.481698 146.308583,187.141506 142.36855,184.894921 C138.522327,182.648336 134.582293,180.495358 130.73607,178.248773 C128.109381,176.75105 126.326985,174.504465 125.201261,171.134587 C124.82602,170.19851 124.638399,169.075218 124.638399,167.76471 C124.638399,164.769263 124.638399,161.680209 124.638399,158.684762 C124.638399,152.693869 124.638399,146.51576 124.638399,140.431259 C124.638399,135.750873 126.608416,132.380996 130.73607,129.853587 C136.364689,126.48371 142.180929,123.20744 147.809548,119.93117 C150.060996,118.620662 152.312444,117.403762 154.563891,116.093254 C156.252477,115.063569 158.034873,114.595531 160.286321,114.595531 C160.473942,114.595531 160.661562,114.595531 160.849183,114.595531 C162.91301,114.689138 164.789216,115.250785 166.571612,116.28047 C170.511646,118.620662 174.451679,120.867247 178.391713,123.113832 C182.331746,125.360417 186.27178,127.607002 190.211813,129.947195 C192.838502,131.444918 194.620898,133.785111 195.746622,137.248596 C196.028053,138.184674 196.215674,139.307966 196.215674,140.431259 L196.215674,168.419964 L196.309484,168.419964 Z" id="icon-success-copy"></path>
        </g>
    </g>
</svg>