<?xml version="1.0" encoding="utf-8"?>
<svg version="1.1" id="Layer_1" xmlns="http://www.w3.org/2000/svg" xmlns:xlink="http://www.w3.org/1999/xlink" x="0px" y="0px"
	 viewBox="0 0 107 114" width="107px" height="114px" style="enable-background:new 0 0 107 114;" xml:space="preserve">
<style type="text/css">
	.st0{fill:#FFFFFF;}
	.st1{fill:url(#icon-success-lrg_1_);}
</style>
<g id="Page-1">
	<g id="_x33_.2.1---Dashboard" transform="translate(-746.000000, -322.000000)">
		<g id="Group-6-Copy" transform="translate(662.000000, 322.000000)">
			<path id="icon-success-copy-2" class="st0" d="M190.1,33.5c-2-5.9-5.3-10.2-10.2-12.9c-5.2-3-10.4-5.9-15.6-8.9
				c-5.2-2.9-10.4-5.8-15.6-8.9c-3.3-1.8-6.7-2.8-10.4-2.9c-4.5-0.1-8.3,0.7-11.6,2.7c-3,1.7-5.9,3.3-8.9,5
				c-7.4,4.1-15.1,8.5-22.7,12.9c-7.2,4.2-11,10.8-11,18.8c-0.1,7.9,0,15.9,0,23.6c0,3.9,0,7.9,0,11.8c0,2.3,0.4,4.5,1,6.3
				c2,5.6,5.3,9.8,10,12.5c5.1,2.9,10.2,5.8,15.4,8.6c5.2,2.9,10.4,5.8,15.6,8.9c3.1,1.8,6.3,2.8,10,3c0.6,0,1.2,0,1.7,0
				c4,0,7.6-1,10.8-2.8c10.2-5.8,20.7-11.8,31.1-17.7c3.3-1.8,6.1-4.4,8.1-7.8c2.2-3.8,3.2-6.9,3.2-10.3V39.2
				C191,37.5,190.8,35.4,190.1,33.5z"/>
		</g>
	</g>
</g>
<g id="Page-1_1_">
	<g id="_x33_.2.1---Dashboard_1_" transform="translate(-759.000000, -335.000000)">
		<g id="Group-6-Copy_1_" transform="translate(662.000000, 322.000000)">

				<linearGradient id="icon-success-lrg_1_" gradientUnits="userSpaceOnUse" x1="-151.7284" y1="462.5114" x2="-150.7284" y2="462.5114" gradientTransform="matrix(81 0 0 -88 12400 40771)">
				<stop  offset="0" style="stop-color:#990B9B"/>
				<stop  offset="1" style="stop-color:#B71A85"/>
			</linearGradient>
			<path id="icon-success-lrg" class="st1" d="M173.6,51.2l-28,32.9L127,69.4c-1-0.8-2.5-0.7-3.3,0.4c-0.8,1-0.7,2.5,0.4,3.3
				l20.3,16.1c0.5,0.4,0.9,0.5,1.5,0.5c0.7,0,1.3-0.3,1.8-0.8l29.6-34.7c0.8-1,0.8-2.4-0.3-3.3C175.9,50.2,174.4,50.3,173.6,51.2z
				 M190.3,51.8c-1.5-4.6-4-7.9-7.7-9.9c-3.9-2.3-7.9-4.6-11.8-6.8c-3.9-2.2-7.9-4.5-11.8-6.8c-2.5-1.4-5.1-2.2-7.9-2.2
				c-3.4-0.1-6.3,0.6-8.8,2.1c-2.3,1.3-4.5,2.5-6.8,3.8c-5.6,3.2-11.4,6.6-17.2,9.9c-5.4,3.3-8.3,8.3-8.3,14.5
				c-0.1,6.1,0,12.3,0,18.3c0,3,0,6.1,0,9.1c0,1.8,0.3,3.5,0.8,4.9c1.5,4.3,4,7.6,7.6,9.6c3.8,2.2,7.7,4.5,11.6,6.6
				c3.9,2.2,7.9,4.5,11.8,6.8c2.3,1.4,4.8,2.2,7.6,2.3c0.5,0,0.9,0,1.3,0c3,0,5.7-0.7,8.2-2.2c7.7-4.5,15.7-9.1,23.5-13.7
				c2.5-1.4,4.6-3.4,6.1-6c1.7-2.9,2.4-5.3,2.4-8v-28C191,54.9,190.8,53.3,190.3,51.8z M186.3,84.4c0,1.7-0.6,3.5-1.9,5.6
				c-1,1.9-2.4,3.3-4.3,4.3c-8,4.6-15.9,9.2-23.6,13.7c-2,1.1-4.1,1.6-6.8,1.5c-2.1-0.2-3.8-0.7-5.5-1.8c-3.9-2.2-7.9-4.6-11.8-6.8
				c-3.8-2.2-7.8-4.4-11.6-6.6c-2.6-1.5-4.4-3.7-5.5-7.1c-0.4-0.9-0.6-2.1-0.6-3.4c0-3,0-6.1,0-9.1c0-6,0-12.2,0-18.3
				c0-4.7,2-8.1,6.1-10.6c5.6-3.4,11.4-6.6,17.1-9.9c2.3-1.3,4.5-2.5,6.8-3.8c1.7-1,3.5-1.5,5.7-1.5c0.2,0,0.4,0,0.6,0
				c2.1,0.1,3.9,0.7,5.7,1.7c3.9,2.3,7.9,4.6,11.8,6.8c3.9,2.2,7.9,4.5,11.8,6.8c2.6,1.5,4.4,3.8,5.5,7.3c0.3,0.9,0.5,2.1,0.5,3.2
				L186.3,84.4L186.3,84.4z"/>
		</g>
	</g>
</g>
</svg>
