<?xml version="1.0" encoding="UTF-8"?>
<svg width="81px" height="88px" viewBox="0 0 81 88" version="1.1" xmlns="http://www.w3.org/2000/svg" xmlns:xlink="http://www.w3.org/1999/xlink">
    <!-- Generator: sketchtool 46.2 (44496) - http://www.bohemiancoding.com/sketch -->
    <title>E7C74B97-65B1-4ABC-87E7-9D5B943D5848</title>
    <desc>Created with sketchtool.</desc>
    <defs>
        <linearGradient x1="100%" y1="100%" x2="0%" y2="100%" id="linearGradient-1">
            <stop stop-color="#781E90" offset="0%"></stop>
            <stop stop-color="#531B6A" offset="100%"></stop>
        </linearGradient>
    </defs>
    <g id="Page-1" stroke="none" stroke-width="1" fill="none" fill-rule="evenodd">
        <g id="9.5---Verify-Biz" transform="translate(-759.000000, -190.000000)" fill-rule="nonzero" fill="url(#linearGradient-1)">
            <path d="M822.414023,215.189227 L794.425318,248.139141 L775.984599,233.44273 C774.954914,232.600261 773.457191,232.787476 772.708329,233.817161 C771.86586,234.846846 772.053075,236.344569 773.08276,237.093431 L793.302025,253.193957 C793.770064,253.568388 794.238102,253.661996 794.799748,253.661996 C795.455002,253.661996 796.110256,253.381172 796.578295,252.819526 L826.064723,218.091066 C826.907193,217.061381 826.813585,215.657265 825.7839,214.814796 C824.754216,214.159542 823.256492,214.25315 822.414023,215.189227 Z M839.169803,215.844481 C837.672079,211.257703 835.144671,207.981433 831.493971,205.922064 C827.562447,203.581871 823.630923,201.335286 819.699399,199.088701 C815.767875,196.842116 811.836352,194.595531 807.904828,192.255338 C805.37742,190.851222 802.850012,190.102361 800.04178,190.008753 C796.671903,189.915145 793.770064,190.570399 791.242656,192.068123 C788.99607,193.378631 786.749485,194.595531 784.5029,195.906039 C778.886438,199.088701 773.08276,202.458578 767.37269,205.828456 C761.943442,209.104726 759.041603,214.159542 759.041603,220.337651 C758.947996,226.422152 759.041603,232.600261 759.041603,238.591154 C759.041603,241.586601 759.041603,244.675655 759.041603,247.671102 C759.041603,249.449649 759.322427,251.134587 759.790465,252.538703 C761.288188,256.844658 763.815597,260.120927 767.37269,262.180297 C771.210606,264.426882 775.048522,266.673467 778.980046,268.826444 C782.911569,271.073029 786.843093,273.319615 790.774617,275.659807 C793.11481,277.063923 795.54861,277.812785 798.356841,278 C798.82488,278 799.292919,278 799.667349,278 C802.662796,278 805.37742,277.251138 807.81122,275.847023 C815.487052,271.353853 823.443708,266.767075 831.306755,262.180297 C833.834163,260.776181 835.893533,258.81042 837.391256,256.189404 C839.076195,253.287565 839.825057,250.853764 839.825057,248.232748 L839.825057,220.244043 C839.825057,218.933535 839.637841,217.342204 839.169803,215.844481 Z M835.144671,248.419964 C835.144671,250.104903 834.583025,251.883449 833.272517,254.036426 C832.242832,255.908581 830.838717,257.312696 828.966562,258.342381 C821.009907,262.929159 813.053252,267.515937 805.37742,272.009107 C803.411658,273.132399 801.25868,273.600438 798.637665,273.50683 C796.578295,273.319615 794.799748,272.757968 793.11481,271.728283 C789.183286,269.481698 785.251762,267.141506 781.320238,264.894921 C777.482322,262.648336 773.550798,260.495358 769.712882,258.248773 C767.091866,256.75105 765.31332,254.504465 764.190027,251.134587 C763.815597,250.19851 763.628381,249.075218 763.628381,247.76471 C763.628381,244.769263 763.628381,241.680209 763.628381,238.684762 C763.628381,232.693869 763.628381,226.51576 763.628381,220.431259 C763.628381,215.750873 765.594143,212.380996 769.712882,209.853587 C775.329345,206.48371 781.133023,203.20744 786.749485,199.93117 C788.99607,198.620662 791.242656,197.403762 793.489241,196.093254 C795.174179,195.063569 796.952726,194.595531 799.199311,194.595531 C799.386526,194.595531 799.573742,194.595531 799.760957,194.595531 C801.820327,194.689138 803.692481,195.250785 805.471027,196.28047 C809.402551,198.620662 813.334075,200.867247 817.265599,203.113832 C821.197123,205.360417 825.128646,207.607002 829.06017,209.947195 C831.681186,211.444918 833.459733,213.785111 834.583025,217.248596 C834.863848,218.184674 835.051064,219.307966 835.051064,220.431259 L835.051064,248.419964 L835.144671,248.419964 Z" id="icon-success"></path>
        </g>
    </g>
</svg>