<svg xmlns="http://www.w3.org/2000/svg" width="24" height="17" viewBox="0 0 24 17">
    <path fill="#B4BCC5" fill-rule="evenodd" d="M16.09 17H0v-2.321c-.001-.488.21-.95.577-1.262a26 26 0 0 1 4.717-3.096.15.15 0 0 0 .082-.135V8.623a3.813 3.813 0 0 1-.458-1.281c-.175-.015-.404-.267-.652-1.162-.32-1.155-.02-1.384.27-1.381-.154-.674-.546-3.017 1.16-4.082a.947.947 0 0 1-.324-.713S7.32.23 8.256.032c.935-.197 1.949.558 2.112 1.284 0 0 1.907 0 1.167 3.49.297-.012.62.197.294 1.381-.243.898-.487 1.15-.652 1.162-.075.452-.23.887-.458 1.282v1.563c0 .057.032.11.082.134a25.999 25.999 0 0 1 4.714 3.09c.367.31.579.773.578 1.26L16.09 17zm-.704-6.41v.928c0 .099-.027.196-.078.281.3.227.602.467.902.718.622.531.98 1.32.974 2.15v2.308H24v-2.181a1.744 1.744 0 0 0-.974-1.412 7.822 7.822 0 0 0-1.426-.55c-.026-.015-1.542-.422-2.26-.813l-.064-.03a.55.55 0 0 1-.243-.459v-.973s2.083.066 3.07-.967c0 0-1.438-.416-1.18-3.096s-.321-5.031-2.436-4.832c0 0-.91-1.122-2.726-.416-.623.25-2.294.855-2.21 4.567.086 3.713-1.288 3.74-1.288 3.74s.711 1.06 3.123 1.037z"/>
</svg>
