<?xml version="1.0" encoding="UTF-8"?>
<svg width="17px" height="18px" viewBox="0 0 17 18" version="1.1" xmlns="http://www.w3.org/2000/svg" xmlns:xlink="http://www.w3.org/1999/xlink">
    <!-- Generator: sketchtool 46.2 (44496) - http://www.bohemiancoding.com/sketch -->
    <title>42FDEB91-0A44-47FE-889E-01E4B0519842</title>
    <desc>Created with sketchtool.</desc>
    <defs></defs>
    <g id="Page-1" stroke="none" stroke-width="1" fill="none" fill-rule="evenodd">
        <g id="5.2---Invite-Friends" transform="translate(-1745.000000, -345.000000)" stroke="#4ABBB5" fill-rule="nonzero" fill="#4ABBB5">
            <g id="Group-22-Copy" transform="translate(1746.000000, 343.000000)">
                <path d="M10.832787,8.33061632 L6.77703728,13.0083414 L4.10485437,10.9219697 C3.95564619,10.8023688 3.73861611,10.8289467 3.63010106,10.9751256 C3.50802164,11.1213046 3.5351504,11.3339284 3.68435859,11.4402403 L6.61426472,13.7259469 C6.68208662,13.7791029 6.74990852,13.7923919 6.8312948,13.7923919 C6.92624546,13.7923919 7.02119613,13.7525249 7.08901803,13.6727909 L11.3617978,8.74257506 C11.4838772,8.59639615 11.4703128,8.39706128 11.3211047,8.27746036 C11.1718965,8.18443742 10.9548664,8.19772641 10.832787,8.33061632 Z M14.878394,7.69899652 C14.6004375,6.86503692 14.1313859,6.2693515 13.4538669,5.89492066 C12.7242311,5.46943107 11.9945953,5.06096107 11.2649595,4.65249106 C10.5353236,4.24402105 9.80568781,3.83555105 9.07605199,3.41006146 C8.60700039,3.15476771 8.13794878,3.01861104 7.61678034,3.00159145 C6.9913782,2.98457187 6.45283747,3.10370896 5.98378587,3.37602229 C5.56685111,3.61429646 5.14991636,3.83555105 4.7329816,4.07382522 C3.6906447,4.65249106 2.61356325,5.26519607 1.55385407,5.87790108 C0.546261742,6.4735865 0.00772101403,7.39264401 0.00772101403,8.51593653 C-0.00965126753,9.62220946 0.00772101403,10.745502 0.00772101403,11.8347553 C0.00772101403,12.379382 0.00772101403,12.9410283 0.00772101403,13.4856549 C0.00772101403,13.809027 0.0598378587,14.1153795 0.146699267,14.3706733 C0.424655771,15.1535741 0.893707374,15.7492595 1.55385407,16.1236904 C2.26611762,16.5321604 2.97838116,16.9406304 3.70801699,17.3320808 C4.43765281,17.7405508 5.16728864,18.1490208 5.89692446,18.5745104 C6.3312315,18.8298042 6.78291082,18.9659608 7.30407927,19 C7.39094068,19 7.47780208,19 7.54729121,19 C8.10320422,19 8.60700039,18.8638433 9.05867971,18.6085496 C10.4832068,17.7916096 11.9598507,16.95765 13.4191224,16.1236904 C13.888174,15.8683966 14.2703642,15.5109854 14.5483207,15.034437 C14.8610217,14.5068299 15,14.0643208 15,13.5877724 L15,8.49891694 C15,8.26064277 14.9652554,7.97130985 14.878394,7.69899652 Z M14.1313859,13.6218116 C14.1313859,13.9281641 14.0271522,14.2515362 13.7839403,14.6429866 C13.5928452,14.9833783 13.332261,15.238672 12.9848153,15.4258875 C11.5081714,16.259847 10.0315275,17.0938066 8.60700039,17.9107467 C8.24218247,18.1149817 7.84262,18.2000796 7.35619611,18.18306 C6.97400592,18.1490208 6.64393257,18.0469033 6.3312315,17.8596879 C5.60159568,17.4512179 4.87195985,17.0257283 4.14232403,16.6172583 C3.43006048,16.2087883 2.70042466,15.8173379 1.98816111,15.4088679 C1.50173723,15.1365545 1.17166388,14.7280845 0.9631965,14.1153795 C0.893707374,13.9451837 0.85896281,13.7409487 0.85896281,13.5026745 C0.85896281,12.9580478 0.85896281,12.3964016 0.85896281,11.8517749 C0.85896281,10.7625216 0.85896281,9.63922904 0.85896281,8.53295611 C0.85896281,7.68197693 1.22378072,7.06927193 1.98816111,6.60974317 C3.03049801,5.99703816 4.10757946,5.40135274 5.14991636,4.80566731 C5.56685111,4.56739314 5.98378587,4.34613856 6.40072063,4.10786439 C6.7134217,3.92064897 7.04349505,3.83555105 7.4604298,3.83555105 C7.49517437,3.83555105 7.52991893,3.83555105 7.56466349,3.83555105 C7.94685369,3.85257063 8.29429932,3.95468813 8.62437267,4.14190355 C9.35400849,4.56739314 10.0836443,4.97586315 10.8132801,5.38433315 C11.542916,5.79280316 12.2725518,6.20127316 13.0021876,6.62676275 C13.4886115,6.89907609 13.8186849,7.32456568 14.0271522,7.95429027 C14.0792691,8.12448611 14.1140136,8.32872111 14.1140136,8.53295611 L14.1140136,13.6218116 L14.1313859,13.6218116 Z" id="icon-success"></path>
            </g>
        </g>
    </g>
</svg>