<?xml version="1.0" encoding="UTF-8"?>
<svg width="89px" height="70px" viewBox="0 0 89 70" version="1.1" xmlns="http://www.w3.org/2000/svg" xmlns:xlink="http://www.w3.org/1999/xlink">
    <!-- Generator: sketchtool 46.2 (44496) - http://www.bohemiancoding.com/sketch -->
    <title>D255EE32-9E06-43DE-89A1-B35C3BB9CCBF</title>
    <desc>Created with sketchtool.</desc>
    <defs>
        <linearGradient x1="0%" y1="12.7412903%" x2="100%" y2="12.74129%" id="linearGradient-1">
            <stop stop-color="#990B9B" offset="0%"></stop>
            <stop stop-color="#B71A85" offset="100%"></stop>
        </linearGradient>
    </defs>
    <g id="Page-1" stroke="none" stroke-width="1" fill="none" fill-rule="evenodd">
        <g id="6.1-Add-Business---Mobile" transform="translate(-920.000000, -414.000000)" fill-rule="nonzero" fill="url(#linearGradient-1)">
            <g id="icon-mobile-copy" transform="translate(964.500000, 449.000000) scale(-1, 1) translate(-964.500000, -449.000000) translate(920.000000, 414.000000)">
                <path d="M33.059,50.478 C33.059,48.097 31.121,46.16 28.74,46.16 C26.359,46.16 24.421,48.098 24.421,50.478 C24.421,52.86 26.359,54.797 28.74,54.797 C31.121,54.797 33.059,52.859 33.059,50.478 Z M26.421,50.478 C26.421,49.2 27.461,48.16 28.74,48.16 C30.019,48.16 31.059,49.2 31.059,50.478 C31.059,51.757 30.019,52.797 28.74,52.797 C27.461,52.797 26.421,51.757 26.421,50.478 Z" id="Shape"></path>
                <path d="M70.564,50.478 C70.564,48.097 68.626,46.16 66.245,46.16 C63.864,46.16 61.927,48.098 61.927,50.478 C61.927,52.86 63.865,54.797 66.245,54.797 C68.627,54.797 70.564,52.859 70.564,50.478 Z M63.927,50.478 C63.927,49.2 64.967,48.16 66.245,48.16 C67.524,48.16 68.564,49.2 68.564,50.478 C68.564,51.757 67.524,52.797 66.245,52.797 C64.967,52.797 63.927,51.757 63.927,50.478 Z" id="Shape"></path>
                <path d="M68.77,14.395 L68.77,11.696 L76.771,11.696 L76.771,0.36 L43.449,0.36 L43.449,11.695 L51.68,11.695 L51.68,14.394 L21.072,14.394 L4.581,34.937 L4.581,45.852 L3.445,45.852 C1.894,45.852 0.632,47.114 0.632,48.665 C0.632,50.217 1.894,51.478 3.445,51.478 L19.902,51.478 L19.902,50.478 C19.902,45.604 23.867,41.638 28.74,41.638 C33.614,41.638 37.579,45.604 37.579,50.478 L37.579,51.478 L57.405,51.478 L57.405,50.478 C57.405,45.604 61.371,41.638 66.245,41.638 C71.119,41.638 75.085,45.604 75.085,50.478 L75.085,51.478 L88.266,51.478 L88.266,14.395 L68.77,14.395 Z M45.449,2.36 L74.771,2.36 L74.771,9.695 L45.449,9.695 L45.449,2.36 Z M53.68,11.695 L66.77,11.695 L66.77,14.394 L53.68,14.394 L53.68,11.695 Z M3.445,49.478 C2.997,49.478 2.632,49.113 2.632,48.665 C2.632,48.217 2.997,47.852 3.445,47.852 L10.591,47.852 C11.039,47.852 11.404,48.216 11.404,48.665 C11.404,49.114 11.039,49.478 10.591,49.478 L3.445,49.478 Z M86.266,49.478 L77.039,49.478 C76.533,43.968 71.885,39.638 66.245,39.638 C60.605,39.638 55.957,43.968 55.451,49.478 L39.534,49.478 C39.028,43.968 34.38,39.638 28.741,39.638 C23.102,39.638 18.454,43.968 17.949,49.478 L13.27,49.478 C13.349,49.219 13.404,48.95 13.404,48.665 C13.404,47.114 12.142,45.852 10.591,45.852 L6.581,45.852 L6.581,35.64 L22.031,16.395 L86.266,16.395 L86.266,49.478 Z" id="Shape"></path>
                <path d="M32.972,36.452 L32.972,18.385 L23.055,18.385 L8.52,36.452 L32.972,36.452 Z M24.013,20.385 L30.971,20.385 L30.971,34.452 L12.696,34.452 L24.013,20.385 Z" id="Shape"></path>
                <path d="M83.598,18.385 L37.974,18.385 L37.974,35.932 L83.598,35.932 L83.598,18.385 Z M81.598,20.385 L81.598,23.115 C80.154,23.271 79.268,23.748 78.48,24.181 C77.625,24.651 76.886,25.057 75.324,25.057 C73.762,25.057 73.024,24.651 72.169,24.181 C71.212,23.655 70.126,23.057 68.051,23.057 C65.977,23.057 64.892,23.654 63.934,24.181 C63.08,24.651 62.342,25.057 60.782,25.057 C59.22,25.057 58.483,24.651 57.629,24.181 C56.671,23.655 55.586,23.057 53.512,23.057 C51.438,23.057 50.353,23.654 49.395,24.181 C48.541,24.651 47.803,25.057 46.243,25.057 C44.683,25.057 43.946,24.651 43.092,24.181 C42.304,23.747 41.419,23.271 39.976,23.115 L39.976,20.385 L81.598,20.385 Z M39.974,33.932 L39.974,25.125 C40.896,25.259 41.478,25.577 42.125,25.934 C43.082,26.461 44.167,27.058 46.241,27.058 C48.315,27.058 49.4,26.461 50.358,25.934 C51.212,25.464 51.95,25.058 53.51,25.058 C55.07,25.058 55.808,25.464 56.662,25.934 C57.62,26.461 58.705,27.058 60.78,27.058 C62.854,27.058 63.939,26.461 64.897,25.934 C65.751,25.464 66.489,25.058 68.049,25.058 C69.611,25.058 70.349,25.464 71.204,25.934 C72.161,26.46 73.247,27.058 75.322,27.058 C77.398,27.058 78.483,26.461 79.441,25.934 C80.089,25.578 80.672,25.259 81.596,25.125 L81.596,33.932 L39.974,33.932 Z" id="Shape"></path>
                <path d="M8.433,59.5 L39.928,59.5 L39.928,57.5 L30.909,57.5 C33.906,56.572 36.09,53.775 36.09,50.478 C36.09,46.426 32.793,43.129 28.74,43.129 C24.688,43.129 21.391,46.426 21.391,50.478 C21.391,53.776 23.575,56.573 26.572,57.5 L8.433,57.5 L8.433,59.5 Z M23.391,50.478 C23.391,47.529 25.79,45.129 28.74,45.129 C31.69,45.129 34.09,47.528 34.09,50.478 C34.09,53.428 31.69,55.828 28.74,55.828 C25.79,55.828 23.391,53.428 23.391,50.478 Z" id="Shape"></path>
                <rect id="Rectangle-path" x="44.461" y="57.5" width="6.438" height="2"></rect>
                <path d="M57.523,59.5 L78.6,59.5 L78.6,57.5 L68.413,57.5 C71.411,56.572 73.595,53.775 73.595,50.478 C73.595,46.426 70.298,43.129 66.245,43.129 C62.193,43.129 58.896,46.426 58.896,50.478 C58.896,53.776 61.08,56.573 64.077,57.5 L57.523,57.5 L57.523,59.5 L57.523,59.5 Z M60.896,50.478 C60.896,47.529 63.295,45.129 66.245,45.129 C69.195,45.129 71.595,47.528 71.595,50.478 C71.595,53.428 69.196,55.828 66.245,55.828 C63.296,55.827 60.896,53.428 60.896,50.478 Z" id="Shape"></path>
                <rect id="Rectangle-path" x="3.433" y="62.5" width="41.98" height="2"></rect>
                <rect id="Rectangle-path" x="49.07" y="62.5" width="3.931" height="2"></rect>
                <rect id="Rectangle-path" x="57.523" y="62.5" width="29.477" height="2"></rect>
                <rect id="Rectangle-path" x="19.333" y="67.167" width="49.34" height="2"></rect>
            </g>
        </g>
    </g>
</svg>