<?xml version="1.0" encoding="UTF-8"?>
<svg width="69px" height="68px" viewBox="0 0 69 68" version="1.1" xmlns="http://www.w3.org/2000/svg" xmlns:xlink="http://www.w3.org/1999/xlink">
    <!-- Generator: sketchtool 46.2 (44496) - http://www.bohemiancoding.com/sketch -->
    <title>0B579AE0-D7B6-4ACA-B371-0EB8403CD6E9</title>
    <desc>Created with sketchtool.</desc>
    <defs>
        <linearGradient x1="0%" y1="12.7412903%" x2="100%" y2="12.74129%" id="linearGradient-1">
            <stop stop-color="#990B9B" offset="0%"></stop>
            <stop stop-color="#B71A85" offset="100%"></stop>
        </linearGradient>
    </defs>
    <g id="Page-1" stroke="none" stroke-width="1" fill="none" fill-rule="evenodd">
        <g id="1.3---Login" transform="translate(-766.000000, -160.000000)" fill-rule="nonzero" fill="url(#linearGradient-1)">
            <g id="icon-mail" transform="translate(766.000000, 160.000000)">
                <path d="M4.18246154,65.5928 L2.98443956,63.6956 L27.4066484,48.3804889 L0.50878022,30.8599111 L1.74016484,28.9831111 L30.1044725,47.4617333 C30.4252088,47.6710222 30.617044,48.0291556 30.614011,48.4099556 C30.6102198,48.7922667 30.4123187,49.1458667 30.0877912,49.3491111 L4.18246154,65.5928 Z" id="Shape"></path>
                <path d="M64.0577802,65.5928 L38.1524505,49.3483556 C37.8279231,49.1443556 37.6292637,48.7915111 37.6262308,48.4092 C37.6224396,48.0284 37.8142747,47.6702667 38.135011,47.4609778 L66.5000769,28.9823556 L67.7314615,30.8591556 L40.8335934,48.3804889 L65.2558022,63.6956 L64.0577802,65.5928 Z" id="Shape"></path>
                <path d="M38.7507033,49.1481333 L29.4902967,49.1481333 C29.0762967,49.1481333 28.7396374,48.8126667 28.7396374,48.4008889 C28.7396374,47.9876 29.0755385,47.6521333 29.4902967,47.6521333 L38.7514615,47.6521333 C39.1654615,47.6521333 39.5013626,47.9876 39.5013626,48.4008889 C39.5006044,48.8119111 39.1647033,49.1481333 38.7507033,49.1481333 Z" id="Shape"></path>
                <path d="M54.1498352,15.5221333 L41.240011,15.5221333 C40.619011,15.5221333 40.1155385,15.0196889 40.1155385,14.4008889 L40.1155385,1.12124444 L42.3652418,1.12124444 L42.3652418,13.2796444 L54.1490769,13.2796444 L54.1490769,15.5221333 L54.1498352,15.5221333 Z" id="Shape"></path>
                <path d="M58.7804176,68 L9.46058242,68 C4.24387912,68 0,64.0529778 0,59.2000444 L0,29.9215111 C0,29.5104889 0.225956044,29.1312 0.589153846,28.9355111 C0.95310989,28.7398222 1.39516484,28.7587111 1.74092308,28.9831111 L29.8254396,47.2788889 L38.4170769,47.2788889 L66.5015934,28.9831111 C66.8481099,28.7587111 67.2886484,28.7398222 67.6526044,28.9355111 C68.0158022,29.1312 68.2425165,29.5104889 68.2425165,29.9215111 L68.2425165,59.2000444 C68.241,64.0529778 63.9971209,68 58.7804176,68 Z M2.24894505,31.9932444 L2.24894505,59.2000444 C2.24894505,62.8161333 5.4836044,65.7590222 9.45982418,65.7590222 L58.7804176,65.7590222 C62.7558791,65.7590222 65.9905385,62.8161333 65.9905385,59.2000444 L65.9905385,31.9932444 L39.3663956,49.3385333 C39.1829011,49.4579111 38.9690769,49.5213778 38.7507033,49.5213778 L29.4902967,49.5213778 C29.2719231,49.5213778 29.0573407,49.4579111 28.8746044,49.3385333 L2.24894505,31.9932444 Z" id="Shape"></path>
                <path d="M14.0911648,39.4898667 C13.8765824,39.4898667 13.6612418,39.4279111 13.4754725,39.3070222 L0.50878022,30.8599111 C0.212307692,30.6664889 0.0242637363,30.3453778 0.00227472528,29.9932889 C-0.0204725275,29.6412 0.124351648,29.2989333 0.394285714,29.0692444 L13.3602198,18.0245333 C13.6930879,17.7404444 14.1631978,17.6762222 14.562033,17.8590667 C14.9601099,18.0411556 15.2163956,18.4393333 15.2163956,18.8768 L15.2163956,38.3693778 C15.2163956,38.7804 14.9904396,39.1596889 14.6264835,39.3546222 C14.4589121,39.4437778 14.2754176,39.4898667 14.0911648,39.4898667 Z M2.99657143,29.8013778 L12.9659341,36.2961333 L12.9659341,21.3089333 L2.99657143,29.8013778 Z" id="Shape"></path>
                <path d="M54.1505934,39.4898667 C53.9655824,39.4898667 53.7820879,39.4437778 53.6145165,39.3538667 C53.2513187,39.1589333 53.0246044,38.7796444 53.0246044,38.3686222 L53.0246044,18.8760444 C53.0246044,18.4385778 53.2801319,18.0411556 53.678967,17.8583111 C54.0778022,17.6747111 54.5471538,17.7396889 54.8807802,18.0237778 L67.8474725,29.0692444 C68.1158901,29.2989333 68.2614725,29.6412 68.2394835,29.9932889 C68.2167363,30.3461333 68.0279341,30.6672444 67.7322198,30.8599111 L54.7655275,39.3070222 C54.579,39.4279111 54.3651758,39.4898667 54.1505934,39.4898667 Z M55.2743077,21.3089333 L55.2743077,36.2961333 L65.2444286,29.8013778 L55.2743077,21.3089333 Z" id="Shape"></path>
                <path d="M38.7507033,49.5213778 L29.4902967,49.5213778 C29.2719231,49.5213778 29.0573407,49.4579111 28.8746044,49.3385333 L13.4754725,39.3062667 C13.1577692,39.1 12.9659341,38.7471556 12.9659341,38.3686222 L12.9659341,1.12124444 C12.9659341,0.502444444 13.4701648,0 14.0911648,0 L41.240011,0 C41.5455824,0 41.8367473,0.123911111 42.0482967,0.341511111 L54.9573626,13.6204 C55.1605714,13.8296889 55.2735495,14.1092444 55.2735495,14.4001333 L55.2735495,38.3686222 C55.2735495,38.7471556 55.0824725,39.1 54.7647692,39.3062667 L39.3663956,49.3385333 C39.1836593,49.4579111 38.9698352,49.5213778 38.7507033,49.5213778 Z M29.8246813,47.2781333 L38.4163187,47.2781333 L53.0253626,37.7619111 L53.0253626,14.8542222 L40.7638352,2.24248889 L15.2163956,2.24248889 L15.2163956,37.7626667 L29.8246813,47.2781333 Z" id="Shape"></path>
                <rect id="Rectangle-path" x="18.4662198" y="8.96768889" width="14.9047582" height="2.24173333"></rect>
                <rect id="Rectangle-path" x="18.4662198" y="20.1756" width="31.3085604" height="2.24248889"></rect>
                <rect id="Rectangle-path" x="18.4662198" y="24.4112444" width="31.3085604" height="2.24173333"></rect>
                <rect id="Rectangle-path" x="18.4662198" y="28.6453778" width="31.3085604" height="2.24173333"></rect>
                <rect id="Rectangle-path" x="18.4662198" y="32.8802667" width="31.3085604" height="2.24097778"></rect>
            </g>
        </g>
    </g>
</svg>