<svg xmlns="http://www.w3.org/2000/svg" width="21" height="20" viewBox="0 0 21 20">
    <g fill="none" fill-rule="evenodd">
        <path fill="#D8D8D8" fill-opacity="0" d="M-2-2h24v24H-2z"/>
        <path fill="#FFF" fill-rule="nonzero" d="M20.968 9h-1.011l.032-4.097c0-1.059-.908-1.92-2.023-1.92L16.304 3l-1.6-2.302a1 1 0 0 0-1.254-.33L7.957 3l-5.804-.017c-1.115 0-2.023.861-2.023 1.92V18.08C.13 19.139 1.038 20 2.153 20h15.813c1.115 0 2.023-.86 2.023-1.92L19.957 15h1.011V9zm-3.237-5c.614 0 1.115.439 1.182 1h-1.497l-.59-1h.905zM14.2 1.412L16.304 5H6.391l7.143-3.776a.5.5 0 0 1 .665.188zm4.714 16.472c0 .615-.53 1.116-1.18 1.116H2.354c-.65 0-1.18-.5-1.18-1.116V5.116C1.174 4.5 1.704 4 2.354 4h4.43l-1.887.992L2.739 5c-.217 0-.522.243-.522.5s.305.5.522.5h16.174v3h-2.609c-1.296 0-2.608 1.5-2.608 3s1.272 3 2.608 3h2.609v2.884zM19.957 14h-3.13c-.857 0-2.088-.667-2.088-2s1.23-2 2.087-2h3.13v4zm-2.087-2c0 .553-.467 1-1.044 1s-1.043-.447-1.043-1c0-.553.467-1 1.043-1 .577 0 1.044.448 1.044 1z"/>
    </g>
</svg>
