<?xml version="1.0" encoding="UTF-8"?>
<svg width="20px" height="20px" viewBox="0 0 20 20" version="1.1" xmlns="http://www.w3.org/2000/svg" xmlns:xlink="http://www.w3.org/1999/xlink"> 
    <g stroke-width="1" fill-rule="evenodd">
        <g transform="translate(-718.000000, -2465.000000)" fill-rule="nonzero">
            <path d="M726.75,2466.25 C726.75,2465.55906 727.309687,2465 728,2465 L736.75,2465 C737.440313,2465 738,2465.55906 738,2466.25 L738,2483.75 C738,2484.44094 737.440313,2485 736.75,2485 L728,2485 C727.309687,2485 726.75,2484.44094 726.75,2483.75 C726.75,2483.05906 727.309687,2482.5 728,2482.5 L735.5,2482.5 L735.5,2467.5 L728,2467.5 C727.309687,2467.5 726.75,2466.94094 726.75,2466.25 Z M730.5,2476.25 L723,2476.25 L723,2480 L718,2475 L723,2470 L723,2473.75 L730.5,2473.75 C731.190313,2473.75 731.75,2474.30906 731.75,2475 C731.75,2475.69094 731.190313,2476.25 730.5,2476.25 Z" id="icon-logout-menu"></path>
        </g>
    </g>
</svg>