<?xml version="1.0" encoding="utf-8"?>
<svg version="1.1" id="Layer_1" xmlns="http://www.w3.org/2000/svg" xmlns:xlink="http://www.w3.org/1999/xlink" x="0px" y="0px"
	 viewBox="0 0 437 108" style="enable-background:new 0 0 437 108;" width="437" height="108" xml:space="preserve">
<style type="text/css">
	.st0{fill:#FFFFFF;}
	.st1{fill:#AF8DBA;}
	.st2{fill:#7F4992;}
</style>
<g>
	<path class="st0" d="M197.4,48.6c1.2,1.1,1.7,2.6,1.7,4.4c0,1.1-0.2,2.1-0.7,3.2c-0.5,1-1.2,1.9-2.1,2.6c-0.9,0.7-2,1-3.3,1
		s-2.4-0.4-3.2-1.2c-0.9-0.8-1.3-1.9-1.3-3.3c0-1.3,0.5-2.7,1.4-3.9c0.9-1.3,2.1-2.2,3.7-2.9c-0.3-0.2-0.7-0.2-1.1-0.2
		c-0.8,0-1.4,0.2-1.9,0.4c-0.5,0.2-1,0.6-1.5,1.1c-0.7,0.8-1.3,1.8-1.8,3.1c-0.5,1.2-1.1,2.9-1.8,5.1c-0.8,2.5-1.5,4.5-2.2,6.1
		c-0.7,1.6-1.6,3-2.8,4.3c-1.2,1.3-2.6,2.1-4.4,2.5c2.4,0.3,4.2,0.7,5.6,1.4s2.4,1.6,3,2.9c0.6,1.2,1,2.8,1,4.8c0,0.9,0,1.7-0.1,2.6
		l-0.8,7.1c0,0.1,0,0.3,0,0.5c0,1.3,0.6,2,1.7,2c0.8,0,1.5-0.3,2.1-1c0.6-0.7,1.1-1.7,1.6-3.1l1.2-3.5h1.4l-1.7,5.2
		c-0.8,2.4-2,4.3-3.6,5.5s-3.4,1.8-5.5,1.8c-2.5,0-4.4-0.6-5.8-1.9c-1.4-1.3-2-3-2-5.1c0-0.3,0-0.8,0.1-1.6l1.3-9.5
		c0.1-0.9,0.2-1.8,0.2-2.8c0-1.2-0.1-2.1-0.4-2.8s-0.7-1.3-1.3-1.7c-1.8,0.5-3.2,0.7-4.1,0.7c-1.1,0-1.7-0.4-1.7-1.1
		c0-0.2,0-0.3,0-0.3c0.1-0.5,0.2-0.8,0.5-1c0.3-0.2,0.8-0.3,1.4-0.3c0.9,0,2.3,0.2,3.9,0.7c2-0.3,3.7-1.1,4.9-2.3
		c1.3-1.2,2.3-2.7,3-4.3c0.7-1.6,1.4-3.7,2.2-6.2c0.7-2.3,1.3-4.1,1.8-5.3s1.2-2.4,2-3.2c1.3-1.3,3-2,4.8-2
		C194.7,46.9,196.3,47.5,197.4,48.6z M161.3,92.1c0,0.7,0.1,1.2,0.4,1.5c0.3,0.4,0.8,0.6,1.4,0.7s1.5,0.2,2.7,0.3l-0.3,1.4
		c-2.5-0.1-6-0.2-10.6-0.2c-4.9,0-8.6,0.1-11,0.2l0.3-1.4c1.6-0.1,2.7-0.2,3.5-0.5c0.8-0.3,1.4-0.8,1.9-1.6s0.9-2,1.4-3.7l8.9-33.7
		c0.4-1.4,0.6-2.5,0.6-3.3c0-0.7-0.2-1.2-0.5-1.6c-0.3-0.4-0.8-0.6-1.4-0.7c-0.6-0.1-1.5-0.2-2.7-0.3l0.3-1.4c2.3,0.1,6,0.2,11,0.2
		c4.3,0,7.9-0.1,10.6-0.2l-0.3,1.4c-1.6,0.1-2.9,0.2-3.7,0.5c-0.8,0.3-1.4,0.8-1.9,1.6c-0.5,0.8-0.9,2-1.4,3.7l-8.9,33.7
		C161.5,90.3,161.3,91.4,161.3,92.1z M208.6,46.4c0.6-1,1.4-1.7,2.5-2.2c1.1-0.5,2.2-0.8,3.5-0.8c1.6,0,2.8,0.4,3.7,1.1
		c0.9,0.8,1.3,1.8,1.3,3.1c0,1.2-0.3,2.3-0.9,3.2c-0.6,1-1.5,1.7-2.5,2.2c-1.1,0.5-2.2,0.8-3.5,0.8c-1.6,0-2.8-0.4-3.6-1.1
		s-1.3-1.7-1.3-3C207.7,48.5,208,47.4,208.6,46.4z M205.6,64.6c0-0.9-0.4-1.4-1.2-1.4c-0.8,0-1.6,0.4-2.3,1.2
		c-0.7,0.8-1.4,2.2-2.1,4.1l-1.3,3.5h-1.3l1.8-5.2c1.6-4.6,4.7-7,9.4-7c2.1,0,3.6,0.5,4.5,1.5c0.9,1,1.4,2.3,1.4,4
		c0,1.2-0.2,2.5-0.7,4l-7.1,20.8c-0.3,0.8-0.4,1.5-0.4,2c0,0.9,0.5,1.4,1.4,1.4c0.7,0,1.4-0.4,2.1-1.2s1.4-2.2,2.2-4.2l1.2-3.3h1.3
		l-1.7,5c-0.9,2.5-2.2,4.3-3.8,5.4c-1.6,1.1-3.4,1.6-5.4,1.6c-2,0-3.6-0.5-4.6-1.4c-1-1-1.5-2.4-1.5-4.2c0-1.4,0.3-3.2,1-5.2
		l6.6-19.5C205.4,65.9,205.6,65.2,205.6,64.6z M252.7,85l-1.6,5c-0.8,2.6-2.1,4.4-3.7,5.4s-3.4,1.6-5.3,1.6c-2.8,0-4.6-1-5.3-3.1
		c-0.4-0.7-0.5-1.6-0.5-2.8c0-1.4,0.3-3.1,0.8-4.9l0.1-0.3c-1.7,3.9-3.6,6.7-5.5,8.5c-1.9,1.8-4.2,2.7-6.9,2.7
		c-2.4,0-4.3-0.8-5.8-2.4c-1.5-1.6-2.2-4-2.2-7.2c0-3.7,0.9-7.6,2.8-12c1.9-4.3,4.5-8,7.9-11c3.4-3,7.3-4.5,11.7-4.5
		c2.1,0,3.5,0.8,4.1,2.3l3-11.6c0.2-0.8,0.3-1.4,0.3-1.9c0-0.9-0.4-1.6-1.1-2c-0.7-0.4-1.9-0.6-3.6-0.6l0.5-1.4
		c3.1,0,5.9-0.3,8.4-0.7c2.5-0.5,4.9-1.2,7.3-2.1l-13.2,48.3c-0.2,0.7-0.4,1.3-0.4,1.8c0,1,0.4,1.6,1.3,1.6c1.5,0,2.8-1.8,4.1-5.3
		l1.2-3.3H252.7z M242,62.1c-0.4-0.4-1-0.6-1.7-0.6c-1.9,0-4,1.4-6.1,4.2c-2.1,2.8-3.9,6.3-5.3,10.6s-2.1,8.5-2.1,12.6
		c0,1.6,0.2,2.8,0.5,3.5c0.3,0.8,0.9,1.1,1.7,1.1c0.9,0,1.9-0.7,3.2-2c1.2-1.3,2.5-3.3,3.8-5.8c1.3-2.6,2.5-5.6,3.6-9l3.4-12.8
		C242.7,63.1,242.4,62.5,242,62.1z M289.3,85l-1.7,5c-0.9,2.6-2.1,4.4-3.7,5.4c-1.6,1.1-3.3,1.6-5.2,1.6c-2.4,0-4-0.7-5-2.2
		c-0.6-0.9-0.9-2-0.9-3.4c0-1.1,0.2-2.4,0.6-4.1c-1.5,3.4-3.2,5.9-5.1,7.4s-4,2.3-6.2,2.3c-2.5,0-4.4-0.7-5.7-2.2
		c-1.3-1.5-1.9-3.5-1.9-6.2c0-4,1.1-8.3,3.2-12.8c2.1-4.5,4.9-8.3,8.1-11.3c3.3-3,6.5-4.5,9.6-4.5c1.2,0,2.2,0.4,2.9,1.1
		s1.2,1.8,1.3,3.3l1-3.4c3.7-0.1,7-0.4,9.8-1l-8.8,30.3c-0.2,0.8-0.3,1.5-0.3,2c0,1,0.4,1.5,1.2,1.5c1.6,0,3-1.8,4.2-5.3l1.2-3.3
		H289.3z M279.2,66c0-1.1-0.2-2-0.6-2.6c-0.4-0.6-1-0.9-1.7-0.9c-1.5,0-3.3,1.4-5.2,4.2c-1.9,2.8-3.6,6.3-5,10.4
		c-1.4,4.2-2.1,8.2-2.1,12.1c0,1.5,0.1,2.6,0.4,3.3c0.3,0.7,0.8,1,1.4,1c1,0,2-0.7,3.2-2.1c1.2-1.4,2.4-3.4,3.6-6
		c1.2-2.6,2.2-5.7,3.2-9.3l-0.3,1.7l2.9-10.6C279.1,66.6,279.2,66.2,279.2,66z M363,91.9c0,1.2,0.5,1.7,1.4,1.7
		c1.5,0,2.8-1.8,4.1-5.3l1.2-3.3h1.3l-1.7,5c-0.9,2.6-2.1,4.4-3.7,5.4c-1.6,1.1-3.4,1.6-5.3,1.6c-2,0-3.6-0.5-4.6-1.6
		s-1.5-2.5-1.5-4.5c0-1.4,0.3-3,0.8-4.8l10.6-35.5c0.2-0.8,0.3-1.4,0.3-1.9c0-0.9-0.4-1.6-1.1-2c-0.7-0.4-1.9-0.6-3.5-0.6l0.5-1.4
		c3.1,0,5.9-0.3,8.3-0.7c2.5-0.5,4.9-1.2,7.3-2.1l-14.2,48.3C363.1,90.9,363,91.4,363,91.9z M400.8,72c-2.1,2.2-4.7,4-7.9,5.5
		s-6.4,2.8-9.9,3.7c-0.3,1.6-0.4,3.2-0.4,4.7c0,2.4,0.4,4.1,1.3,5.1c0.9,1,2.2,1.5,3.9,1.5c1.4,0,3-0.4,4.7-1.3
		c1.8-0.9,3.5-2.3,5.1-4.2l1.1,0.5c-1,1.6-2.3,3.1-3.8,4.5c-1.5,1.4-3.3,2.5-5.4,3.4c-2,0.9-4.2,1.3-6.5,1.3c-2,0-3.8-0.4-5.4-1.1
		c-1.6-0.7-2.9-1.8-3.8-3.3c-0.9-1.4-1.4-3.2-1.4-5.2c0-4,1.1-8.2,3.2-12.5c2.2-4.3,5.1-7.9,8.9-10.7c3.7-2.8,7.8-4.3,12.3-4.3
		c2.1,0,3.8,0.5,5.1,1.4s1.9,2.3,1.9,4C404,67.4,402.9,69.8,400.8,72z M391.8,64.2c-1.6,1.8-3.2,4.3-4.6,7.2c-1.4,3-2.4,6-3.1,9.2
		c3.2-1.4,5.7-2.9,7.4-4.5c1.8-1.7,3.2-3.5,4.3-5.6c1-2.1,1.5-4.3,1.5-6.7c0-1.5-0.4-2.3-1.1-2.3C395,61.4,393.5,62.3,391.8,64.2z
		 M435.5,61c1,1,1.5,2.3,1.5,3.9c0,1.3-0.3,2.4-0.9,3.5c-0.6,1.1-1.4,1.9-2.3,2.6c-1,0.6-2.1,1-3.3,1c-1.3,0-2.3-0.3-3-1
		c-0.7-0.7-1.1-1.7-1.1-3c0-1.1,0.3-2.1,0.8-3s1.2-1.7,2-2.4c0.9-0.7,1.8-1.1,2.8-1.4c-0.3-0.2-0.5-0.2-0.9-0.2
		c-2.3,0-4.6,1.6-6.9,4.9c-2.3,3.3-4.7,9.1-7.2,17.4l-3.2,12.3h-9.5l8.2-29.4c0.2-0.9,0.4-1.6,0.4-2.1c0-0.9-0.4-1.3-1.1-1.3
		c-0.8,0-1.6,0.4-2.3,1.2c-0.7,0.8-1.4,2.2-2.1,4.1l-1.3,3.5h-1.3l1.8-5.2c1.6-4.6,4.7-7,9.3-7c3.5,0,5.2,1.8,5.2,5.5
		c0,1.2-0.2,2.5-0.5,4l-0.5,2.1c1.1-2.9,2.2-5.2,3.4-6.9s2.3-2.9,3.6-3.6s2.7-1.1,4.3-1.1C433.2,59.5,434.5,60,435.5,61z
		 M335.5,94.6c2.9,0,7.3-1,9.2-2.9c2-1.9,3.1-5,3.5-9.3h1.4c0,6.5,0.1,10.9,0.3,13.4c-3.6-0.2-9.9-0.3-14.9-0.3
		c-4.4,0-9.1,0.1-14,0.3l25.6-34.5h-3.8c-6.4,0-11.8,4.1-12.4,12.2h-1.4c0-6.4-0.1-10.9-0.3-13.5c3.5,0.2,9.7,0.3,14.9,0.3
		c3.9,0,8.6-0.1,14-0.4L332,94.6H335.5z M302.7,94.6c2.9,0,7.3-1,9.2-2.9c2-1.9,3.1-5,3.5-9.3h1.4c0,6.5,0.1,10.9,0.3,13.4
		c-3.6-0.2-9.9-0.3-14.9-0.3c-4.4,0-9.1,0.1-14,0.3l25.6-34.5H310c-6.4,0-11.8,4.1-12.4,12.2h-1.4c0-6.4-0.1-10.9-0.3-13.5
		c3.5,0.2,9.7,0.3,14.9,0.3c3.9,0,8.6-0.1,14-0.4l-25.6,34.5H302.7z"/>
	<polygon class="st0" points="64.4,0 61.9,7.4 54,7.4 60.4,12.1 58,19.5 64.4,14.9 70.8,19.5 68.3,12.1 74.7,7.4 66.8,7.4 	"/>
	<polygon class="st0" points="44.2,11 42.5,16.2 37,16.2 41.4,19.3 39.7,24.5 44.2,21.3 48.6,24.5 46.9,19.3 51.3,16.2 45.9,16.2
		"/>
	<polygon class="st0" points="84.2,11 82.5,16.2 77,16.2 81.4,19.3 79.7,24.5 84.2,21.3 88.6,24.5 86.9,19.3 91.3,16.2 85.9,16.2
		"/>
	<polygon class="st1" points="115,33 102,33 82,70.5 102,108 115,108 95,70.5 	"/>
	<polygon class="st2" points="129,33 116,33 96,70.5 116,108 129,108 109,70.5 	"/>
	<polygon class="st1" points="27,33 14,33 34,70.5 14,108 27,108 47,70.5 	"/>
	<polygon class="st2" points="13,33 0,33 20,70.5 0,108 13,108 33,70.5 	"/>
	<g transform="translate(28 33)">
		<g>
			<polygon class="st0" points="0,0 20,37.5 0,75 13,75 33,37.5 13,0 			"/>
			<polygon class="st0" points="73,0 60,0 40,37.5 60,75 73,75 53,37.5 			"/>
		</g>
		<rect x="30" class="st0" width="13" height="75"/>
	</g>
</g>
</svg>
