<svg width="69" height="74" viewBox="0 0 69 74" fill="none" xmlns="http://www.w3.org/2000/svg">
<g filter="url(#filter0_d)">
<path fill-rule="evenodd" clip-rule="evenodd" d="M23.9844 34.4906C18.2332 32.9464 14 27.7047 14 21.4761C14 14.0334 20.0442 8 27.5 8C34.9558 8 41 14.0334 41 21.4761C41 27.7047 36.7668 32.9464 31.0156 34.4906L27.5 38L23.9844 34.4906Z" fill="#BD10E0"/>
<path d="M26.4422 39.0597L27.5 40.1157L28.5578 39.0597L31.7983 35.825C37.984 33.9803 42.4973 28.2574 42.4973 21.4761C42.4973 13.204 35.7803 6.50266 27.5 6.50266C19.2197 6.50266 12.5027 13.204 12.5027 21.4761C12.5027 28.2574 17.016 33.9803 23.2017 35.825L26.4422 39.0597Z" stroke="white" stroke-width="2.99468"/>
</g>
<defs>
<filter id="filter0_d" x="0.00537109" y="0.00488281" width="68.9894" height="73.226" filterUnits="userSpaceOnUse" color-interpolation-filters="sRGB">
<feFlood flood-opacity="0" result="BackgroundImageFix"/>
<feColorMatrix in="SourceAlpha" type="matrix" values="0 0 0 0 0 0 0 0 0 0 0 0 0 0 0 0 0 0 127 0"/>
<feOffset dx="7" dy="13"/>
<feGaussianBlur stdDeviation="9"/>
<feColorMatrix type="matrix" values="0 0 0 0 0.141176 0 0 0 0 0.141176 0 0 0 0 0.141176 0 0 0 0.3 0"/>
<feBlend mode="normal" in2="BackgroundImageFix" result="effect1_dropShadow"/>
<feBlend mode="normal" in="SourceGraphic" in2="effect1_dropShadow" result="shape"/>
</filter>
</defs>
</svg>
