<?xml version="1.0" encoding="UTF-8"?>
<svg fill="#BD10E0" width="13px" height="13px" viewBox="0 0 13 13" version="1.1" xmlns="http://www.w3.org/2000/svg" xmlns:xlink="http://www.w3.org/1999/xlink">
    <g id="Page-1" stroke="none" stroke-width="1">
        <g id="3.4---Dashboard" transform="translate(-696.000000, -1157.000000)">
            <g id="Group-30-Copy-4" transform="translate(696.000000, 1153.000000)">
                <path d="M12.6542559,6.14539759 L10.8546031,4.34574418 C10.3934717,3.88475194 9.64597778,3.88475194 9.18484643,4.34574418 L1.27534856,12.2481593 C1.21865009,12.304573 1.17720527,12.3744604 1.15489935,12.4512697 L0.0188980145,16.395392 C-0.0227311418,16.5381206 0.00526865208,16.6921195 0.094473987,16.81106 C0.183679322,16.9300005 0.323678291,17 0.47235385,17 C0.517112341,17 0.56164365,16.9936384 0.604611802,16.981106 L4.55109462,15.8356573 C4.62790395,15.8133514 4.6977913,15.7719066 4.75420504,15.7152081 L12.6542559,7.81515475 C13.115248,7.35402326 13.115248,6.60652907 12.6542559,6.14539759 Z M1.1667081,15.8285721 L1.89648858,13.3109467 L3.68197093,15.0964296 L1.1667081,15.8285721 Z" id="icon-edit"></path>
            </g>
        </g>
    </g>
</svg>
