<?xml version="1.0" encoding="UTF-8"?>
<svg width="20px" height="20px" viewBox="0 0 20 20" version="1.1" xmlns="http://www.w3.org/2000/svg" xmlns:xlink="http://www.w3.org/1999/xlink"> 
    <g stroke="none" stroke-width="1" fill-rule="evenodd">
        <g id="Web-GUI" transform="translate(-719.000000, -2409.000000)">
            <path d="M736.159332,2419.98 C736.199332,2419.66 736.229332,2419.34 736.229332,2419 C736.229332,2418.66 736.199332,2418.34 736.159332,2418.02 L738.269332,2416.37 C738.459332,2416.22 738.509332,2415.95 738.389332,2415.73 L736.389332,2412.27 C736.269332,2412.05 735.999332,2411.97 735.779332,2412.05 L733.289332,2413.05 C732.769332,2412.65 732.209332,2412.32 731.599332,2412.07 L731.219332,2409.42 C731.189332,2409.18 730.979332,2409 730.729332,2409 L726.729332,2409 C726.479332,2409 726.269332,2409.18 726.239332,2409.42 L725.859332,2412.07 C725.249332,2412.32 724.689332,2412.66 724.169332,2413.05 L721.679332,2412.05 C721.449332,2411.96 721.189332,2412.05 721.069332,2412.27 L719.069332,2415.73 C718.939332,2415.95 718.999332,2416.22 719.189332,2416.37 L721.299332,2418.02 C721.259332,2418.34 721.229332,2418.67 721.229332,2419 C721.229332,2419.33 721.259332,2419.66 721.299332,2419.98 L719.189332,2421.63 C718.999332,2421.78 718.949332,2422.05 719.069332,2422.27 L721.069332,2425.73 C721.189332,2425.95 721.459332,2426.03 721.679332,2425.95 L724.169332,2424.95 C724.689332,2425.35 725.249332,2425.68 725.859332,2425.93 L726.239332,2428.58 C726.269332,2428.82 726.479332,2429 726.729332,2429 L730.729332,2429 C730.979332,2429 731.189332,2428.82 731.219332,2428.58 L731.599332,2425.93 C732.209332,2425.68 732.769332,2425.34 733.289332,2424.95 L735.779332,2425.95 C736.009332,2426.04 736.269332,2425.95 736.389332,2425.73 L738.389332,2422.27 C738.509332,2422.05 738.459332,2421.78 738.269332,2421.63 L736.159332,2419.98 L736.159332,2419.98 Z M728.729332,2422.5 C726.799332,2422.5 725.229332,2420.93 725.229332,2419 C725.229332,2417.07 726.799332,2415.5 728.729332,2415.5 C730.659332,2415.5 732.229332,2417.07 732.229332,2419 C732.229332,2420.93 730.659332,2422.5 728.729332,2422.5 L728.729332,2422.5 Z" id="icon-settings-menu"></path>
        </g>
    </g>
</svg>