<?xml version="1.0" encoding="UTF-8"?>
<svg width="12px" height="12px" viewBox="0 0 12 12" version="1.1" xmlns="http://www.w3.org/2000/svg" xmlns:xlink="http://www.w3.org/1999/xlink"> 
	<g id="3.4---Dashboard" transform="translate(-222.000000, -1402.000000)">
		<path d="M233.881601,1407.9758 L228.360857,1402.29345 C228.214171,1402.13339 227.907463,1402 227.680765,1402 L222.400054,1402 C222.186692,1402 222,1402.18674 222,1402.40016 L222,1407.76237 C222,1407.98914 222.133351,1408.29593 222.293373,1408.44266 L227.947468,1413.8849 C228.107489,1414.04496 228.374192,1414.03163 228.520878,1413.8849 L233.868266,1408.54937 C234.041622,1408.40264 234.041622,1408.13586 233.881601,1407.9758 Z M224.707031,1405.90828 C224.040275,1405.90828 223.493535,1405.36139 223.493535,1404.69444 C223.493535,1404.0275 224.040275,1403.48061 224.707031,1403.48061 C225.373788,1403.48061 225.920528,1404.0275 225.920528,1404.69444 C225.920528,1405.36139 225.373788,1405.90828 224.707031,1405.90828 Z" id="icon-category-copy-3" transform="translate(228.000000, 1408.000000) scale(-1, 1) translate(-228.000000, -1408.000000) "></path>
	</g>
</svg>