<svg width="207" height="102" viewBox="0 0 207 102" fill="none" xmlns="http://www.w3.org/2000/svg">
<rect opacity="0.01" x="0.773438" width="205.981" height="102" fill="#F4F8F9"/>
<path fill-rule="evenodd" clip-rule="evenodd" d="M1.76367 101.172C1.76367 98.9632 3.55453 97.1723 5.76367 97.1723H10.7213C12.9304 97.1723 14.7213 95.3815 14.7213 93.1723V91.9193C14.7213 89.7102 16.5121 87.9193 18.7213 87.9193H21.8278C24.0369 87.9193 25.8277 86.1284 25.8277 83.9193V80.2524C25.8277 78.0433 27.6186 76.2524 29.8277 76.2524H57.97C58.4254 76.2524 58.8039 76.6031 58.8387 77.0571L58.9299 78.2457C59.2614 82.569 62.8661 85.9078 67.202 85.9078H70.0674C73.0669 85.9078 75.4985 88.3394 75.4985 91.3389V93.5306C75.4985 95.3197 76.9488 96.77 78.7379 96.77C80.5269 96.77 81.9773 98.2204 81.9773 100.009V102H1.76367V101.172Z" fill="#F4F8F9"/>
<path fill-rule="evenodd" clip-rule="evenodd" d="M126.541 94.7355C126.541 92.5263 128.331 90.7355 130.541 90.7355H135.498C137.707 90.7355 139.498 88.9446 139.498 86.7355V85.4824C139.498 83.2733 141.289 81.4824 143.498 81.4824H147.99C149.434 81.4824 150.605 80.3116 150.605 78.8674C150.605 77.4232 151.775 76.2524 153.22 76.2524H174.726C175.181 76.2524 175.559 76.6031 175.594 77.0571L175.626 77.4765C175.991 82.2338 179.958 85.9078 184.729 85.9078H187.623C191.066 85.9078 193.858 88.6996 193.858 92.1435C193.858 95.5874 196.65 98.3793 200.094 98.3793H203.133C205.133 98.3793 206.754 100 206.754 102H126.541V94.7355Z" fill="#F4F8F9"/>
<path d="M154.78 40.6021H54.7283C52.8231 40.6021 51.2783 42.1291 51.2783 44.013V59.0268C51.2783 59.8866 51.7059 60.7036 52.4454 61.1559C55.8835 63.2583 58.1784 67.0103 58.1784 71.3011C58.1784 75.5917 55.8835 79.3438 52.4454 81.4462C51.7059 81.8985 51.2783 82.7158 51.2783 83.5753V98.5891C51.2783 100.473 52.8231 102 54.7283 102H154.78C156.685 102 158.23 100.473 158.23 98.5891V44.013C158.23 42.1291 156.685 40.6021 154.78 40.6021Z" fill="#4ABBB5"/>
<mask id="mask0" mask-type="alpha" maskUnits="userSpaceOnUse" x="51" y="40" width="108" height="63">
<path d="M154.78 40.6021H54.7283C52.8231 40.6021 51.2783 42.1291 51.2783 44.013V59.0268C51.2783 59.8866 51.7059 60.7036 52.4454 61.1559C55.8835 63.2583 58.1784 67.0103 58.1784 71.3011C58.1784 75.5917 55.8835 79.3438 52.4454 81.4462C51.7059 81.8985 51.2783 82.7158 51.2783 83.5753V98.5891C51.2783 100.473 52.8231 102 54.7283 102H154.78C156.685 102 158.23 100.473 158.23 98.5891V44.013C158.23 42.1291 156.685 40.6021 154.78 40.6021Z" fill="white"/>
</mask>
<g mask="url(#mask0)">
<path d="M151.792 97.1528H87.9244C87.074 97.1528 86.3848 96.4295 86.3848 95.5371V47.0649C86.3848 46.1726 87.074 45.4492 87.9244 45.4492H151.792C152.642 45.4492 153.331 46.1726 153.331 47.0649V95.5371C153.331 96.4295 152.642 97.1528 151.792 97.1528Z" fill="#70D5D0"/>
<path fill-rule="evenodd" clip-rule="evenodd" d="M65.1577 45.8335C65.1577 44.7289 66.0531 43.8335 67.1577 43.8335H81.119C82.2236 43.8335 83.119 44.7289 83.119 45.8335V95.1529C83.119 96.2574 82.2236 97.1529 81.119 97.1529H67.1577C66.0531 97.1529 65.1577 96.2574 65.1577 95.1529V45.8335Z" fill="#70D5D0"/>
<rect x="83.1187" y="71.301" width="3.26569" height="8.07869" rx="1.63285" fill="white"/>
<rect x="83.1187" y="59.1831" width="3.26569" height="8.07869" rx="1.63285" fill="white"/>
<rect x="83.1187" y="83.4192" width="3.26569" height="8.88656" rx="1.63285" fill="white"/>
<path d="M83.1187 97.9778C83.1187 97.076 83.8497 96.345 84.7515 96.345C85.6533 96.345 86.3843 97.076 86.3843 97.9778V102.808H83.1187V97.9778Z" fill="white"/>
<path d="M120.266 83.1483L111.365 88.6765C109.404 89.8948 106.942 88.1256 107.507 85.9033L110.071 75.8202L102.006 69.1537C100.228 67.6844 101.169 64.8215 103.48 64.6666L113.965 63.9632L117.882 54.3147C118.745 52.1884 121.787 52.1884 122.651 54.3147L126.567 63.9632L137.052 64.6666C139.363 64.8217 140.304 67.6846 138.526 69.1537L130.461 75.8202L133.025 85.9033C133.59 88.1256 131.129 89.895 129.167 88.6765L120.266 83.1483Z" fill="white"/>
<mask id="mask1" mask-type="alpha" maskUnits="userSpaceOnUse" x="101" y="52" width="39" height="38">
<path d="M120.266 83.1483L111.365 88.6765C109.404 89.8948 106.942 88.1256 107.507 85.9033L110.071 75.8202L102.006 69.1537C100.228 67.6844 101.169 64.8215 103.48 64.6666L113.965 63.9632L117.882 54.3147C118.745 52.1884 121.787 52.1884 122.651 54.3147L126.567 63.9632L137.052 64.6666C139.363 64.8217 140.304 67.6846 138.526 69.1537L130.461 75.8202L133.025 85.9033C133.59 88.1256 131.129 89.895 129.167 88.6765L120.266 83.1483Z" fill="white"/>
</mask>
<g mask="url(#mask1)">
<path d="M132.104 81.8034C121.041 81.1416 111.35 73.636 107.065 64.1997L103.529 64.4342C101.232 64.5867 99.721 67.8367 101.488 69.2814L110.019 76.0407L107.469 85.9562C106.908 88.1415 109.355 89.8813 111.305 88.6833L120.154 83.247L129.003 88.6833C130.953 89.8813 133.776 88.3076 133.214 86.1224L132.104 81.8034Z" fill="#DDF8F7"/>
</g>
<g opacity="0.3">
<path fill-rule="evenodd" clip-rule="evenodd" d="M70.8723 74.5326C89.81 74.5326 105.162 59.3414 105.162 40.6021C105.162 21.8628 89.81 6.67163 70.8723 6.67163C51.9346 6.67163 36.5825 21.8628 36.5825 40.6021C36.5825 59.3414 51.9346 74.5326 70.8723 74.5326Z" fill="#4ABBB5" style="mix-blend-mode:multiply"/>
</g>
</g>
<path fill-rule="evenodd" clip-rule="evenodd" d="M123.47 19.8058C128.885 19.8058 133.274 15.5938 133.274 10.398C133.274 5.20224 128.885 0.990234 123.47 0.990234C118.056 0.990234 113.667 5.20224 113.667 10.398C113.667 15.5938 118.056 19.8058 123.47 19.8058Z" fill="#DDF8F7"/>
<path fill-rule="evenodd" clip-rule="evenodd" d="M134.908 19.8057C138.969 19.8057 142.261 16.6467 142.261 12.7499C142.261 8.85309 138.969 5.69409 134.908 5.69409C130.847 5.69409 127.555 8.85309 127.555 12.7499C127.555 16.6467 130.847 19.8057 134.908 19.8057Z" fill="#DDF8F7"/>
<path fill-rule="evenodd" clip-rule="evenodd" d="M124.288 19.8057H146.346C142.356 18.8485 139.276 15.6749 138.439 11.6578L138.176 10.3979H124.288V19.8057Z" fill="#DDF8F7"/>
<path fill-rule="evenodd" clip-rule="evenodd" d="M191.299 29.7086C195.342 29.7086 198.62 26.3834 198.62 22.2814C198.62 18.1795 195.342 14.8542 191.299 14.8542C187.255 14.8542 183.978 18.1795 183.978 22.2814C183.978 26.3834 187.255 29.7086 191.299 29.7086Z" fill="#DDF8F7"/>
<path fill-rule="evenodd" clip-rule="evenodd" d="M198.619 29.7086C201.315 29.7086 203.5 27.4917 203.5 24.7571C203.5 22.0225 201.315 19.8057 198.619 19.8057C195.924 19.8057 193.739 22.0225 193.739 24.7571C193.739 27.4917 195.924 29.7086 198.619 29.7086Z" fill="#DDF8F7"/>
<path fill-rule="evenodd" clip-rule="evenodd" d="M191.299 29.7085H206.754L205.36 29.237C203.128 28.4822 201.288 26.8703 200.247 24.7571H191.299V29.7085Z" fill="#DDF8F7"/>
<path fill-rule="evenodd" clip-rule="evenodd" d="M70.5889 68.3301C89.4577 68.3301 104.754 53.0339 104.754 34.165C104.754 15.2962 89.4577 0 70.5889 0C51.72 0 36.4238 15.2962 36.4238 34.165C36.4238 53.0339 51.72 68.3301 70.5889 68.3301Z" fill="#DDF8F7"/>
<mask id="mask2" mask-type="alpha" maskUnits="userSpaceOnUse" x="36" y="0" width="69" height="69">
<path fill-rule="evenodd" clip-rule="evenodd" d="M70.5889 68.3301C89.4577 68.3301 104.754 53.0339 104.754 34.165C104.754 15.2962 89.4577 0 70.5889 0C51.72 0 36.4238 15.2962 36.4238 34.165C36.4238 53.0339 51.72 68.3301 70.5889 68.3301Z" fill="white"/>
</mask>
<g mask="url(#mask2)">
<path d="M51.0659 27.4555C51.0659 20.8281 56.4385 15.4556 63.0659 15.4556H93.7539C99.829 15.4556 104.754 20.3804 104.754 26.4556V77.6664C104.754 83.7415 99.829 88.6664 93.7539 88.6664H62.0659C55.9908 88.6664 51.0659 83.7415 51.0659 77.6664V27.4555Z" fill="#4ABBB5"/>
<path d="M58.3872 31.7766C58.3872 26.806 62.4166 22.7766 67.3872 22.7766H105.568V58.9569C105.568 65.032 100.643 69.9569 94.5675 69.9569H58.3872V31.7766Z" fill="#70D5D0"/>
<path d="M65.708 41.4861L74.656 49.6206L90.1116 31.7246" stroke="white" stroke-width="4" stroke-linecap="round" stroke-linejoin="round"/>
</g>
</svg>
