<svg width="72" height="72" viewBox="0 0 72 72" fill="none" xmlns="http://www.w3.org/2000/svg">
<rect opacity="0.01" width="72" height="72" rx="12" fill="#ECF8F7"/>
<path fill-rule="evenodd" clip-rule="evenodd" d="M16.9867 10.0133L14.1626 9.09822C13.2799 8.81221 12.7963 7.86481 13.0823 6.98213C13.2483 6.46962 13.6501 6.06785 14.1626 5.90178L16.9867 4.9867L17.9018 2.16261C18.1878 1.27994 19.1352 0.796251 20.0179 1.08226C20.5304 1.24833 20.9322 1.65011 21.0982 2.16261L22.0133 4.9867L24.8374 5.90178C25.7201 6.18779 26.2037 7.13519 25.9177 8.01787C25.7517 8.53038 25.3499 8.93215 24.8374 9.09822L22.0133 10.0133L21.0982 12.8374C20.8122 13.7201 19.8648 14.2037 18.9821 13.9177C18.4696 13.7517 18.0678 13.3499 17.9018 12.8374L16.9867 10.0133Z" fill="#DDF8F7"/>
<path fill-rule="evenodd" clip-rule="evenodd" d="M38.5 18C39.8807 18 41 16.8807 41 15.5C41 14.1193 39.8807 13 38.5 13C37.1193 13 36 14.1193 36 15.5C36 16.8807 37.1193 18 38.5 18Z" fill="#DDF8F7"/>
<path fill-rule="evenodd" clip-rule="evenodd" d="M64 19C66.2091 19 68 17.2091 68 15C68 12.7909 66.2091 11 64 11C61.7909 11 60 12.7909 60 15C60 17.2091 61.7909 19 64 19Z" fill="#DDF8F7"/>
<path d="M54.1936 24H1.80644C0.808828 24 0 24.7959 0 25.7778V33.6028C0 34.0509 0.223891 34.4767 0.611078 34.7124C2.41128 35.8082 3.61287 37.7637 3.61287 40C3.61287 42.2362 2.41128 44.1918 0.611078 45.2875C0.223891 45.5233 0 45.9492 0 46.3972V54.2222C0 55.204 0.808828 56 1.80644 56H54.1936C55.1912 56 56 55.204 56 54.2222V25.7778C56 24.7959 55.1912 24 54.1936 24Z" fill="#4ABBB5"/>
<mask id="mask0" mask-type="alpha" maskUnits="userSpaceOnUse" x="0" y="24" width="56" height="32">
<path d="M54.1936 24H1.80644C0.808828 24 0 24.7959 0 25.7778V33.6028C0 34.0509 0.223891 34.4767 0.611078 34.7124C2.41128 35.8082 3.61287 37.7637 3.61287 40C3.61287 42.2362 2.41128 44.1918 0.611078 45.2875C0.223891 45.5233 0 45.9492 0 46.3972V54.2222C0 55.204 0.808828 56 1.80644 56H54.1936C55.1912 56 56 55.204 56 54.2222V25.7778C56 24.7959 55.1912 24 54.1936 24Z" fill="white"/>
</mask>
<g mask="url(#mask0)">
<path d="M52.6291 53.4737H19.188C18.7427 53.4737 18.3818 53.0967 18.3818 52.6316V27.3685C18.3818 26.9034 18.7427 26.5264 19.188 26.5264H52.6291C53.0744 26.5264 53.4353 26.9034 53.4353 27.3685V52.6316C53.4353 53.0967 53.0744 53.4737 52.6291 53.4737Z" fill="#70D5D0"/>
<path fill-rule="evenodd" clip-rule="evenodd" d="M7.26709 27.6843C7.26709 26.5798 8.16252 25.6843 9.26709 25.6843H14.6717C15.7762 25.6843 16.6717 26.5798 16.6717 27.6843V51.4738C16.6717 52.5784 15.7762 53.4738 14.6717 53.4738H9.26709C8.16252 53.4738 7.26709 52.5784 7.26709 51.4738V27.6843Z" fill="#70D5D0"/>
<rect x="16.6719" y="40" width="1.70992" height="4.21053" rx="0.854962" fill="white"/>
<rect x="16.6719" y="33.6843" width="1.70992" height="4.21053" rx="0.854962" fill="white"/>
<rect x="16.6719" y="27.6843" width="1.70992" height="4.21053" rx="0.854962" fill="white"/>
<rect x="16.6719" y="21.6843" width="1.70992" height="4.21053" rx="0.854962" fill="white"/>
<rect x="16.6719" y="46.3157" width="1.70992" height="4.63158" rx="0.854962" fill="white"/>
<path d="M16.6719 53.9077C16.6719 53.4355 17.0547 53.0527 17.5268 53.0527C17.999 53.0527 18.3818 53.4355 18.3818 53.9077V56.4212H16.6719V53.9077Z" fill="white"/>
<path d="M36.122 46.1746L31.4615 49.0558C30.4344 49.6908 29.1455 48.7687 29.4413 47.6105L30.7838 42.3552L26.561 38.8807C25.6303 38.115 26.1226 36.6229 27.3326 36.5421L32.8228 36.1755L34.8734 31.1469C35.3254 30.0386 36.9185 30.0386 37.3705 31.1469L39.4212 36.1755L44.9113 36.5421C46.1213 36.623 46.6137 38.1151 45.683 38.8807L41.4602 42.3552L42.8027 47.6105C43.0985 48.7687 41.8097 49.6909 40.7825 49.0558L36.122 46.1746Z" fill="white"/>
<mask id="mask1" mask-type="alpha" maskUnits="userSpaceOnUse" x="26" y="30" width="21" height="20">
<path d="M36.122 46.1746L31.4615 49.0558C30.4344 49.6908 29.1455 48.7687 29.4413 47.6105L30.7838 42.3552L26.561 38.8807C25.6303 38.115 26.1226 36.6229 27.3326 36.5421L32.8228 36.1755L34.8734 31.1469C35.3254 30.0386 36.9185 30.0386 37.3705 31.1469L39.4212 36.1755L44.9113 36.5421C46.1213 36.623 46.6137 38.1151 45.683 38.8807L41.4602 42.3552L42.8027 47.6105C43.0985 48.7687 41.8097 49.6909 40.7825 49.0558L36.122 46.1746Z" fill="white"/>
</mask>
<g mask="url(#mask1)">
<path d="M42.3205 45.4737C36.528 45.1288 31.4538 41.2169 29.2098 36.2988L27.3586 36.421C26.1557 36.5005 25.3646 38.1944 26.2899 38.9473L30.7564 42.4702L29.4216 47.6381C29.1275 48.777 30.4088 49.6838 31.4301 49.0594L36.0635 46.2261L40.6968 49.0594C41.7179 49.6838 43.1959 48.8636 42.9016 47.7247L42.3205 45.4737Z" fill="#DDF8F7"/>
</g>
</g>
</svg>
