<svg width="48" height="48" viewBox="0 0 48 48" fill="none" xmlns="http://www.w3.org/2000/svg">
<path fill-rule="evenodd" clip-rule="evenodd" d="M24 48C37.2548 48 48 37.2548 48 24C48 10.7452 37.2548 0 24 0C10.7452 0 0 10.7452 0 24C0 37.2548 10.7452 48 24 48Z" fill="#4B03BD" fill-opacity="0.241177"/>
<path fill-rule="evenodd" clip-rule="evenodd" d="M25 23H31C31.5523 23 32 23.4477 32 24C32 24.5523 31.5523 25 31 25H25V31C25 31.5523 24.5523 32 24 32C23.4477 32 23 31.5523 23 31V25H17C16.4477 25 16 24.5523 16 24C16 23.4477 16.4477 23 17 23H23V17C23 16.4477 23.4477 16 24 16C24.5523 16 25 16.4477 25 17V23Z" fill="#4B03BD"/>
</svg>
