<svg width="201" height="126" viewBox="0 0 201 126" fill="none" xmlns="http://www.w3.org/2000/svg">
<rect opacity="0.01" x="0.5" y="0.5" width="200" height="125" fill="#D8D8D8" fill-opacity="0.01" stroke="#979797"/>
<path fill-rule="evenodd" clip-rule="evenodd" d="M142 82L152 82C154.209 82 156 83.7909 156 86V94C156 97.3137 158.686 100 162 100H184C186.209 100 188 101.791 188 104V115C188 116.657 189.343 118 191 118H197C199.209 118 201 119.791 201 122V126H142V82Z" fill="#F4F8F9"/>
<path fill-rule="evenodd" clip-rule="evenodd" d="M0 116C0 113.791 1.79086 112 4 112H10C12.2091 112 14 110.209 14 108V98.5C14 96.2909 15.7909 94.5 18 94.5H22C24.2091 94.5 26 92.7091 26 90.5V86C26 83.7909 27.7909 82 30 82H42C44.2091 82 46 83.7909 46 86V90C46 92.2091 47.7909 94 50 94H59V126H0V116Z" fill="#F4F8F9"/>
<path fill-rule="evenodd" clip-rule="evenodd" d="M25 118C27.2091 118 29 116.209 29 114C29 111.791 27.2091 110 25 110C22.7909 110 21 111.791 21 114C21 116.209 22.7909 118 25 118Z" fill="#3CB3AD"/>
<path fill-rule="evenodd" clip-rule="evenodd" d="M25 111C26.6569 111 28 109.657 28 108C28 106.343 26.6569 105 25 105C23.3431 105 22 106.343 22 108C22 109.657 23.3431 111 25 111Z" fill="#3CB3AD"/>
<path fill-rule="evenodd" clip-rule="evenodd" d="M25 106C26.1046 106 27 105.105 27 104C27 102.895 26.1046 102 25 102C23.8954 102 23 102.895 23 104C23 105.105 23.8954 106 25 106Z" fill="#3CB3AD"/>
<path d="M19 116.556C19 116.249 19.2487 116 19.5556 116H30.4444C30.7513 116 31 116.249 31 116.556V120C31 123.314 28.3137 126 25 126C21.6863 126 19 123.314 19 120V116.556Z" fill="#627887"/>
<path fill-rule="evenodd" clip-rule="evenodd" d="M140 108C143.314 108 146 105.314 146 102C146 98.6863 143.314 96 140 96C136.686 96 134 98.6863 134 102C134 105.314 136.686 108 140 108Z" fill="#73CFCA"/>
<rect x="138" y="105" width="8" height="21" fill="#73CFCA"/>
<path fill-rule="evenodd" clip-rule="evenodd" d="M147 126C151.971 126 156 121.971 156 117C156 112.029 151.971 108 147 108C142.029 108 138 112.029 138 117C138 121.971 142.029 126 147 126Z" fill="#73CFCA"/>
<path fill-rule="evenodd" clip-rule="evenodd" d="M146.5 110C148.433 110 150 108.433 150 106.5C150 104.567 148.433 103 146.5 103C144.567 103 143 104.567 143 106.5C143 108.433 144.567 110 146.5 110Z" fill="#73CFCA"/>
<path fill-rule="evenodd" clip-rule="evenodd" d="M58 57C58 53.6863 60.6863 51 64 51L64.7574 51C65.553 51 66.3161 51.3161 66.8787 51.8787L69.1213 54.1213C69.6839 54.6839 70.447 55 71.2426 55H128.757C129.553 55 130.316 54.6839 130.879 54.1213L133.121 51.8787C133.684 51.3161 134.447 51 135.243 51L136 51C139.314 51 142 53.6863 142 57V126H58V57Z" fill="#E6F0F4"/>
<path fill-rule="evenodd" clip-rule="evenodd" d="M60 68C65.5228 68 70 63.5228 70 58C70 52.4772 65.5228 48 60 48C54.4772 48 50 52.4772 50 58C50 63.5228 54.4772 68 60 68Z" fill="#BD10E0"/>
<path d="M50 59C50 50.1634 57.1634 43 66 43H70V59H50Z" fill="#CC53E5"/>
<path fill-rule="evenodd" clip-rule="evenodd" d="M80 68C85.5228 68 90 63.5228 90 58C90 52.4772 85.5228 48 80 48C74.4772 48 70 52.4772 70 58C70 63.5228 74.4772 68 80 68Z" fill="#F4F8F9"/>
<path fill-rule="evenodd" clip-rule="evenodd" d="M100 68C105.523 68 110 63.5228 110 58C110 52.4772 105.523 48 100 48C94.4772 48 90 52.4772 90 58C90 63.5228 94.4772 68 100 68Z" fill="#BD10E0"/>
<path fill-rule="evenodd" clip-rule="evenodd" d="M120 68C125.523 68 130 63.5228 130 58C130 52.4772 125.523 48 120 48C114.477 48 110 52.4772 110 58C110 63.5228 114.477 68 120 68Z" fill="#F4F8F9"/>
<path fill-rule="evenodd" clip-rule="evenodd" d="M140 68C145.523 68 150 63.5228 150 58C150 52.4772 145.523 48 140 48C134.477 48 130 52.4772 130 58C130 63.5228 134.477 68 140 68Z" fill="#BD10E0"/>
<rect x="70" y="43" width="20" height="16" fill="white"/>
<rect x="90" y="43" width="20" height="16" fill="#CC53E5"/>
<rect x="110" y="43" width="20" height="16" fill="white"/>
<path d="M130 43H134C142.837 43 150 50.1634 150 59H130V43Z" fill="#CC53E5"/>
<path fill-rule="evenodd" clip-rule="evenodd" d="M100 33C100 33 110 25.1019 110 18.6C110 13.2981 105.523 9 100 9C94.4772 9 90 13.2986 90 18.6C90 25.1019 100 33 100 33Z" fill="#4B03BD"/>
<path fill-rule="evenodd" clip-rule="evenodd" d="M100 23C102.209 23 104 21.2091 104 19C104 16.7909 102.209 15 100 15C97.7909 15 96 16.7909 96 19C96 21.2091 97.7909 23 100 23Z" fill="white"/>
<path fill-rule="evenodd" clip-rule="evenodd" d="M186 85C186 85 194 78.7474 194 73.6C194 69.4026 190.418 66 186 66C181.582 66 178 69.403 178 73.6C178 78.7474 186 85 186 85Z" fill="#D2E1E9"/>
<path fill-rule="evenodd" clip-rule="evenodd" d="M186 77C187.657 77 189 75.6569 189 74C189 72.3431 187.657 71 186 71C184.343 71 183 72.3431 183 74C183 75.6569 184.343 77 186 77Z" fill="white"/>
<path fill-rule="evenodd" clip-rule="evenodd" d="M17 71C17 71 24 65.4055 24 60.8C24 57.0445 20.866 54 17 54C13.134 54 10 57.0448 10 60.8C10 65.4055 17 71 17 71Z" fill="#D2E1E9"/>
<path fill-rule="evenodd" clip-rule="evenodd" d="M17.0002 63.9167C18.5466 63.9167 19.8002 62.6481 19.8002 61.0833C19.8002 59.5185 18.5466 58.25 17.0002 58.25C15.4538 58.25 14.2002 59.5185 14.2002 61.0833C14.2002 62.6481 15.4538 63.9167 17.0002 63.9167Z" fill="white"/>
<path d="M64 81C64 79.3431 65.3431 78 67 78H85C86.6569 78 88 79.3431 88 81V122H64V81Z" fill="#B6CBD7"/>
<path d="M53 126C53 123.791 54.7909 122 57 122H140C142.209 122 144 123.791 144 126H53Z" fill="#D2E1E9"/>
<path fill-rule="evenodd" clip-rule="evenodd" d="M139.5 126C142.538 126 145 123.538 145 120.5C145 117.462 142.538 115 139.5 115C136.462 115 134 117.462 134 120.5C134 123.538 136.462 126 139.5 126Z" fill="#3CB3AD"/>
<path fill-rule="evenodd" clip-rule="evenodd" d="M145 126C147.209 126 149 124.209 149 122C149 119.791 147.209 118 145 118C142.791 118 141 119.791 141 122C141 124.209 142.791 126 145 126Z" fill="#3CB3AD"/>
<rect x="139" y="122" width="6" height="4" fill="#3CB3AD"/>
<rect x="74" y="87" width="4" height="35" fill="#627887"/>
<path d="M64 81C64 79.3431 65.3431 78 67 78H85C86.6569 78 88 79.3431 88 81V87H64V81Z" fill="white"/>
<g opacity="0.7">
<rect x="64" y="87" width="24" height="3" fill="#627887" style="mix-blend-mode:multiply"/>
</g>
<rect x="81" y="102" width="4" height="4" rx="2" fill="#627887"/>
<rect x="67" y="102" width="4" height="4" rx="2" fill="#627887"/>
<rect x="94" y="78" width="42" height="28" rx="3" fill="#B6CBD7"/>
<path fill-rule="evenodd" clip-rule="evenodd" d="M94 90H100V96H111.5V100H120V92H126.5V96H130V88.5H136V103C136 104.657 134.657 106 133 106H97C95.3431 106 94 104.657 94 103V90Z" fill="#627887"/>
</svg>
