<svg width="335" height="126" viewBox="0 0 335 126" fill="none" xmlns="http://www.w3.org/2000/svg">
<path d="M0 8C0 3.58172 3.58172 0 8 0H327C331.418 0 335 3.58172 335 8V126H0V8Z" fill="#E6F0F4"/>
<rect opacity="0.01" x="69.5" y="0.5" width="200" height="125" fill="#D8D8D8" fill-opacity="0.01" stroke="#979797"/>
<path fill-rule="evenodd" clip-rule="evenodd" d="M211 82L221 82C223.209 82 225 83.7909 225 86V94C225 97.3137 227.686 100 231 100H253C255.209 100 257 101.791 257 104V115C257 116.657 258.343 118 260 118H266C268.209 118 270 119.791 270 122V126H211V82Z" fill="#F4F8F9"/>
<path fill-rule="evenodd" clip-rule="evenodd" d="M69 116C69 113.791 70.7909 112 73 112H79C81.2091 112 83 110.209 83 108V98.5C83 96.2909 84.7909 94.5 87 94.5H91C93.2091 94.5 95 92.7091 95 90.5V86C95 83.7909 96.7909 82 99 82H111C113.209 82 115 83.7909 115 86V90C115 92.2091 116.791 94 119 94H128V126H69V116Z" fill="#F4F8F9"/>
<path fill-rule="evenodd" clip-rule="evenodd" d="M30.6829 97C40.1951 97 44 89.1429 44 82.0714C44 75 37.0244 64 30.6829 64C24.3415 64 18 76.5714 18 82.0714C18 87.5714 21.1707 97 30.6829 97Z" fill="#D2E5ED"/>
<path fill-rule="evenodd" clip-rule="evenodd" d="M31 106C40.5 106 45 95.5 45 91.5C45 87.5 35.5 87.5 38 85C44.6586 78.3414 34 60 31 60C28 60 17.8469 78.8469 24 85C26.5 87.5 17 87.5 17 91.5C17 95.5 21.5 106 31 106Z" fill="#B6CBD7"/>
<path fill-rule="evenodd" clip-rule="evenodd" d="M29.642 91.3331C29.6557 90.5929 30.2597 90 31 90C31.7403 90 32.3443 90.5929 32.358 91.3331L33 126H29L29.642 91.3331Z" fill="#93ACBB"/>
<path fill-rule="evenodd" clip-rule="evenodd" d="M94 118C96.2091 118 98 116.209 98 114C98 111.791 96.2091 110 94 110C91.7909 110 90 111.791 90 114C90 116.209 91.7909 118 94 118Z" fill="#B6CBD7"/>
<path fill-rule="evenodd" clip-rule="evenodd" d="M94 111C95.6569 111 97 109.657 97 108C97 106.343 95.6569 105 94 105C92.3431 105 91 106.343 91 108C91 109.657 92.3431 111 94 111Z" fill="#B6CBD7"/>
<path fill-rule="evenodd" clip-rule="evenodd" d="M94 106C95.1046 106 96 105.105 96 104C96 102.895 95.1046 102 94 102C92.8954 102 92 102.895 92 104C92 105.105 92.8954 106 94 106Z" fill="#B6CBD7"/>
<path d="M88 116.556C88 116.249 88.2487 116 88.5556 116H99.4444C99.7513 116 100 116.249 100 116.556V120C100 123.314 97.3137 126 94 126C90.6863 126 88 123.314 88 120V116.556Z" fill="#93ACBB"/>
<path fill-rule="evenodd" clip-rule="evenodd" d="M214.908 103.05C215.101 103.017 215.298 103 215.5 103C217.433 103 219 104.567 219 106.5C219 107.177 218.808 107.809 218.475 108.345C222.242 109.42 225 112.888 225 117C225 121.971 220.971 126 216 126C211.029 126 207 121.971 207 117C207 113.189 209.369 109.931 212.714 108.619C212.393 108.197 212.166 107.701 212.062 107.161C211.166 107.694 210.119 108 209 108C205.686 108 203 105.314 203 102C203 98.6863 205.686 96 209 96C212.314 96 215 98.6863 215 102C215 102.358 214.969 102.709 214.908 103.05Z" fill="#B6CBD7"/>
<rect x="207" y="105" width="8" height="21" fill="#B6CBD7"/>
<path fill-rule="evenodd" clip-rule="evenodd" d="M127 57C127 53.6863 129.686 51 133 51L133.757 51C134.553 51 135.316 51.3161 135.879 51.8787L138.121 54.1213C138.684 54.6839 139.447 55 140.243 55H197.757C198.553 55 199.316 54.6839 199.879 54.1213L202.121 51.8787C202.684 51.3161 203.447 51 204.243 51L205 51C208.314 51 211 53.6863 211 57V126H127V57Z" fill="#D2E5ED"/>
<path fill-rule="evenodd" clip-rule="evenodd" d="M129 68C134.523 68 139 63.5228 139 58C139 52.4772 134.523 48 129 48C123.477 48 119 52.4772 119 58C119 63.5228 123.477 68 129 68Z" fill="#93ACBB"/>
<path d="M119 59C119 50.1634 126.163 43 135 43H139V59H119Z" fill="#B6CBD7"/>
<path fill-rule="evenodd" clip-rule="evenodd" d="M149 68C154.523 68 159 63.5228 159 58C159 52.4772 154.523 48 149 48C143.477 48 139 52.4772 139 58C139 63.5228 143.477 68 149 68Z" fill="#F4F8F9"/>
<path fill-rule="evenodd" clip-rule="evenodd" d="M169 68C174.523 68 179 63.5228 179 58C179 52.4772 174.523 48 169 48C163.477 48 159 52.4772 159 58C159 63.5228 163.477 68 169 68Z" fill="#93ACBB"/>
<path fill-rule="evenodd" clip-rule="evenodd" d="M189 68C194.523 68 199 63.5228 199 58C199 52.4772 194.523 48 189 48C183.477 48 179 52.4772 179 58C179 63.5228 183.477 68 189 68Z" fill="#F4F8F9"/>
<path fill-rule="evenodd" clip-rule="evenodd" d="M209 68C214.523 68 219 63.5228 219 58C219 52.4772 214.523 48 209 48C203.477 48 199 52.4772 199 58C199 63.5228 203.477 68 209 68Z" fill="#93ACBB"/>
<rect x="139" y="43" width="20" height="16" fill="white"/>
<rect x="159" y="43" width="20" height="16" fill="#B6CBD7"/>
<rect x="179" y="43" width="20" height="16" fill="white"/>
<path d="M199 43H203C211.837 43 219 50.1634 219 59H199V43Z" fill="#B6CBD7"/>
<path fill-rule="evenodd" clip-rule="evenodd" d="M76 34.9589C75.6703 34.9861 75.3368 35 75 35C68.3726 35 63 29.6274 63 23C63 16.3726 68.3726 11 75 11C79.6906 11 83.7527 13.6913 85.7263 17.6139C86.7409 17.2176 87.845 17 89 17C93.9706 17 98 21.0294 98 26C98 28.008 97.3424 29.8624 96.2308 31.3596C97.6701 32.9648 99.5776 34.1444 101.753 34.6883L103 35H76V34.9589Z" fill="white"/>
<path fill-rule="evenodd" clip-rule="evenodd" d="M268 80C272.971 80 277 75.9706 277 71C277 66.0294 272.971 62 268 62C263.029 62 259 66.0294 259 71C259 75.9706 263.029 80 268 80Z" fill="white"/>
<path fill-rule="evenodd" clip-rule="evenodd" d="M277 80C280.314 80 283 77.3137 283 74C283 70.6863 280.314 68 277 68C273.686 68 271 70.6863 271 74C271 77.3137 273.686 80 277 80Z" fill="white"/>
<path fill-rule="evenodd" clip-rule="evenodd" d="M268 80H287L285.243 79.4142C282.526 78.5087 280.281 76.5612 279 74H268V80Z" fill="white"/>
<path d="M133 81C133 79.3431 134.343 78 136 78H154C155.657 78 157 79.3431 157 81V122H133V81Z" fill="#B6CBD7"/>
<path d="M122 126C122 123.791 123.791 122 126 122H209C211.209 122 213 123.791 213 126H122Z" fill="#C7DCE5"/>
<path fill-rule="evenodd" clip-rule="evenodd" d="M208 125.978C205.197 125.725 203 123.369 203 120.5C203 117.462 205.462 115 208.5 115C210.654 115 212.519 116.238 213.421 118.042C213.61 118.014 213.803 118 214 118C216.209 118 218 119.791 218 122C218 124.209 216.209 126 214 126H208V125.978Z" fill="#93ACBB"/>
<rect x="143" y="87" width="4" height="35" fill="#93ACBB"/>
<path d="M133 81C133 79.3431 134.343 78 136 78H154C155.657 78 157 79.3431 157 81V87H133V81Z" fill="white"/>
<g opacity="0.7">
<rect x="133" y="87" width="24" height="3" fill="#93ACBB" style="mix-blend-mode:multiply"/>
</g>
<rect x="150" y="102" width="4" height="4" rx="2" fill="#93ACBB"/>
<rect x="136" y="102" width="4" height="4" rx="2" fill="#93ACBB"/>
<rect x="163" y="78" width="42" height="28" rx="3" fill="#B6CBD7"/>
<path fill-rule="evenodd" clip-rule="evenodd" d="M163 90H169V96H180.5V100H189V92H195.5V96H199V88.5H205V103C205 104.657 203.657 106 202 106H166C164.343 106 163 104.657 163 103V90Z" fill="#93ACBB"/>
</svg>
