<svg width="207" height="102" viewBox="0 0 207 102" fill="none" xmlns="http://www.w3.org/2000/svg">
<rect opacity="0.01" x="0.773438" width="205.981" height="102" fill="#F4F8F9"/>
<path fill-rule="evenodd" clip-rule="evenodd" d="M1.76367 101.172C1.76367 98.9627 3.55453 97.1719 5.76367 97.1719H10.7213C12.9304 97.1719 14.7213 95.381 14.7213 93.1719V91.9188C14.7213 89.7097 16.5121 87.9188 18.7213 87.9188H21.8278C24.0369 87.9188 25.8277 86.128 25.8277 83.9188V80.252C25.8277 78.0428 27.6186 76.252 29.8277 76.252H57.97C58.4254 76.252 58.8039 76.6026 58.8387 77.0566L58.9299 78.2452C59.2614 82.5685 62.8661 85.9073 67.202 85.9073H70.0674C73.0669 85.9073 75.4985 88.3389 75.4985 91.3384V93.5302C75.4985 95.3192 76.9488 96.7696 78.7379 96.7696C80.5269 96.7696 81.9773 98.2199 81.9773 100.009V102H1.76367V101.172Z" fill="#F4F8F9"/>
<path fill-rule="evenodd" clip-rule="evenodd" d="M126.541 94.735C126.541 92.5258 128.331 90.735 130.541 90.735H135.498C137.707 90.735 139.498 88.9441 139.498 86.735V85.4819C139.498 83.2728 141.289 81.4819 143.498 81.4819H147.99C149.434 81.4819 150.605 80.3112 150.605 78.8669C150.605 77.4227 151.775 76.252 153.22 76.252H174.726C175.181 76.252 175.559 76.6026 175.594 77.0566L175.626 77.476C175.991 82.2333 179.958 85.9073 184.729 85.9073H187.623C191.066 85.9073 193.858 88.6991 193.858 92.143C193.858 95.5869 196.65 98.3788 200.094 98.3788H203.133C205.133 98.3788 206.754 99.9998 206.754 102H126.541V94.735Z" fill="#F4F8F9"/>
<path d="M154.78 40.6016H54.7283C52.8231 40.6016 51.2783 42.1286 51.2783 44.0125V59.0264C51.2783 59.8861 51.7059 60.7031 52.4454 61.1554C55.8835 63.2579 58.1784 67.0098 58.1784 71.3006C58.1784 75.5912 55.8835 79.3433 52.4454 81.4458C51.7059 81.8981 51.2783 82.7153 51.2783 83.5748V98.5886C51.2783 100.472 52.8231 102 54.7283 102H154.78C156.685 102 158.23 100.472 158.23 98.5886V44.0125C158.23 42.1286 156.685 40.6016 154.78 40.6016Z" fill="#4ABBB5"/>
<mask id="mask0" mask-type="alpha" maskUnits="userSpaceOnUse" x="51" y="40" width="108" height="62">
<path d="M154.78 40.6016H54.7283C52.8231 40.6016 51.2783 42.1286 51.2783 44.0125V59.0264C51.2783 59.8861 51.7059 60.7031 52.4454 61.1554C55.8835 63.2579 58.1784 67.0098 58.1784 71.3006C58.1784 75.5912 55.8835 79.3433 52.4454 81.4458C51.7059 81.8981 51.2783 82.7153 51.2783 83.5748V98.5886C51.2783 100.472 52.8231 102 54.7283 102H154.78C156.685 102 158.23 100.472 158.23 98.5886V44.0125C158.23 42.1286 156.685 40.6016 154.78 40.6016Z" fill="white"/>
</mask>
<g mask="url(#mask0)">
<path d="M151.792 97.1528H87.9244C87.074 97.1528 86.3848 96.4295 86.3848 95.5371V47.0649C86.3848 46.1726 87.074 45.4492 87.9244 45.4492H151.792C152.642 45.4492 153.331 46.1726 153.331 47.0649V95.5371C153.331 96.4295 152.642 97.1528 151.792 97.1528Z" fill="#70D5D0"/>
<path fill-rule="evenodd" clip-rule="evenodd" d="M65.1577 45.834C65.1577 44.7294 66.0531 43.834 67.1577 43.834H81.119C82.2236 43.834 83.119 44.7294 83.119 45.834V95.1534C83.119 96.2579 82.2236 97.1534 81.119 97.1534H67.1577C66.0531 97.1534 65.1577 96.2579 65.1577 95.1534V45.834Z" fill="#70D5D0"/>
<rect x="83.1187" y="71.3008" width="3.26569" height="8.07869" rx="1.63285" fill="white"/>
<rect x="83.1187" y="59.1816" width="3.26569" height="8.07869" rx="1.63285" fill="white"/>
<rect x="83.1187" y="83.418" width="3.26569" height="8.88656" rx="1.63285" fill="white"/>
<path d="M83.1187 97.9766C83.1187 97.0748 83.8497 96.3438 84.7515 96.3438C85.6533 96.3438 86.3843 97.0748 86.3843 97.9766V102.807H83.1187V97.9766Z" fill="white"/>
<path d="M120.266 83.1471L111.365 88.6753C109.404 89.8936 106.942 88.1244 107.507 85.9021L110.071 75.8189L102.006 69.1524C100.228 67.6832 101.169 64.8203 103.48 64.6654L113.965 63.962L117.882 54.3135C118.745 52.1872 121.787 52.1872 122.651 54.3135L126.567 63.962L137.052 64.6654C139.363 64.8205 140.304 67.6834 138.526 69.1524L130.461 75.8189L133.025 85.9021C133.59 88.1244 131.129 89.8938 129.167 88.6753L120.266 83.1471Z" fill="white"/>
<mask id="mask1" mask-type="alpha" maskUnits="userSpaceOnUse" x="101" y="52" width="39" height="38">
<path d="M120.266 83.1471L111.365 88.6753C109.404 89.8936 106.942 88.1244 107.507 85.9021L110.071 75.8189L102.006 69.1524C100.228 67.6832 101.169 64.8203 103.48 64.6654L113.965 63.962L117.882 54.3135C118.745 52.1872 121.787 52.1872 122.651 54.3135L126.567 63.962L137.052 64.6654C139.363 64.8205 140.304 67.6834 138.526 69.1524L130.461 75.8189L133.025 85.9021C133.59 88.1244 131.129 89.8938 129.167 88.6753L120.266 83.1471Z" fill="white"/>
</mask>
<g mask="url(#mask1)">
<path d="M132.104 81.8029C121.041 81.1411 111.35 73.6355 107.065 64.1992L103.529 64.4337C101.232 64.5862 99.721 67.8363 101.488 69.2809L110.019 76.0402L107.469 85.9558C106.908 88.141 109.355 89.8809 111.305 88.6828L120.154 83.2465L129.003 88.6828C130.953 89.8809 133.776 88.3072 133.214 86.1219L132.104 81.8029Z" fill="#DDF8F7"/>
</g>
<g opacity="0.3">
<path fill-rule="evenodd" clip-rule="evenodd" d="M70.8723 74.5329C89.81 74.5329 105.162 59.3417 105.162 40.6024C105.162 21.8631 89.81 6.67188 70.8723 6.67188C51.9346 6.67188 36.5825 21.8631 36.5825 40.6024C36.5825 59.3417 51.9346 74.5329 70.8723 74.5329Z" fill="#4ABBB5" style="mix-blend-mode:multiply"/>
</g>
</g>
<path fill-rule="evenodd" clip-rule="evenodd" d="M123.471 19.8058C128.885 19.8058 133.275 15.5938 133.275 10.398C133.275 5.20224 128.885 0.990234 123.471 0.990234C118.056 0.990234 113.667 5.20224 113.667 10.398C113.667 15.5938 118.056 19.8058 123.471 19.8058Z" fill="#DDF8F7"/>
<path fill-rule="evenodd" clip-rule="evenodd" d="M134.909 19.805C138.969 19.805 142.261 16.646 142.261 12.7492C142.261 8.85236 138.969 5.69336 134.909 5.69336C130.848 5.69336 127.556 8.85236 127.556 12.7492C127.556 16.646 130.848 19.805 134.909 19.805Z" fill="#DDF8F7"/>
<path fill-rule="evenodd" clip-rule="evenodd" d="M124.288 19.8062H146.346C142.356 18.8489 139.276 15.6754 138.439 11.6583L138.176 10.3984H124.288V19.8062Z" fill="#DDF8F7"/>
<path fill-rule="evenodd" clip-rule="evenodd" d="M191.298 29.7079C195.342 29.7079 198.619 26.3826 198.619 22.2807C198.619 18.1788 195.342 14.8535 191.298 14.8535C187.255 14.8535 183.977 18.1788 183.977 22.2807C183.977 26.3826 187.255 29.7079 191.298 29.7079Z" fill="#DDF8F7"/>
<path fill-rule="evenodd" clip-rule="evenodd" d="M198.619 29.7076C201.315 29.7076 203.5 27.4908 203.5 24.7561C203.5 22.0215 201.315 19.8047 198.619 19.8047C195.924 19.8047 193.739 22.0215 193.739 24.7561C193.739 27.4908 195.924 29.7076 198.619 29.7076Z" fill="#DDF8F7"/>
<path fill-rule="evenodd" clip-rule="evenodd" d="M191.298 29.7073H206.754L205.359 29.2357C203.128 28.481 201.288 26.8691 200.246 24.7559H191.298V29.7073Z" fill="#DDF8F7"/>
<path fill-rule="evenodd" clip-rule="evenodd" d="M70.5889 68.3301C89.4577 68.3301 104.754 53.0339 104.754 34.165C104.754 15.2962 89.4577 0 70.5889 0C51.72 0 36.4238 15.2962 36.4238 34.165C36.4238 53.0339 51.72 68.3301 70.5889 68.3301Z" fill="#DDF8F7"/>
<mask id="mask2" mask-type="alpha" maskUnits="userSpaceOnUse" x="36" y="0" width="69" height="69">
<path fill-rule="evenodd" clip-rule="evenodd" d="M70.5889 68.3301C89.4577 68.3301 104.754 53.0339 104.754 34.165C104.754 15.2962 89.4577 0 70.5889 0C51.72 0 36.4238 15.2962 36.4238 34.165C36.4238 53.0339 51.72 68.3301 70.5889 68.3301Z" fill="white"/>
</mask>
<g mask="url(#mask2)">
<path d="M51.0659 27.4551C51.0659 20.8276 56.4385 15.4551 63.0659 15.4551H93.7539C99.829 15.4551 104.754 20.3799 104.754 26.4551V77.6659C104.754 83.741 99.829 88.6659 93.7539 88.6659H62.0659C55.9908 88.6659 51.0659 83.741 51.0659 77.6659V27.4551Z" fill="#4ABBB5"/>
<path d="M58.3872 31.7773C58.3872 26.8068 62.4166 22.7773 67.3872 22.7773H105.568V58.9576C105.568 65.0328 100.643 69.9576 94.5675 69.9576H58.3872V31.7773Z" fill="#70D5D0"/>
<path d="M65.708 41.4861L74.656 49.6206L90.1116 31.7246" stroke="white" stroke-width="4" stroke-linecap="round" stroke-linejoin="round"/>
</g>
</svg>
