<svg width="255" height="126" viewBox="0 0 255 126" fill="none" xmlns="http://www.w3.org/2000/svg">
<rect opacity="0.01" width="255" height="126" fill="#F4F8F9"/>
<path fill-rule="evenodd" clip-rule="evenodd" d="M0 124C0 121.791 1.79086 120 4 120H12.1538C14.363 120 16.1538 118.209 16.1538 116V112.5C16.1538 110.291 17.9447 108.5 20.1538 108.5H26C28.2091 108.5 30 106.709 30 104.5V98C30 95.7909 31.7909 94 34 94H70.074C70.6399 94 71.1104 94.4357 71.1538 95L71.2653 96.4492C71.6799 101.839 76.1738 106 81.579 106H85.1731C88.901 106 91.9231 109.022 91.9231 112.75V115.462C91.9231 117.692 93.7312 119.5 95.9615 119.5C98.1919 119.5 100 121.308 100 123.538V126H0V124Z" fill="#F4F8F9"/>
<path fill-rule="evenodd" clip-rule="evenodd" d="M155 116C155 113.791 156.791 112 159 112H167.154C169.363 112 171.154 110.209 171.154 108V104.5C171.154 102.291 172.945 100.5 175.154 100.5H181.75C183.545 100.5 185 99.0449 185 97.25C185 95.4551 186.455 94 188.25 94H215.074C215.64 94 216.11 94.4357 216.154 95L216.192 95.4905C216.648 101.421 221.593 106 227.541 106H231.173C235.453 106 238.923 109.47 238.923 113.75C238.923 118.03 242.393 121.5 246.673 121.5H250.5C252.985 121.5 255 123.515 255 126H155V116Z" fill="#F4F8F9"/>
<path d="M188.774 50H66.2258C63.8921 50 62 51.8902 62 54.2222V72.8066C62 73.8709 62.5237 74.8822 63.4295 75.4421C67.6407 78.0445 70.4515 82.6888 70.4515 88C70.4515 93.311 67.6407 97.9555 63.4295 100.558C62.5237 101.118 62 102.129 62 103.193V121.778C62 124.11 63.8921 126 66.2258 126H188.774C191.108 126 193 124.11 193 121.778V54.2222C193 51.8902 191.108 50 188.774 50Z" fill="#4ABBB5"/>
<mask id="mask0" mask-type="alpha" maskUnits="userSpaceOnUse" x="62" y="50" width="131" height="76">
<path d="M188.774 50H66.2258C63.8921 50 62 51.8902 62 54.2222V72.8066C62 73.8709 62.5237 74.8822 63.4295 75.4421C67.6407 78.0445 70.4515 82.6888 70.4515 88C70.4515 93.311 67.6407 97.9555 63.4295 100.558C62.5237 101.118 62 102.129 62 103.193V121.778C62 124.11 63.8921 126 66.2258 126H188.774C191.108 126 193 124.11 193 121.778V54.2222C193 51.8902 191.108 50 188.774 50Z" fill="white"/>
</mask>
<g mask="url(#mask0)">
<path d="M185.114 120H106.886C105.844 120 105 119.105 105 118V58C105 56.8954 105.844 56 106.886 56H185.114C186.156 56 187 56.8954 187 58V118C187 119.105 186.156 120 185.114 120Z" fill="#70D5D0"/>
<path fill-rule="evenodd" clip-rule="evenodd" d="M79 56C79 54.8954 79.8954 54 81 54H99C100.105 54 101 54.8954 101 56V118C101 119.105 100.105 120 99 120H81C79.8954 120 79 119.105 79 118V56Z" fill="#70D5D0"/>
<rect x="101" y="88" width="4" height="10" rx="2" fill="white"/>
<rect x="101" y="73" width="4" height="10" rx="2" fill="white"/>
<rect x="101" y="103" width="4" height="11" rx="2" fill="white"/>
<path d="M101 121C101 119.895 101.895 119 103 119C104.105 119 105 119.895 105 121V127H101V121Z" fill="white"/>
<path d="M146.5 102.665L135.598 109.508C133.195 111.016 130.18 108.826 130.872 106.075L134.012 93.594L124.134 85.342C121.957 83.5233 123.109 79.9796 125.939 79.7878L138.782 78.9172L143.579 66.9741C144.637 64.342 148.363 64.342 149.421 66.9741L154.218 78.9172L167.061 79.7878C169.891 79.9798 171.043 83.5236 168.866 85.342L158.988 93.594L162.128 106.075C162.82 108.826 159.805 111.016 157.402 109.508L146.5 102.665Z" fill="white"/>
<mask id="mask1" mask-type="alpha" maskUnits="userSpaceOnUse" x="123" y="65" width="47" height="45">
<path d="M146.5 102.665L135.598 109.508C133.195 111.016 130.18 108.826 130.872 106.075L134.012 93.594L124.134 85.342C121.957 83.5233 123.109 79.9796 125.939 79.7878L138.782 78.9172L143.579 66.9741C144.637 64.342 148.363 64.342 149.421 66.9741L154.218 78.9172L167.061 79.7878C169.891 79.9798 171.043 83.5236 168.866 85.342L158.988 93.594L162.128 106.075C162.82 108.826 159.805 111.016 157.402 109.508L146.5 102.665Z" fill="white"/>
</mask>
<g mask="url(#mask1)">
<path d="M161 100.999C147.45 100.18 135.58 90.8894 130.33 79.209L126 79.4992C123.186 79.688 121.335 83.711 123.5 85.4992L133.948 93.8661L130.826 106.14C130.138 108.845 133.135 110.998 135.524 109.515L146.363 102.786L157.202 109.515C159.59 110.998 163.048 109.05 162.359 106.345L161 100.999Z" fill="#DDF8F7"/>
</g>
<g opacity="0.3">
<path fill-rule="evenodd" clip-rule="evenodd" d="M86 92C109.196 92 128 73.196 128 50C128 26.804 109.196 8 86 8C62.804 8 44 26.804 44 50C44 73.196 62.804 92 86 92Z" fill="#4ABBB5" style="mix-blend-mode:multiply"/>
</g>
</g>
<path fill-rule="evenodd" clip-rule="evenodd" d="M152 25C158.627 25 164 19.6274 164 13C164 6.37258 158.627 1 152 1C145.373 1 140 6.37258 140 13C140 19.6274 145.373 25 152 25Z" fill="#DDF8F7"/>
<path fill-rule="evenodd" clip-rule="evenodd" d="M166 25C170.971 25 175 20.9706 175 16C175 11.0294 170.971 7 166 7C161.029 7 157 11.0294 157 16C157 20.9706 161.029 25 166 25Z" fill="#DDF8F7"/>
<path fill-rule="evenodd" clip-rule="evenodd" d="M153 25H180L178.753 24.6883C174.629 23.6573 171.468 20.3424 170.635 16.174L170 13H153V25Z" fill="#DDF8F7"/>
<path fill-rule="evenodd" clip-rule="evenodd" d="M235 36C239.971 36 244 31.9706 244 27C244 22.0294 239.971 18 235 18C230.029 18 226 22.0294 226 27C226 31.9706 230.029 36 235 36Z" fill="#DDF8F7"/>
<path fill-rule="evenodd" clip-rule="evenodd" d="M244 36C247.314 36 250 33.3137 250 30C250 26.6863 247.314 24 244 24C240.686 24 238 26.6863 238 30C238 33.3137 240.686 36 244 36Z" fill="#DDF8F7"/>
<path fill-rule="evenodd" clip-rule="evenodd" d="M235 36H254L252.243 35.4142C249.526 34.5087 247.281 32.5612 246 30H235V36Z" fill="#DDF8F7"/>
<path opacity="0.3" fill-rule="evenodd" clip-rule="evenodd" d="M228.542 78.032C228.667 78.1793 228.843 78.253 229.068 78.253C229.25 78.253 229.408 78.201 229.543 78.097C229.677 77.993 229.761 77.8457 229.796 77.655C229.839 77.473 229.937 77.2975 230.089 77.1285C230.24 76.9595 230.459 76.758 230.745 76.524C231.048 76.2553 231.295 76.0257 231.486 75.835C231.677 75.6443 231.839 75.4147 231.973 75.146C232.108 74.8773 232.175 74.5827 232.175 74.262C232.175 73.8287 232.049 73.4408 231.798 73.0985C231.547 72.7562 231.2 72.4875 230.758 72.2925C230.316 72.0975 229.813 72 229.25 72C228.747 72 228.247 72.0802 227.748 72.2405C227.25 72.4008 226.806 72.624 226.416 72.91C226.269 73.0227 226.163 73.1397 226.097 73.261C226.032 73.3823 226 73.534 226 73.716C226 73.9847 226.076 74.2122 226.228 74.3985C226.379 74.5848 226.563 74.678 226.78 74.678C226.962 74.678 227.2 74.5957 227.495 74.431L227.807 74.275C228.05 74.1363 228.268 74.0302 228.464 73.9565C228.659 73.8828 228.856 73.846 229.055 73.846C229.298 73.846 229.488 73.9023 229.627 74.015C229.766 74.1277 229.835 74.2793 229.835 74.47C229.835 74.6607 229.785 74.834 229.685 74.99C229.586 75.146 229.436 75.3323 229.237 75.549C228.96 75.835 228.743 76.1145 228.587 76.3875C228.431 76.6605 228.353 77.0007 228.353 77.408C228.353 77.6767 228.416 77.8847 228.542 78.032ZM228.204 80.996C228.442 81.2387 228.739 81.36 229.094 81.36C229.458 81.36 229.759 81.2387 229.997 80.996C230.236 80.7533 230.355 80.4543 230.355 80.099C230.355 79.7437 230.236 79.4447 229.997 79.202C229.759 78.9593 229.458 78.838 229.094 78.838C228.739 78.838 228.442 78.9593 228.204 79.202C227.965 79.4447 227.846 79.7437 227.846 80.099C227.846 80.4543 227.965 80.7533 228.204 80.996Z" fill="#B4BCC5"/>
<path opacity="0.4" fill-rule="evenodd" clip-rule="evenodd" d="M198.868 39.4919C198.977 39.7165 199.172 39.8666 199.454 39.9422C199.682 40.0032 199.897 39.9918 200.099 39.9081C200.302 39.8243 200.457 39.6702 200.563 39.4457C200.678 39.2349 200.858 39.0502 201.104 38.8918C201.35 38.7334 201.691 38.5572 202.126 38.3633C202.595 38.1324 202.98 37.9308 203.282 37.7586C203.584 37.5864 203.864 37.3565 204.121 37.0688C204.378 36.7811 204.56 36.4388 204.666 36.0417C204.81 35.505 204.782 34.9826 204.581 34.4744C204.38 33.9662 204.035 33.5173 203.547 33.1276C203.058 32.7379 202.461 32.4486 201.757 32.2597C201.127 32.0911 200.475 32.0226 199.798 32.054C199.121 32.0855 198.491 32.2129 197.908 32.4363C197.686 32.5264 197.515 32.6357 197.393 32.7642C197.271 32.8927 197.18 33.0696 197.12 33.295C197.031 33.6277 197.05 33.9348 197.178 34.2164C197.306 34.498 197.506 34.6752 197.777 34.7478C198.005 34.8088 198.33 34.7868 198.754 34.6817L199.196 34.5931C199.546 34.5028 199.855 34.4447 200.123 34.4188C200.392 34.393 200.651 34.4135 200.9 34.4803C201.204 34.5617 201.424 34.6954 201.56 34.8814C201.696 35.0674 201.732 35.2785 201.669 35.5146C201.606 35.7507 201.486 35.9487 201.309 36.1084C201.133 36.2682 200.884 36.4488 200.563 36.6503C200.121 36.9115 199.757 37.1849 199.471 37.4707C199.185 37.7565 198.975 38.1516 198.84 38.656C198.75 38.9887 198.76 39.2674 198.868 39.4919ZM197.462 43.0491C197.68 43.4296 198.011 43.6793 198.455 43.7985C198.911 43.9205 199.328 43.8713 199.707 43.6507C200.086 43.4301 200.334 43.0998 200.452 42.6597C200.57 42.2197 200.52 41.8095 200.302 41.429C200.084 41.0486 199.748 40.7974 199.292 40.6753C198.848 40.5562 198.436 40.6069 198.057 40.8275C197.678 41.0481 197.43 41.3784 197.312 41.8184C197.194 42.2585 197.244 42.6687 197.462 43.0491Z" fill="#B4BCC5"/>
<path opacity="0.3" fill-rule="evenodd" clip-rule="evenodd" d="M24.6413 61.986C24.8366 62.1472 25.0793 62.2022 25.3695 62.151C25.6039 62.1097 25.7958 62.0068 25.9452 61.8424C26.0945 61.6779 26.1699 61.469 26.1712 61.2156C26.1857 60.9714 26.2714 60.7232 26.4284 60.4711C26.5853 60.219 26.8214 59.9099 27.1366 59.5436C27.4662 59.1287 27.7321 58.7768 27.9344 58.488C28.1366 58.1991 28.2938 57.8665 28.4057 57.49C28.5177 57.1135 28.5373 56.7187 28.4645 56.3058C28.3661 55.7477 28.1162 55.2768 27.7148 54.893C27.3134 54.5092 26.8059 54.2419 26.1924 54.0912C25.5789 53.9404 24.9094 53.929 24.184 54.0569C23.5366 54.1711 22.9103 54.388 22.3049 54.7076C21.6995 55.0272 21.1782 55.4155 20.7409 55.8724C20.5768 56.0509 20.4666 56.2257 20.4104 56.3967C20.3543 56.5677 20.3469 56.7704 20.3882 57.0048C20.4492 57.3508 20.5985 57.6266 20.8362 57.8321C21.0738 58.0376 21.3321 58.1158 21.6112 58.0666C21.8455 58.0253 22.1338 57.8651 22.4759 57.5861L22.8422 57.3144C23.1233 57.0807 23.381 56.8943 23.6154 56.7551C23.8498 56.616 24.0953 56.5238 24.352 56.4785C24.6645 56.4234 24.9229 56.4527 25.127 56.5663C25.3312 56.6799 25.4549 56.8595 25.4982 57.105C25.5415 57.3506 25.5167 57.5851 25.4238 57.8086C25.3309 58.0322 25.1806 58.3061 24.9731 58.6304C24.6809 59.0617 24.4654 59.4708 24.3264 59.8578C24.1875 60.2448 24.1643 60.7006 24.2568 61.2252C24.3178 61.5712 24.446 61.8248 24.6413 61.986ZM24.8791 65.8798C25.2411 66.1382 25.6509 66.2271 26.1085 66.1464C26.5773 66.0637 26.9376 65.8391 27.1894 65.4725C27.4412 65.1058 27.5268 64.6937 27.4461 64.2361C27.3654 63.7785 27.1441 63.4205 26.782 63.1621C26.42 62.9037 26.0046 62.8158 25.5358 62.8985C25.0782 62.9792 24.7235 63.2028 24.4717 63.5695C24.2198 63.9361 24.1343 64.3482 24.215 64.8058C24.2957 65.2634 24.517 65.6214 24.8791 65.8798Z" fill="#B4BCC5"/>
<path fill-rule="evenodd" clip-rule="evenodd" d="M86 84C109.196 84 128 65.196 128 42C128 18.804 109.196 0 86 0C62.804 0 44 18.804 44 42C44 65.196 62.804 84 86 84Z" fill="#DDF8F7"/>
<mask id="mask2" mask-type="alpha" maskUnits="userSpaceOnUse" x="44" y="0" width="84" height="84">
<path fill-rule="evenodd" clip-rule="evenodd" d="M86 84C109.196 84 128 65.196 128 42C128 18.804 109.196 0 86 0C62.804 0 44 18.804 44 42C44 65.196 62.804 84 86 84Z" fill="white"/>
</mask>
<g mask="url(#mask2)">
<path d="M62 31C62 24.3726 67.3726 19 74 19H117C123.075 19 128 23.9249 128 30V98C128 104.075 123.075 109 117 109H73C66.9249 109 62 104.075 62 98V31Z" fill="#4ABBB5"/>
<path d="M71 37C71 32.0294 75.0294 28 80 28H129V75C129 81.0751 124.075 86 118 86H71V37Z" fill="#70D5D0"/>
<path fill-rule="evenodd" clip-rule="evenodd" d="M92.552 54.1107C92.9087 54.3411 93.3338 54.3901 93.8273 54.2579C94.2259 54.1511 94.5435 53.951 94.7801 53.6575C95.0168 53.364 95.1204 53.0103 95.0908 52.5965C95.0851 52.1954 95.2016 51.776 95.4402 51.3382C95.6789 50.9004 96.0467 50.3561 96.5436 49.7053C97.0593 48.9728 97.4732 48.3538 97.7854 47.8484C98.0975 47.343 98.3263 46.7736 98.4719 46.1403C98.6175 45.5069 98.6017 44.8594 98.4243 44.1975C98.1847 43.3031 97.695 42.5764 96.9552 42.0173C96.2155 41.4583 95.3078 41.1072 94.232 40.9641C93.1561 40.821 92.0014 40.9147 90.7677 41.2453C89.6669 41.5402 88.6152 41.9994 87.6125 42.6227C86.6099 43.2461 85.7606 43.9673 85.0647 44.7864C84.8043 45.1054 84.6365 45.4092 84.5613 45.6978C84.486 45.9863 84.4987 46.3184 84.5994 46.6941C84.748 47.2486 85.0399 47.6736 85.4751 47.9692C85.9102 48.2648 86.3651 48.349 86.8396 48.2219C87.2381 48.1151 87.7145 47.8053 88.2688 47.2925L88.8658 46.7875C89.3205 46.3589 89.741 46.0113 90.1273 45.7449C90.5137 45.4784 90.9251 45.2867 91.3616 45.1697C91.893 45.0273 92.3417 45.0317 92.7077 45.1829C93.0737 45.3341 93.3094 45.6064 93.4149 45.9999C93.5203 46.3934 93.507 46.7804 93.375 47.1609C93.243 47.5414 93.0187 48.0137 92.702 48.5778C92.2528 49.3309 91.9329 50.0349 91.7422 50.6899C91.5516 51.3449 91.5689 52.0927 91.7941 52.9334C91.9427 53.4879 92.1954 53.8804 92.552 54.1107ZM93.451 60.4266C94.1072 60.7876 94.8243 60.8638 95.6025 60.6553C96.3996 60.4417 96.9921 60.0146 97.3798 59.3739C97.7675 58.7332 97.8632 58.0461 97.6666 57.3127C97.4701 56.5793 97.0438 56.0321 96.3877 55.6712C95.7315 55.3102 95.0049 55.2365 94.2077 55.45C93.4296 55.6586 92.8466 56.0832 92.4589 56.7239C92.0712 57.3646 91.9755 58.0516 92.1721 58.785C92.3686 59.5184 92.7949 60.0656 93.451 60.4266Z" fill="white"/>
</g>
</svg>
