<svg width="82" height="62" viewBox="0 0 82 62" fill="none" xmlns="http://www.w3.org/2000/svg">
<path fill-rule="evenodd" clip-rule="evenodd" d="M57.4462 61C57.4462 49.402 48.0441 40 36.4462 40C24.8482 40 15.4462 49.402 15.4462 61C29 61 45 61 57.4462 61Z" fill="#3EC1B9"/>
<path d="M30.4462 38.3684C30.4462 37.6127 31.0588 37 31.8146 37H39.0777C39.8335 37 40.4462 37.6127 40.4462 38.3684V45C40.4462 47.7614 38.2076 50 35.4462 50C32.6847 50 30.4462 47.7614 30.4462 45V38.3684Z" fill="#70D5D0"/>
<path fill-rule="evenodd" clip-rule="evenodd" d="M30.4462 43.1818C30.4462 43.1818 31.9462 45 35.4462 45C38.9462 45 40.4462 41.8182 40.4462 41.8182V40.4545L30.4462 40V43.1818Z" fill="#5DCAC4"/>
<path d="M35.6675 18.3945C28.3653 18.3945 22.4462 22.1813 22.4462 29.4867C22.4462 36.792 28.3653 42.713 35.6675 42.713C42.9689 42.713 48.8876 36.792 48.8876 29.4867C48.8876 22.1813 42.9689 18.3945 35.6675 18.3945Z" fill="#70D5D0"/>
<path fill-rule="evenodd" clip-rule="evenodd" d="M41.9462 32C42.7746 32 43.4462 31.3284 43.4462 30.5C43.4462 29.6716 42.7746 29 41.9462 29C41.1177 29 40.4462 29.6716 40.4462 30.5C40.4462 31.3284 41.1177 32 41.9462 32Z" fill="white"/>
<path fill-rule="evenodd" clip-rule="evenodd" d="M29.9462 32C30.7746 32 31.4462 31.3284 31.4462 30.5C31.4462 29.6716 30.7746 29 29.9462 29C29.1177 29 28.4462 29.6716 28.4462 30.5C28.4462 31.3284 29.1177 32 29.9462 32Z" fill="white"/>
<path d="M25.0381 29.3772C25.0381 22.4557 30.2273 16.7669 36.8688 16.1059C36.4425 16.063 36.0104 16.041 35.573 16.041C28.323 16.041 22.4462 22.0114 22.4462 29.3772C22.4462 36.7429 28.323 42.7129 35.573 42.7129C36.0104 42.7129 36.4425 42.6908 36.8688 42.6484C30.2273 41.987 25.0381 36.2982 25.0381 29.3772Z" fill="#5DCAC4"/>
<path d="M35.9996 36C34.9496 36 33.9627 35.5823 33.2911 34.8538C32.8626 34.3886 32.9132 33.6827 33.4031 33.2763C33.8936 32.8699 34.6379 32.9174 35.0664 33.3825C35.2899 33.625 35.6302 33.7641 35.9996 33.7641C36.3691 33.7641 36.71 33.625 36.9335 33.382C37.362 32.9174 38.1063 32.8699 38.5968 33.2763C39.0873 33.6827 39.1373 34.3892 38.7082 34.8538C38.0372 35.5823 37.0497 36 35.9996 36Z" fill="white"/>
<path d="M35.6376 15.2571C30.2128 15.2571 27.5513 15.6416 26.4416 15.3003C25.9978 15.1634 25.52 15.3605 25.309 15.7688C24.423 17.4824 22.4462 22.118 22.4462 29.3775C22.4462 29.3775 25.5876 23.8021 35.5808 23.8021C40.2299 23.8021 39.841 25.3323 48.0864 25.3323C47.1844 14.5103 42.813 15.2571 35.6376 15.2571Z" fill="#3EC1B9"/>
<path d="M27.9847 15.7695C28.0055 15.7299 28.0292 15.6928 28.055 15.6576C27.3595 15.5345 26.8554 15.4081 26.5015 15.301C26.051 15.1641 25.566 15.3612 25.3518 15.7695C24.4526 17.4831 22.4462 22.1187 22.4462 29.3782C22.4462 29.3782 23.2094 28.045 25.1742 26.6828C25.5823 20.9645 27.2019 17.2602 27.9847 15.7695Z" fill="#31B1A9"/>
<g filter="url(#filter0_i)">
<path fill-rule="evenodd" clip-rule="evenodd" d="M9.99045 20.291C15.508 20.291 19.9809 15.7487 19.9809 10.1455C19.9809 4.5423 15.508 0 9.99045 0C4.47287 0 0 4.5423 0 10.1455C0 15.7487 4.47287 20.291 9.99045 20.291Z" fill="#70D5D0"/>
</g>
<path d="M18.9744 10.1455C18.9744 15.2075 14.9376 19.2845 9.99045 19.2845C5.04331 19.2845 1.0065 15.2075 1.0065 10.1455C1.0065 5.08351 5.04331 1.0065 9.99045 1.0065C14.9376 1.0065 18.9744 5.08351 18.9744 10.1455Z" stroke="#70D5D0" stroke-width="2.013" style="mix-blend-mode:multiply"/>
<path d="M10.0227 12.84L7.9478 14.1487C7.49055 14.4371 6.91671 14.0182 7.04842 13.4922L7.6461 11.1052L5.76608 9.52705C5.35172 9.17922 5.57092 8.5015 6.10962 8.46483L8.55388 8.29832L9.46684 6.01425C9.66805 5.51088 10.3773 5.51088 10.5785 6.01425L11.4915 8.29832L13.9358 8.46483C14.4745 8.50155 14.6937 9.17927 14.2793 9.52705L12.3993 11.1052L12.997 13.4922C13.1287 14.0182 12.5549 14.4371 12.0976 14.1487L10.0227 12.84Z" fill="white"/>
<mask id="mask0" mask-type="alpha" maskUnits="userSpaceOnUse" x="5" y="5" width="10" height="10">
<path d="M10.0227 12.84L7.9478 14.1487C7.49055 14.4371 6.91671 14.0182 7.04842 13.4922L7.6461 11.1052L5.76608 9.52705C5.35172 9.17922 5.57092 8.5015 6.10962 8.46483L8.55388 8.29832L9.46684 6.01425C9.66805 5.51088 10.3773 5.51088 10.5785 6.01425L11.4915 8.29832L13.9358 8.46483C14.4745 8.50155 14.6937 9.17927 14.2793 9.52705L12.3993 11.1052L12.997 13.4922C13.1287 14.0182 12.5549 14.4371 12.0976 14.1487L10.0227 12.84Z" fill="white"/>
</mask>
<g mask="url(#mask0)">
<path d="M12.7823 12.5208C10.2035 12.3642 7.94441 10.5874 6.94533 8.35352L6.12119 8.40902C5.58563 8.44513 5.23345 9.21451 5.6454 9.5565L7.63391 11.1566L7.03965 13.5039C6.90871 14.0212 7.47917 14.4331 7.93381 14.1495L9.99664 12.8626L12.0594 14.1495C12.514 14.4331 13.172 14.0606 13.041 13.5432L12.7823 12.5208Z" fill="#DDF8F7"/>
</g>
<path fill-rule="evenodd" clip-rule="evenodd" d="M57.4329 18.0133L54.6088 17.0982C53.7261 16.8122 53.2424 15.8648 53.5284 14.9821C53.6945 14.4696 54.0963 14.0678 54.6088 13.9018L57.4329 12.9867L58.3479 10.1626C58.6339 9.27994 59.5813 8.79625 60.464 9.08226C60.9765 9.24833 61.3783 9.65011 61.5444 10.1626L62.4595 12.9867L65.2835 13.9018C66.1662 14.1878 66.6499 15.1352 66.3639 16.0179C66.1978 16.5304 65.796 16.9322 65.2835 17.0982L62.4595 18.0133L61.5444 20.8374C61.2584 21.7201 60.311 22.2037 59.4283 21.9177C58.9158 21.7517 58.514 21.3499 58.3479 20.8374L57.4329 18.0133Z" fill="#31B1A9"/>
<path fill-rule="evenodd" clip-rule="evenodd" d="M13.9462 41C15.3269 41 16.4462 39.8807 16.4462 38.5C16.4462 37.1193 15.3269 36 13.9462 36C12.5654 36 11.4462 37.1193 11.4462 38.5C11.4462 39.8807 12.5654 41 13.9462 41Z" fill="#31B1A9"/>
<path fill-rule="evenodd" clip-rule="evenodd" d="M46.4462 6C48.103 6 49.4462 4.65685 49.4462 3C49.4462 1.34315 48.103 0 46.4462 0C44.7893 0 43.4462 1.34315 43.4462 3C43.4462 4.65685 44.7893 6 46.4462 6Z" fill="#3EC1B9"/>
<rect x="50.1267" y="48.5879" width="16" height="12.4452" fill="#3EC1B9"/>
<mask id="mask1" mask-type="alpha" maskUnits="userSpaceOnUse" x="50" y="48" width="17" height="14">
<rect x="50.1267" y="48.5879" width="16" height="12.4452" fill="white"/>
</mask>
<g mask="url(#mask1)">
<rect x="51.0763" y="48.5879" width="15.4463" height="3.11129" rx="1.55565" fill="#70D5D0"/>
<mask id="mask2" mask-type="alpha" maskUnits="userSpaceOnUse" x="51" y="48" width="16" height="4">
<rect x="51.0763" y="48.5879" width="15.4463" height="3.11129" rx="1.55565" fill="white"/>
</mask>
<g mask="url(#mask2)">
<rect x="50.0465" y="48.5879" width="16.4761" height="1.55565" fill="#8FE8E3"/>
</g>
<rect x="50.5614" y="51.6992" width="15.4463" height="3.11129" rx="1.55565" fill="#70D5D0"/>
<mask id="mask3" mask-type="alpha" maskUnits="userSpaceOnUse" x="50" y="51" width="17" height="4">
<rect x="50.5614" y="51.6992" width="15.4463" height="3.11129" rx="1.55565" fill="white"/>
</mask>
<g mask="url(#mask3)">
<rect x="49.5316" y="51.6992" width="16.4761" height="1.55565" fill="#8FE8E3"/>
</g>
<rect x="51.0763" y="54.8105" width="15.4463" height="3.11129" rx="1.55565" fill="#70D5D0"/>
<mask id="mask4" mask-type="alpha" maskUnits="userSpaceOnUse" x="51" y="54" width="16" height="4">
<rect x="51.0763" y="54.8105" width="15.4463" height="3.11129" rx="1.55565" fill="white"/>
</mask>
<g mask="url(#mask4)">
<rect x="50.0465" y="54.8105" width="16.4761" height="1.55565" fill="#8FE8E3"/>
</g>
<rect x="51.0763" y="57.9219" width="15.4463" height="3.11129" rx="1.55565" fill="#70D5D0"/>
<mask id="mask5" mask-type="alpha" maskUnits="userSpaceOnUse" x="51" y="57" width="16" height="5">
<rect x="51.0763" y="57.9219" width="15.4463" height="3.11129" rx="1.55565" fill="white"/>
</mask>
<g mask="url(#mask5)">
<rect x="50.0465" y="57.9219" width="16.4761" height="1.55565" fill="#8FE8E3"/>
</g>
<g opacity="0.3">
<path fill-rule="evenodd" clip-rule="evenodd" d="M63.2635 62.1072C68.382 62.1072 72.5313 57.9283 72.5313 52.7733C72.5313 47.6184 68.382 43.4395 63.2635 43.4395C58.145 43.4395 53.9957 47.6184 53.9957 52.7733C53.9957 57.9283 58.145 62.1072 63.2635 62.1072Z" fill="#70D5D0" style="mix-blend-mode:multiply"/>
</g>
</g>
<g filter="url(#filter1_i)">
<path fill-rule="evenodd" clip-rule="evenodd" d="M69.15 61.5227C75.8603 61.5227 81.3 56.0829 81.3 49.3727C81.3 42.6624 75.8603 37.2227 69.15 37.2227C62.4397 37.2227 57 42.6624 57 49.3727C57 56.0829 62.4397 61.5227 69.15 61.5227Z" fill="#70D5D0"/>
</g>
<path d="M79.95 49.3727C79.95 55.3373 75.1147 60.1727 69.15 60.1727C63.1853 60.1727 58.35 55.3373 58.35 49.3727C58.35 43.408 63.1853 38.5727 69.15 38.5727C75.1147 38.5727 79.95 43.408 79.95 49.3727Z" stroke="#70D5D0" stroke-width="2.7" style="mix-blend-mode:multiply"/>
<path d="M69.15 53.0122L66.6448 54.6545C66.0927 55.0165 65.3999 54.4909 65.5589 53.8307L66.2805 50.8352L64.0106 48.8547C63.5103 48.4182 63.775 47.5678 64.4254 47.5217L67.3766 47.3128L68.4789 44.4464C68.7218 43.8147 69.5782 43.8147 69.8211 44.4464L70.9234 47.3128L73.8746 47.5217C74.525 47.5678 74.7897 48.4183 74.2894 48.8547L72.0195 50.8352L72.7411 53.8307C72.9001 54.4909 72.2074 55.0165 71.6552 54.6545L69.15 53.0122Z" fill="white"/>
<mask id="mask6" mask-type="alpha" maskUnits="userSpaceOnUse" x="63" y="43" width="12" height="12">
<path d="M69.15 53.0122L66.6448 54.6545C66.0927 55.0165 65.3999 54.4909 65.5589 53.8307L66.2805 50.8352L64.0106 48.8547C63.5103 48.4182 63.775 47.5678 64.4254 47.5217L67.3766 47.3128L68.4789 44.4464C68.7218 43.8147 69.5782 43.8147 69.8211 44.4464L70.9234 47.3128L73.8746 47.5217C74.525 47.5678 74.7897 48.4183 74.2894 48.8547L72.0195 50.8352L72.7411 53.8307C72.9001 54.4909 72.2074 55.0165 71.6552 54.6545L69.15 53.0122Z" fill="white"/>
</mask>
<g mask="url(#mask6)">
<path d="M72.8079 52.399C69.1397 52.1837 65.9264 49.7419 64.5053 46.6719L63.333 46.7482C62.5712 46.7978 62.0703 47.8551 62.6563 48.3251L65.4848 50.5242L64.6395 53.7501C64.4532 54.4611 65.8033 55.1616 66.45 54.7719L69.15 53.4219L71.85 54.7719C72.4966 55.1616 73.3622 54.5151 73.1759 53.8042L72.8079 52.399Z" fill="#DDF8F7"/>
</g>
<defs>
<filter id="filter0_i" x="0" y="0" width="19.9809" height="20.291" filterUnits="userSpaceOnUse" color-interpolation-filters="sRGB">
<feFlood flood-opacity="0" result="BackgroundImageFix"/>
<feBlend mode="normal" in="SourceGraphic" in2="BackgroundImageFix" result="shape"/>
<feColorMatrix in="SourceAlpha" type="matrix" values="0 0 0 0 0 0 0 0 0 0 0 0 0 0 0 0 0 0 127 0" result="hardAlpha"/>
<feOffset dx="1" dy="1"/>
<feComposite in2="hardAlpha" operator="arithmetic" k2="-1" k3="1"/>
<feColorMatrix type="matrix" values="0 0 0 0 0.560784 0 0 0 0 0.909804 0 0 0 0 0.890196 0 0 0 1 0"/>
<feBlend mode="normal" in2="shape" result="effect1_innerShadow"/>
</filter>
<filter id="filter1_i" x="57" y="37.2227" width="24.3" height="24.3" filterUnits="userSpaceOnUse" color-interpolation-filters="sRGB">
<feFlood flood-opacity="0" result="BackgroundImageFix"/>
<feBlend mode="normal" in="SourceGraphic" in2="BackgroundImageFix" result="shape"/>
<feColorMatrix in="SourceAlpha" type="matrix" values="0 0 0 0 0 0 0 0 0 0 0 0 0 0 0 0 0 0 127 0" result="hardAlpha"/>
<feOffset dx="1" dy="1"/>
<feComposite in2="hardAlpha" operator="arithmetic" k2="-1" k3="1"/>
<feColorMatrix type="matrix" values="0 0 0 0 0.560784 0 0 0 0 0.909804 0 0 0 0 0.890196 0 0 0 1 0"/>
<feBlend mode="normal" in2="shape" result="effect1_innerShadow"/>
</filter>
</defs>
</svg>
