<svg width="24" height="24" viewBox="0 0 24 24" fill="none" xmlns="http://www.w3.org/2000/svg">
<path d="M12.2237 21.1103L12 20.9984L11.7763 21.1103L8.50871 22.7451L6.82608 19.5019L6.71088 19.2799L6.4641 19.2389L2.8597 18.6408L3.4047 15.028L3.44202 14.7807L3.26644 14.6025L0.701963 12L3.26644 9.39752L3.44202 9.21934L3.4047 8.97199L2.8597 5.35918L6.4641 4.76109L6.71088 4.72015L6.82608 4.4981L8.50871 1.25493L11.7763 2.88968L12 3.00161L12.2237 2.88968L15.4913 1.25493L17.1739 4.4981L17.2891 4.72015L17.5359 4.76109L21.1403 5.35918L20.5953 8.97199L20.558 9.21934L20.7336 9.39752L23.298 12L20.7336 14.6025L20.558 14.7807L20.5953 15.028L21.1403 18.6408L17.5359 19.2389L17.2891 19.2799L17.1739 19.5019L15.4913 22.7451L12.2237 21.1103Z" fill="white" stroke="#242424"/>
<path fill-rule="evenodd" clip-rule="evenodd" d="M9.90897 11.8781C8.75034 11.8781 8 11.0305 8 9.95065C8 8.85922 8.75034 8 9.90897 8C11.0897 8 11.851 8.85922 11.851 9.95065C11.851 11.0305 11.0897 11.8781 9.90897 11.8781ZM10.1297 15.8607H9.18069L13.8814 8.11611H14.8414L10.1297 15.8607ZM12.16 14.0726C12.16 15.1524 12.9103 16 14.069 16C15.2386 16 16 15.1524 16 14.0726C16 12.9811 15.2386 12.1219 14.069 12.1219C12.9103 12.1219 12.16 12.9811 12.16 14.0726ZM9.90897 10.8099C10.3393 10.8099 10.6703 10.508 10.6703 9.95065C10.6703 9.3701 10.3393 9.06821 9.90897 9.06821C9.48966 9.06821 9.16966 9.3701 9.16966 9.95065C9.16966 10.508 9.48966 10.8099 9.90897 10.8099ZM14.8303 14.0726C14.8303 14.6415 14.4993 14.9318 14.069 14.9318C13.6386 14.9318 13.3297 14.6415 13.3297 14.0726C13.3297 13.492 13.6386 13.1901 14.069 13.1901C14.4993 13.1901 14.8303 13.492 14.8303 14.0726Z" fill="#242424"/>
</svg>
