<svg width="220" height="106" viewBox="0 0 220 106" fill="none" xmlns="http://www.w3.org/2000/svg">
<path fill-rule="evenodd" clip-rule="evenodd" d="M5 100.744C5 100.091 5.52899 99.5625 6.18154 99.5625H14.4891C17.367 99.5625 19.7 97.2295 19.7 94.3516C19.7 91.4736 22.033 89.1406 24.9109 89.1406H26.3C29.6137 89.1406 32.3 86.4543 32.3 83.1406V82C32.3 78.6863 34.9863 76 38.3 76H66.235C68.1791 76 69.7956 77.4965 69.9453 79.4348C70.2696 83.6335 73.7712 86.875 77.9824 86.875H98.5328C101.911 86.875 104.65 89.6138 104.65 92.9922V95.4344C104.65 97.464 106.295 99.1094 108.325 99.1094C110.355 99.1094 112 100.755 112 102.784V105H5V100.744Z" fill="#F4F8F9"/>
<path fill-rule="evenodd" clip-rule="evenodd" d="M98 99.6625C98 95.6032 101.291 92.3125 105.35 92.3125H107.489C110.367 92.3125 112.7 89.9795 112.7 87.1016C112.7 84.2236 115.033 81.8906 117.911 81.8906H140.331C140.866 81.8906 141.3 81.4567 141.3 80.9215C141.3 78.2034 143.503 76 146.221 76H181.135C183.079 76 184.696 77.4965 184.845 79.4348C185.17 83.6335 188.671 86.875 192.882 86.875H198.347C202.226 86.875 205.37 90.0195 205.37 93.8984C205.37 97.7774 208.515 100.922 212.393 100.922H215.922C218.174 100.922 220 102.748 220 105H98V99.6625Z" fill="#F4F8F9"/>
<path fill-rule="evenodd" clip-rule="evenodd" d="M133.907 36.0933L130.431 34.967C129.345 34.615 128.749 33.449 129.101 32.3626C129.306 31.7318 129.8 31.2373 130.431 31.033L133.907 29.9067L135.033 26.4309C135.385 25.3445 136.551 24.7492 137.637 25.1012C138.268 25.3056 138.763 25.8001 138.967 26.4309L140.093 29.9067L143.569 31.033C144.655 31.385 145.251 32.551 144.899 33.6374C144.694 34.2682 144.2 34.7627 143.569 34.967L140.093 36.0933L138.967 39.5691C138.615 40.6555 137.449 41.2508 136.363 40.8988C135.732 40.6944 135.237 40.1999 135.033 39.5691L133.907 36.0933Z" fill="#F4F8F9"/>
<path d="M71 58C68.7909 58 67 59.7909 67 62V72.4042C67 73.0763 67.3358 73.7151 67.9166 74.0687C70.6169 75.7123 72.4193 78.6455 72.4193 82C72.4193 85.3543 70.6169 88.2877 67.9166 89.9313C67.3358 90.2849 67 90.9238 67 91.5958L67 102C67 104.209 68.7909 106 71 106H147C149.209 106 151 104.209 151 102V62C151 59.7909 149.209 58 147 58L71 58Z" fill="#93ACBB"/>
<mask id="mask0" mask-type="alpha" maskUnits="userSpaceOnUse" x="67" y="58" width="84" height="48">
<path d="M71 58C68.7909 58 67 59.7909 67 62V72.4042C67 73.0763 67.3358 73.7151 67.9166 74.0687C70.6169 75.7123 72.4193 78.6455 72.4193 82C72.4193 85.3543 70.6169 88.2877 67.9166 89.9313C67.3358 90.2849 67 90.9238 67 91.5958L67 102C67 104.209 68.7909 106 71 106H147C149.209 106 151 104.209 151 102V62C151 59.7909 149.209 58 147 58L71 58Z" fill="white"/>
</mask>
<g mask="url(#mask0)">
<path d="M101 103C99.3431 103 98 101.657 98 100V64C98 62.3431 99.3431 61 101 61L145 61C146.657 61 148 62.3431 148 64V100C148 101.657 146.657 103 145 103H101Z" fill="#B6CBD7"/>
<path fill-rule="evenodd" clip-rule="evenodd" d="M75 63C75 61.8954 75.8954 61 77 61H87C88.1046 61 89 61.8954 89 63V101C89 102.105 88.1046 103 87 103H77C75.8954 103 75 102.105 75 101V63Z" fill="#B6CBD7"/>
<rect x="92" y="82" width="3" height="6" rx="1.5" fill="white"/>
<rect x="92" y="73" width="3" height="6" rx="1.5" fill="white"/>
<rect x="92" y="64" width="3" height="6" rx="1.5" fill="white"/>
<path d="M92 58H95V59.5C95 60.3284 94.3284 61 93.5 61C92.6716 61 92 60.3284 92 59.5V58Z" fill="white"/>
<rect x="92" y="91" width="3" height="7" rx="1.5" fill="white"/>
<path d="M92 103.5C92 102.672 92.6716 102 93.5 102C94.3284 102 95 102.672 95 103.5V106H92V103.5Z" fill="white"/>
<path d="M123 90.4359L116.041 94.6938C114.508 95.6321 112.583 94.2695 113.025 92.5579L115.029 84.7918L108.724 79.6573C107.334 78.5256 108.069 76.3206 109.876 76.2013L118.074 75.6596L121.136 68.2283C121.811 66.5906 124.189 66.5906 124.864 68.2283L127.926 75.6596L136.124 76.2013C137.931 76.3208 138.666 78.5258 137.276 79.6573L130.971 84.7918L132.975 92.5579C133.417 94.2695 131.493 95.6323 129.959 94.6938L123 90.4359Z" fill="white"/>
<mask id="mask1" mask-type="alpha" maskUnits="userSpaceOnUse" x="108" y="67" width="30" height="28">
<path d="M123 90.4359L116.041 94.6938C114.508 95.6321 112.583 94.2695 113.025 92.5579L115.029 84.7918L108.724 79.6573C107.334 78.5256 108.069 76.3206 109.876 76.2013L118.074 75.6596L121.136 68.2283C121.811 66.5906 124.189 66.5906 124.864 68.2283L127.926 75.6596L136.124 76.2013C137.931 76.3208 138.666 78.5258 137.276 79.6573L130.971 84.7918L132.975 92.5579C133.417 94.2695 131.493 95.6323 129.959 94.6938L123 90.4359Z" fill="white"/>
</mask>
<g mask="url(#mask1)">
<path d="M133.056 89.4341C124.225 88.9291 116.489 83.2012 113.068 76L110.246 76.1789C108.412 76.2953 107.206 78.7756 108.617 79.878L115.426 85.0363L113.391 92.6033C112.943 94.271 114.896 95.5987 116.453 94.6844L123.517 90.5358L130.581 94.6844C132.137 95.5987 134.391 94.3978 133.942 92.7301L133.056 89.4341Z" fill="#F4F8F9"/>
</g>
</g>
<path fill-rule="evenodd" clip-rule="evenodd" d="M171.667 104.971C167.929 104.65 165 101.651 165 98C165 94.134 168.283 91 172.333 91C175.205 91 177.692 92.5758 178.895 94.8711C179.147 94.8362 179.405 94.8182 179.667 94.8182C182.612 94.8182 185 97.0975 185 99.9091C185 102.721 182.612 105 179.667 105H171.667V104.971Z" fill="#B6CBD7"/>
<path fill-rule="evenodd" clip-rule="evenodd" d="M12.7073 79C21.4878 79 25 71.8571 25 65.4286C25 59 18.561 49 12.7073 49C6.85366 49 1 60.4286 1 65.4286C1 70.4286 3.92683 79 12.7073 79Z" fill="#D2E5ED"/>
<path fill-rule="evenodd" clip-rule="evenodd" d="M12.5 87C20.9821 87 25 77.413 25 73.7609C25 70.1087 16.5179 70.1087 18.75 67.8261C24.6952 61.7465 15.1786 45 12.5 45C9.82143 45 0.756135 62.208 6.25 67.8261C8.48214 70.1087 0 70.1087 0 73.7609C0 77.413 4.01786 87 12.5 87Z" fill="#B6CBD7"/>
<path fill-rule="evenodd" clip-rule="evenodd" d="M11.6397 73.3331C11.6547 72.5925 12.2593 72 13 72C13.7407 72 14.3453 72.5925 14.3603 73.3331L15 105H11L11.6397 73.3331Z" fill="#93ACBB"/>
<path fill-rule="evenodd" clip-rule="evenodd" d="M87.025 21.9623C86.72 21.9873 86.4115 22 86.1 22C79.9696 22 75 17.0751 75 11C75 4.92487 79.9696 0 86.1 0C90.4388 0 94.1962 2.467 96.0218 6.06277C96.9603 5.69943 97.9817 5.5 99.05 5.5C103.648 5.5 107.375 9.19365 107.375 13.75C107.375 15.5907 106.767 17.2905 105.738 18.663C107.07 20.1344 108.834 21.2157 110.847 21.7143L112 22H87.025V21.9623Z" fill="#F4F8F9"/>
<rect x="29.5335" y="29.6693" width="32" height="31" rx="3" transform="rotate(-15 29.5335 29.6693)" fill="#93ACBB"/>
<rect x="31.983" y="31.0834" width="28" height="27" rx="2" transform="rotate(-15 31.983 31.0834)" fill="#B6CBD7"/>
<path d="M50.2662 45.2253L46.8628 48.6561C46.1128 49.4122 44.7959 48.9589 44.7987 47.9456L44.8119 43.3478L40.3982 41.4929C39.4255 41.0841 39.5254 39.7528 40.5549 39.4064L45.2258 37.8344L45.9013 33.2571C46.0502 32.2484 47.4289 31.879 48.0622 32.6781L50.9358 36.3044L55.767 35.3303C56.8317 35.1157 57.5839 36.2186 56.9459 37.059L54.0509 40.8722L56.3613 44.8474C56.8704 45.7236 55.9567 46.7746 54.929 46.4948L50.2662 45.2253Z" fill="white"/>
<mask id="mask2" mask-type="alpha" maskUnits="userSpaceOnUse" x="38" y="29" width="22" height="22">
<path d="M50.2662 45.2253L46.8628 48.6561C46.1128 49.4122 44.7959 48.9589 44.7987 47.9456L44.8119 43.3478L40.3982 41.4929C39.4255 41.0841 39.5254 39.7528 40.5549 39.4064L45.2258 37.8344L45.9013 33.2571C46.0502 32.2484 47.4289 31.879 48.0622 32.6781L50.9358 36.3044L55.767 35.3303C56.8317 35.1157 57.5839 36.2186 56.9459 37.059L54.0509 40.8722L56.3613 44.8474C56.8704 45.7236 55.9567 46.7746 54.929 46.4948L50.2662 45.2253Z" fill="white"/>
</mask>
<g mask="url(#mask2)">
<path d="M55.3766 43.2199C50.3799 44.2561 45.2108 42.2081 42.2252 38.6919L40.6794 39.2133C39.6748 39.5523 39.3744 41.1193 40.3257 41.5252L44.8932 43.3931L44.8931 47.9285C44.8931 48.9281 46.1806 49.3789 46.9112 48.6352L50.226 45.2604L54.784 46.5257C55.7884 46.8045 56.8641 45.7965 56.3643 44.9308L55.3766 43.2199Z" fill="#F4F8F9"/>
</g>
<rect x="167.118" y="26.7242" width="28.48" height="27.59" rx="2.67" transform="rotate(15 167.118 26.7242)" fill="#93ACBB"/>
<rect x="168.376" y="28.9042" width="24.92" height="24.03" rx="1.78" transform="rotate(15 168.376 28.9042)" fill="#B6CBD7"/>
<path d="M176.745 38.791C177.542 37.7591 178.87 37.2445 180.16 37.5904C181.899 38.0563 182.749 39.893 182.427 41.7242C182.427 41.7242 182.393 42.1911 181.992 42.9406C181.445 43.9612 180.587 44.7683 179.582 45.2903L174.28 47.9926L171.111 43.02C170.501 42.0657 170.162 40.9376 170.199 39.7805C170.226 38.9308 170.43 38.5094 170.43 38.5094C171.067 36.7625 172.721 35.5969 174.46 36.0627C175.751 36.4086 176.571 37.4988 176.745 38.791Z" fill="white"/>
<path d="M181.542 43.2735C182.163 42.4819 183.202 42.0909 184.216 42.3626C185.582 42.7287 186.257 44.1471 186.012 45.5564C186.012 45.5564 185.987 45.916 185.675 46.4916C185.251 47.2756 184.581 47.8938 183.794 48.2918L179.645 50.3516L177.138 46.508C176.656 45.7703 176.385 44.8999 176.409 44.0087C176.427 43.3543 176.585 43.0305 176.585 43.0305C177.078 41.6874 178.371 40.7963 179.737 41.1624C180.752 41.4341 181.399 42.2773 181.542 43.2735Z" fill="#F4F8F9"/>
</svg>
