<svg width="18" height="18" viewBox="0 0 18 18" fill="none" xmlns="http://www.w3.org/2000/svg">
<path d="M17.5 9C17.5 13.6944 13.6944 17.5 9 17.5C4.30558 17.5 0.5 13.6944 0.5 9C0.5 4.30558 4.30558 0.5 9 0.5C13.6944 0.5 17.5 4.30558 17.5 9Z" fill="#F4F8F9" stroke="#242424"/>
<path fill-rule="evenodd" clip-rule="evenodd" d="M8.12115 10.7784C8.12555 10.8559 8.13216 10.9403 8.14097 11.0315H9.46256C9.45374 10.9859 9.44934 10.9494 9.44934 10.922V10.8536C9.44934 10.3064 9.6696 9.87323 10.1101 9.55404L10.6784 9.14364C11.0661 8.86092 11.3833 8.52577 11.63 8.13817C11.8767 7.75057 12 7.28318 12 6.73598C12 6.38942 11.9339 6.05199 11.8018 5.72367C11.6696 5.39535 11.478 5.10351 11.2269 4.84815C10.9758 4.59279 10.6608 4.3876 10.2819 4.23256C9.90308 4.07752 9.47137 4 8.98678 4C8.48458 4 8.04846 4.08436 7.67841 4.25308C7.30837 4.4218 6.9978 4.64295 6.7467 4.91655C6.49559 5.19015 6.30837 5.49795 6.18502 5.83995C6.06167 6.18194 6 6.52166 6 6.8591C6 7.0871 6.02643 7.29685 6.0793 7.48837L7.57269 7.59781C7.54626 7.52485 7.52643 7.42909 7.51322 7.31053C7.5 7.19197 7.49339 7.08254 7.49339 6.98222C7.49339 6.7907 7.52423 6.60146 7.5859 6.4145C7.64758 6.22754 7.74229 6.0611 7.87004 5.91518C7.9978 5.76927 8.15418 5.65071 8.33921 5.55951C8.52423 5.46831 8.74009 5.42271 8.98678 5.42271C9.22467 5.42271 9.43392 5.46147 9.61454 5.53899C9.79516 5.61651 9.94493 5.71911 10.0639 5.84679C10.1828 5.97446 10.2709 6.12266 10.3282 6.29138C10.3855 6.4601 10.4141 6.6311 10.4141 6.80438C10.4141 7.0415 10.3656 7.25809 10.2687 7.45417C10.1718 7.65025 10.0132 7.83037 9.79295 7.99453L9.18502 8.44596C8.79735 8.7378 8.52203 9.05244 8.35903 9.38988C8.19603 9.72732 8.11454 10.1012 8.11454 10.5116C8.11454 10.6119 8.11674 10.7009 8.12115 10.7784ZM8.12775 12.29C7.94273 12.4907 7.85022 12.7278 7.85022 13.0014C7.85022 13.275 7.94273 13.5098 8.12775 13.7059C8.31278 13.902 8.54185 14 8.81498 14C9.0793 14 9.30617 13.902 9.49559 13.7059C9.68502 13.5098 9.77974 13.275 9.77974 13.0014C9.77974 12.7278 9.68502 12.4907 9.49559 12.29C9.30617 12.0894 9.0793 11.9891 8.81498 11.9891C8.54185 11.9891 8.31278 12.0894 8.12775 12.29Z" fill="#242424"/>
</svg>
