<svg width="22" height="22" viewBox="0 0 22 22" fill="none" xmlns="http://www.w3.org/2000/svg">
<path fill-rule="evenodd" clip-rule="evenodd" d="M19.6429 0H2.35714C1.05533 0 0 1.05533 0 2.35714V19.6429C0 20.9447 1.05533 22 2.35714 22H19.6429C20.9447 22 22 20.9447 22 19.6429V2.35714C22 1.05533 20.9447 0 19.6429 0ZM10.2143 3.14286H18.0714C18.5054 3.14286 18.8571 3.49463 18.8571 3.92857C18.8571 4.36251 18.5054 4.71429 18.0714 4.71429H10.2143C9.78035 4.71429 9.42857 4.36251 9.42857 3.92857C9.42857 3.49463 9.78035 3.14286 10.2143 3.14286ZM10.2143 6.28571H18.0714C18.5054 6.28571 18.8571 6.63749 18.8571 7.07143C18.8571 7.50537 18.5054 7.85714 18.0714 7.85714H10.2143C9.78035 7.85714 9.42857 7.50537 9.42857 7.07143C9.42857 6.63749 9.78035 6.28571 10.2143 6.28571ZM5.5 3.14286C6.80181 3.14286 7.85714 4.19819 7.85714 5.5C7.85714 6.80181 6.80181 7.85714 5.5 7.85714C4.19819 7.85714 3.14286 6.80181 3.14286 5.5C3.14286 4.19819 4.19819 3.14286 5.5 3.14286ZM20.4286 19.6429C20.4286 20.0768 20.0768 20.4286 19.6429 20.4286H2.35714C1.9232 20.4286 1.57143 20.0768 1.57143 19.6429V11H20.4286V19.6429Z" fill="#B4BCC5"/>
</svg>
