<svg width="24" height="24" viewBox="0 0 24 24" fill="none" xmlns="http://www.w3.org/2000/svg">
<rect opacity="0.01" width="24" height="24" rx="2" fill="#D8D8D8"/>
<rect x="3" y="6" width="18" height="1" rx="0.5" fill="#B4BCC5"/>
<path d="M14.5 9C15.8807 9 17 7.88071 17 6.5C17 5.11929 15.8807 4 14.5 4C13.1193 4 12 5.11929 12 6.5C12 7.88071 13.1193 9 14.5 9Z" fill="#B4BCC5" stroke="white" stroke-width="2"/>
<rect x="3" y="18" width="18" height="1" rx="0.5" fill="#B4BCC5"/>
<path d="M12.5 21C13.8807 21 15 19.8807 15 18.5C15 17.1193 13.8807 16 12.5 16C11.1193 16 10 17.1193 10 18.5C10 19.8807 11.1193 21 12.5 21Z" fill="#B4BCC5" stroke="white" stroke-width="2"/>
<rect x="3" y="12" width="18" height="1" rx="0.5" fill="#B4BCC5"/>
<path d="M9.5 15C10.8807 15 12 13.8807 12 12.5C12 11.1193 10.8807 10 9.5 10C8.11929 10 7 11.1193 7 12.5C7 13.8807 8.11929 15 9.5 15Z" fill="#B4BCC5" stroke="white" stroke-width="2"/>
</svg>
