<svg width="49" height="54" viewBox="0 0 49 54" fill="none" xmlns="http://www.w3.org/2000/svg">
<path fill-rule="evenodd" clip-rule="evenodd" d="M48.6028 15.8591C47.6948 13.0445 46.1625 11.0341 43.9493 9.77036C41.5659 8.3344 39.1826 6.95589 36.7992 5.57737L36.7992 5.57735L36.7989 5.57716C34.4154 4.19857 32.0319 2.81998 29.6484 1.38396C28.1162 0.522341 26.584 0.0628123 24.8815 0.00537116C22.8385 -0.0520699 21.0793 0.350018 19.547 1.26908C18.8661 1.67113 18.1852 2.05882 17.5042 2.44652L17.5041 2.44662C16.8231 2.83434 16.1421 3.22207 15.4611 3.62416C12.0561 5.57716 8.53764 7.64504 5.07592 9.71292C1.78446 11.7234 0.025222 14.8252 0.025222 18.6163C-0.0127085 21.1118 6.53444e-05 23.633 0.0127085 26.1284C0.0189813 27.3665 0.025222 28.5982 0.025222 29.8173V35.3891C0.025222 36.4805 0.19547 37.5144 0.479218 38.376C1.38721 41.0183 2.91944 43.0288 5.07592 44.2925L5.07624 44.2926L5.07647 44.2928C7.40301 45.6713 9.72956 47.0497 12.1129 48.3708C14.4963 49.7494 16.8798 51.1279 19.2633 52.564C20.682 53.4256 22.1575 53.8851 23.86 54H24.6545C26.4705 54 28.1162 53.5405 29.5917 52.6789C32.2012 51.1327 34.8643 49.5685 37.5409 47.9963C39.6373 46.765 41.742 45.5287 43.8358 44.2925C45.368 43.4308 46.6165 42.2246 47.5245 40.6162C48.546 38.8356 49 37.3421 49 35.7337V18.5588C49 17.7547 48.8865 16.7782 48.6028 15.8591ZM38.4446 15.457L21.4765 35.6763L10.2969 26.658C9.67263 26.1411 8.76464 26.256 8.31064 26.8878C7.7999 27.5197 7.9134 28.4387 8.53764 28.8982L20.7955 38.7781C21.0793 39.0079 21.363 39.0653 21.7035 39.0653C22.1008 39.0653 22.498 38.893 22.7818 38.5483L40.6578 17.2377C41.1686 16.6058 41.1118 15.7442 40.4876 15.2273C39.8633 14.8252 38.9553 14.8826 38.4446 15.457ZM45.0275 39.2951C45.822 37.9739 46.1625 36.8826 46.1625 35.8486H46.1058V18.6737C46.1058 17.9844 45.9923 17.2951 45.822 16.7207C45.141 14.5954 44.0628 13.1594 42.4738 12.2403C40.0905 10.8044 37.7071 9.42586 35.3238 8.04735L35.3234 8.04712C32.9399 6.66854 30.5564 5.28995 28.173 3.85392C27.0947 3.22207 25.9597 2.87743 24.7112 2.81998H24.3707C23.0088 2.81998 21.9305 3.10719 20.909 3.73904C20.228 4.14113 19.547 4.52886 18.866 4.9166C18.185 5.30432 17.504 5.69204 16.8231 6.09413C15.6355 6.79534 14.434 7.49655 13.2285 8.2002C10.9775 9.51398 8.71202 10.8363 6.49466 12.1829C3.99768 13.7338 2.80595 15.8017 2.80595 18.6737V29.8747V35.4465C2.80595 36.2507 2.91944 36.94 3.14644 37.5144C3.82744 39.5823 4.90567 40.9609 6.49466 41.8799C7.65802 42.5692 8.83558 43.2442 10.0131 43.9191C11.1907 44.594 12.3682 45.269 13.5316 45.9582C14.7233 46.6475 15.9151 47.3512 17.1068 48.0549C18.2986 48.7585 19.4903 49.4622 20.682 50.1514C21.7035 50.7833 22.7818 51.1279 24.0302 51.2428C25.6192 51.3003 26.9245 51.0131 28.1162 50.3238C32.7697 47.5666 37.5934 44.752 42.4171 41.9374C43.5521 41.3055 44.4033 40.4439 45.0275 39.2951Z" fill="url(#paint0_linear)"/>
<defs>
<linearGradient id="paint0_linear" x1="7.5076e-08" y1="33.8803" x2="49" y2="33.8803" gradientUnits="userSpaceOnUse">
<stop stop-color="#990B9B"/>
<stop offset="1" stop-color="#B71A85"/>
</linearGradient>
</defs>
</svg>
