<svg width="18" height="18" viewBox="0 0 18 18" fill="none" xmlns="http://www.w3.org/2000/svg">
<path d="M17.5 9C17.5 13.6944 13.6944 17.5 9 17.5C4.30558 17.5 0.5 13.6944 0.5 9C0.5 4.30558 4.30558 0.5 9 0.5C13.6944 0.5 17.5 4.30558 17.5 9Z" stroke="#4ABBB5"/>
<path d="M8.93138 6.076C8.68338 6.076 8.47938 6.004 8.31938 5.86C8.15938 5.716 8.07938 5.528 8.07938 5.296C8.07938 5.064 8.15938 4.876 8.31938 4.732C8.47938 4.58 8.68338 4.504 8.93138 4.504C9.17938 4.504 9.38338 4.58 9.54338 4.732C9.70338 4.876 9.78338 5.064 9.78338 5.296C9.78338 5.528 9.70338 5.716 9.54338 5.86C9.38338 6.004 9.17938 6.076 8.93138 6.076ZM8.23538 7.108H9.61538V13H8.23538V7.108Z" fill="#4ABBB5"/>
</svg>
