<svg width="24" height="24" viewBox="0 0 24 24" fill="none" xmlns="http://www.w3.org/2000/svg">
<rect x="17.8388" y="0.00439453" width="8" height="25" rx="4" transform="rotate(45 17.8388 0.00439453)" fill="white"/>
<path d="M13.754 2.46648L9.99959 6.1288C9.74368 6.37843 9.74368 6.7849 9.99959 7.03453C10.2522 7.28092 10.6585 7.28092 10.9111 7.03453L14.6655 3.37217C15.3884 2.66702 16.3539 2.2787 17.3862 2.2787C18.4188 2.2787 19.3841 2.6671 20.1073 3.37257C20.8293 4.0768 21.2262 5.01562 21.2262 6.01868C21.2262 7.02165 20.8293 7.9601 20.1073 8.6644L15.1982 13.4543C13.699 14.9168 11.2552 14.9168 9.75558 13.4543C9.50302 13.2079 9.09669 13.2079 8.8441 13.4543C8.5882 13.7039 8.5882 14.1104 8.8441 14.36C9.81988 15.3115 11.1229 15.8261 12.4767 15.8261C13.8307 15.8261 15.1341 15.3114 16.1093 14.36L21.0192 9.57013C21.9877 8.62545 22.5217 7.36325 22.5217 6.01829C22.5217 4.67333 21.9877 3.41114 21.0192 2.46646C19.0158 0.511304 15.7577 0.511051 13.754 2.46648Z" fill="#242424"/>
<path d="M8.45346 20.1194C7.76952 20.8366 6.85857 21.2306 5.88561 21.2306C4.91279 21.2306 4.00217 20.8367 3.31772 20.1193C1.89489 18.6272 1.89488 16.1933 3.31779 14.7007L7.70338 10.1016C9.12023 8.61611 11.4221 8.61635 12.8391 10.1016C13.0849 10.3593 13.4875 10.3593 13.7333 10.1016C13.973 9.85024 13.973 9.44805 13.7333 9.19673C11.8259 7.19562 8.71679 7.19535 6.80912 9.19676L2.42315 13.7963C1.50517 14.759 1 16.0429 1 17.4105C1 18.7778 1.50545 20.0619 2.42358 21.0243C3.34404 21.9891 4.5745 22.5219 5.88523 22.5219C7.19704 22.5219 8.42745 21.9893 9.34734 21.0242L12.3623 17.8625C12.6019 17.6111 12.6019 17.2089 12.3623 16.9576C12.1166 16.7 11.7145 16.7002 11.4686 16.9574L8.45346 20.1194Z" fill="#242424"/>
</svg>
