<svg width="23" height="23" viewBox="0 0 23 23" fill="none" xmlns="http://www.w3.org/2000/svg">
<path d="M5.51623 22.1936V18.7961C5.51623 18.479 5.3495 18.1675 5.05319 18.0095C1.28424 15.9995 0.485 12.5959 0.485 10.0332C0.485 4.64169 5.148 0.485 11.5004 0.485C17.8527 0.485 22.515 4.64165 22.515 10.0332C22.515 15.4247 17.8521 19.5806 11.4996 19.5806C11.3009 19.5806 11.1028 19.5695 10.89 19.5567L10.8889 19.5566L10.7647 19.5494C10.5584 19.5281 10.3774 19.598 10.2481 19.6824L5.51623 22.1936Z" fill="white" stroke="#242424" stroke-width="0.97"/>
<rect x="5" y="9" width="3" height="3" rx="1.5" fill="#242424"/>
<rect x="10" y="9" width="3" height="3" rx="1.5" fill="#242424"/>
<rect x="15" y="9" width="3" height="3" rx="1.5" fill="#242424"/>
</svg>
