<svg width="105" height="112" viewBox="0 0 105 112" fill="none" xmlns="http://www.w3.org/2000/svg">
<path fill-rule="evenodd" clip-rule="evenodd" d="M58.5415 29.032C58.6672 29.1793 58.8427 29.253 59.068 29.253C59.25 29.253 59.4082 29.201 59.5425 29.097C59.6768 28.993 59.7613 28.8457 59.796 28.655C59.8393 28.473 59.9368 28.2975 60.0885 28.1285C60.2402 27.9595 60.459 27.758 60.745 27.524C61.0483 27.2553 61.2953 27.0257 61.486 26.835C61.6767 26.6443 61.8392 26.4147 61.9735 26.146C62.1078 25.8773 62.175 25.5827 62.175 25.262C62.175 24.8287 62.0493 24.4408 61.798 24.0985C61.5467 23.7562 61.2 23.4875 60.758 23.2925C60.316 23.0975 59.8133 23 59.25 23C58.7473 23 58.2468 23.0802 57.7485 23.2405C57.2502 23.4008 56.806 23.624 56.416 23.91C56.2687 24.0227 56.1625 24.1397 56.0975 24.261C56.0325 24.3823 56 24.534 56 24.716C56 24.9847 56.0758 25.2122 56.2275 25.3985C56.3792 25.5848 56.5633 25.678 56.78 25.678C56.962 25.678 57.2003 25.5957 57.495 25.431L57.807 25.275C58.0497 25.1363 58.2685 25.0302 58.4635 24.9565C58.6585 24.8828 58.8557 24.846 59.055 24.846C59.2977 24.846 59.4883 24.9023 59.627 25.015C59.7657 25.1277 59.835 25.2793 59.835 25.47C59.835 25.6607 59.7852 25.834 59.6855 25.99C59.5858 26.146 59.4363 26.3323 59.237 26.549C58.9597 26.835 58.743 27.1145 58.587 27.3875C58.431 27.6605 58.353 28.0007 58.353 28.408C58.353 28.6767 58.4158 28.8847 58.5415 29.032ZM58.2035 31.996C58.4418 32.2387 58.7387 32.36 59.094 32.36C59.458 32.36 59.7592 32.2387 59.9975 31.996C60.2358 31.7533 60.355 31.4543 60.355 31.099C60.355 30.7437 60.2358 30.4447 59.9975 30.202C59.7592 29.9593 59.458 29.838 59.094 29.838C58.7387 29.838 58.4418 29.9593 58.2035 30.202C57.9652 30.4447 57.846 30.7437 57.846 31.099C57.846 31.4543 57.9652 31.7533 58.2035 31.996Z" fill="#6F28DF"/>
<path fill-rule="evenodd" clip-rule="evenodd" d="M54 9C55.1046 9 56 8.10457 56 7C56 5.89543 55.1046 5 54 5C52.8954 5 52 5.89543 52 7C52 8.10457 52.8954 9 54 9Z" fill="#6F28DF"/>
<path fill-rule="evenodd" clip-rule="evenodd" d="M66.5 51C67.3284 51 68 50.3284 68 49.5C68 48.6716 67.3284 48 66.5 48C65.6716 48 65 48.6716 65 49.5C65 50.3284 65.6716 51 66.5 51Z" fill="#8A4CEC"/>
<path fill-rule="evenodd" clip-rule="evenodd" d="M82.8679 8.49121C82.9762 8.7158 83.1714 8.86587 83.4534 8.94143C83.6812 9.00246 83.8963 8.9911 84.099 8.90735C84.3016 8.82361 84.4562 8.66949 84.5628 8.445C84.6775 8.23414 84.8577 8.0495 85.1036 7.89108C85.3495 7.73265 85.6902 7.55649 86.1257 7.36262C86.5945 7.13162 86.9798 6.93003 87.2816 6.75785C87.5835 6.58566 87.8631 6.35574 88.1203 6.06808C88.3776 5.78041 88.5594 5.43803 88.6658 5.04093C88.8096 4.5043 88.781 3.98189 88.5801 3.47367C88.3792 2.96546 88.0345 2.51652 87.5461 2.12683C87.0577 1.73714 86.461 1.44785 85.756 1.25895C85.127 1.0904 84.4741 1.02186 83.7972 1.05331C83.1204 1.08476 82.4905 1.21219 81.9076 1.43559C81.6858 1.52571 81.5142 1.635 81.3926 1.76346C81.2709 1.89192 81.18 2.06884 81.1196 2.29423C81.0304 2.62694 81.0498 2.93409 81.1778 3.21569C81.3058 3.4973 81.5053 3.67443 81.7764 3.74708C82.0042 3.80811 82.3298 3.78606 82.7532 3.68095L83.1954 3.59238C83.545 3.50203 83.8541 3.44394 84.1226 3.41809C84.3911 3.39225 84.65 3.41275 84.8995 3.47959C85.2031 3.56096 85.423 3.69465 85.5592 3.88067C85.6953 4.06669 85.7318 4.27776 85.6685 4.51388C85.6052 4.74999 85.4854 4.94793 85.3089 5.1077C85.1324 5.26746 84.8835 5.44808 84.5621 5.64956C84.1202 5.91074 83.7563 6.18421 83.4705 6.46997C83.1847 6.75574 82.9742 7.15083 82.839 7.65526C82.7499 7.98797 82.7595 8.26662 82.8679 8.49121ZM81.4614 12.0484C81.6791 12.4288 82.0103 12.6786 82.455 12.7978C82.9105 12.9198 83.3276 12.8705 83.7064 12.6499C84.0852 12.4293 84.3335 12.099 84.4514 11.659C84.5693 11.219 84.5194 10.8087 84.3017 10.4283C84.084 10.0479 83.7473 9.79665 83.2918 9.67459C82.8472 9.55545 82.4354 9.60617 82.0567 9.82676C81.6779 10.0474 81.4296 10.3777 81.3116 10.8177C81.1937 11.2577 81.2437 11.668 81.4614 12.0484Z" fill="#5F1FDA"/>
<path fill-rule="evenodd" clip-rule="evenodd" d="M35.1989 26.8472C35.3942 27.0084 35.6369 27.0634 35.9271 27.0122C36.1615 26.9709 36.3534 26.868 36.5028 26.7036C36.6522 26.5391 36.7275 26.3302 36.7289 26.0768C36.7433 25.8326 36.8291 25.5844 36.986 25.3323C37.1429 25.0802 37.379 24.7711 37.6942 24.4048C38.0238 23.9899 38.2898 23.638 38.492 23.3492C38.6943 23.0603 38.8514 22.7277 38.9634 22.3512C39.0754 21.9747 39.0949 21.5799 39.0221 21.167C38.9237 20.6089 38.6738 20.138 38.2724 19.7542C37.871 19.3704 37.3635 19.1031 36.75 18.9524C36.1365 18.8016 35.4671 18.7902 34.7416 18.9181C34.0942 19.0323 33.4679 19.2492 32.8625 19.5688C32.2572 19.8884 31.7358 20.2767 31.2985 20.7336C31.1344 20.9121 31.0242 21.0869 30.9681 21.2579C30.9119 21.429 30.9045 21.6317 30.9458 21.866C31.0068 22.212 31.1561 22.4878 31.3938 22.6933C31.6314 22.8988 31.8897 22.977 32.1688 22.9278C32.4032 22.8865 32.6914 22.7263 33.0335 22.4473L33.3999 22.1756C33.6809 21.9419 33.9386 21.7555 34.173 21.6164C34.4074 21.4772 34.6529 21.385 34.9096 21.3397C35.2222 21.2846 35.4805 21.3139 35.6847 21.4275C35.8888 21.5411 36.0126 21.7207 36.0558 21.9662C36.0991 22.2118 36.0743 22.4463 35.9814 22.6698C35.8885 22.8934 35.7383 23.1673 35.5307 23.4916C35.2385 23.9229 35.023 24.332 34.8841 24.719C34.7452 25.106 34.7219 25.5618 34.8144 26.0864C34.8755 26.4324 35.0036 26.686 35.1989 26.8472ZM35.4367 30.741C35.7987 30.9994 36.2085 31.0883 36.6661 31.0076C37.1349 30.9249 37.4952 30.7003 37.747 30.3337C37.9989 29.967 38.0844 29.5549 38.0037 29.0973C37.9231 28.6397 37.7017 28.2817 37.3397 28.0233C36.9776 27.7649 36.5622 27.677 36.0934 27.7597C35.6358 27.8404 35.2811 28.064 35.0293 28.4307C34.7775 28.7973 34.6919 29.2094 34.7726 29.667C34.8533 30.1247 35.0746 30.4826 35.4367 30.741Z" fill="#8A4CEC"/>
<path fill-rule="evenodd" clip-rule="evenodd" d="M6 62H46V112H6V62Z" fill="#6F28DF"/>
<path fill-rule="evenodd" clip-rule="evenodd" d="M8.04517 54.6397C8.78978 53.6099 9.98337 53 11.2542 53H40.7458C42.0166 53 43.2102 53.6099 43.9548 54.6397L50 63H2L8.04517 54.6397Z" fill="#8A4CEC"/>
<path fill-rule="evenodd" clip-rule="evenodd" d="M2.06637 63C2.02272 63.2602 2 63.5274 2 63.8C2 66.451 4.14903 68.6 6.8 68.6C9.45097 68.6 11.6 66.451 11.6 63.8C11.6 66.451 13.749 68.6 16.4 68.6C19.051 68.6 21.2 66.451 21.2 63.8C21.2 66.451 23.349 68.6 26 68.6C28.6499 68.6 30.7983 66.4526 30.8 63.8031C30.8017 66.4526 32.9501 68.6 35.6 68.6C38.251 68.6 40.4 66.451 40.4 63.8C40.4 66.451 42.549 68.6 45.2 68.6C47.851 68.6 50 66.451 50 63.8C50 63.5274 49.9773 63.2602 49.9336 63H40.4664C40.4227 63.2602 40.4 63.5274 40.4 63.8C40.4 63.5274 40.3773 63.2602 40.3336 63H30.8664C30.8229 63.2592 30.8002 63.5254 30.8 63.7969C30.7998 63.5254 30.7771 63.2592 30.7336 63H21.2664C21.2227 63.2602 21.2 63.5274 21.2 63.8C21.2 63.5274 21.1773 63.2602 21.1336 63H11.6664C11.6227 63.2602 11.6 63.5274 11.6 63.8C11.6 63.5274 11.5773 63.2602 11.5336 63H2.06637Z" fill="white"/>
<path d="M11 88C11 84.6863 13.6863 82 17 82C20.3137 82 23 84.6863 23 88V106H11V88Z" fill="#8A4CEC"/>
<path d="M0 112C0 110.343 1.34315 109 3 109H49C50.6569 109 52 110.343 52 112H0Z" fill="#8A4CEC"/>
<path d="M3 109C3 107.343 4.34315 106 6 106H46C47.6569 106 49 107.343 49 109H3Z" fill="#7E3AEA"/>
<rect x="16" y="82" width="2" height="24" fill="#6F28DF"/>
<path d="M11 84C11 82.8954 11.8954 82 13 82H21C22.1046 82 23 82.8954 23 84V90H11V84Z" fill="white"/>
<g opacity="0.3">
<rect x="11" y="90" width="12" height="2" fill="#8A4CEC" style="mix-blend-mode:multiply"/>
</g>
<rect x="19" y="96" width="2" height="2" fill="#6F28DF"/>
<rect x="13" y="96" width="2" height="2" fill="#6F28DF"/>
<rect x="27" y="82" width="14" height="10" rx="1.98" fill="#8A4CEC"/>
<path d="M63 65C63 63.8954 63.8954 63 65 63H83V112H63V65Z" fill="#6F28DF"/>
<rect x="68" y="68" width="4" height="4" rx="1" fill="#8A4CEC"/>
<rect x="74" y="68" width="4" height="4" rx="1" fill="#8A4CEC"/>
<rect x="68" y="75" width="4" height="4" rx="1" fill="#8A4CEC"/>
<rect x="74" y="75" width="4" height="4" rx="1" fill="#A068F8"/>
<rect x="68" y="82" width="4" height="4" rx="1" fill="#A068F8"/>
<rect x="74" y="82" width="4" height="4" rx="1" fill="#8A4CEC"/>
<rect x="68" y="89" width="4" height="4" rx="1" fill="#8A4CEC"/>
<rect x="74" y="89" width="4" height="4" rx="1" fill="#8A4CEC"/>
<rect x="68" y="96" width="10" height="3" rx="1" fill="#A068F8"/>
<path d="M67 111C67 110.448 67.4477 110 68 110H78C78.5523 110 79 110.448 79 111V112H67V111Z" fill="#A068F8"/>
<path d="M69 109C69 108.448 69.4477 108 70 108H76C76.5523 108 77 108.448 77 109V110H69V109Z" fill="#8A4CEC"/>
<path fill-rule="evenodd" clip-rule="evenodd" d="M83 31C83 29.3431 84.3431 28 86 28H89.624C91.0161 28 92.2253 27.0423 92.5442 25.6871L94.7302 16.3967C95.4742 13.2347 98.2957 11 101.544 11L105 11V104C105 108.418 101.418 112 97 112H83V31Z" fill="#7E3AEA"/>
<mask id="mask0" mask-type="alpha" maskUnits="userSpaceOnUse" x="83" y="11" width="22" height="101">
<path fill-rule="evenodd" clip-rule="evenodd" d="M83 31C83 29.3431 84.3431 28 86 28H89.624C91.0161 28 92.2253 27.0423 92.5442 25.6871L94.7302 16.3967C95.4742 13.2347 98.2957 11 101.544 11L105 11V104C105 108.418 101.418 112 97 112H83V31Z" fill="white"/>
</mask>
<g mask="url(#mask0)">
<path fill-rule="evenodd" clip-rule="evenodd" d="M103 25C105.209 25 107 23.2091 107 21C107 18.7909 105.209 17 103 17C100.791 17 99 18.7909 99 21C99 23.2091 100.791 25 103 25Z" fill="#8A4CEC"/>
</g>
<rect x="81" y="63" width="2" height="49" fill="#5F1FDA"/>
<rect x="88" y="40" width="4" height="4" rx="1" fill="#8A4CEC"/>
<rect x="96" y="40" width="4" height="4" rx="1" fill="#A068F8"/>
<rect x="88" y="48" width="4" height="4" rx="1" fill="#8A4CEC"/>
<rect x="96" y="48" width="4" height="4" rx="1" fill="#8A4CEC"/>
<rect x="88" y="56" width="4" height="4" rx="1" fill="#A068F8"/>
<rect x="96" y="56" width="4" height="4" rx="1" fill="#8A4CEC"/>
<rect x="88" y="64" width="4" height="4" rx="1" fill="#8A4CEC"/>
<rect x="96" y="64" width="4" height="4" rx="1" fill="#A068F8"/>
<rect x="88" y="72" width="4" height="4" rx="1" fill="#8A4CEC"/>
<rect x="96" y="72" width="4" height="4" rx="1" fill="#8A4CEC"/>
<rect x="88" y="80" width="4" height="4" rx="1" fill="#8A4CEC"/>
<rect x="96" y="80" width="4" height="4" rx="1" fill="#A068F8"/>
<rect x="88" y="88" width="4" height="4" rx="1" fill="#8A4CEC"/>
<rect x="96" y="88" width="4" height="4" rx="1" fill="#8A4CEC"/>
</svg>
