<svg width="79" height="137" viewBox="0 0 79 137" fill="none" xmlns="http://www.w3.org/2000/svg">
<path d="M49.5 63C52.5376 63 55 60.5376 55 57.5C55 54.4624 52.5376 52 49.5 52C46.4624 52 44 54.4624 44 57.5C44 60.5376 46.4624 63 49.5 63Z" fill="#F4F8F9"/>
<path fill-rule="evenodd" clip-rule="evenodd" d="M133.12 73.2302L135.24 76.0655C138.477 80.4167 137.102 86.5364 132.318 89.1191L129.195 90.8315C125.785 92.6842 123.952 96.474 124.668 100.236L125.327 103.689C126.33 108.966 122.376 113.907 116.904 114.216L113.323 114.412C109.426 114.609 106.103 117.247 105.072 120.953L104.126 124.35C102.665 129.515 96.935 132.294 91.864 130.245L88.5406 128.897C84.9307 127.438 80.7765 128.392 78.198 131.284L75.8487 133.922C72.2675 137.993 65.8785 138.021 62.2114 134.035L59.8334 131.424C57.2263 128.561 53.0434 127.662 49.4622 129.178L46.1674 130.554C41.125 132.687 35.3378 130.02 33.8193 124.855L32.8166 121.486C31.7279 117.809 28.3472 115.226 24.4508 115.058L20.8696 114.917C15.3975 114.693 11.3578 109.808 12.2746 104.531L12.8763 101.078C13.5352 97.2881 11.6443 93.5264 8.20634 91.7298L5.05485 90.0735C0.213026 87.5189 -1.24812 81.4273 1.90337 77.048L3.96616 74.1846C6.2295 71.0405 6.1722 66.8578 3.88021 63.7698L1.76012 60.9345C-1.47732 56.6114 -0.102122 50.4917 4.68241 47.8809L7.80524 46.1685C11.2146 44.3158 13.0482 40.526 12.3319 36.7643L11.673 33.3115C10.6702 28.0339 14.6239 23.0932 20.096 22.7844L23.6773 22.5879C27.5737 22.3913 30.897 19.7526 31.9284 16.047L32.8739 12.6503C34.335 7.48499 40.065 4.70584 45.136 6.75511L48.4594 8.10258C52.0693 9.56234 56.2235 8.60788 58.802 5.71644L61.1513 3.07765C64.7612 -0.992826 71.1501 -1.0209 74.7887 2.96536L77.1666 5.57608C79.7737 8.43945 83.9566 9.33776 87.5378 7.82186L90.8326 6.44632C95.875 4.31283 101.662 6.97969 103.181 12.145L104.183 15.5136C105.272 19.1911 108.653 21.7738 112.549 21.9422L116.13 22.0826C121.603 22.3071 125.642 27.1917 124.725 32.4693L124.124 35.9222C123.465 39.7119 125.356 43.4736 128.794 45.2702L131.945 46.9265C136.787 49.4811 138.248 55.5727 135.097 59.952L133.034 62.8154C130.771 65.9595 130.828 70.1422 133.12 73.2302ZM49.8919 43.0525C42.0991 43.0525 35.7962 49.2284 35.7962 56.8641C35.7962 64.4716 42.0991 70.6756 49.8919 70.6756C57.6847 70.6756 63.9876 64.4997 63.9876 56.8641C63.9876 49.2284 57.6847 43.0525 49.8919 43.0525ZM52.6136 92.4877C51.4104 93.9194 49.233 94.1159 47.7718 92.9369C46.3107 91.7579 46.1101 89.6244 47.3134 88.1927L84.3004 44.5403C85.5037 43.1087 87.6811 42.9122 89.1422 44.0912C90.6034 45.2702 90.8039 47.4037 89.6006 48.8354L52.6136 92.4877ZM72.9551 80.1079C72.9551 87.7435 79.258 93.9194 87.0508 93.9194C94.8436 93.9194 101.147 87.7435 101.147 80.1079C101.147 72.4722 94.8436 66.2963 87.0508 66.2963C79.258 66.2963 72.9551 72.4722 72.9551 80.1079Z" fill="#F4F8F9"/>
</svg>
