<svg width="48" height="48" viewBox="0 0 48 48" fill="none" xmlns="http://www.w3.org/2000/svg">
<g opacity="0.2">
<path d="M17.343 22.0728C18.4073 22.0728 19.27 21.21 19.27 20.1458C19.27 19.0815 18.4073 18.2188 17.343 18.2188C16.2788 18.2188 15.416 19.0815 15.416 20.1458C15.416 21.21 16.2788 22.0728 17.343 22.0728Z" fill="#F4F8F9"/>
<path d="M30.657 29.7808C31.7212 29.7808 32.584 28.918 32.584 27.8538C32.584 26.7895 31.7212 25.9268 30.657 25.9268C29.5927 25.9268 28.73 26.7895 28.73 27.8538C28.73 28.918 29.5927 29.7808 30.657 29.7808Z" fill="#F4F8F9"/>
<path fill-rule="evenodd" clip-rule="evenodd" d="M46.6405 25.6573L47.3833 26.6507C48.5176 28.1752 48.0358 30.3193 46.3594 31.2242L45.2653 31.8242C44.0708 32.4733 43.4284 33.8011 43.6793 35.1191L43.9102 36.3288C44.2615 38.1779 42.8763 39.909 40.9591 40.0172L39.7043 40.086C38.3392 40.1549 37.1748 41.0794 36.8134 42.3777L36.4821 43.5678C35.9702 45.3775 33.9626 46.3512 32.1859 45.6332L31.0215 45.1611C29.7567 44.6497 28.3012 44.9841 27.3978 45.9972L26.5747 46.9217C25.32 48.3479 23.0815 48.3577 21.7967 46.961L20.9635 46.0463C20.0501 45.0431 18.5845 44.7284 17.3298 45.2595L16.1754 45.7414C14.4088 46.4889 12.3811 45.5546 11.8491 43.7448L11.4978 42.5646C11.1163 41.2761 9.93187 40.3712 8.56671 40.3122L7.31197 40.263C5.39473 40.1844 3.97938 38.473 4.3006 36.6239L4.51139 35.4141C4.74227 34.0863 4.07976 32.7684 2.87521 32.1389L1.77104 31.5586C0.074637 30.6636 -0.437297 28.5293 0.666874 26.9949L1.3896 25.9917C2.1826 24.8901 2.16252 23.4246 1.35949 22.3427L0.616684 21.3493C-0.5176 19.8347 -0.0357801 17.6905 1.64055 16.7758L2.73468 16.1758C3.9292 15.5267 4.57162 14.1989 4.32067 12.8809L4.0898 11.6712C3.73847 9.82209 5.12371 8.09103 7.04095 7.98284L8.29569 7.91399C9.66084 7.84514 10.8252 6.9206 11.1866 5.62231L11.5179 4.43222C12.0298 2.62248 14.0374 1.64876 15.8141 2.36675L16.9785 2.83886C18.2433 3.35031 19.6988 3.0159 20.6022 2.00284L21.4253 1.0783C22.6901 -0.347852 24.9285 -0.357687 26.2033 1.03896L27.0365 1.95366C27.9499 2.95689 29.4155 3.27162 30.6702 2.7405L31.8246 2.25856C33.5912 1.51106 35.6189 2.44544 36.1509 4.25518L36.5022 5.43544C36.8837 6.72389 38.0681 7.62876 39.4333 7.68778L40.688 7.73695C42.6053 7.81564 44.0206 9.52702 43.6994 11.3761L43.4886 12.5859C43.2577 13.9137 43.9202 15.2316 45.1248 15.8611L46.229 16.4414C47.9254 17.3364 48.4373 19.4707 47.3331 21.0051L46.6104 22.0083C45.8174 23.1099 45.8375 24.5754 46.6405 25.6573ZM17.4804 15.0841C14.7501 15.0841 12.5417 17.2479 12.5417 19.9232C12.5417 22.5886 14.7501 24.7623 17.4804 24.7623C20.2107 24.7623 22.419 22.5984 22.419 19.9232C22.419 17.2479 20.2107 15.0841 17.4804 15.0841ZM18.434 32.4045C18.0124 32.9061 17.2495 32.9749 16.7376 32.5618C16.2256 32.1487 16.1554 31.4012 16.577 30.8996L29.5359 15.6054C29.9575 15.1038 30.7204 15.0349 31.2323 15.448C31.7442 15.8611 31.8145 16.6086 31.3929 17.1102L18.434 32.4045ZM25.5609 28.067C25.5609 30.7423 27.7692 32.9061 30.4995 32.9061C33.2299 32.9061 35.4382 30.7423 35.4382 28.067C35.4382 25.3917 33.2299 23.2279 30.4995 23.2279C27.7692 23.2279 25.5609 25.3917 25.5609 28.067Z" fill="#F4F8F9"/>
</g>
</svg>
