<svg width="25" height="24" viewBox="0 0 25 24" fill="none" xmlns="http://www.w3.org/2000/svg">
<path d="M8.85887 10.9429C9.42868 10.9429 9.8906 10.4946 9.8906 9.94166C9.8906 9.38869 9.42868 8.94043 8.85887 8.94043C8.28907 8.94043 7.82715 9.38869 7.82715 9.94166C7.82715 10.4946 8.28907 10.9429 8.85887 10.9429Z" fill="#4B03BD"/>
<path d="M15.4131 15.0064C15.9829 15.0064 16.4448 14.5581 16.4448 14.0051C16.4448 13.4522 15.9829 13.0039 15.4131 13.0039C14.8433 13.0039 14.3813 13.4522 14.3813 14.0051C14.3813 14.5581 14.8433 15.0064 15.4131 15.0064Z" fill="#4B03BD"/>
<path fill-rule="evenodd" clip-rule="evenodd" d="M23.5456 12.8031L23.9199 13.2988C24.4914 14.0596 24.2486 15.1295 23.404 15.581L22.8527 15.8804C22.2509 16.2043 21.9272 16.8669 22.0536 17.5246L22.17 18.1283C22.347 19.051 21.649 19.9148 20.6831 19.9688L20.0509 20.0031C19.3631 20.0375 18.7764 20.4988 18.5943 21.1467L18.4274 21.7405C18.1695 22.6436 17.158 23.1295 16.2628 22.7712L15.6762 22.5356C15.0389 22.2804 14.3056 22.4473 13.8504 22.9528L13.4357 23.4142C12.8035 24.1258 11.6757 24.1307 11.0284 23.4338L10.6086 22.9773C10.1484 22.4767 9.40997 22.3197 8.77779 22.5847L8.19618 22.8252C7.30606 23.1982 6.28445 22.7319 6.01641 21.8289L5.83939 21.2399C5.64721 20.597 5.05043 20.1454 4.36261 20.116L3.73043 20.0915C2.76445 20.0522 2.05135 19.1982 2.21319 18.2755L2.31939 17.6718C2.43572 17.0092 2.10192 16.3516 1.49503 16.0375L0.938704 15.7479C0.0839916 15.3013 -0.173939 14.2362 0.382382 13.4706L0.74652 12.97C1.14606 12.4203 1.13595 11.689 0.731348 11.1491L0.357095 10.6534C-0.214399 9.89759 0.0283594 8.82765 0.872957 8.37121L1.42422 8.07182C2.02606 7.74789 2.34974 7.08532 2.2233 6.42765L2.10698 5.82397C1.92997 4.90127 2.6279 4.03746 3.59388 3.98348L4.22606 3.94912C4.91388 3.91476 5.50054 3.45341 5.68261 2.80556L5.84951 2.2117C6.10744 1.30863 7.11893 0.822739 8.01411 1.18102L8.60077 1.4166C9.23802 1.67182 9.97135 1.50495 10.4265 0.999427L10.8412 0.538077C11.4785 -0.17358 12.6063 -0.178488 13.2486 0.518445L13.6684 0.974887C14.1286 1.4755 14.867 1.63256 15.4992 1.36752L16.0808 1.12703C16.9709 0.754028 17.9925 1.22029 18.2605 2.12335L18.4376 2.71231C18.6297 3.35525 19.2265 3.80679 19.9143 3.83624L20.5465 3.86078C21.5125 3.90004 22.2256 4.75403 22.0638 5.67673L21.9576 6.28041C21.8412 6.94299 22.175 7.60065 22.7819 7.91476L23.3382 8.20434C24.193 8.65096 24.4509 9.71599 23.8946 10.4816L23.5304 10.9822C23.1309 11.5319 23.141 12.2632 23.5456 12.8031ZM8.85365 7.52703C7.47801 7.52703 6.36537 8.60679 6.36537 9.94176C6.36537 11.2718 7.47801 12.3565 8.85365 12.3565C10.2293 12.3565 11.3419 11.2767 11.3419 9.94176C11.3419 8.60679 10.2293 7.52703 8.85365 7.52703ZM9.33411 16.17C9.12169 16.4203 8.73732 16.4546 8.47939 16.2485C8.22146 16.0424 8.18606 15.6694 8.39847 15.4191L14.9277 7.78716C15.1401 7.53685 15.5245 7.50249 15.7824 7.70863C16.0403 7.91476 16.0757 8.28777 15.8633 8.53808L9.33411 16.17ZM12.9249 14.0056C12.9249 15.3405 14.0376 16.4203 15.4132 16.4203C16.7888 16.4203 17.9015 15.3405 17.9015 14.0056C17.9015 12.6706 16.7888 11.5908 15.4132 11.5908C14.0376 11.5908 12.9249 12.6706 12.9249 14.0056Z" fill="#4B03BD"/>
</svg>
