<svg width="21" height="18" viewBox="0 0 21 18" fill="none" xmlns="http://www.w3.org/2000/svg">
<path d="M11.7887 1.00977C7.2636 1.00977 3.5838 4.59467 3.5838 8.99845V9.02486L1.95911 6.64373C1.80013 6.40977 1.47441 6.34561 1.234 6.50033C0.993595 6.65505 0.927677 6.97203 1.08666 7.20599L3.44421 10.6588C3.52951 10.7833 3.66523 10.8626 3.81645 10.8815C3.83972 10.8852 3.85911 10.8852 3.88237 10.8852C4.01033 10.8852 4.13441 10.84 4.23135 10.7532L7.50788 7.88146C7.72115 7.69278 7.74053 7.37203 7.54666 7.16071C7.35278 6.95316 7.02319 6.93429 6.80604 7.12297L4.63074 9.03618V8.99845C4.63074 5.15316 7.84135 2.02863 11.7887 2.02863C15.736 2.02863 18.9505 5.15316 18.9505 8.99845C18.9505 12.8437 15.7399 15.9683 11.7926 15.9683C9.88094 15.9683 8.08176 15.2437 6.73237 13.9267C6.52686 13.7267 6.19727 13.7267 5.99176 13.9267C5.78625 14.1267 5.78625 14.4475 5.99176 14.6475C7.54278 16.1569 9.60176 16.9871 11.7926 16.9871C16.3138 16.9871 19.9975 13.406 19.9975 8.99845C19.9975 4.5909 16.3138 1.00977 11.7887 1.00977Z" fill="white" stroke="white" stroke-width="0.7"/>
</svg>
