<svg width="14" height="14" viewBox="0 0 14 14" fill="none" xmlns="http://www.w3.org/2000/svg">
<path fill-rule="evenodd" clip-rule="evenodd" d="M13 8C12.4477 8 12 8.44771 12 9V11C12 11.5523 11.5523 12 11 12H3C2.44772 12 2 11.5523 2 11V3C2 2.44772 2.44772 2 3 2H5C5.55228 2 6 1.55228 6 1C6 0.447715 5.55228 0 5 0H3C1.34315 0 0 1.34315 0 3V11C0 12.6569 1.34315 14 3 14H11C12.6569 14 14 12.6569 14 11V9C14 8.44771 13.5523 8 13 8ZM14 1C14 0.447715 13.5523 0 13 0H9C8.44771 0 8 0.447715 8 1C8 1.55228 8.44771 2 9 2H10.5858L7 5.58579C6.60948 5.97631 6.60948 6.60948 7 7C7.39052 7.39052 8.02369 7.39052 8.41421 7L12 3.41421V5C12 5.55228 12.4477 6 13 6C13.5523 6 14 5.55228 14 5V3V1Z" fill="#B4BCC5"/>
</svg>
