<svg width="16" height="16" viewBox="0 0 16 16" fill="none" xmlns="http://www.w3.org/2000/svg">
<path fill-rule="evenodd" clip-rule="evenodd" d="M8 0C3.6 0 0 3.6 0 8C0 12.4 3.6 16 8 16C12.4 16 16 12.4 16 8C16 3.6 12.4 0 8 0ZM10.8 4.8C11.44 4.8 12 5.36 12 6C12 6.64 11.44 7.2 10.8 7.2C10.16 7.2 9.6 6.64 9.6 6C9.6 5.36 10.16 4.8 10.8 4.8ZM5.2 4.8C5.84 4.8 6.4 5.36 6.4 6C6.4 6.64 5.84 7.2 5.2 7.2C4.56 7.2 4 6.64 4 6C4 5.36 4.56 4.8 5.2 4.8ZM8 12.8C5.92 12.8 4.16 11.44 3.52 9.6H12.48C11.84 11.44 10.08 12.8 8 12.8Z" fill="#B4BCC5"/>
</svg>
