<svg width="10" height="10" viewBox="0 0 10 10" fill="none" xmlns="http://www.w3.org/2000/svg">
<path fill-rule="evenodd" clip-rule="evenodd" d="M0 5C0 2.25 2.25 0 5 0C7.75 0 10 2.25 10 5C10 7.75 7.75 10 5 10C2.25 10 0 7.75 0 5ZM7.5 3.75C7.5 3.35 7.15 3 6.75 3C6.35 3 6 3.35 6 3.75C6 4.15 6.35 4.5 6.75 4.5C7.15 4.5 7.5 4.15 7.5 3.75ZM3.25 3C3.65 3 4 3.35 4 3.75C4 4.15 3.65 4.5 3.25 4.5C2.85 4.5 2.5 4.15 2.5 3.75C2.5 3.35 2.85 3 3.25 3ZM2.2 6C2.6 7.15 3.7 8 5 8C6.3 8 7.4 7.15 7.8 6H2.2Z" fill="#BD10E0"/>
</svg>
