<svg width="30" height="30" viewBox="0 0 30 30" fill="none" xmlns="http://www.w3.org/2000/svg">
<path d="M15.2099 25.4799L15.2047 25.4893C15.1475 25.4635 15.0803 25.4461 15.0037 25.4456C14.9243 25.445 14.8546 25.4626 14.7954 25.4894L14.7902 25.4799L7.97102 29.2236C7.2122 29.6402 6.53537 29.5455 6.09024 29.2077C5.63937 28.8654 5.33317 28.2021 5.48175 27.2975L6.7841 19.3682L6.77374 19.3665C6.7785 19.309 6.77364 19.2463 6.75375 19.1808C6.7326 19.1112 6.69881 19.0529 6.65881 19.0053L6.66641 18.9979C6.66635 18.9978 6.6663 18.9977 6.66625 18.9977L1.14957 13.3823C0.528849 12.7504 0.395149 12.0259 0.572341 11.4569C0.748509 10.8912 1.25648 10.398 2.09909 10.2701L9.72266 9.11332C9.72283 9.1133 9.723 9.11327 9.72317 9.11325L9.72156 9.10263C9.78326 9.08838 9.84696 9.06127 9.90738 9.01606C9.96714 8.97134 10.0103 8.91897 10.0408 8.8658L10.0504 8.87034L13.46 1.65599C13.8472 0.836638 14.4581 0.499871 15.0002 0.5C15.5424 0.500129 16.1532 0.837318 16.5401 1.65599L19.9497 8.87033L19.9592 8.86582C19.9887 8.91715 20.0301 8.96788 20.0871 9.0118C20.1489 9.0594 20.2147 9.08784 20.2785 9.10258L20.2769 9.11325C20.2773 9.1133 20.2776 9.11335 20.2779 9.1134L27.901 10.2701C28.7443 10.3981 29.252 10.8915 29.4278 11.4572C29.6048 12.0264 29.4707 12.751 28.8505 13.3823L23.3337 18.9978L23.3413 19.0053C23.3026 19.0513 23.2696 19.1075 23.2483 19.1745C23.2268 19.242 23.2215 19.307 23.2264 19.3664L23.216 19.3682C23.2161 19.3686 23.2162 19.3691 23.2162 19.3696L24.5183 27.2975C24.667 28.2029 24.3605 28.8659 23.9096 29.2078C23.4643 29.5456 22.7873 29.6399 22.0291 29.2236L15.2103 25.4802C15.2102 25.4801 15.21 25.48 15.2099 25.4799Z" fill="#F4F8F9" stroke="#B4BCC5"/>
</svg>
