<svg width="240" height="127" viewBox="0 0 240 127" fill="none" xmlns="http://www.w3.org/2000/svg">
<path fill-rule="evenodd" clip-rule="evenodd" d="M11.7 21.9623C11.4032 21.9873 11.1031 22 10.8 22C4.83532 22 0 17.0751 0 11C0 4.92487 4.83532 0 10.8 0C15.0216 0 18.6774 2.467 20.4536 6.06277C21.3668 5.69943 22.3605 5.5 23.4 5.5C27.8735 5.5 31.5 9.19365 31.5 13.75C31.5 15.5907 30.9082 17.2905 29.9077 18.663C31.203 20.1344 32.9199 21.2157 34.878 21.7143L36 22H11.7V21.9623Z" fill="white"/>
<path fill-rule="evenodd" clip-rule="evenodd" d="M235.394 59.8178C236.289 60.5429 237.315 61.1091 238.431 61.4793L240 62H223.036C218.598 62 215 58.4183 215 54C215 49.5817 218.598 46 223.036 46C226.541 46 229.523 48.235 230.621 51.3519C230.769 51.3396 230.92 51.3333 231.071 51.3333C234.03 51.3333 236.429 53.7211 236.429 56.6667C236.429 57.8455 236.044 58.935 235.394 59.8178Z" fill="white"/>
<path fill-rule="evenodd" clip-rule="evenodd" d="M16 121.744C16 121.091 16.529 120.562 17.1815 120.562H25.4891C28.367 120.562 30.7 118.229 30.7 115.352C30.7 112.474 33.033 110.141 35.9109 110.141H37.3C40.6137 110.141 43.3 107.454 43.3 104.141V103C43.3 99.6863 45.9863 97 49.3 97H77.235C79.1791 97 80.7956 98.4965 80.9453 100.435C81.2696 104.633 84.7712 107.875 88.9824 107.875H109.533C112.911 107.875 115.65 110.614 115.65 113.992V116.434C115.65 118.464 117.295 120.109 119.325 120.109C121.355 120.109 123 121.755 123 123.784V126H16V121.744Z" fill="#F4F8F9"/>
<path fill-rule="evenodd" clip-rule="evenodd" d="M109 120.663C109 116.603 112.291 113.312 116.35 113.312H118.489C121.367 113.312 123.7 110.979 123.7 108.102C123.7 105.224 126.033 102.891 128.911 102.891H151.331C151.866 102.891 152.3 102.457 152.3 101.921C152.3 99.2034 154.503 97 157.221 97H192.135C194.079 97 195.696 98.4965 195.845 100.435C196.17 104.633 199.671 107.875 203.882 107.875H209.347C213.226 107.875 216.37 111.019 216.37 114.898C216.37 118.777 219.515 121.922 223.393 121.922H226.922C229.174 121.922 231 123.748 231 126H109V120.663Z" fill="#F4F8F9"/>
<path fill-rule="evenodd" clip-rule="evenodd" d="M118.985 119.75C121.246 119.75 123.08 117.917 123.08 115.655C123.08 113.393 121.246 111.56 118.985 111.56C116.723 111.56 114.89 113.393 114.89 115.655C114.89 117.917 116.723 119.75 118.985 119.75Z" fill="#B6CBD7"/>
<path fill-rule="evenodd" clip-rule="evenodd" d="M118.985 112.82C120.551 112.82 121.82 111.551 121.82 109.985C121.82 108.419 120.551 107.15 118.985 107.15C117.42 107.15 116.15 108.419 116.15 109.985C116.15 111.551 117.42 112.82 118.985 112.82Z" fill="#B6CBD7"/>
<path fill-rule="evenodd" clip-rule="evenodd" d="M118.985 108.41C120.203 108.41 121.19 107.423 121.19 106.205C121.19 104.987 120.203 104 118.985 104C117.767 104 116.78 104.987 116.78 106.205C116.78 107.423 117.767 108.41 118.985 108.41Z" fill="#B6CBD7"/>
<path fill-rule="evenodd" clip-rule="evenodd" d="M114.568 117.23H123.402C124.268 117.23 124.97 117.932 124.97 118.798V121.955C124.97 124.565 122.855 126.68 120.245 126.68H117.725C115.115 126.68 113 124.565 113 121.955V118.798C113 117.932 113.702 117.23 114.568 117.23Z" fill="#93ACBB"/>
<path fill-rule="evenodd" clip-rule="evenodd" d="M182.667 125.971C178.929 125.65 176 122.651 176 119C176 115.134 179.283 112 183.333 112C186.205 112 188.692 113.576 189.895 115.871C190.147 115.836 190.405 115.818 190.667 115.818C193.612 115.818 196 118.097 196 120.909C196 123.721 193.612 126 190.667 126H182.667V125.971Z" fill="#93ACBB"/>
<path d="M112 28.7125C112 26.6621 113.662 25 115.713 25H130.288C132.338 25 134 26.6621 134 28.7125V31H112V28.7125Z" fill="#E2EAEF"/>
<rect x="140" y="27" width="6" height="5" rx="1.2375" fill="#E2EAEF"/>
<rect x="88" y="31" width="70" height="50" rx="7.425" fill="#B6CBD7"/>
<path d="M123 76C134.046 76 143 67.0457 143 56C143 44.9543 134.046 36 123 36C111.954 36 103 44.9543 103 56C103 67.0457 111.954 76 123 76Z" fill="white"/>
<path fill-rule="evenodd" clip-rule="evenodd" d="M96.5 75C98.433 75 100 73.433 100 71.5C100 69.567 98.433 68 96.5 68C94.567 68 93 69.567 93 71.5C93 73.433 94.567 75 96.5 75Z" fill="#F4F8F9"/>
<path d="M123 71C131.284 71 138 64.2843 138 56C138 47.7157 131.284 41 123 41C114.716 41 108 47.7157 108 56C108 64.2843 114.716 71 123 71Z" fill="#93ACBB"/>
<path d="M125 56C125 61.3205 127.303 65.8087 130.85 68.7794C135.372 65.8262 138 61.3205 138 56C138 50.6795 135.264 45.8411 130.85 43.2155C127.303 46.1861 125 50.6795 125 56Z" fill="#B6CBD7"/>
<path d="M108 56C108 61.3205 110.51 65.7469 115.15 68.7794C118.697 65.8087 121 61.3205 121 56C121 50.6795 118.697 46.1861 115.15 43.2155C110.802 45.8948 108 50.6795 108 56Z" fill="#B6CBD7"/>
<path d="M119 53C120.657 53 122 51.6569 122 50C122 48.3431 120.657 47 119 47C117.343 47 116 48.3431 116 50C116 51.6569 117.343 53 119 53Z" fill="white"/>
<path fill-rule="evenodd" clip-rule="evenodd" d="M54.025 21.9623C53.72 21.9873 53.4115 22 53.1 22C46.9696 22 42 17.0751 42 11C42 4.92487 46.9696 0 53.1 0C57.4388 0 61.1962 2.467 63.0218 6.06277C63.9603 5.69943 64.9817 5.5 66.05 5.5C70.6478 5.5 74.375 9.19365 74.375 13.75C74.375 15.5907 73.7667 17.2905 72.7385 18.663C74.0698 20.1344 75.8343 21.2157 77.8468 21.7143L79 22H54.025V21.9623Z" fill="#F4F8F9"/>
<rect x="32.5332" y="18.6693" width="32" height="31" rx="3" transform="rotate(-15 32.5332 18.6693)" fill="#93ACBB"/>
<rect x="34.9824" y="20.0835" width="28" height="27" rx="2" transform="rotate(-15 34.9824 20.0835)" fill="#B6CBD7"/>
<path d="M53.3619 34.5206L49.9658 38.0078C49.2174 38.7763 47.8938 38.3062 47.8913 37.2708L47.88 32.5732L43.442 30.6544C42.4639 30.2315 42.5571 28.8719 43.5881 28.5235L48.2657 26.9422L48.919 22.2691C49.063 21.2392 50.4442 20.8691 51.0838 21.689L53.9861 25.4094L58.8278 24.44C59.8949 24.2264 60.6554 25.3573 60.0197 26.2125L57.1357 30.0931L59.4748 34.167C59.9903 35.0649 59.0791 36.1339 58.0466 35.8425L53.3619 34.5206Z" fill="white"/>
<mask id="mask0" mask-type="alpha" maskUnits="userSpaceOnUse" x="42" y="21" width="19" height="18">
<path d="M53.3619 34.5206L49.9658 38.0078C49.2174 38.7763 47.8938 38.3062 47.8913 37.2708L47.88 32.5732L43.442 30.6544C42.4639 30.2315 42.5571 28.8719 43.5881 28.5235L48.2657 26.9422L48.919 22.2691C49.063 21.2392 50.4442 20.8691 51.0838 21.689L53.9861 25.4094L58.8278 24.44C59.8949 24.2264 60.6554 25.3573 60.0197 26.2125L57.1357 30.0931L59.4748 34.167C59.9903 35.0649 59.0791 36.1339 58.0466 35.8425L53.3619 34.5206Z" fill="white"/>
</mask>
<g mask="url(#mask0)">
<path d="M58.5793 32.4957C53.4805 33.5534 48.2067 31.4674 45.1615 27.8843L43.584 28.4163C42.5588 28.7621 42.2518 30.3595 43.2224 30.7729L47.8824 32.6754L47.8808 37.2984C47.8805 38.3172 49.1941 38.7763 49.9398 38.018L53.3231 34.5771L57.9735 35.8654C58.9984 36.1493 60.0963 35.1214 59.5865 34.2393L58.5793 32.4957Z" fill="#F4F8F9"/>
</g>
<rect x="184.557" y="37.3871" width="32" height="31" rx="3" transform="rotate(15 184.557 37.3871)" fill="#93ACBB"/>
<rect x="185.971" y="39.8365" width="28" height="27" rx="2" transform="rotate(15 185.971 39.8365)" fill="#B6CBD7"/>
<path d="M195.383 50.9136C196.274 49.7728 197.761 49.2077 199.212 49.5962C201.165 50.1197 202.127 52.1593 201.773 54.1882C201.773 54.1882 201.736 54.7057 201.289 55.5349C200.68 56.6642 199.72 57.5555 198.594 58.1302L192.652 61.1047L189.075 55.5794C188.387 54.5189 188.002 53.267 188.039 51.9843C188.066 51.0424 188.293 50.5761 188.293 50.5761C189.001 48.642 190.853 47.3564 192.807 47.8798C194.257 48.2685 195.182 49.4803 195.383 50.9136Z" fill="white"/>
<path d="M200.764 55.9818C201.462 55.0923 202.63 54.6531 203.769 54.9584C205.304 55.3697 206.062 56.9634 205.787 58.5469C205.787 58.5469 205.759 58.9509 205.408 59.5977C204.931 60.4786 204.179 61.1731 203.295 61.6203L198.633 63.9347L195.816 59.6161C195.275 58.7872 194.97 57.8093 194.998 56.8079C195.018 56.0726 195.195 55.7088 195.195 55.7088C195.749 54.1997 197.202 53.1984 198.737 53.6097C199.877 53.9151 200.604 54.8625 200.764 55.9818Z" fill="#F4F8F9"/>
<path fill-rule="evenodd" clip-rule="evenodd" d="M189.065 27.01H181.19V26.38C176.667 26.38 173 22.7132 173 18.19C173 13.6668 176.667 10 181.19 10C184.834 10 187.922 12.3801 188.985 15.6706C189.012 15.6702 189.038 15.67 189.065 15.67C192.022 15.67 194.42 18.2085 194.42 21.34C194.42 22.4787 194.103 23.539 193.557 24.4273C194.439 25.2447 195.49 25.8768 196.65 26.2705L198.83 27.01H189.065Z" fill="#F4F8F9"/>
<path fill-rule="evenodd" clip-rule="evenodd" d="M23.7073 100C32.4878 100 36 92.8571 36 86.4286C36 80 29.561 70 23.7073 70C17.8537 70 12 81.4286 12 86.4286C12 91.4286 14.9268 100 23.7073 100Z" fill="#D2E5ED"/>
<path fill-rule="evenodd" clip-rule="evenodd" d="M23.5 108C31.9821 108 36 98.413 36 94.7609C36 91.1087 27.5179 91.1087 29.75 88.8261C35.6952 82.7465 26.1786 66 23.5 66C20.8214 66 11.7561 83.208 17.25 88.8261C19.4821 91.1087 11 91.1087 11 94.7609C11 98.413 15.0179 108 23.5 108Z" fill="#B6CBD7"/>
<path fill-rule="evenodd" clip-rule="evenodd" d="M22.6397 94.3331C22.6547 93.5925 23.2593 93 24 93C24.7407 93 25.3453 93.5925 25.3603 94.3331L26 126H22L22.6397 94.3331Z" fill="#93ACBB"/>
</svg>
