<svg width="24" height="23" viewBox="0 0 24 23" fill="none" xmlns="http://www.w3.org/2000/svg">
<path d="M2.5 7.5H21.5V21C21.5 21.8284 20.8284 22.5 20 22.5H4C3.17157 22.5 2.5 21.8284 2.5 21V7.5Z" fill="white" stroke="#242424"/>
<path d="M4.44001 1.67431C4.71757 1.25335 5.18807 1 5.69231 1H18.3077C18.8119 1 19.2824 1.25335 19.56 1.67431L23.0714 7H0.928572L4.44001 1.67431Z" fill="white" stroke="#242424"/>
<path fill-rule="evenodd" clip-rule="evenodd" d="M0.0331834 7.5C0.0113595 7.63008 0 7.76372 0 7.9C0 9.22548 1.07452 10.3 2.4 10.3C3.72548 10.3 4.8 9.22548 4.8 7.9C4.8 9.22548 5.87452 10.3 7.2 10.3C8.52548 10.3 9.6 9.22548 9.6 7.9C9.6 9.22548 10.6745 10.3 12 10.3C13.3255 10.3 14.4 9.22548 14.4 7.9C14.4 9.22548 15.4745 10.3 16.8 10.3C18.1255 10.3 19.2 9.22548 19.2 7.9C19.2 9.22548 20.2745 10.3 21.6 10.3C22.9255 10.3 24 9.22548 24 7.9C24 7.76372 23.9886 7.63008 23.9668 7.5H19.2332C19.2114 7.63008 19.2 7.76372 19.2 7.9C19.2 7.76372 19.1886 7.63008 19.1668 7.5H14.4332C14.4114 7.6296 14.4001 7.76272 14.4 7.89847C14.3999 7.76272 14.3886 7.6296 14.3668 7.5H9.63318C9.61136 7.63008 9.6 7.76372 9.6 7.9C9.6 7.76372 9.58864 7.63008 9.56682 7.5H4.83318C4.81136 7.63008 4.8 7.76372 4.8 7.9C4.8 7.76372 4.78864 7.63008 4.76682 7.5H0.0331834Z" fill="#242424"/>
<path d="M5.5 16C5.5 15.1716 6.17157 14.5 7 14.5H9C9.82843 14.5 10.5 15.1716 10.5 16V22C10.5 22.2761 10.2761 22.5 10 22.5H6C5.72386 22.5 5.5 22.2761 5.5 22V16Z" fill="white" stroke="#242424"/>
<rect x="13.5" y="14.5" width="5" height="4" rx="0.5" fill="white" stroke="#242424"/>
</svg>
