<svg width="24" height="18" viewBox="0 0 24 18" fill="none" xmlns="http://www.w3.org/2000/svg">
<path fill-rule="evenodd" clip-rule="evenodd" d="M2 2C0.895431 2 0 2.89543 0 4V7C1.65685 7 3 8.34315 3 10C3 11.6569 1.65685 13 0 13V16C0 17.1046 0.89543 18 2 18H22C23.1046 18 24 17.1046 24 16V4C24 2.89543 23.1046 2 22 2H2Z" fill="#4ABBB5"/>
<path fill-rule="evenodd" clip-rule="evenodd" d="M14.9918 12.9115L16.8103 13.9099C17.2948 14.1759 17.7624 13.8216 17.6698 13.2577L17.3225 11.1432C17.3259 11.1638 17.3318 11.1449 17.3174 11.1595L18.7886 9.66205C19.1806 9.26301 19.0024 8.68914 18.4603 8.60687L16.4272 8.29837C16.447 8.30137 16.4316 8.28971 16.4405 8.30845L15.5312 6.38463C15.289 5.87199 14.7113 5.8716 14.4688 6.38463L13.5596 8.30845C13.5684 8.28974 13.553 8.30138 13.5728 8.29837L11.5398 8.60687C10.998 8.68908 10.8191 9.26271 11.2114 9.66205L12.6826 11.1595C12.6683 11.145 12.6741 11.1638 12.6775 11.1432L12.3302 13.2577C12.2377 13.8212 12.7048 14.1761 13.1898 13.9099L15.0082 12.9115C14.9905 12.9212 15.0095 12.9213 14.9918 12.9115Z" fill="white"/>
<g filter="url(#filter0_d)">
<path d="M6 2H7V3.5C7 3.77614 6.77614 4 6.5 4C6.22386 4 6 3.77614 6 3.5V2Z" fill="white"/>
</g>
<rect x="6" y="6" width="1" height="3" rx="0.5" fill="white"/>
<rect x="6" y="11" width="1" height="3" rx="0.5" fill="white"/>
<path d="M6 16.5C6 16.2239 6.22386 16 6.5 16C6.77614 16 7 16.2239 7 16.5V18H6V16.5Z" fill="white"/>
<defs>
<filter id="filter0_d" x="2" y="0" width="9" height="10" filterUnits="userSpaceOnUse" color-interpolation-filters="sRGB">
<feFlood flood-opacity="0" result="BackgroundImageFix"/>
<feColorMatrix in="SourceAlpha" type="matrix" values="0 0 0 0 0 0 0 0 0 0 0 0 0 0 0 0 0 0 127 0"/>
<feOffset dy="2"/>
<feGaussianBlur stdDeviation="2"/>
<feColorMatrix type="matrix" values="0 0 0 0 0 0 0 0 0 0 0 0 0 0 0 0 0 0 0.5 0"/>
<feBlend mode="normal" in2="BackgroundImageFix" result="effect1_dropShadow"/>
<feBlend mode="normal" in="SourceGraphic" in2="effect1_dropShadow" result="shape"/>
</filter>
</defs>
</svg>
