<svg width="42" height="30" viewBox="0 0 42 30" fill="none" xmlns="http://www.w3.org/2000/svg">
<path d="M42 3C42 1.34315 40.6569 0 39 0H3.05108C1.37441 0 0.0232045 1.37422 0.051512 3.05065L0.145833 8.63656C0.145833 9.04041 0.34389 9.42418 0.686402 9.63663C2.27889 10.6242 3.5 12.9845 3.5 15C3.5 17.0154 2.27889 19.2156 0.686402 20.2032C0.34389 20.4156 0.145833 20.7995 0.145833 21.2032L0.0505586 26.9503C0.0227725 28.6263 1.37384 30 3.05015 30H39C40.6569 30 42 28.6569 42 27V3Z" fill="#70D5D0"/>
<mask id="mask0" mask-type="alpha" maskUnits="userSpaceOnUse" x="0" y="0" width="43" height="30">
<path d="M42 3C42 1.34315 40.6569 0 39 0H3.05108C1.37441 0 0.0232045 1.37422 0.051512 3.05065L0.145833 8.63656C0.145833 9.04041 0.34389 9.42418 0.686402 9.63663C2.27889 10.6242 3.5 12.9845 3.5 15C3.5 17.0154 2.27889 19.2156 0.686402 20.2032C0.34389 20.4156 0.145833 20.7995 0.145833 21.2032L0.0505586 26.9503C0.0227725 28.6263 1.37384 30 3.05015 30H39C40.6569 30 42 28.6569 42 27V3Z" fill="white"/>
</mask>
<g mask="url(#mask0)">
<rect x="12" y="2" width="28" height="26" rx="2" fill="#4ABBB5"/>
<rect x="7" y="16" width="2" height="4" rx="1" fill="#4ABBB5"/>
<rect x="7" y="10" width="2" height="4" rx="1" fill="#4ABBB5"/>
<rect x="7" y="4" width="2" height="4" rx="1" fill="#4ABBB5"/>
<rect x="7" y="22" width="2" height="4" rx="1" fill="#4ABBB5"/>
<path d="M7 29C7 28.4477 7.44772 28 8 28C8.55228 28 9 28.4477 9 29V30H7V29Z" fill="#4ABBB5"/>
<path d="M7 1C7 1.55228 7.44772 2 8 2C8.55228 2 9 1.55228 9 1V-1H7V1Z" fill="#4ABBB5"/>
<path d="M26.7817 20.0266L23.1716 22.3933C22.376 22.9148 21.3775 22.1574 21.6067 21.206L22.6466 16.8894L19.3755 14.0354C18.6546 13.4064 19.036 12.1808 19.9733 12.1144L24.2261 11.8133L25.8146 7.68274C26.1647 6.77242 27.3988 6.77242 27.7489 7.68274L29.3374 11.8133L33.5902 12.1144C34.5275 12.1808 34.9089 13.4065 34.1879 14.0354L30.9168 16.8894L31.9568 21.206C32.1859 22.1574 31.1876 22.9149 30.3919 22.3933L26.7817 20.0266Z" fill="white"/>
<mask id="mask1" mask-type="alpha" maskUnits="userSpaceOnUse" x="19" y="7" width="16" height="16">
<path d="M26.7817 20.0266L23.1716 22.3933C22.376 22.9148 21.3775 22.1574 21.6067 21.206L22.6466 16.8894L19.3755 14.0354C18.6546 13.4064 19.036 12.1808 19.9733 12.1144L24.2261 11.8133L25.8146 7.68274C26.1647 6.77242 27.3988 6.77242 27.7489 7.68274L29.3374 11.8133L33.5902 12.1144C34.5275 12.1808 34.9089 13.4065 34.1879 14.0354L30.9168 16.8894L31.9568 21.206C32.1859 22.1574 31.1876 22.9149 30.3919 22.3933L26.7817 20.0266Z" fill="white"/>
</mask>
<g mask="url(#mask1)">
<path d="M32.1236 19.4287C27.4983 19.1443 23.4465 15.9187 21.6546 11.8633L20.1765 11.964C19.2159 12.0296 18.5843 13.4263 19.3231 14.0472L22.4045 16.7269L21.4318 21.1041C21.1969 22.0432 22.0754 23.078 22.8909 22.5632L26.7817 20.1314L30.1862 22.5632C31.0016 23.078 32.8226 22.224 32.5877 21.2848L32.1236 19.4287Z" fill="#DDF8F7"/>
</g>
</g>
</svg>
