<svg width="10" height="11" viewBox="0 0 10 11" fill="none" xmlns="http://www.w3.org/2000/svg">
<path d="M4.91556 10.344C4.29156 10.344 3.70756 10.232 3.16356 10.008C2.61956 9.768 2.13956 9.44 1.72356 9.024C1.32356 8.608 1.00356 8.112 0.763563 7.536C0.523563 6.96 0.403563 6.32 0.403563 5.616C0.403563 4.912 0.523563 4.272 0.763563 3.696C1.00356 3.12 1.32356 2.624 1.72356 2.208C2.13956 1.792 2.61956 1.472 3.16356 1.248C3.70756 1.008 4.29156 0.887999 4.91556 0.887999C5.53956 0.887999 6.12356 1.008 6.66756 1.248C7.22756 1.472 7.70756 1.792 8.10756 2.208C8.52356 2.624 8.85156 3.12 9.09156 3.696C9.33156 4.272 9.45156 4.912 9.45156 5.616C9.45156 6.32 9.33156 6.96 9.09156 7.536C8.85156 8.112 8.52356 8.608 8.10756 9.024C7.70756 9.44 7.22756 9.768 6.66756 10.008C6.12356 10.232 5.53956 10.344 4.91556 10.344ZM4.91556 9.456C5.41156 9.456 5.87556 9.368 6.30756 9.192C6.75556 9 7.13956 8.736 7.45956 8.4C7.77956 8.064 8.02756 7.664 8.20356 7.2C8.39556 6.72 8.49156 6.192 8.49156 5.616C8.49156 5.056 8.39556 4.544 8.20356 4.08C8.02756 3.6 7.77956 3.192 7.45956 2.856C7.13956 2.504 6.75556 2.232 6.30756 2.04C5.87556 1.848 5.41156 1.752 4.91556 1.752C4.40356 1.752 3.93156 1.848 3.49956 2.04C3.06756 2.232 2.69156 2.504 2.37156 2.856C2.06756 3.192 1.81956 3.6 1.62756 4.08C1.45156 4.544 1.36356 5.056 1.36356 5.616C1.36356 6.192 1.45156 6.72 1.62756 7.2C1.81956 7.664 2.06756 8.064 2.37156 8.4C2.69156 8.736 3.06756 9 3.49956 9.192C3.93156 9.368 4.40356 9.456 4.91556 9.456ZM3.18756 7.992V3.12H5.01156C5.52356 3.12 5.96356 3.24 6.33156 3.48C6.69956 3.704 6.88356 4.104 6.88356 4.68C6.88356 4.968 6.80356 5.24 6.64356 5.496C6.48356 5.736 6.26756 5.904 5.99556 6L7.09956 7.992H5.99556L5.15556 6.312H4.17156V7.992H3.18756ZM4.17156 5.544H4.79556C5.48356 5.544 5.82756 5.272 5.82756 4.728C5.82756 4.488 5.75556 4.296 5.61156 4.152C5.46756 4.008 5.21156 3.936 4.84356 3.936H4.17156V5.544Z" fill="white"/>
</svg>
