<svg width="335" height="120" viewBox="0 0 335 120" fill="none" xmlns="http://www.w3.org/2000/svg">
<rect width="335" height="120" fill="#4B03BD" fill-opacity="0.0648492"/>
<path fill-rule="evenodd" clip-rule="evenodd" d="M0 110C0 107.791 1.79086 106 4 106H12.1538C14.363 106 16.1538 104.209 16.1538 102V98.5C16.1538 96.2909 17.9447 94.5 20.1538 94.5H26.75C28.5449 94.5 30 93.0449 30 91.25C30 89.4551 31.4551 88 33.25 88L52.074 88C52.6399 88 53.1104 88.4357 53.1538 89L53.1916 89.4905C53.6478 95.4207 58.5928 100 64.5406 100H69.1731C72.901 100 75.9231 103.022 75.9231 106.75V109.462C75.9231 111.692 77.7312 113.5 79.9615 113.5C82.1919 113.5 84 115.308 84 117.538V120H0V110Z" fill="#EDE2FF"/>
<path fill-rule="evenodd" clip-rule="evenodd" d="M233 110C233 107.791 234.791 106 237 106H245.154C247.363 106 249.154 104.209 249.154 102V98.5C249.154 96.2909 250.945 94.5 253.154 94.5H259.75C261.545 94.5 263 93.0449 263 91.25C263 89.4551 264.455 88 266.25 88L285.074 88C285.64 88 286.11 88.4357 286.154 89L286.192 89.4905C286.648 95.4207 291.593 100 297.541 100H302.173C305.901 100 308.923 103.022 308.923 106.75V109.462C308.923 111.692 310.731 113.5 312.962 113.5C315.192 113.5 317 115.308 317 117.538V120H233V110Z" fill="#EDE2FF"/>
<path fill-rule="evenodd" clip-rule="evenodd" d="M276.683 97C286.195 97 290 89.1429 290 82.0714C290 75 283.024 64 276.683 64C270.341 64 264 76.5714 264 82.0714C264 87.5714 267.171 97 276.683 97Z" fill="#E1CEFF"/>
<path fill-rule="evenodd" clip-rule="evenodd" d="M277 100C286.5 100 291 91.5 291 87.5C291 83.5 284 86 284 79C284 72 282 62 277 62C272 62 270 73 270 79C270 85 263 83.5 263 87.5C263 91.5 267.5 100 277 100Z" fill="#B385FC"/>
<path fill-rule="evenodd" clip-rule="evenodd" d="M275.642 85.3331C275.656 84.5929 276.26 84 277 84C277.74 84 278.344 84.5929 278.358 85.3331L279 120H275L275.642 85.3331Z" fill="#884CE7"/>
<path fill-rule="evenodd" clip-rule="evenodd" d="M25.6829 91C35.1951 91 39 83.1429 39 76.0714C39 69 32.0244 58 25.6829 58C19.3415 58 13 70.5714 13 76.0714C13 81.5714 16.1707 91 25.6829 91Z" fill="#E1CEFF"/>
<path fill-rule="evenodd" clip-rule="evenodd" d="M26 100C35.5 100 40 89.5 40 85.5C40 81.5 30.5 81.5 33 79C39.6586 72.3414 29 54 26 54C23 54 12.8469 72.8469 19 79C21.5 81.5 12 81.5 12 85.5C12 89.5 16.5 100 26 100Z" fill="#B385FC"/>
<path fill-rule="evenodd" clip-rule="evenodd" d="M24.642 85.3331C24.6557 84.5929 25.2597 84 26 84C26.7403 84 27.3443 84.5929 27.358 85.3331L28 120H24L24.642 85.3331Z" fill="#884CE7"/>
<path fill-rule="evenodd" clip-rule="evenodd" d="M226 35.9589C225.67 35.9861 225.337 36 225 36C218.373 36 213 30.6274 213 24C213 17.3726 218.373 12 225 12C229.691 12 233.753 14.6913 235.726 18.6139C236.741 18.2176 237.845 18 239 18C243.971 18 248 22.0294 248 27C248 29.008 247.342 30.8624 246.231 32.3596C247.67 33.9648 249.578 35.1444 251.753 35.6883L253 36H226V35.9589Z" fill="white"/>
<path fill-rule="evenodd" clip-rule="evenodd" d="M292 49C296.971 49 301 44.9706 301 40C301 35.0294 296.971 31 292 31C287.029 31 283 35.0294 283 40C283 44.9706 287.029 49 292 49Z" fill="white"/>
<path fill-rule="evenodd" clip-rule="evenodd" d="M301 49C304.314 49 307 46.3137 307 43C307 39.6863 304.314 37 301 37C297.686 37 295 39.6863 295 43C295 46.3137 297.686 49 301 49Z" fill="white"/>
<path fill-rule="evenodd" clip-rule="evenodd" d="M292 49H311L309.243 48.4142C306.526 47.5087 304.281 45.5612 303 43H292V49Z" fill="white"/>
<path fill-rule="evenodd" clip-rule="evenodd" d="M143.375 83C143.375 81.8954 144.27 81 145.375 81H188.625C189.73 81 190.625 81.8954 190.625 83C190.625 83.5523 191.073 84 191.625 84H192C193.105 84 194 84.8954 194 86V87H140V86C140 84.8954 140.895 84 142 84H142.375C142.927 84 143.375 83.5523 143.375 83Z" fill="#3B02AE"/>
<path fill-rule="evenodd" clip-rule="evenodd" d="M155.153 60.6255C156.955 61.1085 162.366 56.8879 163.795 51.5533C165.225 46.2186 164.581 40.3758 160.847 39.3752C157.113 38.3746 154.634 43.1128 153.204 48.4474C151.775 53.7821 153.35 60.1426 155.153 60.6255Z" fill="#4B03BD"/>
<path fill-rule="evenodd" clip-rule="evenodd" d="M178.847 60.6255C177.045 61.1085 171.634 56.8879 170.205 51.5533C168.775 46.2186 169.419 40.3758 173.153 39.3752C176.887 38.3746 179.366 43.1128 180.796 48.4474C182.225 53.7821 180.65 60.1426 178.847 60.6255Z" fill="#4B03BD"/>
<path fill-rule="evenodd" clip-rule="evenodd" d="M167 72C168 72 172 65.9558 172 58.5C172 51.0442 170.314 45 167 45C163.686 45 162 51.0442 162 58.5C162 65.9558 166 72 167 72Z" fill="#D4B9FF"/>
<path fill-rule="evenodd" clip-rule="evenodd" d="M167 65C168 65 172 60.5228 172 55C172 49.4772 170.314 45 167 45C163.686 45 162 49.4772 162 55C162 60.5228 166 65 167 65Z" fill="white"/>
<path fill-rule="evenodd" clip-rule="evenodd" d="M165.475 15.3476C166.191 14.177 167.809 14.177 168.525 15.3476C170.861 19.1626 175.13 27.0813 175.836 35C176.818 46 171.909 55 171.909 55H162.091C162.091 55 157.182 46 158.164 35C158.87 27.0813 163.139 19.1626 165.475 15.3476Z" fill="#884CE7"/>
<mask id="mask0" mask-type="alpha" maskUnits="userSpaceOnUse" x="158" y="14" width="18" height="41">
<path fill-rule="evenodd" clip-rule="evenodd" d="M165.475 15.3476C166.191 14.177 167.809 14.177 168.525 15.3476C170.861 19.1626 175.13 27.0813 175.836 35C176.818 46 171.909 55 171.909 55H162.091C162.091 55 157.182 46 158.164 35C158.87 27.0813 163.139 19.1626 165.475 15.3476Z" fill="white"/>
</mask>
<g mask="url(#mask0)">
<rect x="161" y="22" width="12" height="1" fill="#4B03BD"/>
<rect x="161" y="13" width="12" height="8" fill="#4B03BD"/>
<g opacity="0.3">
<path fill-rule="evenodd" clip-rule="evenodd" d="M167 14C167 14 173 27 173 35C173 43 170 55 170 55H179.5C179.5 55 180.5 41 179.5 35C178.5 29 169 13 169 13L167 14Z" fill="#4B03BD" style="mix-blend-mode:multiply"/>
</g>
</g>
<path d="M167 35.5C168.933 35.5 170.5 33.933 170.5 32C170.5 30.067 168.933 28.5 167 28.5C165.067 28.5 163.5 30.067 163.5 32C163.5 33.933 165.067 35.5 167 35.5Z" fill="white" stroke="#4B03BD"/>
<path fill-rule="evenodd" clip-rule="evenodd" d="M166.484 43.4998C166.493 43.2213 166.721 43 167 43C167.279 43 167.507 43.2213 167.516 43.4998L167.969 58.0005C167.986 58.5474 167.547 59 167 59C166.453 59 166.014 58.5474 166.031 58.0005L166.484 43.4998Z" fill="#4B03BD"/>
<path fill-rule="evenodd" clip-rule="evenodd" d="M146.979 81.533C137.977 82.5372 132.476 83.533 129.476 70.4792C126.475 57.4254 118.473 53.4089 107.47 59.4337C96.4675 65.4585 84.9647 58.4296 82.4641 50.3965C79.9635 42.3634 87.4653 22.7827 107.47 29.3096C127.475 35.8365 132.976 78.5206 144.979 77.5165C156.982 76.5123 153.498 82.4938 161 84C168.502 85.5062 166.985 85.0392 175.987 84.0351C184.989 83.031 195.992 57.4254 201.993 47.8861C207.995 38.3468 231 38.8489 237.002 50.8985C243.003 62.9482 235.001 78.0103 219.497 78.0103C203.994 78.0103 206.994 68.471 199.493 67.4668C193.686 66.6896 197.367 79.8638 190.5 86C188.495 87.7921 179.926 88.3267 176.987 88.5537C163.984 89.5579 165.984 88.5537 159.983 88.5537C153.981 88.5537 155.981 80.5289 146.979 81.533Z" fill="#D4B9FF"/>
<path d="M210.5 66.5H229.5V69C229.5 69.8284 228.828 70.5 228 70.5H212C211.172 70.5 210.5 69.8284 210.5 69V66.5Z" fill="white" stroke="#4B03BD"/>
<rect x="208.5" y="49.5" width="23" height="19" rx="2.5" fill="white" stroke="#4B03BD"/>
<path fill-rule="evenodd" clip-rule="evenodd" d="M219.992 62.9115L221.81 63.9099C222.295 64.1759 222.762 63.8216 222.67 63.2577L222.323 61.1432C222.326 61.1638 222.332 61.1449 222.317 61.1595L223.789 59.662C224.181 59.263 224.002 58.6891 223.46 58.6069L221.427 58.2984C221.447 58.3014 221.432 58.2897 221.44 58.3085L220.531 56.3846C220.289 55.872 219.711 55.8716 219.469 56.3846L218.56 58.3085C218.568 58.2897 218.553 58.3014 218.573 58.2984L216.54 58.6069C215.998 58.6891 215.819 59.2627 216.211 59.662L217.683 61.1595C217.668 61.145 217.674 61.1638 217.678 61.1432L217.33 63.2577C217.238 63.8212 217.705 64.1761 218.19 63.9099L220.008 62.9115C219.991 62.9212 220.01 62.9213 219.992 62.9115Z" fill="#4B03BD"/>
<rect x="209" y="52" width="22" height="1" fill="#4B03BD"/>
<rect x="212" y="47" width="2" height="3" rx="1" fill="#4B03BD"/>
<rect x="226" y="47" width="2" height="3" rx="1" fill="#4B03BD"/>
<path fill-rule="evenodd" clip-rule="evenodd" d="M88.5 106.5C98.5 109 108 98 108 86.5C108 75 96.8888 69 87.5 69C78.1112 69 70.5 79.6112 70.5 89C70.5 98.3888 78.5 104 88.5 106.5Z" fill="#D4B9FF"/>
<path fill-rule="evenodd" clip-rule="evenodd" d="M114 75C116.761 75 118.5 73 119.5 70C120.5 67 117.5 65 114 65C110.5 65 109 67.5 109 70C109 72.5 111.239 75 114 75Z" fill="#D4B9FF"/>
<path fill-rule="evenodd" clip-rule="evenodd" d="M76.34 85.0723C75.3834 85.6246 75.0556 86.8477 75.6079 87.8043L77.1079 90.4024C78.5428 89.574 80.3776 90.0656 81.206 91.5005C82.0344 92.9353 81.5428 94.7701 80.1079 95.5985L81.6079 98.1966C82.1602 99.1532 83.3834 99.481 84.34 98.9287L101.66 88.9287C102.617 88.3764 102.945 87.1532 102.393 86.1966L96.3925 75.8043C95.8402 74.8477 94.6171 74.52 93.6605 75.0723L76.34 85.0723Z" fill="#4B03BD"/>
<path fill-rule="evenodd" clip-rule="evenodd" d="M93.047 88.0258L95.121 87.9811C95.6737 87.9692 95.9015 87.4286 95.5394 86.9866L94.1813 85.329C94.1945 85.3452 94.1902 85.3259 94.1851 85.3457L94.7104 83.3133C94.8504 82.7717 94.4092 82.3638 93.8985 82.5636L91.9835 83.313C92.0022 83.3057 91.983 83.3033 92.0001 83.3151L90.2508 82.1036C89.7846 81.7808 89.2841 82.0693 89.3306 82.6348L89.5051 84.7555C89.5035 84.7349 89.496 84.7527 89.5116 84.7402L87.9052 86.0239C87.4771 86.3659 87.609 86.9522 88.1484 87.1018L90.1712 87.6631C90.1515 87.6577 90.166 87.6711 90.1587 87.6515L90.9151 89.6564C91.1167 90.1906 91.6988 90.2644 91.9856 89.7914L93.0613 88.0176C93.0508 88.0348 93.0672 88.0254 93.047 88.0258Z" fill="white"/>
<g filter="url(#filter0_d)">
<path d="M79.8042 83.0723L80.6702 82.5723L81.4202 83.8713C81.5583 84.1105 81.4764 84.4162 81.2372 84.5543C80.9981 84.6924 80.6923 84.6105 80.5542 84.3713L79.8042 83.0723Z" fill="white"/>
</g>
<rect x="81.8042" y="86.5361" width="1" height="3" rx="0.5" transform="rotate(-30 81.8042 86.5361)" fill="white"/>
<rect x="84.3042" y="90.8662" width="1" height="3" rx="0.5" transform="rotate(-30 84.3042 90.8662)" fill="white"/>
<path d="M87.0542 95.6293C86.9161 95.3902 86.9981 95.0844 87.2372 94.9463C87.4764 94.8082 87.7822 94.8902 87.9202 95.1293L88.6702 96.4283L87.8042 96.9283L87.0542 95.6293Z" fill="white"/>
<path d="M100.224 54.1103L100 53.9984L99.7763 54.1103L96.5087 55.7451L94.8261 52.5019L94.7109 52.2799L94.4641 52.2389L90.8597 51.6408L91.4047 48.028L91.442 47.7807L91.2664 47.6025L88.702 45L91.2664 42.3975L91.442 42.2193L91.4047 41.972L90.8597 38.3592L94.4641 37.7611L94.7109 37.7201L94.8261 37.4981L96.5087 34.2549L99.7763 35.8897L100 36.0016L100.224 35.8897L103.491 34.2549L105.174 37.4981L105.289 37.7201L105.536 37.7611L109.14 38.3592L108.595 41.972L108.558 42.2193L108.734 42.3975L111.298 45L108.734 47.6025L108.558 47.7807L108.595 48.028L109.14 51.6408L105.536 52.2389L105.289 52.2799L105.174 52.5019L103.491 55.7451L100.224 54.1103Z" fill="white" stroke="#4B03BD"/>
<path fill-rule="evenodd" clip-rule="evenodd" d="M97.909 44.8781C96.7503 44.8781 96 44.0305 96 42.9507C96 41.8592 96.7503 41 97.909 41C99.0897 41 99.851 41.8592 99.851 42.9507C99.851 44.0305 99.0897 44.8781 97.909 44.8781ZM98.1297 48.8607H97.1807L101.881 41.1161H102.841L98.1297 48.8607ZM100.16 47.0726C100.16 48.1524 100.91 49 102.069 49C103.239 49 104 48.1524 104 47.0726C104 45.9811 103.239 45.1219 102.069 45.1219C100.91 45.1219 100.16 45.9811 100.16 47.0726ZM97.909 43.8099C98.3393 43.8099 98.6703 43.508 98.6703 42.9507C98.6703 42.3701 98.3393 42.0682 97.909 42.0682C97.4897 42.0682 97.1697 42.3701 97.1697 42.9507C97.1697 43.508 97.4897 43.8099 97.909 43.8099ZM102.83 47.0726C102.83 47.6415 102.499 47.9318 102.069 47.9318C101.639 47.9318 101.33 47.6415 101.33 47.0726C101.33 46.492 101.639 46.1901 102.069 46.1901C102.499 46.1901 102.83 46.492 102.83 47.0726Z" fill="#4B03BD"/>
<path fill-rule="evenodd" clip-rule="evenodd" d="M164 87C167.314 87 170 84.3137 170 81C170 77.6863 167.314 75 164 75C160.686 75 158 77.6863 158 81C158 84.3137 160.686 87 164 87Z" fill="#D4B9FF"/>
<path fill-rule="evenodd" clip-rule="evenodd" d="M157.5 85C158.881 85 160 83.8807 160 82.5C160 81.1193 158.881 80 157.5 80C156.119 80 155 81.1193 155 82.5C155 83.8807 156.119 85 157.5 85Z" fill="#D4B9FF"/>
<path fill-rule="evenodd" clip-rule="evenodd" d="M171 90C173.761 90 176 87.7614 176 85C176 82.2386 173.761 80 171 80C168.239 80 166 82.2386 166 85C166 87.7614 168.239 90 171 90Z" fill="#D4B9FF"/>
<path fill-rule="evenodd" clip-rule="evenodd" d="M179 88C181.209 88 183 86.2091 183 84C183 81.7909 181.209 80 179 80C176.791 80 175 81.7909 175 84C175 86.2091 176.791 88 179 88Z" fill="#D4B9FF"/>
<path d="M140 87C140 86.4477 140.448 86 141 86H193C193.552 86 194 86.4477 194 87V116C194 118.209 192.209 120 190 120H144C141.791 120 140 118.209 140 116V87Z" fill="#4B03BD"/>
<path fill-rule="evenodd" clip-rule="evenodd" d="M167 106.5L164.679 107.72C163.945 108.106 163.088 107.483 163.228 106.666L163.671 104.082L161.794 102.251C161.2 101.673 161.528 100.665 162.348 100.546L164.943 100.168L166.103 97.817C166.47 97.0737 167.53 97.0737 167.897 97.817L169.057 100.168L171.652 100.546C172.472 100.665 172.8 101.673 172.206 102.251L170.329 104.082L170.772 106.666C170.912 107.483 170.055 108.106 169.321 107.72L167 106.5Z" fill="white"/>
<path fill-rule="evenodd" clip-rule="evenodd" d="M187.5 86H194V116C194 118.209 192.209 120 190 120L187.5 86Z" fill="#3B02AE"/>
<path d="M189.062 81.1748L200.653 78.069C201.72 77.7831 202.817 78.4163 203.103 79.4832L212.42 114.257C212.706 115.323 212.073 116.42 211.006 116.706L199.415 119.812L189.062 81.1748Z" fill="#4B03BD"/>
<path d="M189.062 81.1748L200.653 78.069C201.72 77.7831 202.817 78.4163 203.103 79.4832L203.62 81.415L190.097 85.0385L189.062 81.1748Z" fill="#6F35CA"/>
<rect x="193.892" y="79.8809" width="4" height="40" transform="rotate(-15 193.892 79.8809)" fill="white"/>
<rect opacity="0.18" x="193.892" y="79.8809" width="4" height="4" transform="rotate(-15 193.892 79.8809)" fill="#E1CEFF"/>
<defs>
<filter id="filter0_d" x="75.8042" y="80.5723" width="9.86603" height="10.2321" filterUnits="userSpaceOnUse" color-interpolation-filters="sRGB">
<feFlood flood-opacity="0" result="BackgroundImageFix"/>
<feColorMatrix in="SourceAlpha" type="matrix" values="0 0 0 0 0 0 0 0 0 0 0 0 0 0 0 0 0 0 127 0"/>
<feOffset dy="2"/>
<feGaussianBlur stdDeviation="2"/>
<feColorMatrix type="matrix" values="0 0 0 0 0 0 0 0 0 0 0 0 0 0 0 0 0 0 0.5 0"/>
<feBlend mode="normal" in2="BackgroundImageFix" result="effect1_dropShadow"/>
<feBlend mode="normal" in="SourceGraphic" in2="effect1_dropShadow" result="shape"/>
</filter>
</defs>
</svg>
