<svg width="67" height="42" viewBox="0 0 67 42" fill="none" xmlns="http://www.w3.org/2000/svg">
<path fill-rule="evenodd" clip-rule="evenodd" d="M24.5542 5.66667C25.2571 5.66667 25.8269 5.06971 25.8269 4.33333C25.8269 3.59695 25.2571 3 24.5542 3C23.8513 3 23.2815 3.59695 23.2815 4.33333C23.2815 5.06971 23.8513 5.66667 24.5542 5.66667Z" fill="#73D7D2"/>
<path fill-rule="evenodd" clip-rule="evenodd" d="M42.6906 7C43.2178 7 43.6452 6.55228 43.6452 6C43.6452 5.44772 43.2178 5 42.6906 5C42.1634 5 41.7361 5.44772 41.7361 6C41.7361 6.55228 42.1634 7 42.6906 7Z" fill="#5DCEC8"/>
<path fill-rule="evenodd" clip-rule="evenodd" d="M3.9231 18.7266H30.0769V47.9993H3.9231V18.7266Z" fill="#73D7D2"/>
<path fill-rule="evenodd" clip-rule="evenodd" d="M4.84792 14.5984C5.59503 13.5928 6.7739 13 8.02666 13H25.9732C27.226 13 28.4048 13.5928 29.1519 14.5984L32.6922 19.3636H1.30762L4.84792 14.5984Z" fill="#99ECE8"/>
<path fill-rule="evenodd" clip-rule="evenodd" d="M1.35101 19.3633C1.32247 19.5288 1.30762 19.6989 1.30762 19.8724C1.30762 21.5594 2.71275 22.9269 4.44608 22.9269C6.1794 22.9269 7.58454 21.5594 7.58454 19.8724C7.58454 21.5594 8.98968 22.9269 10.723 22.9269C12.4563 22.9269 13.8615 21.5594 13.8615 19.8724C13.8615 21.5594 15.2666 22.9269 16.9999 22.9269C18.7332 22.9269 20.1384 21.5594 20.1384 19.8724C20.1384 21.5594 21.5435 22.9269 23.2768 22.9269C25.0102 22.9269 26.4153 21.5594 26.4153 19.8724C26.4153 21.5594 27.8204 22.9269 29.5538 22.9269C31.2871 22.9269 32.6922 21.5594 32.6922 19.8724C32.6922 19.6989 32.6774 19.5288 32.6488 19.3633H26.4587C26.4302 19.5288 26.4153 19.6989 26.4153 19.8724C26.4153 19.6989 26.4005 19.5288 26.3719 19.3633H20.1818C20.1532 19.5288 20.1384 19.6989 20.1384 19.8724C20.1384 19.6989 20.1235 19.5288 20.095 19.3633H13.9049C13.8763 19.5288 13.8615 19.6989 13.8615 19.8724C13.8615 19.6989 13.8466 19.5288 13.8181 19.3633H7.62793C7.5994 19.5288 7.58454 19.6989 7.58454 19.8724C7.58454 19.6989 7.56969 19.5288 7.54115 19.3633H1.35101Z" fill="white"/>
<path d="M7.19238 32.8313C7.19238 30.6646 8.9488 28.9082 11.1155 28.9082C13.2821 28.9082 15.0385 30.6646 15.0385 32.8313V44.1809H7.19238V32.8313Z" fill="#BEF7F5"/>
<rect x="10.4614" y="28.9082" width="1.30769" height="15.2727" fill="#73D7D2"/>
<path d="M7.19238 30.9082C7.19238 29.8036 8.08781 28.9082 9.19238 28.9082H13.0385C14.1431 28.9082 15.0385 29.8036 15.0385 30.9082V33.9991H7.19238V30.9082Z" fill="white"/>
<g opacity="0.7">
<rect x="7.19238" y="34" width="7.84615" height="1.27273" fill="#BCF0EE" style="mix-blend-mode:multiply"/>
</g>
<rect x="12.4231" y="37.8184" width="1.30769" height="1.27273" fill="#73CFCA"/>
<rect x="8.5" y="37.8184" width="1.30769" height="1.27273" fill="#73CFCA"/>
<rect x="17.6538" y="28.9082" width="9.15385" height="6.36364" rx="1.98" fill="#BEF7F5"/>
<path d="M40 18C40 16.8954 40.8954 16 42 16H53V48H40V18Z" fill="#73D7D2"/>
<rect x="43.25" y="19.2656" width="2.6" height="2.61224" rx="1" fill="#A0EEEB"/>
<rect x="47.1499" y="19.2656" width="2.6" height="2.61224" rx="1" fill="#A0EEEB"/>
<rect x="43.25" y="23.8359" width="2.6" height="2.61224" rx="1" fill="#A0EEEB"/>
<rect x="47.1499" y="23.8359" width="2.6" height="2.61224" rx="1" fill="#BEF7F5"/>
<rect x="43.25" y="28.4082" width="2.6" height="2.61224" rx="1" fill="#BEF7F5"/>
<rect x="47.1499" y="28.4082" width="2.6" height="2.61224" rx="1" fill="#A0EEEB"/>
<rect x="43.25" y="32.9805" width="2.6" height="2.61224" rx="1" fill="#A0EEEB"/>
<rect x="47.1499" y="32.9805" width="2.6" height="2.61224" rx="1" fill="#A0EEEB"/>
<rect x="43.25" y="37.5508" width="6.5" height="1.95918" rx="0.979592" fill="#BEF7F5"/>
<path fill-rule="evenodd" clip-rule="evenodd" d="M53 3C53 1.34315 54.3431 0 56 0H57.1284C58.1278 0 59.0615 0.497629 59.6188 1.3272L61.2727 3.78947H67V40C67 44.4183 63.4183 48 59 48H53V3Z" fill="#99ECE8"/>
<rect x="51" y="16" width="1" height="32" fill="#5DCEC8"/>
<rect x="57" y="7" width="3" height="3" rx="1" fill="#73D7D2"/>
<rect x="61" y="7" width="3" height="3" rx="1" fill="#73D7D2"/>
<rect x="57" y="13" width="3" height="3" rx="1" fill="#BEF7F5"/>
<rect x="61" y="13" width="3" height="3" rx="1" fill="#73D7D2"/>
<rect x="57" y="17" width="3" height="3" rx="1" fill="#73D7D2"/>
<rect x="61" y="17" width="3" height="3" rx="1" fill="#BEF7F5"/>
<rect x="57" y="22" width="3" height="3" rx="1" fill="#73D7D2"/>
<rect x="61" y="22" width="3" height="3" rx="1" fill="#73D7D2"/>
<rect x="57" y="28" width="3" height="3" rx="1" fill="#73D7D2"/>
<rect x="61" y="28" width="3" height="3" rx="1" fill="#BEF7F5"/>
<rect x="57" y="32" width="3" height="3" rx="1" fill="#73D7D2"/>
<rect x="61" y="32" width="3" height="3" rx="1" fill="#73D7D2"/>
</svg>
