<svg width="66" height="50" viewBox="0 0 66 50" fill="none" xmlns="http://www.w3.org/2000/svg">
<path fill-rule="evenodd" clip-rule="evenodd" d="M35.4463 82C47.0443 82 56.4463 72.598 56.4463 61C56.4463 49.402 47.0443 40 35.4463 40C23.8483 40 14.4463 49.402 14.4463 61C14.4463 72.598 23.8483 82 35.4463 82Z" fill="#5F1FDA"/>
<rect x="29.4463" y="37" width="10" height="13" rx="4" fill="#8A4CEC"/>
<path fill-rule="evenodd" clip-rule="evenodd" d="M29.4463 43.1818C29.4463 43.1818 30.9463 45 34.4463 45C37.9463 45 39.4463 41.8182 39.4463 41.8182V40.4545L29.4463 40V43.1818Z" fill="#7F3DE7"/>
<path d="M34.6677 18.3945C27.3654 18.3945 21.4463 22.1813 21.4463 29.4867C21.4463 36.792 27.3654 42.713 34.6677 42.713C41.969 42.713 47.8878 36.792 47.8878 29.4867C47.8878 22.1813 41.969 18.3945 34.6677 18.3945Z" fill="#985EF2"/>
<path fill-rule="evenodd" clip-rule="evenodd" d="M40.9891 31.5208C41.5288 31.5208 41.9662 31.0924 41.9662 30.5641C41.9662 30.0357 41.5288 29.6074 40.9891 29.6074C40.4494 29.6074 40.012 30.0357 40.012 30.5641C40.012 31.0924 40.4494 31.5208 40.9891 31.5208Z" fill="white"/>
<path fill-rule="evenodd" clip-rule="evenodd" d="M28.2862 31.5208C28.8259 31.5208 29.2634 31.0924 29.2634 30.5641C29.2634 30.0357 28.8259 29.6074 28.2862 29.6074C27.7466 29.6074 27.3091 30.0357 27.3091 30.5641C27.3091 31.0924 27.7466 31.5208 28.2862 31.5208Z" fill="white"/>
<path d="M24.0382 29.3772C24.0382 22.4557 29.2275 16.7669 35.8689 16.1059C35.4426 16.063 35.0105 16.041 34.5731 16.041C27.3231 16.041 21.4463 22.0114 21.4463 29.3772C21.4463 36.7429 27.3231 42.7129 34.5731 42.7129C35.0105 42.7129 35.4426 42.6908 35.8689 42.6484C29.2275 41.987 24.0382 36.2982 24.0382 29.3772Z" fill="#8A4CEC"/>
<path d="M42.3327 35.9967H40.6228C40.2097 35.9967 39.8752 35.6453 39.8752 35.2122C39.8752 34.7791 40.2097 34.4277 40.6228 34.4277H42.3327C42.7458 34.4277 43.0803 34.7791 43.0803 35.2122C43.0803 35.6453 42.7458 35.9967 42.3327 35.9967Z" fill="#6F28DF"/>
<path d="M28.7113 35.9967H27.0015C26.5884 35.9967 26.2539 35.6453 26.2539 35.2122C26.2539 34.7791 26.5884 34.4277 27.0015 34.4277H28.7113C29.1244 34.4277 29.4589 34.7791 29.4589 35.2122C29.4589 35.6453 29.1244 35.9967 28.7113 35.9967Z" fill="#6F28DF"/>
<path d="M34.6667 34.0839C33.9656 34.0839 33.3066 33.7562 32.8582 33.1847C32.5721 32.8198 32.6059 32.266 32.933 31.9472C33.2605 31.6284 33.7575 31.6657 34.0436 32.0306C34.1928 32.2208 34.42 32.3298 34.6667 32.3298C34.9134 32.3298 35.1411 32.2208 35.2903 32.0301C35.5764 31.6657 36.0734 31.6284 36.4009 31.9472C36.7284 32.266 36.7618 32.8202 36.4753 33.1847C36.0272 33.7562 35.3679 34.0839 34.6667 34.0839Z" fill="white"/>
<path d="M34.6377 15.2571C29.2129 15.2571 26.5515 15.6416 25.4418 15.3003C24.9979 15.1634 24.5201 15.3605 24.3091 15.7688C23.4231 17.4824 21.4463 22.118 21.4463 29.3775C21.4463 29.3775 24.5877 23.8021 34.5809 23.8021C39.23 23.8021 38.8411 25.3323 47.0865 25.3323C46.1846 14.5103 41.8132 15.2571 34.6377 15.2571Z" fill="#6F28DF"/>
<path d="M26.9848 15.7695C27.0056 15.7299 27.0293 15.6928 27.0551 15.6576C26.3597 15.5345 25.8555 15.4081 25.5016 15.301C25.0511 15.1641 24.5662 15.3612 24.352 15.7695C23.4527 17.4831 21.4463 22.1187 21.4463 29.3782C21.4463 29.3782 22.2095 28.045 24.1744 26.6828C24.5824 20.9645 26.202 17.2602 26.9848 15.7695Z" fill="#5F1FDA"/>
<g filter="url(#filter0_i)">
<path fill-rule="evenodd" clip-rule="evenodd" d="M8.28629 25.32C3.77965 25.32 0.126289 21.6666 0.126289 17.16C0.126289 12.6534 3.77965 9 8.28629 9C12.7929 9 16.4463 12.6534 16.4463 17.16C16.4463 19.5331 16.4463 25.32 16.4463 25.32C16.4463 25.32 10.4198 25.32 8.28629 25.32Z" fill="#8A4CEC"/>
</g>
<path d="M15.8189 24.704H15.8303V24.7037V24.6923V24.6808V24.6692V24.6575V24.6458V24.6339V24.6219V24.6099V24.5978V24.5856V24.5733V24.5609V24.5484V24.5359V24.5232V24.5105V24.4977V24.4848V24.4718V24.4588V24.4456V24.4324V24.4191V24.4057V24.3923V24.3787V22.1299V17.16C15.8303 12.9936 12.4527 9.616 8.28629 9.616C4.11985 9.616 0.74229 12.9936 0.74229 17.16C0.74229 21.3264 4.11985 24.704 8.28629 24.704H8.29883H8.31147H8.32419H8.337H8.3499H8.36288H8.37595H8.38911H8.40235H8.41568H8.42909H8.44259H8.45617H8.46983H8.48358H8.49741H8.51132H8.52531H8.53939H8.55354H8.56778H8.58209H8.59648H8.61096H8.62551H8.64014H8.65484H8.66963H8.68449H8.69942H8.71444H8.72952H8.74469H8.75992H8.77524H8.79062H8.80608H8.82161H8.83721H8.85289H8.86863H8.88445H8.90034H8.9163H8.93232H8.94842H8.96458H8.98082H8.99712H9.01349H9.02992H9.04642H9.06299H9.07962H9.09632H9.11309H9.12991H9.14681H9.16376H9.18078H9.19786H9.215H9.23221H9.24947H9.2668H9.28418H9.30163H9.31913H9.3367H9.35432H9.372H9.38974H9.40754H9.42539H9.4433H9.46126H9.47928H9.49736H9.51549H9.53367H9.55191H9.5702H9.58854H9.60693H9.62538H9.64388H9.66243H9.68103H9.69968H9.71838H9.73713H9.75593H9.77477H9.79367H9.81261H9.8316H9.85063H9.86971H9.88884H9.90801H9.92723H9.94649H9.96579H9.98514H10.0045H10.024H10.0434H10.063H10.0825H10.1021H10.1218H10.1414H10.1612H10.1809H10.2007H10.2205H10.2404H10.2603H10.2803H10.3003H10.3203H10.3403H10.3604H10.3805H10.4007H10.4209H10.4411H10.4614H10.4817H10.502H10.5223H10.5427H10.5631H10.5836H10.6041H10.6246H10.6451H10.6657H10.6862H10.7069H10.7275H10.7482H10.7689H10.7896H10.8103H10.8311H10.8519H10.8727H10.8936H10.9144H10.9353H10.9562H10.9772H10.9981H11.0191H11.0401H11.0611H11.0821H11.1032H11.1243H11.1454H11.1665H11.1876H11.2087H11.2299H11.2511H11.2723H11.2935H11.3147H11.3359H11.3572H11.3784H11.3997H11.421H11.4423H11.4636H11.4849H11.5062H11.5276H11.5489H11.5703H11.5917H11.613H11.6344H11.6558H11.6772H11.6986H11.72H11.7415H11.7629H11.7843H11.8057H11.8272H11.8486H11.8701H11.8915H11.913H11.9344H11.9559H11.9773H11.9988H12.0202H12.0417H12.0631H12.0846H12.106H12.1275H12.1489H12.1704H12.1918H12.2132H12.2347H12.2561H12.2775H12.2989H12.3203H12.3417H12.3631H12.3845H12.4059H12.4272H12.4486H12.47H12.4913H12.5126H12.5339H12.5552H12.5765H12.5978H12.6191H12.6404H12.6616H12.6828H12.7041H12.7253H12.7465H12.7676H12.7888H12.8099H12.831H12.8522H12.8732H12.8943H12.9154H12.9364H12.9574H12.9784H12.9994H13.0203H13.0413H13.0622H13.083H13.1039H13.1248H13.1456H13.1664H13.1871H13.2079H13.2286H13.2493H13.27H13.2906H13.3112H13.3318H13.3523H13.3729H13.3934H13.4138H13.4343H13.4547H13.4751H13.4954H13.5157H13.536H13.5563H13.5765H13.5967H13.6168H13.637H13.6571H13.6771H13.6971H13.7171H13.737H13.7569H13.7768H13.7966H13.8164H13.8362H13.8559H13.8756H13.8952H13.9148H13.9344H13.9539H13.9733H13.9928H14.0122H14.0315H14.0508H14.07H14.0893H14.1084H14.1275H14.1466H14.1657H14.1846H14.2036H14.2225H14.2413H14.2601H14.2788H14.2975H14.3162H14.3348H14.3533H14.3718H14.3902H14.4086H14.427H14.4452H14.4635H14.4817H14.4998H14.5178H14.5359H14.5538H14.5717H14.5896H14.6074H14.6251H14.6428H14.6604H14.6779H14.6954H14.7129H14.7302H14.7476H14.7648H14.782H14.7992H14.8162H14.8332H14.8502H14.8671H14.8839H14.9006H14.9173H14.934H14.9505H14.967H14.9834H14.9998H15.0161H15.0323H15.0485H15.0646H15.0806H15.0965H15.1124H15.1282H15.144H15.1596H15.1752H15.1907H15.2062H15.2216H15.2369H15.2521H15.2672H15.2823H15.2973H15.3122H15.3271H15.3419H15.3566H15.3712H15.3857H15.4002H15.4146H15.4289H15.4431H15.4573H15.4713H15.4853H15.4992H15.513H15.5268H15.5404H15.554H15.5675H15.5809H15.5942H15.6074H15.6206H15.6336H15.6466H15.6595H15.6723H15.685H15.6976H15.7102H15.7226H15.735H15.7472H15.7594H15.7715H15.7835H15.7954H15.8072H15.8189Z" stroke="#5F1FDA" stroke-width="1.232" style="mix-blend-mode:soft-light"/>
<rect width="1.81333" height="7.25333" rx="0.8" transform="matrix(-1 0 0 1 9.19287 13.5332)" fill="white"/>
<rect width="7.25333" height="1.81333" rx="0.8" transform="matrix(-1 0 0 1 11.9128 16.2539)" fill="white"/>
<path fill-rule="evenodd" clip-rule="evenodd" d="M56.433 18.0133L53.6089 17.0982C52.7262 16.8122 52.2425 15.8648 52.5286 14.9821C52.6946 14.4696 53.0964 14.0678 53.6089 13.9018L56.433 12.9867L57.3481 10.1626C57.6341 9.27994 58.5815 8.79625 59.4642 9.08226C59.9767 9.24833 60.3784 9.65011 60.5445 10.1626L61.4596 12.9867L64.2837 13.9018C65.1663 14.1878 65.65 15.1352 65.364 16.0179C65.198 16.5304 64.7962 16.9322 64.2837 17.0982L61.4596 18.0133L60.5445 20.8374C60.2585 21.7201 59.3111 22.2037 58.4284 21.9177C57.9159 21.7517 57.5141 21.3499 57.3481 20.8374L56.433 18.0133Z" fill="#5F1FDA"/>
<path fill-rule="evenodd" clip-rule="evenodd" d="M12.9463 41C14.327 41 15.4463 39.8807 15.4463 38.5C15.4463 37.1193 14.327 36 12.9463 36C11.5656 36 10.4463 37.1193 10.4463 38.5C10.4463 39.8807 11.5656 41 12.9463 41Z" fill="#5F1FDA"/>
<path fill-rule="evenodd" clip-rule="evenodd" d="M45.4463 6C47.1031 6 48.4463 4.65685 48.4463 3C48.4463 1.34315 47.1031 0 45.4463 0C43.7894 0 42.4463 1.34315 42.4463 3C42.4463 4.65685 43.7894 6 45.4463 6Z" fill="#6F28DF"/>
<defs>
<filter id="filter0_i" x="0.126221" y="9" width="16.32" height="16.32" filterUnits="userSpaceOnUse" color-interpolation-filters="sRGB">
<feFlood flood-opacity="0" result="BackgroundImageFix"/>
<feBlend mode="normal" in="SourceGraphic" in2="BackgroundImageFix" result="shape"/>
<feColorMatrix in="SourceAlpha" type="matrix" values="0 0 0 0 0 0 0 0 0 0 0 0 0 0 0 0 0 0 127 0" result="hardAlpha"/>
<feOffset dx="1" dy="1"/>
<feComposite in2="hardAlpha" operator="arithmetic" k2="-1" k3="1"/>
<feColorMatrix type="matrix" values="0 0 0 0 0.541176 0 0 0 0 0.298039 0 0 0 0 0.92549 0 0 0 1 0"/>
<feBlend mode="normal" in2="shape" result="effect1_innerShadow"/>
</filter>
</defs>
</svg>
