<svg width="15" height="12" viewBox="0 0 15 12" fill="none" xmlns="http://www.w3.org/2000/svg">
<path fill-rule="evenodd" clip-rule="evenodd" d="M8.14851 2.66414C7.75799 2.27361 7.75799 1.64045 8.14851 1.24992C8.53904 0.8594 9.1722 0.8594 9.56273 1.24992L13.7794 5.46656C13.7881 5.47474 13.7968 5.4831 13.8054 5.49166C13.8642 5.5505 13.9142 5.61486 13.9553 5.68306C14.0463 5.83374 14.0986 6.01037 14.0986 6.19922C14.0986 6.38807 14.0463 6.5647 13.9553 6.71538C13.9142 6.78358 13.8642 6.84793 13.8054 6.90678C13.7968 6.91533 13.7881 6.9237 13.7794 6.93188L9.56273 11.1485C9.1722 11.539 8.53904 11.539 8.14851 11.1485C7.75799 10.758 7.75799 10.1248 8.14851 9.7343L10.6836 7.19922H1.09863C0.546348 7.19922 0.0986328 6.7515 0.0986328 6.19922C0.0986328 5.64693 0.546348 5.19922 1.09863 5.19922H10.6836L8.14851 2.66414Z" fill="#F7FAFB"/>
</svg>
