<svg width="12" height="14" viewBox="0 0 12 14" fill="none" xmlns="http://www.w3.org/2000/svg">
<path fill-rule="evenodd" clip-rule="evenodd" d="M10.939 8C10.4743 8 10.0976 8.44771 10.0976 9V11C10.0976 11.5523 9.72083 12 9.2561 12H2.52439C2.05966 12 1.68293 11.5523 1.68293 11V3C1.68293 2.44772 2.05966 2 2.52439 2H4.20732C4.67204 2 5.04878 1.55228 5.04878 1C5.04878 0.447715 4.67204 0 4.20732 0H2.52439C1.13021 0 0 1.34315 0 3V11C0 12.6569 1.13021 14 2.52439 14H9.2561C10.6503 14 11.7805 12.6569 11.7805 11V9C11.7805 8.44771 11.4038 8 10.939 8ZM11.7805 1C11.7805 0.447715 11.4038 0 10.939 0H7.57318C7.10845 0 6.73172 0.447715 6.73172 1C6.73172 1.55228 7.10845 2 7.57318 2H8.90756L5.89026 5.58579C5.56164 5.97631 5.56164 6.60948 5.89026 7C6.21887 7.39052 6.75165 7.39052 7.08026 7L10.0976 3.41421V5C10.0976 5.55228 10.4743 6 10.939 6C11.4023 6 11.7781 5.55513 11.7805 5.00527C11.7805 5.00352 11.7805 5.00176 11.7805 5V1Z" fill="#B4BCC5"/>
</svg>
