<svg width="17" height="14" viewBox="0 0 17 14" fill="none" xmlns="http://www.w3.org/2000/svg">
<path fill-rule="evenodd" clip-rule="evenodd" d="M16.1454 11.0733L13.5948 8.9061C13.0868 8.47621 12.2455 8.48927 11.7197 8.9361L10.4347 10.0276C10.3536 9.98957 10.2695 9.94987 10.1812 9.90774C9.36972 9.52574 8.2591 9.00217 7.0904 8.00851C5.91824 7.01276 5.30141 6.06772 4.85041 5.37786C4.80282 5.30478 4.75723 5.23431 4.7122 5.16739L5.57462 4.43577L5.99861 4.07509C6.52515 3.62763 6.53967 2.91305 6.03282 2.48192L3.48224 0.314451C2.9754 -0.116083 2.13372 -0.103021 1.60718 0.344444L0.888343 0.95868L0.907986 0.975248C0.666949 1.23655 0.465531 1.53793 0.315642 1.86292C0.177473 2.17228 0.0914493 2.46748 0.0521147 2.76329C-0.284673 5.13542 0.99121 7.30337 4.45379 10.2452C9.24014 14.3114 13.0973 14.0043 13.2637 13.9893C13.6261 13.9525 13.9734 13.8789 14.3264 13.7624C14.7056 13.6366 15.0601 13.4657 15.3675 13.2613L15.3832 13.2732L16.1114 12.6673C16.6368 12.22 16.652 11.5051 16.1454 11.0733Z" fill="#B4BCC5"/>
</svg>
