<svg width="14" height="14" viewBox="0 0 14 14" fill="none" xmlns="http://www.w3.org/2000/svg">
<path fill-rule="evenodd" clip-rule="evenodd" d="M13.4412 4.27356C13.813 5.14048 14 6.04272 14 6.99231C14 7.94209 13.8129 8.85199 13.4412 9.71893C12.7029 11.4406 11.4487 12.7006 9.71346 13.4411C8.84633 13.811 7.93759 14 6.98849 14C6.0394 14 5.13768 13.8129 4.27121 13.4411C2.55054 12.7024 1.29054 11.4435 0.551124 9.71893C0.180605 8.85476 0 7.94209 0 6.99231C0 6.04272 0.180605 5.13755 0.551124 4.27356C1.29054 2.54901 2.55038 1.29761 4.27121 0.559117C5.13752 0.18725 6.03942 0 6.98849 0C7.93773 0 8.84633 0.189035 9.7136 0.559117C11.4488 1.29958 12.7031 2.55178 13.4412 4.27356ZM11.3281 9.50631C11.7775 8.73586 12 7.89553 12 6.99375C12 6.09199 11.776 5.25868 11.328 4.49382C10.8799 3.72884 10.2692 3.12082 9.49843 2.67172C8.73229 2.22528 7.89299 2 6.99064 2C6.08843 2 5.25444 2.22396 4.48922 2.67172C3.72387 3.1195 3.11173 3.72754 2.66593 4.49384C2.2217 5.25736 2 6.09199 2 6.99376C2 7.67171 2.12797 8.32579 2.39204 8.94032C2.65689 9.5571 3.01108 10.0939 3.45608 10.5386C3.90109 10.9832 4.43305 11.3347 5.04917 11.602C5.66531 11.8695 6.31251 12 6.99077 12C7.89299 12 8.73243 11.7749 9.49856 11.3284C10.2694 10.8793 10.8814 10.2719 11.3281 9.50631ZM7.60332 4.47206V6.59741L9.1652 7.83868C9.60686 8.22273 9.6169 8.86076 9.16402 9.25183C8.78109 9.5827 8.14171 9.5827 7.77493 9.26543L5.83894 7.73123C5.60223 7.5265 5.48895 7.24457 5.51684 6.99495C5.51216 6.97032 5.5066 6.941 5.5 6.90613V4.47206C5.5 3.9212 5.98785 3.5 6.53697 3.5C7.10032 3.5 7.60332 3.91379 7.60332 4.47206Z" fill="#4ABBB5"/>
</svg>
