<svg width="14" height="12" viewBox="0 0 14 12" fill="none" xmlns="http://www.w3.org/2000/svg">
<path fill-rule="evenodd" clip-rule="evenodd" d="M11 0H3C1.34315 0 0 1.34315 0 3V9C0 10.6569 1.34315 12 3 12H11C12.6569 12 14 10.6569 14 9V3C14 1.34315 12.6569 0 11 0ZM2 3C2 2.44772 2.44772 2 3 2H11C11.5523 2 12 2.44772 12 3V9C12 9.55229 11.5523 10 11 10H3C2.44772 10 2 9.55229 2 9V3Z" fill="#4ABBB5"/>
<path d="M1.83565 3.24742L5.67128 6.65687C6.42906 7.33045 7.57097 7.33045 8.32874 6.65687L12.1644 3.24742C12.5772 2.8805 12.6143 2.24843 12.2474 1.83565C11.8805 1.42286 11.2484 1.38568 10.8356 1.7526L7.00001 5.16206L3.16437 1.7526C2.75159 1.38568 2.11952 1.42286 1.7526 1.83565C1.38568 2.24843 1.42286 2.8805 1.83565 3.24742Z" fill="#4ABBB5"/>
</svg>
