<svg width="69" height="68" viewBox="0 0 69 68" fill="none" xmlns="http://www.w3.org/2000/svg">
<path d="M4.18247 65.5928L2.98445 63.6956L27.4067 48.3805L0.508789 30.86L1.74017 28.9832L30.1045 47.4618C30.4252 47.6711 30.6171 48.0292 30.614 48.41C30.6102 48.7923 30.4123 49.1459 30.0878 49.3492L4.18247 65.5928Z" fill="url(#paint0_linear)"/>
<path d="M64.0576 65.5929L38.1523 49.3484C37.8277 49.1444 37.6291 48.7916 37.626 48.4093C37.6222 48.0285 37.8141 47.6703 38.1348 47.461L66.4999 28.9824L67.7313 30.8592L40.8334 48.3806L65.2556 63.6957L64.0576 65.5929Z" fill="url(#paint1_linear)"/>
<path d="M38.7503 49.1481H29.4899C29.0759 49.1481 28.7393 48.8126 28.7393 48.4009C28.7393 47.9876 29.0752 47.6521 29.4899 47.6521H38.7511C39.1651 47.6521 39.501 47.9876 39.501 48.4009C39.5002 48.8119 39.1643 49.1481 38.7503 49.1481Z" fill="url(#paint2_linear)"/>
<path d="M54.1495 15.5222H41.2397C40.6187 15.5222 40.1152 15.0198 40.1152 14.401V1.12134H42.3649V13.2797H54.1488V15.5222H54.1495Z" fill="url(#paint3_linear)"/>
<path fill-rule="evenodd" clip-rule="evenodd" d="M9.46058 68H58.7804C63.9971 68 68.241 64.053 68.2425 59.2V29.9215C68.2425 29.5105 68.0158 29.1312 67.6526 28.9355C67.2887 28.7398 66.8481 28.7587 66.5016 28.9831L38.4171 47.2789H29.8254L1.74092 28.9831C1.39516 28.7587 0.95311 28.7398 0.589154 28.9355C0.225956 29.1312 0 29.5105 0 29.9215V59.2C0 64.053 4.24388 68 9.46058 68ZM2.24894 59.2V31.9932L28.8746 49.3385C29.0573 49.4579 29.2719 49.5214 29.4903 49.5214H38.7507C38.9691 49.5214 39.1829 49.4579 39.3664 49.3385L65.9905 31.9932V59.2C65.9905 62.8161 62.7559 65.759 58.7804 65.759H9.45982C5.4836 65.759 2.24894 62.8161 2.24894 59.2Z" fill="url(#paint4_linear)"/>
<path fill-rule="evenodd" clip-rule="evenodd" d="M13.4755 39.307C13.6613 39.4279 13.8766 39.4898 14.0912 39.4898C14.2755 39.4898 14.459 39.4437 14.6265 39.3546C14.9905 39.1596 15.2165 38.7803 15.2165 38.3693V18.8767C15.2165 18.4393 14.9602 18.0411 14.5621 17.859C14.1633 17.6762 13.6931 17.7404 13.3603 18.0245L0.39434 29.0692C0.124406 29.2989 -0.0204179 29.6411 0.00232935 29.9932C0.0243184 30.3453 0.212362 30.6664 0.508835 30.8599L13.4755 39.307ZM12.966 36.2961L2.99663 29.8013L12.966 21.3089V36.2961Z" fill="url(#paint5_linear)"/>
<path fill-rule="evenodd" clip-rule="evenodd" d="M53.6143 39.3539C53.7819 39.4438 53.9654 39.4899 54.1504 39.4899C54.365 39.4899 54.5788 39.428 54.7653 39.3071L67.732 30.86C68.0277 30.6673 68.2165 30.3462 68.2393 29.9933C68.2613 29.6413 68.1157 29.299 67.8473 29.0693L54.8806 18.0238C54.547 17.7397 54.0776 17.6748 53.6788 17.8584C53.2799 18.0412 53.0244 18.4386 53.0244 18.8761V38.3687C53.0244 38.7797 53.2511 39.159 53.6143 39.3539ZM55.2741 36.2962V21.309L65.2442 29.8014L55.2741 36.2962Z" fill="url(#paint6_linear)"/>
<path fill-rule="evenodd" clip-rule="evenodd" d="M29.4902 49.5214H38.7506C38.9697 49.5214 39.1835 49.4579 39.3663 49.3385L54.7647 39.3063C55.0824 39.1 55.2734 38.7472 55.2734 38.3686V14.4001C55.2734 14.1092 55.1605 13.8297 54.9572 13.6204L42.0482 0.341511C41.8366 0.123911 41.5455 0 41.2399 0H14.0911C13.4701 0 12.9658 0.502444 12.9658 1.12124V38.3686C12.9658 38.7472 13.1577 39.1 13.4754 39.3063L28.8745 49.3385C29.0572 49.4579 29.2718 49.5214 29.4902 49.5214ZM38.4162 47.2781H29.8246L15.2163 37.7627V2.24249H40.7637L53.0252 14.8542V37.7619L38.4162 47.2781Z" fill="url(#paint7_linear)"/>
<path d="M18.4658 8.96777H33.3706V11.2095H18.4658V8.96777Z" fill="url(#paint8_linear)"/>
<rect x="18.4658" y="20.1755" width="31.3086" height="2.24249" fill="url(#paint9_linear)"/>
<path d="M18.4658 24.4111H49.7744V26.6529H18.4658V24.4111Z" fill="url(#paint10_linear)"/>
<path d="M18.4658 28.6453H49.7744V30.887H18.4658V28.6453Z" fill="url(#paint11_linear)"/>
<rect x="18.4658" y="32.8804" width="31.3086" height="2.24098" fill="url(#paint12_linear)"/>
<defs>
<linearGradient id="paint0_linear" x1="0.508789" y1="51.9525" x2="30.6141" y2="51.9525" gradientUnits="userSpaceOnUse">
<stop stop-color="#990B9B"/>
<stop offset="1" stop-color="#B71A85"/>
</linearGradient>
<linearGradient id="paint1_linear" x1="37.626" y1="51.9523" x2="67.7313" y2="51.9523" gradientUnits="userSpaceOnUse">
<stop stop-color="#990B9B"/>
<stop offset="1" stop-color="#B71A85"/>
</linearGradient>
<linearGradient id="paint2_linear" x1="28.7393" y1="48.5907" x2="39.501" y2="48.5907" gradientUnits="userSpaceOnUse">
<stop stop-color="#990B9B"/>
<stop offset="1" stop-color="#B71A85"/>
</linearGradient>
<linearGradient id="paint3_linear" x1="40.1152" y1="10.1566" x2="54.1495" y2="10.1566" gradientUnits="userSpaceOnUse">
<stop stop-color="#990B9B"/>
<stop offset="1" stop-color="#B71A85"/>
</linearGradient>
<linearGradient id="paint4_linear" x1="1.04559e-07" y1="53.3949" x2="68.2425" y2="53.3949" gradientUnits="userSpaceOnUse">
<stop stop-color="#990B9B"/>
<stop offset="1" stop-color="#B71A85"/>
</linearGradient>
<linearGradient id="paint5_linear" x1="2.33141e-08" y1="31.3921" x2="15.2165" y2="31.3921" gradientUnits="userSpaceOnUse">
<stop stop-color="#990B9B"/>
<stop offset="1" stop-color="#B71A85"/>
</linearGradient>
<linearGradient id="paint6_linear" x1="53.0244" y1="31.3918" x2="68.2415" y2="31.3918" gradientUnits="userSpaceOnUse">
<stop stop-color="#990B9B"/>
<stop offset="1" stop-color="#B71A85"/>
</linearGradient>
<linearGradient id="paint7_linear" x1="12.9658" y1="31.0704" x2="55.2734" y2="31.0704" gradientUnits="userSpaceOnUse">
<stop stop-color="#990B9B"/>
<stop offset="1" stop-color="#B71A85"/>
</linearGradient>
<linearGradient id="paint8_linear" x1="18.4658" y1="10.3743" x2="33.3706" y2="10.3743" gradientUnits="userSpaceOnUse">
<stop stop-color="#990B9B"/>
<stop offset="1" stop-color="#B71A85"/>
</linearGradient>
<linearGradient id="paint9_linear" x1="18.4658" y1="21.5825" x2="49.7744" y2="21.5825" gradientUnits="userSpaceOnUse">
<stop stop-color="#990B9B"/>
<stop offset="1" stop-color="#B71A85"/>
</linearGradient>
<linearGradient id="paint10_linear" x1="18.4658" y1="25.8176" x2="49.7744" y2="25.8176" gradientUnits="userSpaceOnUse">
<stop stop-color="#990B9B"/>
<stop offset="1" stop-color="#B71A85"/>
</linearGradient>
<linearGradient id="paint11_linear" x1="18.4658" y1="30.0518" x2="49.7744" y2="30.0518" gradientUnits="userSpaceOnUse">
<stop stop-color="#990B9B"/>
<stop offset="1" stop-color="#B71A85"/>
</linearGradient>
<linearGradient id="paint12_linear" x1="18.4658" y1="34.2864" x2="49.7744" y2="34.2864" gradientUnits="userSpaceOnUse">
<stop stop-color="#990B9B"/>
<stop offset="1" stop-color="#B71A85"/>
</linearGradient>
</defs>
</svg>
