<svg width="19" height="22" viewBox="0 0 19 22" fill="none" xmlns="http://www.w3.org/2000/svg">
<path fill-rule="evenodd" clip-rule="evenodd" d="M6.78158 19.2488H12.2066C12.2066 20.7681 10.994 22 9.49579 22C7.99693 22 6.78158 20.7681 6.78158 19.2488ZM18.8205 15.1241C18.5771 14.759 18.2006 14.2922 18.2006 14.2922C15.9605 12.014 14.4705 8.91632 14.2433 5.49966C14.2433 5.49966 14.2433 5.05418 14.2433 4.8122C14.2433 2.15518 12.1164 0 9.49579 0C6.87178 0 4.74829 2.15518 4.74829 4.8122C4.74829 5.05418 4.74829 5.49966 4.74829 5.49966C4.52041 8.91632 3.03038 12.0779 0.788209 14.3569C0.788209 14.3569 0.350083 14.7803 0.169678 15.1241C-0.0107263 15.4678 0.000125128 16.1944 0.000125128 16.501C0.000125128 17.26 0.607804 17.8753 1.35587 17.8753H17.6343C18.3811 17.8753 18.9894 17.26 18.9894 16.501C18.9894 16.1944 19.0633 15.4891 18.8205 15.1241Z" fill="white"/>
</svg>
