<svg width="16" height="14" viewBox="0 0 16 14" fill="none" xmlns="http://www.w3.org/2000/svg">
<path opacity="0.5" fill-rule="evenodd" clip-rule="evenodd" d="M7.76891 3.72422L7.8036 4.32976L7.22555 4.25561C5.12147 3.97138 3.28329 3.00746 1.72257 1.38857L0.959553 0.5853L0.763018 1.17848C0.346826 2.50078 0.612727 3.89723 1.47979 4.83643C1.94223 5.35547 1.83818 5.42962 1.04048 5.12067C0.763018 5.0218 0.52024 4.94766 0.497118 4.98473C0.416192 5.07124 0.693653 6.19581 0.91331 6.6407C1.21389 7.25859 1.82662 7.86413 2.49715 8.22251L3.06363 8.50675L2.3931 8.5191C1.74569 8.5191 1.72257 8.53146 1.79194 8.79098C2.02315 9.59424 2.93646 10.4469 3.95382 10.8177L4.6706 11.0772L4.04631 11.4727C3.12144 12.0411 2.03472 12.3624 0.947992 12.3871C0.427753 12.3995 0 12.4489 0 12.486C0 12.6096 1.41043 13.3016 2.23125 13.5735C4.69372 14.3768 7.61862 14.0307 9.81519 12.659C11.3759 11.6827 12.9366 9.74254 13.665 7.86413C14.058 6.86314 14.4511 5.03416 14.4511 4.15675C14.4511 3.58828 14.4858 3.51413 15.1332 2.83445C15.5147 2.43899 15.8731 2.00646 15.9425 1.88288C16.0581 1.64808 16.0465 1.64808 15.4569 1.85817C14.4742 2.22891 14.3355 2.17948 14.8211 1.62337C15.1794 1.22791 15.6072 0.511153 15.6072 0.301067C15.6072 0.263994 15.4338 0.325783 15.2372 0.437005C15.0291 0.560584 14.5667 0.745954 14.2199 0.857175L13.5956 1.06726L13.0291 0.659448C12.717 0.437005 12.2777 0.189846 12.0464 0.115698C11.4568 -0.0573131 10.5551 -0.0325972 10.0233 0.16513C8.57817 0.721238 7.66487 2.15476 7.76891 3.72422Z" fill="white"/>
</svg>
