<svg width="16" height="16" viewBox="0 0 16 16" fill="none" xmlns="http://www.w3.org/2000/svg">
<path opacity="0.5" fill-rule="evenodd" clip-rule="evenodd" d="M7.98736 0.0234375C5.81812 0.0234375 5.54612 0.0325554 4.6942 0.0714026C3.84399 0.110145 3.26337 0.244852 2.75536 0.441848C2.23009 0.645516 1.78465 0.91804 1.3406 1.36111C0.89656 1.80419 0.62344 2.2487 0.419361 2.77278C0.221829 3.27975 0.0868271 3.85911 0.04807 4.70742C0.00917286 5.55748 0 5.82885 0 7.99336C0 10.1579 0.00917286 10.4293 0.04807 11.2794C0.0868271 12.1277 0.221829 12.707 0.419361 13.214C0.62344 13.7381 0.89656 14.1826 1.3406 14.6257C1.78465 15.0687 2.23009 15.3413 2.75536 15.5449C3.26337 15.7419 3.84399 15.8766 4.6942 15.9154C5.54612 15.9542 5.81812 15.9634 7.98736 15.9634C10.1566 15.9634 10.4286 15.9542 11.2806 15.9154C12.1307 15.8766 12.7114 15.7419 13.2194 15.5449C13.7447 15.3413 14.1901 15.0687 14.6341 14.6257C15.0782 14.1826 15.3513 13.7381 15.5554 13.214C15.7529 12.707 15.8879 12.1277 15.9267 11.2794C15.9656 10.4293 15.9747 10.1579 15.9747 7.99336C15.9747 5.82885 15.9656 5.55748 15.9267 4.70742C15.8879 3.85911 15.7529 3.27975 15.5554 2.77278C15.3513 2.2487 15.0782 1.80419 14.6341 1.36111C14.1901 0.91804 13.7447 0.645516 13.2194 0.441848C12.7114 0.244852 12.1307 0.110145 11.2806 0.0714026C10.4286 0.0325554 10.1566 0.0234375 7.98736 0.0234375ZM7.98765 1.46094C10.1204 1.46094 10.373 1.46904 11.2152 1.50737C11.994 1.54282 12.4169 1.67271 12.6984 1.78181C13.0712 1.9264 13.3373 2.09912 13.6168 2.378C13.8963 2.65692 14.0694 2.92239 14.2143 3.2944C14.3236 3.57524 14.4538 3.99729 14.4893 4.7743C14.5277 5.61475 14.5359 5.86677 14.5359 7.99484C14.5359 10.123 14.5277 10.375 14.4893 11.2154C14.4538 11.9925 14.3236 12.4145 14.2143 12.6953C14.0694 13.0673 13.8963 13.3328 13.6168 13.6117C13.3373 13.8906 13.0712 14.0633 12.6984 14.2079C12.4169 14.317 11.994 14.4469 11.2152 14.4823C10.3731 14.5207 10.1206 14.5288 7.98765 14.5288C5.85475 14.5288 5.60222 14.5207 4.76007 14.4823C3.98135 14.4469 3.55839 14.317 3.27693 14.2079C2.9041 14.0633 2.63802 13.8906 2.35853 13.6117C2.07907 13.3328 1.90597 13.0673 1.76106 12.6953C1.65169 12.4145 1.52155 11.9925 1.48598 11.2154C1.44761 10.375 1.43945 10.123 1.43945 7.99484C1.43945 5.86677 1.44761 5.61475 1.48598 4.7743C1.52155 3.99729 1.65169 3.57524 1.76106 3.2944C1.90597 2.92239 2.07907 2.65692 2.35853 2.378C2.63802 2.09912 2.9041 1.9264 3.27693 1.78181C3.55839 1.67271 3.98135 1.54282 4.76007 1.50737C5.60236 1.46904 5.85493 1.46094 7.98765 1.46094Z" fill="white"/>
<path opacity="0.5" fill-rule="evenodd" clip-rule="evenodd" d="M7.98767 10.6531C6.51725 10.6531 5.3252 9.46372 5.3252 7.99647C5.3252 6.52926 6.51725 5.33984 7.98767 5.33984C9.45813 5.33984 10.6501 6.52926 10.6501 7.99647C10.6501 9.46372 9.45813 10.6531 7.98767 10.6531ZM7.98734 3.90234C5.7221 3.90234 3.88574 5.73473 3.88574 7.99499C3.88574 10.2554 5.7221 12.0877 7.98734 12.0877C10.2526 12.0877 12.0889 10.2554 12.0889 7.99499C12.0889 5.73473 10.2526 3.90234 7.98734 3.90234Z" fill="white"/>
<path opacity="0.5" fill-rule="evenodd" clip-rule="evenodd" d="M13.21 3.73765C13.21 4.26583 12.7808 4.69405 12.2515 4.69405C11.7221 4.69405 11.293 4.26583 11.293 3.73765C11.293 3.20944 11.7221 2.78125 12.2515 2.78125C12.7808 2.78125 13.21 3.20944 13.21 3.73765Z" fill="white"/>
</svg>
