<svg width="164" height="55" viewBox="0 0 164 55" fill="none" xmlns="http://www.w3.org/2000/svg">
<path fill-rule="evenodd" clip-rule="evenodd" d="M74.0882 18.4582C74.5212 18.8824 74.7377 19.4348 74.7377 20.1152C74.7377 20.5185 74.6491 20.9175 74.4717 21.3123C74.2944 21.7071 74.0326 22.0348 73.6862 22.2952C73.3398 22.5556 72.9233 22.6858 72.4367 22.6858C71.9501 22.6858 71.546 22.5325 71.2243 22.2259C70.9027 21.9192 70.7419 21.5055 70.7419 20.9847C70.7419 20.4722 70.9151 19.9745 71.2615 19.4915C71.6078 19.0084 72.0656 18.6409 72.6346 18.3889C72.5192 18.3301 72.379 18.3007 72.214 18.3007C71.9254 18.3091 71.6821 18.3595 71.4841 18.4519C71.2862 18.5443 71.0965 18.6871 70.9151 18.8803C70.6429 19.1912 70.412 19.5797 70.2223 20.0459C70.0326 20.5122 69.8099 21.1527 69.5543 21.9675C69.2656 22.9168 68.9955 23.6897 68.744 24.2861C68.4924 24.8826 68.1481 25.4223 67.711 25.9053C67.2739 26.3884 66.7213 26.7055 66.0533 26.8567C66.9357 26.9575 67.6388 27.1381 68.1625 27.3985C68.6862 27.6589 69.0677 28.0223 69.3068 28.4885C69.546 28.9547 69.6656 29.5617 69.6656 30.3093C69.6656 30.6453 69.6491 30.9688 69.6161 31.2796L69.3316 33.9888C69.3233 34.0308 69.3192 34.0938 69.3192 34.1778C69.3192 34.6818 69.5378 34.9338 69.9749 34.9338C70.2883 34.9338 70.5542 34.8078 70.7728 34.5558C70.9914 34.3038 71.1914 33.9132 71.3728 33.3839L71.8058 32.0734H72.313L71.6573 34.0644C71.3439 34.9884 70.8924 35.6794 70.3027 36.1372C69.713 36.5951 69.0306 36.824 68.2553 36.824C67.3151 36.824 66.5914 36.5867 66.0842 36.112C65.577 35.6374 65.3234 34.9884 65.3234 34.1652C65.3234 34.0476 65.3399 33.846 65.3729 33.5603L65.8677 29.9439C65.9089 29.6079 65.9296 29.2592 65.9296 28.898C65.9296 28.4612 65.8801 28.1126 65.7811 27.8522C65.6821 27.5917 65.5172 27.3733 65.2863 27.1969C64.5935 27.3817 64.078 27.4741 63.7399 27.4741C63.311 27.4741 63.0966 27.3355 63.0966 27.0583C63.0966 26.9995 63.1007 26.9575 63.109 26.9323C63.1337 26.7559 63.2017 26.6257 63.3131 26.5417C63.4244 26.4577 63.5997 26.4157 63.8389 26.4157C64.1935 26.4157 64.6842 26.5039 65.311 26.6803C66.0698 26.5711 66.6883 26.2812 67.1667 25.8108C67.645 25.3404 68.0141 24.8006 68.2739 24.1916C68.5337 23.5826 68.8037 22.795 69.0842 21.8289C69.3398 20.9637 69.5666 20.2874 69.7646 19.8002C69.9625 19.313 70.2182 18.9055 70.5316 18.5779C71.0347 18.0739 71.6408 17.8219 72.3501 17.8219C73.0759 17.8219 73.6552 18.034 74.0882 18.4582ZM60.5482 34.9716C60.5482 35.2237 60.6038 35.4169 60.7152 35.5513C60.8265 35.6857 61.0018 35.7802 61.2409 35.8348C61.4801 35.8894 61.8183 35.9251 62.2554 35.9419L62.1564 36.4585C61.2162 36.4081 59.8884 36.3829 58.1729 36.3829C56.3338 36.3829 54.9565 36.4081 54.041 36.4585L54.1647 35.9419C54.7503 35.9167 55.1915 35.8495 55.4884 35.7403C55.7853 35.6311 56.0245 35.4274 56.2059 35.1292C56.3874 34.8309 56.5606 34.3626 56.7255 33.7242L60.0781 20.9217C60.2183 20.3756 60.2884 19.964 60.2884 19.6868C60.2884 19.4264 60.2306 19.229 60.1152 19.0946C59.9997 18.9601 59.8245 18.8656 59.5894 18.811C59.3544 18.7564 59.0183 18.7207 58.5812 18.7039L58.7049 18.1873C59.5709 18.2377 60.9482 18.2629 62.8368 18.2629C64.4615 18.2629 65.7935 18.2377 66.8326 18.1873L66.7089 18.7039C66.0904 18.7291 65.6306 18.7963 65.3296 18.9055C65.0285 19.0147 64.7894 19.2164 64.612 19.5104C64.4347 19.8044 64.2636 20.2748 64.0986 20.9217L60.7585 33.7242C60.6183 34.2786 60.5482 34.6944 60.5482 34.9716ZM78.2788 17.6266C78.5056 17.2611 78.817 16.9818 79.2128 16.7886C79.6087 16.5954 80.0499 16.4988 80.5365 16.4988C81.1303 16.4988 81.5901 16.6416 81.9159 16.9272C82.2417 17.2128 82.4046 17.6076 82.4046 18.1117C82.4046 18.5653 82.287 18.9748 82.052 19.3403C81.8169 19.7057 81.4994 19.9892 81.0994 20.1908C80.6994 20.3924 80.2602 20.4932 79.7819 20.4932C79.1963 20.4932 78.7427 20.3546 78.4211 20.0774C78.0994 19.8002 77.9386 19.418 77.9386 18.9307C77.9386 18.4267 78.052 17.992 78.2788 17.6266ZM77.1469 24.5381C77.1469 24.1937 77.0025 24.0215 76.7139 24.0215C76.4005 24.0215 76.116 24.179 75.8603 24.494C75.6046 24.809 75.3448 25.3278 75.0809 26.0502L74.5861 27.3733H74.1036L74.7964 25.4076C75.4067 23.6435 76.5778 22.7614 78.3097 22.7614C79.0933 22.7614 79.6623 22.9546 80.0169 23.341C80.3716 23.7275 80.5489 24.2315 80.5489 24.8531C80.5489 25.3068 80.4582 25.8108 80.2767 26.3652L77.617 34.266C77.5098 34.5684 77.4562 34.8204 77.4562 35.022C77.4562 35.3749 77.6252 35.5513 77.9634 35.5513C78.2273 35.5513 78.4871 35.4043 78.7427 35.1102C78.9984 34.8162 79.2706 34.287 79.5592 33.5225L80.0169 32.2751H80.4994L79.8561 34.1652C79.518 35.1313 79.0458 35.8159 78.4396 36.2191C77.8335 36.6224 77.1634 36.824 76.4294 36.824C75.6623 36.824 75.0871 36.6413 74.7036 36.2758C74.3201 35.9104 74.1283 35.3833 74.1283 34.6944C74.1283 34.1568 74.2562 33.4973 74.5119 32.7161L76.9861 25.3068C77.0933 25.0044 77.1469 24.7481 77.1469 24.5381ZM94.8342 32.2751L94.2281 34.1652C93.9147 35.1397 93.4569 35.8264 92.8549 36.2254C92.2528 36.6245 91.593 36.824 90.8755 36.824C89.8281 36.824 89.1601 36.4291 88.8714 35.6395C88.7394 35.3623 88.6735 35.0136 88.6735 34.5936C88.6735 34.056 88.7766 33.4301 88.9827 32.7161L89.0199 32.5901C88.3683 34.0602 87.6838 35.1333 86.9663 35.8096C86.2488 36.4858 85.391 36.824 84.3931 36.824C83.4941 36.824 82.7684 36.5215 82.2158 35.9167C81.6632 35.3119 81.3869 34.4046 81.3869 33.1949C81.3869 31.8088 81.7395 30.2946 82.4447 28.6523C83.1498 27.01 84.1436 25.6176 85.4261 24.4751C86.7085 23.3326 88.1704 22.7614 89.8116 22.7614C90.6116 22.7614 91.1271 23.0512 91.358 23.6309L92.4961 19.2458C92.5786 18.9349 92.6198 18.6955 92.6198 18.5275C92.6198 18.1831 92.4879 17.9332 92.224 17.7778C91.96 17.6223 91.5147 17.5446 90.8879 17.5446L91.0611 17.0028C92.2322 16.9944 93.2879 16.902 94.2281 16.7256C95.1683 16.5492 96.0837 16.2888 96.9744 15.9443L92.0136 34.266C91.9229 34.518 91.8776 34.749 91.8776 34.959C91.8776 35.3539 92.0425 35.5513 92.3724 35.5513C92.925 35.5513 93.4404 34.875 93.9188 33.5225L94.3641 32.2751H94.8342ZM90.8137 23.5742C90.657 23.4271 90.4425 23.3536 90.1704 23.3536C89.4446 23.3536 88.6858 23.8808 87.8941 24.9351C87.1024 25.9893 86.4426 27.3271 85.9147 28.9484C85.3869 30.5697 85.123 32.17 85.123 33.7494C85.123 34.3542 85.1869 34.8015 85.3147 35.0913C85.4426 35.3812 85.6508 35.5261 85.9395 35.5261C86.2694 35.5261 86.6652 35.2762 87.1271 34.7763C87.589 34.2765 88.0652 33.5414 88.5559 32.5712C89.0467 31.6009 89.4982 30.4563 89.9106 29.1374L91.1848 24.2609C91.0941 23.9501 90.9704 23.7212 90.8137 23.5742ZM108.588 32.2625L107.957 34.1526C107.619 35.1271 107.153 35.8159 106.559 36.2191C105.965 36.6224 105.318 36.824 104.617 36.824C103.734 36.824 103.107 36.5509 102.736 36.0049C102.513 35.6689 102.402 35.2363 102.402 34.707C102.402 34.2954 102.476 33.7788 102.625 33.1571C102.064 34.4508 101.431 35.3854 100.726 35.9608C100.021 36.5362 99.2434 36.824 98.3939 36.824C97.4537 36.824 96.7465 36.5446 96.2723 35.986C95.7981 35.4274 95.5609 34.644 95.5609 33.6359C95.5609 32.107 95.963 30.4878 96.7671 28.7783C97.5712 27.0688 98.5877 25.6386 99.8166 24.4877C101.045 23.3368 102.25 22.7614 103.429 22.7614C103.883 22.7614 104.25 22.9 104.53 23.1772C104.81 23.4545 104.975 23.8703 105.025 24.4247L105.384 23.1268C106.769 23.1016 107.994 22.9798 109.058 22.7614L105.742 34.2534C105.66 34.5642 105.619 34.812 105.619 34.9968C105.619 35.3665 105.771 35.5513 106.076 35.5513C106.662 35.5513 107.19 34.875 107.66 33.5225L108.105 32.2625H108.588ZM104.765 25.0422C104.765 24.6221 104.691 24.2945 104.542 24.0593C104.394 23.8241 104.184 23.7065 103.911 23.7065C103.334 23.7065 102.68 24.2336 101.951 25.2879C101.221 26.3422 100.598 27.661 100.083 29.2445C99.5671 30.8281 99.3094 32.3549 99.3094 33.825C99.3094 34.4046 99.365 34.8183 99.4764 35.0661C99.5877 35.314 99.7671 35.4379 100.015 35.4379C100.377 35.4379 100.784 35.1754 101.233 34.6503C101.683 34.1253 102.13 33.365 102.575 32.3696C103.021 31.3741 103.417 30.2001 103.763 28.8476L103.639 29.4903L104.74 25.458C104.757 25.2732 104.765 25.1346 104.765 25.0422ZM136.247 34.896C136.247 35.3329 136.42 35.5513 136.767 35.5513C137.311 35.5513 137.822 34.875 138.301 33.5225L138.746 32.2751H139.228L138.598 34.1652C138.268 35.1397 137.802 35.8264 137.2 36.2254C136.598 36.6245 135.938 36.824 135.22 36.824C134.453 36.824 133.882 36.6245 133.507 36.2254C133.132 35.8264 132.944 35.2615 132.944 34.5306C132.944 33.9846 133.043 33.3797 133.241 32.7161L137.212 19.2458C137.294 18.9349 137.336 18.6955 137.336 18.5275C137.336 18.1831 137.204 17.9332 136.94 17.7778C136.676 17.6223 136.235 17.5446 135.616 17.5446L135.802 17.0028C136.956 16.9944 138 16.902 138.932 16.7256C139.864 16.5492 140.779 16.2888 141.678 15.9443L136.346 34.266C136.28 34.4928 136.247 34.7028 136.247 34.896ZM150.429 27.3245C149.641 28.1436 148.656 28.8429 147.472 29.4226C146.289 30.0022 145.054 30.4684 143.767 30.8213C143.668 31.4261 143.619 32.0184 143.619 32.598C143.619 33.5053 143.786 34.1479 144.12 34.5259C144.454 34.904 144.938 35.093 145.573 35.093C146.093 35.093 146.687 34.9229 147.355 34.5826C148.023 34.2424 148.662 33.7069 149.272 32.976L149.668 33.1776C149.289 33.7909 148.808 34.36 148.227 34.8851C147.646 35.4101 146.975 35.8343 146.217 36.1577C145.458 36.4812 144.65 36.6429 143.792 36.6429C143.033 36.6429 142.353 36.5043 141.751 36.227C141.149 35.9498 140.677 35.5361 140.334 34.9859C139.992 34.4356 139.821 33.7741 139.821 33.0012C139.821 31.4723 140.227 29.893 141.039 28.2633C141.852 26.6336 142.959 25.279 144.361 24.1995C145.763 23.12 147.301 22.5803 148.975 22.5803C149.759 22.5803 150.394 22.7546 150.881 23.1032C151.367 23.4519 151.61 23.958 151.61 24.6217C151.61 25.6045 151.217 26.5055 150.429 27.3245ZM147.047 24.3698C146.428 25.0713 145.853 25.9869 145.321 27.1168C144.789 28.2467 144.403 29.4081 144.164 30.6009C145.36 30.0633 146.292 29.4879 146.96 28.8746C147.636 28.2446 148.168 27.5305 148.556 26.7325C148.943 25.9344 149.137 25.0818 149.137 24.1745C149.137 23.6033 149.001 23.3176 148.729 23.3176C148.226 23.3176 147.665 23.6684 147.047 24.3698ZM163.443 23.1663C163.814 23.5569 164 24.0546 164 24.6595C164 25.1383 163.893 25.5835 163.678 25.9951C163.464 26.4068 163.171 26.7344 162.8 26.978C162.429 27.2216 162.02 27.3434 161.575 27.3434C161.08 27.3434 160.699 27.2111 160.431 26.9465C160.163 26.6819 160.029 26.3018 160.029 25.8061C160.029 25.4029 160.124 25.0228 160.313 24.6658C160.503 24.3087 160.759 24.0042 161.08 23.7522C161.402 23.5002 161.752 23.328 162.132 23.2356C162.033 23.1768 161.926 23.1473 161.81 23.1473C160.952 23.1473 160.086 23.7648 159.212 24.9997C158.338 26.2346 157.439 28.4397 156.515 31.6151L155.328 36.2774H151.765L154.833 25.1257C154.924 24.7813 154.969 24.5208 154.969 24.3444C154.969 24.0084 154.829 23.8404 154.548 23.8404C154.243 23.8404 153.961 23.9958 153.701 24.3066C153.441 24.6175 153.183 25.1383 152.928 25.8691L152.445 27.1922H151.963L152.643 25.2265C153.254 23.4624 154.416 22.5803 156.132 22.5803C157.435 22.5803 158.086 23.2734 158.086 24.6595C158.086 25.0963 158.021 25.6045 157.889 26.1842L157.691 26.978C158.111 25.8775 158.532 25.0081 158.952 24.3696C159.373 23.7312 159.82 23.2734 160.295 22.9961C160.769 22.7189 161.311 22.5803 161.921 22.5803C162.565 22.5803 163.072 22.7756 163.443 23.1663ZM125.914 35.8976C127.003 35.8976 128.642 35.5343 129.384 34.8076C130.127 34.081 130.56 32.907 130.683 31.2857H131.215C131.215 33.7387 131.248 35.4398 131.314 36.3891C129.953 36.3218 127.609 36.2882 125.729 36.2882C124.071 36.2882 122.314 36.3303 120.458 36.4143L130.05 23.3346H128.627C126.227 23.3346 124.188 24.8761 123.957 27.9591H123.425C123.425 25.5145 123.392 23.8092 123.326 22.8431C124.637 22.9187 126.982 22.9565 128.912 22.9565C130.388 22.9565 132.145 22.9103 134.182 22.8179L124.59 35.8976H125.914ZM117.078 34.8076C116.336 35.5343 114.697 35.8976 113.608 35.8976H112.284L121.876 22.8179C119.839 22.9103 118.082 22.9565 116.606 22.9565C114.676 22.9565 112.331 22.9187 111.02 22.8431C111.086 23.8092 111.119 25.5145 111.119 27.9591H111.651C111.882 24.8761 113.921 23.3346 116.321 23.3346H117.744L108.153 36.4143C110.008 36.3303 111.765 36.2882 113.423 36.2882C115.303 36.2882 117.647 36.3218 119.008 36.3891C118.942 35.4398 118.909 33.7387 118.909 31.2857H118.377C118.254 32.907 117.821 34.081 117.078 34.8076Z" fill="white"/>
<path fill-rule="evenodd" clip-rule="evenodd" d="M24.1518 0L23.2344 2.82756H20.2656L22.6673 4.57514L21.75 7.40278L24.1518 5.65519L26.5536 7.40278L25.6362 4.57514L28.038 2.82756H25.0692L24.1518 0Z" fill="white"/>
<path fill-rule="evenodd" clip-rule="evenodd" d="M16.5761 4.17603L15.941 6.13357H13.8857L15.5485 7.34343L14.9134 9.30103L16.5761 8.09116L18.239 9.30103L17.6038 7.34343L19.2666 6.13357H17.2113L16.5761 4.17603Z" fill="white"/>
<path fill-rule="evenodd" clip-rule="evenodd" d="M31.5874 4.17603L30.9523 6.13357H28.897L30.5597 7.34343L29.9246 9.30103L31.5874 8.09116L33.2502 9.30103L32.615 7.34343L34.2778 6.13357H32.2225L31.5874 4.17603Z" fill="white"/>
<path fill-rule="evenodd" clip-rule="evenodd" d="M38.2792 12.5278H43.1579L35.6522 26.7639H30.7734L38.2792 12.5278ZM38.2792 41.0001L30.7734 26.7639H35.6522L43.1579 41.0001H38.2792Z" fill="#AF8DBA"/>
<path fill-rule="evenodd" clip-rule="evenodd" d="M43.5331 12.5278H48.4118L40.9061 26.7639H36.0273L43.5331 12.5278ZM43.5331 41.0001L36.0273 26.7639H40.9061L48.4118 41.0001H43.5331Z" fill="#7F4992"/>
<path fill-rule="evenodd" clip-rule="evenodd" d="M10.1326 12.5278H5.25391L12.7596 26.7639H17.6383L10.1326 12.5278ZM10.1326 41.0001L17.6383 26.7639H12.7596L5.25391 41.0001H10.1326Z" fill="#AF8DBA"/>
<path fill-rule="evenodd" clip-rule="evenodd" d="M4.87872 12.5278L12.3844 26.7639H7.50572L0 12.5278H4.87872ZM4.87872 41.0001L12.3844 26.7639H7.50572L0 41.0001H4.87872Z" fill="#7F4992"/>
<path fill-rule="evenodd" clip-rule="evenodd" d="M33.0248 12.5278H37.9035L30.3978 26.7639H25.519L33.0248 12.5278ZM33.0248 41.0001L25.519 26.7639H30.3978L37.9035 41.0001H33.0248Z" fill="white"/>
<path fill-rule="evenodd" clip-rule="evenodd" d="M15.3865 12.5278L22.8923 26.7639H18.0135L10.5078 12.5278H15.3865ZM15.3865 41.0001L22.8923 26.7639H18.0135L10.5078 41.0001H15.3865Z" fill="white"/>
<path fill-rule="evenodd" clip-rule="evenodd" d="M21.7666 12.5278H26.6453V41.0001H21.7666V12.5278Z" fill="white"/>
<path d="M96.9327 45.472H101.847V46.382H98.0117V49.268H101.262V50.178H98.0117V54H96.9327V45.472ZM102.607 50.854C102.607 50.3253 102.685 49.8573 102.841 49.45C103.005 49.034 103.222 48.683 103.491 48.397C103.759 48.111 104.067 47.8943 104.414 47.747C104.769 47.5997 105.142 47.526 105.532 47.526C105.922 47.526 106.29 47.5997 106.637 47.747C106.992 47.8943 107.304 48.111 107.573 48.397C107.841 48.683 108.054 49.034 108.21 49.45C108.374 49.8573 108.457 50.3253 108.457 50.854C108.457 51.374 108.374 51.842 108.21 52.258C108.054 52.6653 107.841 53.012 107.573 53.298C107.304 53.5753 106.992 53.7877 106.637 53.935C106.29 54.0823 105.922 54.156 105.532 54.156C105.142 54.156 104.769 54.0823 104.414 53.935C104.067 53.7877 103.759 53.5753 103.491 53.298C103.222 53.012 103.005 52.6653 102.841 52.258C102.685 51.842 102.607 51.374 102.607 50.854ZM103.712 50.854C103.712 51.218 103.755 51.5473 103.842 51.842C103.928 52.1367 104.05 52.3923 104.206 52.609C104.37 52.817 104.565 52.9817 104.791 53.103C105.016 53.2157 105.263 53.272 105.532 53.272C105.8 53.272 106.047 53.2157 106.273 53.103C106.498 52.9817 106.689 52.817 106.845 52.609C107.009 52.3923 107.135 52.1367 107.222 51.842C107.308 51.5473 107.352 51.218 107.352 50.854C107.352 50.49 107.308 50.1607 107.222 49.866C107.135 49.5627 107.009 49.3027 106.845 49.086C106.689 48.8693 106.498 48.7047 106.273 48.592C106.047 48.4707 105.8 48.41 105.532 48.41C105.263 48.41 105.016 48.4707 104.791 48.592C104.565 48.7047 104.37 48.8693 104.206 49.086C104.05 49.3027 103.928 49.5627 103.842 49.866C103.755 50.1607 103.712 50.49 103.712 50.854ZM110.121 47.682H111.005L111.096 48.826H111.135C111.351 48.4273 111.611 48.111 111.915 47.877C112.227 47.643 112.565 47.526 112.929 47.526C113.18 47.526 113.405 47.5693 113.605 47.656L113.397 48.592C113.293 48.5573 113.197 48.5313 113.111 48.514C113.024 48.4967 112.916 48.488 112.786 48.488C112.517 48.488 112.235 48.5963 111.941 48.813C111.655 49.0297 111.403 49.4067 111.187 49.944V54H110.121V47.682ZM117.359 45.472H119.894C120.328 45.472 120.722 45.511 121.077 45.589C121.441 45.667 121.749 45.7883 122 45.953C122.26 46.1177 122.46 46.3343 122.598 46.603C122.746 46.863 122.819 47.1793 122.819 47.552C122.819 47.9767 122.698 48.3623 122.455 48.709C122.213 49.047 121.84 49.281 121.337 49.411V49.463C121.961 49.5583 122.447 49.775 122.793 50.113C123.14 50.451 123.313 50.9147 123.313 51.504C123.313 51.92 123.235 52.284 123.079 52.596C122.923 52.908 122.702 53.168 122.416 53.376C122.13 53.584 121.788 53.74 121.389 53.844C120.991 53.948 120.553 54 120.076 54H117.359V45.472ZM119.699 49.112C120.436 49.112 120.96 48.9863 121.272 48.735C121.593 48.4837 121.753 48.1197 121.753 47.643C121.753 47.175 121.584 46.8413 121.246 46.642C120.917 46.434 120.419 46.33 119.751 46.33H118.438V49.112H119.699ZM119.92 53.142C120.657 53.142 121.229 53.0077 121.636 52.739C122.044 52.4617 122.247 52.0327 122.247 51.452C122.247 50.9233 122.048 50.5377 121.649 50.295C121.251 50.0437 120.674 49.918 119.92 49.918H118.438V53.142H119.92ZM124.807 47.682H125.886V51.543C125.886 52.141 125.977 52.5743 126.159 52.843C126.35 53.103 126.653 53.233 127.069 53.233C127.398 53.233 127.689 53.1507 127.94 52.986C128.191 52.8127 128.469 52.5397 128.772 52.167V47.682H129.838V54H128.954L128.863 53.012H128.824C128.529 53.3587 128.217 53.636 127.888 53.844C127.567 54.052 127.186 54.156 126.744 54.156C126.068 54.156 125.574 53.948 125.262 53.532C124.959 53.116 124.807 52.5007 124.807 51.686V47.682ZM131.8 52.57C132.078 52.7953 132.359 52.9773 132.645 53.116C132.94 53.2547 133.278 53.324 133.659 53.324C134.075 53.324 134.387 53.2287 134.595 53.038C134.803 52.8473 134.907 52.6133 134.907 52.336C134.907 52.1713 134.864 52.0283 134.777 51.907C134.691 51.7857 134.578 51.6817 134.439 51.595C134.309 51.4997 134.158 51.4173 133.984 51.348C133.811 51.2787 133.638 51.2093 133.464 51.14C133.239 51.062 133.014 50.9753 132.788 50.88C132.563 50.776 132.359 50.6547 132.177 50.516C132.004 50.3687 131.861 50.1997 131.748 50.009C131.636 49.8183 131.579 49.5887 131.579 49.32C131.579 49.0687 131.627 48.8347 131.722 48.618C131.826 48.3927 131.969 48.202 132.151 48.046C132.342 47.8813 132.572 47.7557 132.84 47.669C133.109 47.5737 133.412 47.526 133.75 47.526C134.149 47.526 134.513 47.5953 134.842 47.734C135.18 47.8727 135.471 48.0417 135.713 48.241L135.206 48.917C134.99 48.7523 134.764 48.618 134.53 48.514C134.296 48.41 134.041 48.358 133.763 48.358C133.365 48.358 133.07 48.449 132.879 48.631C132.697 48.813 132.606 49.0253 132.606 49.268C132.606 49.4153 132.645 49.5453 132.723 49.658C132.801 49.762 132.905 49.8573 133.035 49.944C133.165 50.022 133.313 50.0957 133.477 50.165C133.651 50.2257 133.828 50.2907 134.01 50.36C134.236 50.4467 134.461 50.5377 134.686 50.633C134.92 50.7283 135.128 50.8497 135.31 50.997C135.492 51.1357 135.64 51.309 135.752 51.517C135.874 51.725 135.934 51.9763 135.934 52.271C135.934 52.531 135.882 52.7737 135.778 52.999C135.683 53.2243 135.536 53.4237 135.336 53.597C135.146 53.7703 134.903 53.9047 134.608 54C134.322 54.104 133.993 54.156 133.62 54.156C133.17 54.156 132.741 54.0737 132.333 53.909C131.926 53.7443 131.571 53.5363 131.267 53.285L131.8 52.57ZM137.962 46.382C137.754 46.382 137.576 46.317 137.429 46.187C137.29 46.057 137.221 45.8923 137.221 45.693C137.221 45.485 137.29 45.3203 137.429 45.199C137.576 45.069 137.754 45.004 137.962 45.004C138.17 45.004 138.343 45.069 138.482 45.199C138.629 45.3203 138.703 45.485 138.703 45.693C138.703 45.8923 138.629 46.057 138.482 46.187C138.343 46.317 138.17 46.382 137.962 46.382ZM137.416 47.682H138.482V54H137.416V47.682ZM140.615 47.682H141.499L141.59 48.592H141.629C141.932 48.2887 142.248 48.0373 142.578 47.838C142.916 47.63 143.306 47.526 143.748 47.526C144.415 47.526 144.9 47.734 145.204 48.15C145.516 48.566 145.672 49.1813 145.672 49.996V54H144.606V50.139C144.606 49.541 144.51 49.112 144.32 48.852C144.129 48.5833 143.826 48.449 143.41 48.449C143.08 48.449 142.79 48.5313 142.539 48.696C142.287 48.8607 142.001 49.1033 141.681 49.424V54H140.615V47.682ZM147.256 50.854C147.256 50.334 147.334 49.8703 147.49 49.463C147.655 49.047 147.867 48.696 148.127 48.41C148.396 48.124 148.699 47.9073 149.037 47.76C149.375 47.604 149.726 47.526 150.09 47.526C150.489 47.526 150.844 47.5953 151.156 47.734C151.477 47.8727 151.741 48.072 151.949 48.332C152.166 48.592 152.331 48.904 152.443 49.268C152.556 49.632 152.612 50.0393 152.612 50.49C152.612 50.724 152.599 50.919 152.573 51.075H148.309C148.353 51.7597 148.561 52.3013 148.933 52.7C149.315 53.0987 149.809 53.298 150.415 53.298C150.719 53.298 150.996 53.2547 151.247 53.168C151.507 53.0727 151.754 52.9513 151.988 52.804L152.365 53.506C152.088 53.6793 151.78 53.831 151.442 53.961C151.104 54.091 150.719 54.156 150.285 54.156C149.861 54.156 149.462 54.0823 149.089 53.935C148.725 53.779 148.405 53.5623 148.127 53.285C147.859 52.999 147.646 52.6523 147.49 52.245C147.334 51.8377 147.256 51.374 147.256 50.854ZM151.676 50.373C151.676 49.723 151.538 49.229 151.26 48.891C150.992 48.5443 150.61 48.371 150.116 48.371C149.891 48.371 149.674 48.4187 149.466 48.514C149.267 48.6007 149.085 48.7307 148.92 48.904C148.756 49.0687 148.617 49.2767 148.504 49.528C148.4 49.7707 148.331 50.0523 148.296 50.373H151.676ZM154.004 52.57C154.282 52.7953 154.563 52.9773 154.849 53.116C155.144 53.2547 155.482 53.324 155.863 53.324C156.279 53.324 156.591 53.2287 156.799 53.038C157.007 52.8473 157.111 52.6133 157.111 52.336C157.111 52.1713 157.068 52.0283 156.981 51.907C156.895 51.7857 156.782 51.6817 156.643 51.595C156.513 51.4997 156.362 51.4173 156.188 51.348C156.015 51.2787 155.842 51.2093 155.668 51.14C155.443 51.062 155.218 50.9753 154.992 50.88C154.767 50.776 154.563 50.6547 154.381 50.516C154.208 50.3687 154.065 50.1997 153.952 50.009C153.84 49.8183 153.783 49.5887 153.783 49.32C153.783 49.0687 153.831 48.8347 153.926 48.618C154.03 48.3927 154.173 48.202 154.355 48.046C154.546 47.8813 154.776 47.7557 155.044 47.669C155.313 47.5737 155.616 47.526 155.954 47.526C156.353 47.526 156.717 47.5953 157.046 47.734C157.384 47.8727 157.675 48.0417 157.917 48.241L157.41 48.917C157.194 48.7523 156.968 48.618 156.734 48.514C156.5 48.41 156.245 48.358 155.967 48.358C155.569 48.358 155.274 48.449 155.083 48.631C154.901 48.813 154.81 49.0253 154.81 49.268C154.81 49.4153 154.849 49.5453 154.927 49.658C155.005 49.762 155.109 49.8573 155.239 49.944C155.369 50.022 155.517 50.0957 155.681 50.165C155.855 50.2257 156.032 50.2907 156.214 50.36C156.44 50.4467 156.665 50.5377 156.89 50.633C157.124 50.7283 157.332 50.8497 157.514 50.997C157.696 51.1357 157.844 51.309 157.956 51.517C158.078 51.725 158.138 51.9763 158.138 52.271C158.138 52.531 158.086 52.7737 157.982 52.999C157.887 53.2243 157.74 53.4237 157.54 53.597C157.35 53.7703 157.107 53.9047 156.812 54C156.526 54.104 156.197 54.156 155.824 54.156C155.374 54.156 154.945 54.0737 154.537 53.909C154.13 53.7443 153.775 53.5363 153.471 53.285L154.004 52.57ZM159.451 52.57C159.728 52.7953 160.01 52.9773 160.296 53.116C160.59 53.2547 160.928 53.324 161.31 53.324C161.726 53.324 162.038 53.2287 162.246 53.038C162.454 52.8473 162.558 52.6133 162.558 52.336C162.558 52.1713 162.514 52.0283 162.428 51.907C162.341 51.7857 162.228 51.6817 162.09 51.595C161.96 51.4997 161.808 51.4173 161.635 51.348C161.461 51.2787 161.288 51.2093 161.115 51.14C160.889 51.062 160.664 50.9753 160.439 50.88C160.213 50.776 160.01 50.6547 159.828 50.516C159.654 50.3687 159.511 50.1997 159.399 50.009C159.286 49.8183 159.23 49.5887 159.23 49.32C159.23 49.0687 159.277 48.8347 159.373 48.618C159.477 48.3927 159.62 48.202 159.802 48.046C159.992 47.8813 160.222 47.7557 160.491 47.669C160.759 47.5737 161.063 47.526 161.401 47.526C161.799 47.526 162.163 47.5953 162.493 47.734C162.831 47.8727 163.121 48.0417 163.364 48.241L162.857 48.917C162.64 48.7523 162.415 48.618 162.181 48.514C161.947 48.41 161.691 48.358 161.414 48.358C161.015 48.358 160.72 48.449 160.53 48.631C160.348 48.813 160.257 49.0253 160.257 49.268C160.257 49.4153 160.296 49.5453 160.374 49.658C160.452 49.762 160.556 49.8573 160.686 49.944C160.816 50.022 160.963 50.0957 161.128 50.165C161.301 50.2257 161.479 50.2907 161.661 50.36C161.886 50.4467 162.111 50.5377 162.337 50.633C162.571 50.7283 162.779 50.8497 162.961 50.997C163.143 51.1357 163.29 51.309 163.403 51.517C163.524 51.725 163.585 51.9763 163.585 52.271C163.585 52.531 163.533 52.7737 163.429 52.999C163.333 53.2243 163.186 53.4237 162.987 53.597C162.796 53.7703 162.553 53.9047 162.259 54C161.973 54.104 161.643 54.156 161.271 54.156C160.82 54.156 160.391 54.0737 159.984 53.909C159.576 53.7443 159.221 53.5363 158.918 53.285L159.451 52.57Z" fill="white"/>
</svg>
