<svg width="186" height="41" viewBox="0 0 186 41" fill="none" xmlns="http://www.w3.org/2000/svg">
<path fill-rule="evenodd" clip-rule="evenodd" d="M77.7942 18.4606C78.2488 18.8848 78.4761 19.4371 78.4761 20.1176C78.4761 20.5208 78.383 20.9198 78.1968 21.3147C78.0106 21.7095 77.7357 22.0371 77.372 22.2975C77.0083 22.5579 76.571 22.6882 76.06 22.6882C75.5491 22.6882 75.1248 22.5348 74.7871 22.2282C74.4493 21.9216 74.2805 21.5079 74.2805 20.987C74.2805 20.4746 74.4623 19.9769 74.826 19.4938C75.1897 19.0108 75.6704 18.6433 76.2679 18.3913C76.1466 18.3325 75.9994 18.3031 75.8262 18.3031C75.5231 18.3115 75.2677 18.3619 75.0598 18.4543C74.852 18.5467 74.6528 18.6895 74.4623 18.8827C74.1766 19.1935 73.9341 19.582 73.7349 20.0483C73.5357 20.5145 73.3019 21.155 73.0335 21.9699C72.7304 22.9192 72.4468 23.692 72.1827 24.2885C71.9185 24.8849 71.557 25.4246 71.098 25.9077C70.6391 26.3907 70.0589 26.7078 69.3574 26.859C70.284 26.9598 71.0223 27.1405 71.5722 27.4009C72.122 27.6613 72.5226 28.0246 72.7737 28.4908C73.0248 28.9571 73.1504 29.564 73.1504 30.3117C73.1504 30.6477 73.1331 30.9711 73.0984 31.2819L72.7997 33.9911C72.791 34.0331 72.7867 34.0961 72.7867 34.1801C72.7867 34.6842 73.0162 34.9362 73.4751 34.9362C73.8042 34.9362 74.0835 34.8102 74.313 34.5582C74.5424 34.3061 74.7524 33.9155 74.9429 33.3863L75.3976 32.0758H75.9301L75.2417 34.0667C74.9126 34.9908 74.4385 35.6817 73.8193 36.1396C73.2002 36.5974 72.4836 36.8263 71.6696 36.8263C70.6824 36.8263 69.9225 36.589 69.3899 36.1144C68.8573 35.6397 68.5911 34.9908 68.5911 34.1675C68.5911 34.0499 68.6084 33.8483 68.643 33.5627L69.1626 29.9462C69.2059 29.6102 69.2275 29.2616 69.2275 28.9004C69.2275 28.4635 69.1756 28.1149 69.0717 27.8545C68.9677 27.5941 68.7946 27.3757 68.5521 27.1993C67.8247 27.3841 67.2834 27.4765 66.9284 27.4765C66.4781 27.4765 66.2529 27.3379 66.2529 27.0607C66.2529 27.0018 66.2573 26.9598 66.2659 26.9346C66.2919 26.7582 66.3633 26.628 66.4802 26.544C66.5972 26.46 66.7812 26.418 67.0323 26.418C67.4047 26.418 67.9199 26.5062 68.5781 26.6826C69.3748 26.5734 70.0242 26.2836 70.5265 25.8132C71.0288 25.3427 71.4163 24.803 71.6891 24.194C71.9618 23.5849 72.2454 22.7974 72.5399 21.8313C72.8083 20.966 73.0465 20.2898 73.2543 19.8026C73.4621 19.3153 73.7306 18.9079 74.0597 18.5803C74.5879 18.0762 75.2244 17.8242 75.9691 17.8242C76.7312 17.8242 77.3395 18.0363 77.7942 18.4606ZM63.5766 34.9726C63.5766 35.2246 63.6351 35.4178 63.752 35.5523C63.8689 35.6867 64.0529 35.7812 64.3041 35.8358C64.5552 35.8904 64.9102 35.9261 65.3692 35.9429L65.2653 36.4595C64.2781 36.4091 62.8839 36.3839 61.0827 36.3839C59.1515 36.3839 57.7054 36.4091 56.7441 36.4595L56.874 35.9429C57.4889 35.9177 57.9522 35.8505 58.2639 35.7413C58.5757 35.6321 58.8268 35.4283 59.0173 35.1301C59.2078 34.8319 59.3897 34.3636 59.5629 33.7251L63.083 20.9227C63.2303 20.3766 63.3039 19.965 63.3039 19.6878C63.3039 19.4273 63.2432 19.2299 63.122 19.0955C63.0008 18.9611 62.8168 18.8666 62.57 18.812C62.3232 18.7574 61.9703 18.7217 61.5113 18.7049L61.6412 18.1883C62.5505 18.2387 63.9966 18.2639 65.9797 18.2639C67.6857 18.2639 69.0842 18.2387 70.1753 18.1883L70.0454 18.7049C69.396 18.7301 68.9132 18.7973 68.5971 18.9065C68.281 19.0157 68.0299 19.2173 67.8437 19.5114C67.6575 19.8054 67.4778 20.2758 67.3047 20.9227L63.7975 33.7251C63.6503 34.2796 63.5766 34.6954 63.5766 34.9726ZM82.1938 17.6275C82.432 17.2621 82.7589 16.9828 83.1745 16.7896C83.5902 16.5964 84.0535 16.4998 84.5644 16.4998C85.1879 16.4998 85.6707 16.6426 86.0128 16.9282C86.3548 17.2138 86.5259 17.6086 86.5259 18.1127C86.5259 18.5663 86.4025 18.9758 86.1557 19.3412C85.9088 19.7067 85.5755 19.9902 85.1555 20.1918C84.7355 20.3934 84.2743 20.4942 83.7721 20.4942C83.1572 20.4942 82.6809 20.3556 82.3432 20.0784C82.0055 19.8012 81.8366 19.419 81.8366 18.9317C81.8366 18.4277 81.9557 17.993 82.1938 17.6275ZM81.0053 24.5391C81.0053 24.1947 80.8538 24.0225 80.5507 24.0225C80.2216 24.0225 79.9228 24.18 79.6544 24.495C79.3859 24.81 79.1131 25.3288 78.836 26.0512L78.3165 27.3743H77.8099L78.5373 25.4086C79.1781 23.6444 80.4078 22.7624 82.2263 22.7624C83.049 22.7624 83.6465 22.9556 84.0189 23.342C84.3912 23.7284 84.5774 24.2325 84.5774 24.8541C84.5774 25.3078 84.4822 25.8118 84.2917 26.3662L81.4989 34.267C81.3863 34.5694 81.33 34.8214 81.33 35.023C81.33 35.3758 81.5076 35.5523 81.8626 35.5523C82.1397 35.5523 82.4125 35.4052 82.6809 35.1112C82.9494 34.8172 83.2352 34.288 83.5383 33.5235L84.0189 32.276H84.5255L83.85 34.1662C83.495 35.1322 82.9992 35.8169 82.3627 36.2201C81.7262 36.6233 81.0226 36.8249 80.2519 36.8249C79.4465 36.8249 78.8425 36.6422 78.4399 36.2768C78.0372 35.9114 77.8358 35.3842 77.8358 34.6954C77.8358 34.1578 77.9701 33.4983 78.2385 32.7171L80.8364 25.3078C80.949 25.0053 81.0053 24.7491 81.0053 24.5391ZM99.577 32.276L98.9405 34.1662C98.6115 35.1406 98.1309 35.8274 97.4987 36.2264C96.8665 36.6254 96.1738 36.8249 95.4204 36.8249C94.3206 36.8249 93.6191 36.4301 93.3161 35.6405C93.1775 35.3632 93.1082 35.0146 93.1082 34.5946C93.1082 34.0569 93.2165 33.4311 93.433 32.7171L93.4719 32.5911C92.7878 34.0612 92.0691 35.1343 91.3157 35.8106C90.5623 36.4868 89.6617 36.8249 88.6138 36.8249C87.6699 36.8249 86.9079 36.5225 86.3277 35.9177C85.7475 35.3128 85.4574 34.4056 85.4574 33.1959C85.4574 31.8098 85.8276 30.2956 86.568 28.6533C87.3084 27.011 88.3519 25.6186 89.6985 24.4761C91.0451 23.3336 92.58 22.7624 94.3033 22.7624C95.1433 22.7624 95.6845 23.0522 95.927 23.6318L97.122 19.2467C97.2086 18.9359 97.2519 18.6965 97.2519 18.5285C97.2519 18.1841 97.1133 17.9341 96.8362 17.7787C96.5591 17.6233 96.0915 17.5456 95.4333 17.5456L95.6152 17.0038C96.8449 16.9954 97.9533 16.903 98.9405 16.7266C99.9277 16.5502 100.889 16.2897 101.824 15.9453L96.6154 34.267C96.5201 34.519 96.4725 34.75 96.4725 34.96C96.4725 35.3548 96.6457 35.5523 96.9921 35.5523C97.5723 35.5523 98.1135 34.876 98.6158 33.5235L99.0834 32.276H99.577ZM95.3554 23.5751C95.1909 23.4281 94.9657 23.3546 94.68 23.3546C93.9179 23.3546 93.1212 23.8818 92.2899 24.936C91.4585 25.9903 90.7658 27.3281 90.2116 28.9494C89.6573 30.5707 89.3802 32.171 89.3802 33.7503C89.3802 34.3552 89.4473 34.8025 89.5816 35.0923C89.7158 35.3821 89.9344 35.5271 90.2375 35.5271C90.5839 35.5271 90.9996 35.2771 91.4845 34.7773C91.9695 34.2775 92.4696 33.5424 92.9848 32.5722C93.5001 31.6019 93.9742 30.4573 94.4072 29.1384L95.7451 24.2619C95.6498 23.9511 95.52 23.7221 95.3554 23.5751ZM114.018 32.2634L113.356 34.1536C113.001 35.128 112.511 35.8169 111.888 36.2201C111.264 36.6233 110.584 36.8249 109.848 36.8249C108.922 36.8249 108.264 36.5519 107.874 36.0059C107.64 35.6699 107.523 35.2372 107.523 34.708C107.523 34.2964 107.601 33.7797 107.757 33.1581C107.168 34.4518 106.504 35.3863 105.763 35.9618C105.023 36.5372 104.207 36.8249 103.315 36.8249C102.327 36.8249 101.585 36.5456 101.087 35.987C100.589 35.4283 100.34 34.645 100.34 33.6369C100.34 32.108 100.762 30.4888 101.607 28.7793C102.451 27.0698 103.518 25.6396 104.808 24.4887C106.099 23.3378 107.363 22.7624 108.601 22.7624C109.078 22.7624 109.463 22.901 109.757 23.1782C110.052 23.4554 110.225 23.8713 110.277 24.4257L110.654 23.1278C112.109 23.1026 113.395 22.9808 114.512 22.7624L111.03 34.2544C110.944 34.5652 110.901 34.813 110.901 34.9978C110.901 35.3674 111.061 35.5523 111.381 35.5523C111.996 35.5523 112.55 34.876 113.044 33.5235L113.511 32.2634H114.018ZM110.004 25.0431C110.004 24.6231 109.926 24.2955 109.77 24.0603C109.615 23.8251 109.394 23.7074 109.108 23.7074C108.502 23.7074 107.816 24.2346 107.049 25.2889C106.283 26.3431 105.629 27.662 105.088 29.2455C104.547 30.829 104.276 32.3558 104.276 33.8259C104.276 34.4056 104.334 34.8193 104.451 35.0671C104.568 35.3149 104.757 35.4388 105.016 35.4388C105.397 35.4388 105.824 35.1763 106.296 34.6513C106.768 34.1263 107.238 33.366 107.705 32.3705C108.173 31.3751 108.588 30.2011 108.952 28.8486L108.822 29.4912L109.978 25.459C109.996 25.2742 110.004 25.1355 110.004 25.0431ZM143.06 34.897C143.06 35.3338 143.242 35.5523 143.606 35.5523C144.178 35.5523 144.714 34.876 145.217 33.5235L145.684 32.276H146.191L145.529 34.1662C145.182 35.1406 144.693 35.8274 144.061 36.2264C143.429 36.6254 142.736 36.8249 141.982 36.8249C141.177 36.8249 140.577 36.6254 140.183 36.2264C139.789 35.8274 139.592 35.2624 139.592 34.5316C139.592 33.9855 139.696 33.3807 139.904 32.7171L144.074 19.2467C144.16 18.9359 144.204 18.6965 144.204 18.5285C144.204 18.1841 144.065 17.9341 143.788 17.7787C143.511 17.6233 143.048 17.5456 142.398 17.5456L142.593 17.0038C143.805 16.9954 144.901 16.903 145.879 16.7266C146.858 16.5502 147.819 16.2897 148.763 15.9453L143.164 34.267C143.095 34.4938 143.06 34.7038 143.06 34.897ZM157.952 27.3255C157.125 28.1446 156.09 28.8439 154.847 29.4236C153.604 30.0032 152.308 30.4694 150.957 30.8223C150.853 31.4271 150.801 32.0193 150.801 32.599C150.801 33.5062 150.976 34.1489 151.327 34.5269C151.678 34.9049 152.186 35.0939 152.853 35.0939C153.399 35.0939 154.022 34.9238 154.724 34.5836C155.425 34.2434 156.096 33.7079 156.737 32.977L157.153 33.1786C156.754 33.7919 156.25 34.361 155.639 34.886C155.029 35.4111 154.325 35.8353 153.529 36.1587C152.732 36.4821 151.883 36.6439 150.983 36.6439C150.186 36.6439 149.472 36.5052 148.839 36.228C148.207 35.9508 147.711 35.5371 147.352 34.9868C146.993 34.4366 146.813 33.7751 146.813 33.0022C146.813 31.4733 147.239 29.894 148.092 28.2643C148.945 26.6346 150.108 25.28 151.58 24.2005C153.052 23.121 154.667 22.5813 156.425 22.5813C157.248 22.5813 157.915 22.7556 158.426 23.1042C158.937 23.4528 159.192 23.959 159.192 24.6226C159.192 25.6055 158.779 26.5065 157.952 27.3255ZM154.4 24.3725C153.75 25.0739 153.146 25.9896 152.588 27.1195C152.029 28.2494 151.624 29.4107 151.373 30.6036C152.629 30.066 153.607 29.4905 154.309 28.8773C155.019 28.2472 155.577 27.5332 155.984 26.7351C156.391 25.9371 156.595 25.0844 156.595 24.1772C156.595 23.6059 156.452 23.3203 156.166 23.3203C155.638 23.3203 155.049 23.671 154.4 24.3725ZM171.616 23.1672C172.006 23.5579 172.201 24.0556 172.201 24.6604C172.201 25.1393 172.088 25.5845 171.863 25.9961C171.638 26.4078 171.331 26.7354 170.941 26.979C170.551 27.2226 170.123 27.3444 169.655 27.3444C169.135 27.3444 168.735 27.2121 168.453 26.9475C168.172 26.6829 168.031 26.3027 168.031 25.8071C168.031 25.4039 168.131 25.0238 168.33 24.6667C168.529 24.3097 168.798 24.0052 169.135 23.7532C169.473 23.5011 169.841 23.3289 170.239 23.2365C170.136 23.1777 170.023 23.1483 169.902 23.1483C169.001 23.1483 168.092 23.7658 167.174 25.0007C166.256 26.2355 165.312 28.4407 164.342 31.6161L163.095 36.2784H159.354L162.576 25.1267C162.671 24.7822 162.719 24.5218 162.719 24.3454C162.719 24.0094 162.571 23.8414 162.277 23.8414C161.956 23.8414 161.66 23.9968 161.387 24.3076C161.114 24.6184 160.844 25.1393 160.575 25.8701L160.069 27.1932H159.562L160.276 25.2275C160.917 23.4633 162.138 22.5813 163.94 22.5813C165.308 22.5813 165.992 23.2743 165.992 24.6604C165.992 25.0973 165.923 25.6055 165.784 26.1851L165.576 26.979C166.018 25.8785 166.46 25.0091 166.901 24.3706C167.343 23.7322 167.813 23.2743 168.311 22.9971C168.808 22.7199 169.378 22.5813 170.019 22.5813C170.694 22.5813 171.227 22.7766 171.616 23.1672ZM132.211 35.9C133.354 35.9 135.075 35.5367 135.855 34.81C136.634 34.0834 137.089 32.9094 137.218 31.2881H137.777C137.777 33.7411 137.812 35.4422 137.881 36.3914C136.452 36.3242 133.99 36.2906 132.016 36.2906C130.275 36.2906 128.431 36.3326 126.482 36.4166L136.553 23.3369H135.06C132.54 23.3369 130.398 24.8784 130.156 27.9615H129.597C129.597 25.5169 129.563 23.8116 129.493 22.8455C130.87 22.9211 133.332 22.9589 135.358 22.9589C136.908 22.9589 138.753 22.9127 140.892 22.8203L130.821 35.9H132.211ZM122.934 34.81C122.154 35.5367 120.433 35.9 119.29 35.9H117.9L127.971 22.8203C125.832 22.9127 123.988 22.9589 122.437 22.9589C120.411 22.9589 117.949 22.9211 116.573 22.8455C116.642 23.8116 116.676 25.5169 116.676 27.9615H117.235C117.477 24.8784 119.619 23.3369 122.139 23.3369H123.633L113.562 36.4166C115.51 36.3326 117.354 36.2906 119.095 36.2906C121.069 36.2906 123.531 36.3242 124.96 36.3914C124.891 35.4422 124.856 33.7411 124.856 31.2881H124.298C124.168 32.9094 123.713 34.0834 122.934 34.81Z" fill="white"/>
<path d="M180.916 24.344C180.292 24.344 179.708 24.232 179.164 24.008C178.62 23.768 178.14 23.44 177.724 23.024C177.324 22.608 177.004 22.112 176.764 21.536C176.524 20.96 176.404 20.32 176.404 19.616C176.404 18.912 176.524 18.272 176.764 17.696C177.004 17.12 177.324 16.624 177.724 16.208C178.14 15.792 178.62 15.472 179.164 15.248C179.708 15.008 180.292 14.888 180.916 14.888C181.54 14.888 182.124 15.008 182.668 15.248C183.228 15.472 183.708 15.792 184.108 16.208C184.524 16.624 184.852 17.12 185.092 17.696C185.332 18.272 185.452 18.912 185.452 19.616C185.452 20.32 185.332 20.96 185.092 21.536C184.852 22.112 184.524 22.608 184.108 23.024C183.708 23.44 183.228 23.768 182.668 24.008C182.124 24.232 181.54 24.344 180.916 24.344ZM180.916 23.456C181.412 23.456 181.876 23.368 182.308 23.192C182.756 23 183.14 22.736 183.46 22.4C183.78 22.064 184.028 21.664 184.204 21.2C184.396 20.72 184.492 20.192 184.492 19.616C184.492 19.056 184.396 18.544 184.204 18.08C184.028 17.6 183.78 17.192 183.46 16.856C183.14 16.504 182.756 16.232 182.308 16.04C181.876 15.848 181.412 15.752 180.916 15.752C180.404 15.752 179.932 15.848 179.5 16.04C179.068 16.232 178.692 16.504 178.372 16.856C178.068 17.192 177.82 17.6 177.628 18.08C177.452 18.544 177.364 19.056 177.364 19.616C177.364 20.192 177.452 20.72 177.628 21.2C177.82 21.664 178.068 22.064 178.372 22.4C178.692 22.736 179.068 23 179.5 23.192C179.932 23.368 180.404 23.456 180.916 23.456ZM179.188 21.992V17.12H181.012C181.524 17.12 181.964 17.24 182.332 17.48C182.7 17.704 182.884 18.104 182.884 18.68C182.884 18.968 182.804 19.24 182.644 19.496C182.484 19.736 182.268 19.904 181.996 20L183.1 21.992H181.996L181.156 20.312H180.172V21.992H179.188ZM180.172 19.544H180.796C181.484 19.544 181.828 19.272 181.828 18.728C181.828 18.488 181.756 18.296 181.612 18.152C181.468 18.008 181.212 17.936 180.844 17.936H180.172V19.544Z" fill="white"/>
<path fill-rule="evenodd" clip-rule="evenodd" d="M25.3592 0L24.396 2.82756H21.2788L23.8006 4.57514L22.8374 7.40278L25.3592 5.65519L27.8812 7.40278L26.9179 4.57514L29.4398 2.82756H26.3226L25.3592 0Z" fill="white"/>
<path fill-rule="evenodd" clip-rule="evenodd" d="M17.405 4.17578L16.7381 6.13332H14.5801L16.3259 7.34319L15.6591 9.30078L17.405 8.09091L19.151 9.30078L18.484 7.34319L20.23 6.13332H18.0719L17.405 4.17578Z" fill="white"/>
<path fill-rule="evenodd" clip-rule="evenodd" d="M33.1667 4.17578L32.4998 6.13332H30.3418L32.0877 7.34319L31.4208 9.30078L33.1667 8.09091L34.9127 9.30078L34.2458 7.34319L35.9917 6.13332H33.8336L33.1667 4.17578Z" fill="white"/>
<path opacity="0.5" fill-rule="evenodd" clip-rule="evenodd" d="M40.193 12.5278H45.3157L37.4347 26.7639H32.312L40.193 12.5278ZM40.193 40.9983L32.312 26.7622H37.4347L45.3157 40.9983H40.193Z" fill="white"/>
<path opacity="0.2" fill-rule="evenodd" clip-rule="evenodd" d="M45.7096 12.5278H50.8323L42.9513 26.7639H37.8286L45.7096 12.5278ZM45.7096 40.9983L37.8286 26.7622H42.9513L50.8323 40.9983H45.7096Z" fill="white"/>
<path opacity="0.5" fill-rule="evenodd" clip-rule="evenodd" d="M10.6393 12.5278H5.5166L13.3976 26.7639H18.5203L10.6393 12.5278ZM10.6393 40.9983L18.5203 26.7622H13.3976L5.5166 40.9983H10.6393Z" fill="white"/>
<path opacity="0.2" fill-rule="evenodd" clip-rule="evenodd" d="M5.12265 12.5278L13.0037 26.7639H7.88101L0 12.5278H5.12265ZM5.12265 40.9983L13.0037 26.7622H7.88101L0 40.9983H5.12265Z" fill="white"/>
<path fill-rule="evenodd" clip-rule="evenodd" d="M34.6764 12.5278H39.7991L31.9181 26.7639H26.7954L34.6764 12.5278ZM34.6764 40.9983L26.7954 26.7622H31.9181L39.7991 40.9983H34.6764Z" fill="white"/>
<path fill-rule="evenodd" clip-rule="evenodd" d="M16.1559 12.5278L24.0369 26.7639H18.9142L11.0332 12.5278H16.1559ZM16.1559 40.9983L24.0369 26.7622H18.9142L11.0332 40.9983H16.1559Z" fill="white"/>
<path fill-rule="evenodd" clip-rule="evenodd" d="M22.8545 12.5278H27.9771V41.0001H22.8545V12.5278Z" fill="white"/>
</svg>
