<svg width="10" height="14" viewBox="0 0 10 14" fill="none" xmlns="http://www.w3.org/2000/svg">
<path fill-rule="evenodd" clip-rule="evenodd" d="M5 0C2.24284 0 0 2.35525 0 5.25C0 9.12313 4.61318 13.7266 4.80958 13.9208C4.86328 13.9735 4.93164 14 5 14C5.06836 14 5.13672 13.9735 5.19044 13.9208C5.38682 13.7266 10 9.12313 10 5.25C10 2.35525 7.75716 0 5 0ZM5 8.16668C3.46841 8.16668 2.22221 6.85817 2.22221 5.25C2.22221 3.64183 3.46844 2.33332 5 2.33332C6.53156 2.33332 7.77779 3.64186 7.77779 5.25C7.77779 6.85814 6.53159 8.16668 5 8.16668Z" fill="#B4BCC5"/>
</svg>
