<svg width="10" height="10" viewBox="0 0 10 10" fill="none" xmlns="http://www.w3.org/2000/svg">
<path fill-rule="evenodd" clip-rule="evenodd" d="M4.9451 8.63941L7.19782 9.88731C7.7981 10.2198 8.37736 9.77699 8.26263 9.07215L7.8324 6.42904C7.83659 6.45474 7.84387 6.43118 7.82612 6.44942L9.64861 4.57756C10.1342 4.07876 9.91353 3.36143 9.24188 3.25859L6.72327 2.87297C6.74776 2.87672 6.72875 2.86214 6.73972 2.88556L5.61336 0.480782C5.31322 -0.160017 4.59755 -0.160504 4.29718 0.480782L3.17082 2.88556C3.18177 2.86218 3.16274 2.87672 3.18727 2.87297L0.668655 3.25859C-0.0024783 3.36135 -0.224073 4.07839 0.261933 4.57756L2.08442 6.44942C2.0667 6.43122 2.07395 6.45479 2.07814 6.42904L1.64791 9.07215C1.53326 9.77646 2.11198 10.2201 2.71272 9.88731L4.96544 8.63941C4.94353 8.65154 4.96705 8.65156 4.9451 8.63941Z" fill="#BD10E0"/>
</svg>
