<svg width="24" height="24" viewBox="0 0 24 24" fill="none" xmlns="http://www.w3.org/2000/svg">
<path d="M2.5 19.5H21.5V22C21.5 22.8284 20.8284 23.5 20 23.5H4C3.17157 23.5 2.5 22.8284 2.5 22V19.5Z" fill="white" stroke="#242424"/>
<rect x="0.5" y="2.5" width="23" height="19" rx="2.5" fill="white" stroke="#242424"/>
<path fill-rule="evenodd" clip-rule="evenodd" d="M11.9918 15.9115L13.8103 16.9099C14.2948 17.1759 14.7624 16.8216 14.6698 16.2577L14.3225 14.1432C14.3259 14.1638 14.3318 14.1449 14.3174 14.1595L15.7886 12.662C16.1806 12.263 16.0024 11.6891 15.4603 11.6069L13.4272 11.2984C13.447 11.3014 13.4316 11.2897 13.4405 11.3085L12.5312 9.38463C12.289 8.87199 11.7113 8.8716 11.4688 9.38463L10.5596 11.3085C10.5684 11.2897 10.553 11.3014 10.5728 11.2984L8.53975 11.6069C7.998 11.6891 7.81912 12.2627 8.21144 12.662L9.68259 14.1595C9.66829 14.145 9.67414 14.1638 9.67752 14.1432L9.33023 16.2577C9.23769 16.8212 9.70484 17.1761 10.1898 16.9099L12.0082 15.9115C11.9905 15.9212 12.0095 15.9213 11.9918 15.9115Z" fill="#242424"/>
<rect x="1" y="5" width="22" height="1" fill="#242424"/>
<rect x="4" width="2" height="3" rx="1" fill="#242424"/>
<rect x="18" width="2" height="3" rx="1" fill="#242424"/>
</svg>
