<svg width="14" height="14" viewBox="0 0 14 14" fill="none" xmlns="http://www.w3.org/2000/svg">
<path fill-rule="evenodd" clip-rule="evenodd" d="M0.138132 6.97176L6.579 0.342363C6.75013 0.15562 7.10796 0 7.37244 0H13.5333C13.7822 0 14 0.217868 14 0.466859V6.72277C14 6.98732 13.8444 7.34525 13.6577 7.51643L7.06129 13.8657C6.8746 14.0525 6.56344 14.0369 6.39231 13.8657L0.15369 7.64093C-0.0485592 7.46975 -0.0485601 7.15851 0.138132 6.97176ZM10.5 5C11.3242 5 12 4.32418 12 3.5C12 2.67582 11.3242 2 10.5 2C9.67582 2 9 2.67582 9 3.5C9 4.32418 9.67582 5 10.5 5Z" fill="#B4BCC5"/>
</svg>
