<svg width="24" height="24" viewBox="0 0 24 24" fill="none" xmlns="http://www.w3.org/2000/svg">
<rect width="24" height="24" fill="#D8D8D8" fill-opacity="0.01"/>
<path fill-rule="evenodd" clip-rule="evenodd" d="M6.93733 2.00244C6.74291 2.02554 6.56918 2.17351 6.51547 2.36177L5.1952 7.00179H1.45312C1.20733 7.02494 0.998939 7.25488 1 7.50173V20.5001C1.00004 20.7618 1.23821 21 1.49999 21H17.4995C17.7613 21 17.9995 20.7618 17.9995 20.5001V19.7345L18.8589 19.9767C19.1124 20.0527 19.4123 19.8878 19.4838 19.633L22.9837 6.88462C23.0545 6.63104 22.8864 6.33601 22.6322 6.26751C22.6322 6.26751 12.4092 2.94397 7.13264 2.01806L7.128 2.01724C7.06515 2.00619 7.00105 1.99492 6.93733 2.00244ZM7.35138 3.11167L21.8822 7.09553L18.6479 18.8753L17.9995 18.6956V7.50173C17.9995 7.23997 17.7613 7.00182 17.4995 7.00179H6.23423L7.35138 3.11167ZM16.9995 8.00167H1.99998V16.4381L5.7733 14.5477C5.81751 14.5253 5.86507 14.5093 5.91393 14.5008C6.07951 14.4749 6.25644 14.5389 6.36704 14.6649L8.29667 16.7896L13.2731 14.2977C13.3197 14.2746 13.37 14.2586 13.4215 14.2509C13.5871 14.2249 13.764 14.289 13.8746 14.4149L16.9995 17.9301V8.00167ZM8.99977 10.0014C7.90115 10.0014 6.99983 10.9026 6.99983 12.0011C6.99983 13.0996 7.90116 14.0009 8.99977 14.0009C10.0984 14.0009 10.9997 13.0996 10.9997 12.0011C10.9997 10.9026 10.0984 10.0014 8.99977 10.0014ZM9.99975 12.0011C9.99975 11.443 9.55796 11.0013 8.99977 11.0013C8.44158 11.0013 7.9998 11.443 7.9998 12.0011C7.9998 12.5593 8.44158 13.001 8.99977 13.001C9.55796 13.001 9.99975 12.5593 9.99975 12.0011ZM13.3825 15.3679L16.9995 19.4299V20.0001H11.2263L8.99977 17.5551L13.3825 15.3679ZM9.86694 20.0001L5.88268 15.6179L1.99998 17.5629V20.0001H9.86694Z" fill="white"/>
</svg>
