<svg width="255" height="126" viewBox="0 0 255 126" fill="none" xmlns="http://www.w3.org/2000/svg">
<path fill-rule="evenodd" clip-rule="evenodd" d="M0 124C0 121.79 1.791 120 4 120H12.154C14.363 120 16.154 118.21 16.154 116V112.5C16.154 110.29 17.945 108.5 20.154 108.5H26C28.209 108.5 30 106.71 30 104.5V98C30 95.79 31.791 94 34 94H70.074C70.64 94 71.11 94.44 71.154 95L71.265 96.45C71.68 101.84 76.174 106 81.579 106H85.173C88.901 106 91.923 109.02 91.923 112.75V115.46C91.923 117.69 93.731 119.5 95.962 119.5C98.192 119.5 100 121.31 100 123.54V126H0V124Z" fill="#53C6C0"/>
<path fill-rule="evenodd" clip-rule="evenodd" d="M155 116C155 113.79 156.791 112 159 112H167.154C169.363 112 171.154 110.21 171.154 108V104.5C171.154 102.29 172.945 100.5 175.154 100.5H181.75C183.545 100.5 185 99.04 185 97.25C185 95.46 186.455 94 188.25 94H215.074C215.64 94 216.11 94.44 216.154 95L216.192 95.49C216.648 101.42 221.593 106 227.541 106H231.173C235.453 106 238.923 109.47 238.923 113.75C238.923 118.03 242.393 121.5 246.673 121.5H250.5C252.985 121.5 255 123.51 255 126H155V116Z" fill="#53C6C0"/>
<path d="M188.774 50H66.226C63.892 50 62 51.89 62 54.22V72.81C62 73.87 62.524 74.88 63.429 75.44C67.641 78.04 70.452 82.69 70.452 88C70.452 93.31 67.641 97.96 63.429 100.56C62.524 101.12 62 102.13 62 103.19V121.78C62 124.11 63.892 126 66.226 126H188.774C191.108 126 193 124.11 193 121.78V54.22C193 51.89 191.108 50 188.774 50Z" fill="#70D5D0"/>
<mask id="mask0" mask-type="alpha" maskUnits="userSpaceOnUse" x="62" y="50" width="131" height="76">
<path fill-rule="evenodd" clip-rule="evenodd" d="M188.774 50H66.226C63.892 50 62 51.89 62 54.22V72.81C62 73.87 62.524 74.88 63.429 75.44C67.641 78.04 70.452 82.69 70.452 88C70.452 93.31 67.641 97.96 63.429 100.56C62.524 101.12 62 102.13 62 103.19V121.78C62 124.11 63.892 126 66.226 126H188.774C191.108 126 193 124.11 193 121.78V54.22C193 51.89 191.108 50 188.774 50Z" fill="white"/>
</mask>
<g mask="url(#mask0)">
<path d="M185.114 120H106.886C105.844 120 105 119.1 105 118V58C105 56.9 105.844 56 106.886 56H185.114C186.156 56 187 56.9 187 58V118C187 119.1 186.156 120 185.114 120Z" fill="#91E7E3"/>
<path fill-rule="evenodd" clip-rule="evenodd" d="M79 56C79 54.9 79.895 54 81 54H99C100.105 54 101 54.9 101 56V118C101 119.1 100.105 120 99 120H81C79.895 120 79 119.1 79 118V56Z" fill="#91E7E3"/>
<rect x="101" y="88" width="4" height="10" rx="2" fill="white"/>
<rect x="101" y="73" width="4" height="10" rx="2" fill="white"/>
<rect x="101" y="103" width="4" height="11" rx="2" fill="white"/>
<path d="M101 121C101 119.9 101.895 119 103 119C104.105 119 105 119.9 105 121V127H101V121Z" fill="white"/>
<path d="M146.5 102.659L135.598 109.509C133.195 111.019 130.18 108.829 130.872 106.079L134.012 93.5886L124.134 85.3386C121.957 83.5186 123.109 79.9786 125.939 79.7886L138.782 78.9186L143.579 66.9686C144.637 64.3386 148.363 64.3386 149.421 66.9686L154.218 78.9186L167.061 79.7886C169.891 79.9786 171.043 83.5186 168.866 85.3386L158.988 93.5886L162.128 106.079C162.82 108.829 159.805 111.019 157.402 109.509L146.5 102.659Z" fill="white"/>
<mask id="mask1" mask-type="alpha" maskUnits="userSpaceOnUse" x="123" y="64" width="47" height="47">
<path fill-rule="evenodd" clip-rule="evenodd" d="M146.5 102.659L135.598 109.509C133.195 111.019 130.18 108.829 130.872 106.079L134.012 93.5886L124.134 85.3386C121.957 83.5186 123.109 79.9786 125.939 79.7886L138.782 78.9186L143.579 66.9686C144.637 64.3386 148.363 64.3386 149.421 66.9686L154.218 78.9186L167.061 79.7886C169.891 79.9786 171.043 83.5186 168.866 85.3386L158.988 93.5886L162.128 106.079C162.82 108.829 159.805 111.019 157.402 109.509L146.5 102.659Z" fill="white"/>
</mask>
<g mask="url(#mask1)">
<path d="M161.001 100.997C147.451 100.177 135.581 90.887 130.332 79.207L126.001 79.497C123.187 79.687 121.337 83.707 123.501 85.497L133.95 93.867L130.827 106.137C130.139 108.847 133.137 110.997 135.526 109.517L146.364 102.787L157.203 109.517C159.592 110.997 163.049 109.047 162.361 106.347L161.001 100.997Z" fill="#DDF8F7"/>
</g>
<g opacity="0.3">
<g style="mix-blend-mode:multiply">
<path fill-rule="evenodd" clip-rule="evenodd" d="M86 92C109.196 92 128 73.2 128 50C128 26.8 109.196 8 86 8C62.804 8 44 26.8 44 50C44 73.2 62.804 92 86 92Z" fill="#4ABBB5"/>
</g>
</g>
</g>
<path fill-rule="evenodd" clip-rule="evenodd" d="M152 25C158.627 25 164 19.63 164 13C164 6.37 158.627 1 152 1C145.373 1 140 6.37 140 13C140 19.63 145.373 25 152 25Z" fill="#53C6C0"/>
<path fill-rule="evenodd" clip-rule="evenodd" d="M166 25C170.971 25 175 20.97 175 16C175 11.03 170.971 7 166 7C161.029 7 157 11.03 157 16C157 20.97 161.029 25 166 25Z" fill="#53C6C0"/>
<path fill-rule="evenodd" clip-rule="evenodd" d="M153 25H180L178.753 24.69C174.629 23.66 171.468 20.34 170.635 16.17L170 13H153V25Z" fill="#53C6C0"/>
<path fill-rule="evenodd" clip-rule="evenodd" d="M235 36C239.971 36 244 31.97 244 27C244 22.03 239.971 18 235 18C230.029 18 226 22.03 226 27C226 31.97 230.029 36 235 36Z" fill="#53C6C0"/>
<path fill-rule="evenodd" clip-rule="evenodd" d="M244 36C247.314 36 250 33.31 250 30C250 26.69 247.314 24 244 24C240.686 24 238 26.69 238 30C238 33.31 240.686 36 244 36Z" fill="#53C6C0"/>
<path fill-rule="evenodd" clip-rule="evenodd" d="M235 36H254L252.243 35.41C249.526 34.51 247.281 32.56 246 30H235V36Z" fill="#53C6C0"/>
<path opacity="0.3" fill-rule="evenodd" clip-rule="evenodd" d="M228.542 78.03C228.667 78.18 228.843 78.25 229.068 78.25C229.25 78.25 229.408 78.2 229.543 78.1C229.677 77.99 229.761 77.85 229.796 77.66C229.839 77.47 229.937 77.3 230.089 77.13C230.24 76.96 230.459 76.76 230.745 76.52C231.048 76.26 231.295 76.03 231.486 75.84C231.677 75.64 231.839 75.41 231.973 75.15C232.108 74.88 232.175 74.58 232.175 74.26C232.175 73.83 232.049 73.44 231.798 73.1C231.547 72.76 231.2 72.49 230.758 72.29C230.316 72.1 229.813 72 229.25 72C228.747 72 228.247 72.08 227.748 72.24C227.25 72.4 226.806 72.62 226.416 72.91C226.269 73.02 226.163 73.14 226.097 73.26C226.032 73.38 226 73.53 226 73.72C226 73.98 226.076 74.21 226.228 74.4C226.379 74.58 226.563 74.68 226.78 74.68C226.962 74.68 227.2 74.6 227.495 74.43L227.807 74.28C228.05 74.14 228.268 74.03 228.464 73.96C228.659 73.88 228.856 73.85 229.055 73.85C229.298 73.85 229.488 73.9 229.627 74.02C229.766 74.13 229.835 74.28 229.835 74.47C229.835 74.66 229.785 74.83 229.685 74.99C229.586 75.15 229.436 75.33 229.237 75.55C228.96 75.84 228.743 76.11 228.587 76.39C228.431 76.66 228.353 77 228.353 77.41C228.353 77.68 228.416 77.88 228.542 78.03ZM228.205 81C228.443 81.24 228.74 81.36 229.096 81.36C229.46 81.36 229.761 81.24 229.999 81C230.237 80.76 230.357 80.46 230.357 80.1C230.357 79.75 230.237 79.45 229.999 79.2C229.761 78.96 229.46 78.84 229.096 78.84C228.74 78.84 228.443 78.96 228.205 79.2C227.967 79.45 227.848 79.75 227.848 80.1C227.848 80.46 227.967 80.76 228.205 81Z" fill="#91E7E3"/>
<path opacity="0.4" fill-rule="evenodd" clip-rule="evenodd" d="M198.865 39.4897C198.974 39.7097 199.169 39.8597 199.451 39.9397C199.679 39.9997 199.894 39.9897 200.096 39.9097C200.299 39.8197 200.454 39.6697 200.56 39.4397C200.675 39.2297 200.855 39.0497 201.101 38.8897C201.347 38.7297 201.688 38.5597 202.123 38.3597C202.592 38.1297 202.977 37.9297 203.279 37.7597C203.581 37.5797 203.861 37.3497 204.118 37.0697C204.375 36.7797 204.557 36.4397 204.663 36.0397C204.807 35.4997 204.779 34.9797 204.578 34.4697C204.377 33.9597 204.032 33.5197 203.544 33.1297C203.055 32.7397 202.459 32.4497 201.754 32.2597C201.125 32.0897 200.472 32.0197 199.795 32.0497C199.118 32.0797 198.488 32.2097 197.905 32.4297C197.683 32.5197 197.512 32.6297 197.39 32.7597C197.268 32.8897 197.177 33.0697 197.117 33.2897C197.028 33.6297 197.047 33.9297 197.175 34.2097C197.303 34.4997 197.503 34.6697 197.774 34.7497C198.002 34.8097 198.327 34.7797 198.751 34.6797L199.193 34.5897C199.543 34.4997 199.852 34.4397 200.12 34.4197C200.389 34.3897 200.648 34.4097 200.897 34.4797C201.201 34.5597 201.421 34.6897 201.557 34.8797C201.693 35.0697 201.729 35.2797 201.666 35.5097C201.603 35.7497 201.483 35.9497 201.306 36.1097C201.13 36.2697 200.881 36.4497 200.56 36.6497C200.118 36.9097 199.754 37.1797 199.468 37.4697C199.182 37.7497 198.972 38.1497 198.837 38.6497C198.747 38.9897 198.757 39.2697 198.865 39.4897ZM197.461 43.0497C197.679 43.4297 198.01 43.6797 198.454 43.7997C198.91 43.9197 199.327 43.8697 199.706 43.6497C200.085 43.4297 200.333 43.0997 200.451 42.6597C200.569 42.2197 200.519 41.8097 200.301 41.4297C200.083 41.0497 199.747 40.7897 199.291 40.6697C198.847 40.5497 198.435 40.5997 198.056 40.8197C197.677 41.0497 197.429 41.3797 197.311 41.8197C197.193 42.2597 197.243 42.6697 197.461 43.0497Z" fill="#91E7E3"/>
<path opacity="0.3" fill-rule="evenodd" clip-rule="evenodd" d="M24.6429 61.9809C24.8379 62.1509 25.0809 62.2009 25.3709 62.1509C25.6049 62.1109 25.7969 62.0009 25.9469 61.8409C26.0959 61.6809 26.1709 61.4709 26.1729 61.2109C26.1869 60.9709 26.2729 60.7209 26.4299 60.4709C26.5869 60.2209 26.8229 59.9109 27.1379 59.5409C27.4679 59.1309 27.7339 58.7709 27.9359 58.4909C28.1379 58.2009 28.2949 57.8609 28.4069 57.4909C28.5189 57.1109 28.5389 56.7209 28.4659 56.3009C28.3679 55.7509 28.1179 55.2709 27.7159 54.8909C27.3149 54.5109 26.8069 54.2409 26.1939 54.0909C25.5799 53.9409 24.9109 53.9309 24.1849 54.0509C23.5379 54.1709 22.9119 54.3909 22.3059 54.7109C21.7009 55.0309 21.1799 55.4109 20.7419 55.8709C20.5779 56.0509 20.4679 56.2209 20.4119 56.3909C20.3559 56.5709 20.3479 56.7709 20.3899 57.0009C20.4509 57.3509 20.5999 57.6209 20.8379 57.8309C21.0749 58.0409 21.3339 58.1109 21.6129 58.0609C21.8469 58.0209 22.1349 57.8609 22.4769 57.5809L22.8439 57.3109C23.1249 57.0809 23.3819 56.8909 23.6169 56.7509C23.8509 56.6109 24.0969 56.5209 24.3529 56.4809C24.6659 56.4209 24.9239 56.4509 25.1289 56.5609C25.3329 56.6809 25.4559 56.8609 25.4999 57.1009C25.5429 57.3509 25.5179 57.5809 25.4249 57.8109C25.3319 58.0309 25.1819 58.3009 24.9749 58.6309C24.6819 59.0609 24.4669 59.4709 24.3279 59.8609C24.1889 60.2409 24.1659 60.7009 24.2579 61.2209C24.3189 61.5709 24.4469 61.8209 24.6429 61.9809ZM24.8809 65.8809C25.2429 66.1409 25.6519 66.2309 26.1099 66.1409C26.5789 66.0609 26.9389 65.8409 27.1909 65.4709C27.4429 65.1009 27.5279 64.6909 27.4479 64.2309C27.3669 63.7809 27.1459 63.4209 26.7839 63.1609C26.4209 62.9009 26.0059 62.8109 25.5369 62.9009C25.0799 62.9809 24.7249 63.2009 24.4729 63.5709C24.2209 63.9309 24.1359 64.3509 24.2159 64.8009C24.2969 65.2609 24.5179 65.6209 24.8809 65.8809Z" fill="#91E7E3"/>
<path fill-rule="evenodd" clip-rule="evenodd" d="M86 84C109.196 84 128 65.2 128 42C128 18.8 109.196 0 86 0C62.804 0 44 18.8 44 42C44 65.2 62.804 84 86 84Z" fill="#DDF8F7"/>
<mask id="mask2" mask-type="alpha" maskUnits="userSpaceOnUse" x="44" y="0" width="84" height="84">
<path fill-rule="evenodd" clip-rule="evenodd" d="M86 84C109.196 84 128 65.2 128 42C128 18.8 109.196 0 86 0C62.804 0 44 18.8 44 42C44 65.2 62.804 84 86 84Z" fill="white"/>
</mask>
<g mask="url(#mask2)">
<path d="M62 31C62 24.37 67.373 19 74 19H117C123.075 19 128 23.92 128 30V98C128 104.08 123.075 109 117 109H73C66.925 109 62 104.08 62 98V31Z" fill="#70D5D0"/>
<path d="M71 37C71 32.03 75.029 28 80 28H129V75C129 81.08 124.075 86 118 86H71V37Z" fill="#91E7E3"/>
<path fill-rule="evenodd" clip-rule="evenodd" d="M92.5507 54.1118C92.9077 54.3418 93.3327 54.3918 93.8257 54.2618C94.2247 54.1518 94.5427 53.9518 94.7787 53.6618C95.0157 53.3618 95.1187 53.0118 95.0897 52.6018C95.0837 52.2018 95.2007 51.7818 95.4387 51.3418C95.6777 50.9018 96.0457 50.3618 96.5427 49.7118C97.0577 48.9718 97.4717 48.3518 97.7837 47.8518C98.0967 47.3418 98.3247 46.7718 98.4707 46.1418C98.6167 45.5118 98.6007 44.8618 98.4227 44.2018C98.1837 43.3018 97.6937 42.5818 96.9537 42.0218C96.2147 41.4618 95.3067 41.1118 94.2307 40.9618C93.1547 40.8218 91.9997 40.9118 90.7667 41.2518C89.6657 41.5418 88.6137 42.0018 87.6117 42.6218C86.6087 43.2518 85.7597 43.9718 85.0637 44.7918C84.8027 45.1118 84.6357 45.4118 84.5597 45.7018C84.4847 45.9918 84.4977 46.3218 84.5977 46.6918C84.7467 47.2518 85.0387 47.6718 85.4737 47.9718C85.9087 48.2618 86.3637 48.3518 86.8387 48.2218C87.2367 48.1218 87.7137 47.8118 88.2677 47.2918L88.8647 46.7918C89.3197 46.3618 89.7397 46.0118 90.1257 45.7418C90.5127 45.4818 90.9237 45.2918 91.3607 45.1718C91.8917 45.0318 92.3407 45.0318 92.7067 45.1818C93.0727 45.3318 93.3077 45.6118 93.4137 46.0018C93.5187 46.3918 93.5057 46.7818 93.3737 47.1618C93.2417 47.5418 93.0177 48.0118 92.7007 48.5818C92.2517 49.3318 91.9317 50.0318 91.7407 50.6918C91.5507 51.3418 91.5677 52.0918 91.7927 52.9318C91.9417 53.4918 92.1937 53.8818 92.5507 54.1118ZM93.4497 60.4335C94.1057 60.7935 94.8227 60.8735 95.6007 60.6635C96.3987 60.4435 96.9907 60.0235 97.3787 59.3835C97.7667 58.7335 97.8617 58.0535 97.6657 57.3135C97.4687 56.5835 97.0427 56.0335 96.3867 55.6735C95.7307 55.3135 95.0037 55.2435 94.2067 55.4535C93.4287 55.6635 92.8457 56.0835 92.4577 56.7335C92.0697 57.3735 91.9747 58.0535 92.1707 58.7935C92.3677 59.5235 92.7937 60.0735 93.4497 60.4335Z" fill="white"/>
</g>
</svg>
