<svg width="115" height="22" viewBox="0 0 115 22" fill="none" xmlns="http://www.w3.org/2000/svg">
<path fill-rule="evenodd" clip-rule="evenodd" d="M20.9663 2.64876C21.4191 3.09576 21.6456 3.67773 21.6456 4.39469C21.6456 4.81956 21.5528 5.23999 21.3674 5.656C21.1819 6.07202 20.9081 6.41722 20.5458 6.69161C20.1835 6.966 19.748 7.1032 19.2391 7.1032C18.7302 7.1032 18.3075 6.94166 17.9711 6.61859C17.6347 6.29551 17.4665 5.85959 17.4665 5.3108C17.4665 4.77087 17.6477 4.24643 18.0099 3.73748C18.3722 3.22852 18.8509 2.84128 19.4461 2.57574C19.3253 2.51378 19.1787 2.4828 19.0062 2.4828C18.7043 2.49165 18.4498 2.54476 18.2428 2.64212C18.0358 2.73949 17.8374 2.88996 17.6477 3.09354C17.363 3.42104 17.1215 3.83041 16.9231 4.32167C16.7247 4.81292 16.4919 5.48782 16.2245 6.34641C15.9226 7.34661 15.6401 8.16093 15.377 8.78938C15.1139 9.41783 14.7538 9.98652 14.2967 10.4955C13.8395 11.0044 13.2616 11.3386 12.563 11.4979C13.4859 11.6041 14.2212 11.7944 14.7689 12.0688C15.3166 12.3432 15.7156 12.726 15.9657 13.2173C16.2158 13.7085 16.3409 14.348 16.3409 15.1358C16.3409 15.4898 16.3237 15.8306 16.2892 16.1581L15.9916 19.0127C15.983 19.0569 15.9786 19.1233 15.9786 19.2118C15.9786 19.7429 16.2072 20.0084 16.6644 20.0084C16.9921 20.0084 17.2703 19.8757 17.4989 19.6101C17.7274 19.3446 17.9366 18.933 18.1264 18.3754L18.5792 16.9946H19.1097L18.424 19.0923C18.0962 20.066 17.6239 20.794 17.0072 21.2764C16.3905 21.7588 15.6768 22 14.866 22C13.8827 22 13.1258 21.75 12.5953 21.2498C12.0648 20.7497 11.7996 20.066 11.7996 19.1986C11.7996 19.0746 11.8169 18.8622 11.8514 18.5613L12.3689 14.7508C12.412 14.3967 12.4336 14.0294 12.4336 13.6488C12.4336 13.1885 12.3818 12.8212 12.2783 12.5468C12.1748 12.2724 12.0023 12.0422 11.7608 11.8564C11.0363 12.0511 10.4972 12.1485 10.1435 12.1485C9.695 12.1485 9.47074 12.0024 9.47074 11.7103C9.47074 11.6484 9.47505 11.6041 9.48368 11.5775C9.50955 11.3917 9.58071 11.2545 9.69716 11.166C9.8136 11.0774 9.99689 11.0332 10.247 11.0332C10.6179 11.0332 11.1311 11.1261 11.7867 11.312C12.5802 11.1969 13.2271 10.8916 13.7274 10.3959C14.2277 9.90022 14.6137 9.33153 14.8854 8.6898C15.1571 8.04808 15.4395 7.21827 15.7328 6.20036C16.0002 5.28867 16.2374 4.57614 16.4444 4.06276C16.6514 3.54938 16.9188 3.1201 17.2466 2.77489C17.7727 2.24381 18.4067 1.97827 19.1485 1.97827C19.9075 1.97827 20.5135 2.20177 20.9663 2.64876ZM6.80548 20.0483C6.80548 20.3138 6.8637 20.5174 6.98014 20.659C7.09659 20.8006 7.27988 20.9002 7.53001 20.9578C7.78015 21.0153 8.13379 21.0529 8.59095 21.0706L8.48744 21.615C7.50413 21.5619 6.11545 21.5353 4.32135 21.5353C2.39786 21.5353 0.957429 21.5619 0 21.615L0.129382 21.0706C0.741791 21.0441 1.20325 20.9732 1.51377 20.8582C1.82428 20.7431 2.07442 20.5285 2.26418 20.2142C2.45394 19.9 2.63507 19.4066 2.80758 18.7339L6.31383 5.24442C6.46046 4.66908 6.53378 4.23537 6.53378 3.94327C6.53378 3.66888 6.4734 3.46087 6.35264 3.31925C6.23188 3.17763 6.0486 3.07805 5.80277 3.02052C5.55694 2.96299 5.20546 2.92537 4.74831 2.90766L4.87769 2.36331C5.78337 2.41642 7.2238 2.44297 9.19904 2.44297C10.8983 2.44297 12.2913 2.41642 13.3781 2.36331L13.2487 2.90766C12.6018 2.93422 12.1209 3.00503 11.8061 3.1201C11.4912 3.23516 11.2411 3.44759 11.0557 3.75739C10.8702 4.06719 10.6912 4.56286 10.5187 5.24442L7.02543 18.7339C6.87879 19.318 6.80548 19.7562 6.80548 20.0483ZM25.349 1.77248C25.5862 1.38745 25.9118 1.09314 26.3258 0.889559C26.7399 0.685978 27.2013 0.584188 27.7102 0.584188C28.3313 0.584188 28.8121 0.73466 29.1528 1.03561C29.4935 1.33655 29.6639 1.75256 29.6639 2.28365C29.6639 2.76162 29.541 3.19312 29.2952 3.57815C29.0493 3.96319 28.7173 4.26192 28.2989 4.47435C27.8806 4.68678 27.4213 4.793 26.921 4.793C26.3086 4.793 25.8342 4.64695 25.4978 4.35486C25.1614 4.06276 24.9932 3.66003 24.9932 3.14665C24.9932 2.61557 25.1118 2.15752 25.349 1.77248ZM24.1652 9.05492C24.1652 8.69201 24.0142 8.51056 23.7123 8.51056C23.3846 8.51056 23.087 8.67652 22.8196 9.00845C22.5522 9.34038 22.2805 9.88694 22.0045 10.6482L21.487 12.0422H20.9824L21.7069 9.97103C22.3452 8.11224 23.57 7.18286 25.3814 7.18286C26.2008 7.18286 26.7959 7.38644 27.1668 7.7936C27.5377 8.20077 27.7232 8.73184 27.7232 9.38684C27.7232 9.86482 27.6283 10.3959 27.4385 10.9801L24.6568 19.3048C24.5447 19.6234 24.4886 19.889 24.4886 20.1014C24.4886 20.4731 24.6654 20.659 25.0191 20.659C25.2951 20.659 25.5668 20.5041 25.8342 20.1943C26.1016 19.8845 26.3862 19.3269 26.6881 18.5214L27.1668 17.207H27.6714L26.9986 19.1986C26.645 20.2165 26.1512 20.9378 25.5172 21.3627C24.8832 21.7876 24.1824 22 23.4148 22C22.6126 22 22.011 21.8075 21.6099 21.4225C21.2088 21.0374 21.0083 20.482 21.0083 19.7562C21.0083 19.1897 21.142 18.4949 21.4093 17.6717L23.997 9.86482C24.1091 9.54617 24.1652 9.2762 24.1652 9.05492ZM42.6634 17.207L42.0295 19.1986C41.7017 20.2253 41.223 20.9489 40.5933 21.3693C39.9637 21.7898 39.2736 22 38.5232 22C37.4278 22 36.7291 21.584 36.4272 20.752C36.2892 20.4599 36.2202 20.0925 36.2202 19.65C36.2202 19.0835 36.328 18.4241 36.5437 17.6717L36.5825 17.5389C35.9011 19.0879 35.1852 20.2187 34.4348 20.9312C33.6843 21.6437 32.7873 22 31.7436 22C30.8034 22 30.0444 21.6814 29.4665 21.0441C28.8886 20.4068 28.5996 19.4508 28.5996 18.1762C28.5996 16.7157 28.9684 15.1203 29.7059 13.3899C30.4433 11.6594 31.4827 10.1923 32.824 8.98853C34.1652 7.78475 35.6941 7.18286 37.4105 7.18286C38.2472 7.18286 38.7863 7.48823 39.0278 8.09897L40.2181 3.47858C40.3044 3.15107 40.3475 2.89881 40.3475 2.72179C40.3475 2.35888 40.2095 2.09556 39.9335 1.9318C39.6575 1.76805 39.1917 1.68618 38.5362 1.68618L38.7173 1.11527C39.9421 1.10642 41.0462 1.00905 42.0295 0.823174C43.0128 0.637295 43.9702 0.362907 44.9017 0L39.7135 19.3048C39.6186 19.5703 39.5712 19.8137 39.5712 20.035C39.5712 20.451 39.7437 20.659 40.0887 20.659C40.6666 20.659 41.2057 19.9465 41.706 18.5214L42.1718 17.207H42.6634ZM38.4585 8.03923C38.2946 7.88433 38.0704 7.80688 37.7857 7.80688C37.0267 7.80688 36.2332 8.3623 35.4051 9.47314C34.5771 10.584 33.887 11.9936 33.335 13.7019C32.783 15.4102 32.507 17.0963 32.507 18.7604C32.507 19.3977 32.5738 19.869 32.7075 20.1744C32.8412 20.4798 33.059 20.6325 33.3609 20.6325C33.7059 20.6325 34.1199 20.3691 34.603 19.8425C35.086 19.3158 35.5841 18.5413 36.0973 17.519C36.6105 16.4967 37.0828 15.2907 37.514 13.901L38.8467 8.76282C38.7518 8.43532 38.6224 8.19413 38.4585 8.03923ZM57.0473 17.1937L56.3875 19.1853C56.0339 20.212 55.5465 20.9378 54.9255 21.3627C54.3045 21.7876 53.6274 22 52.8942 22C51.9713 22 51.3157 21.7123 50.9276 21.137C50.6947 20.7829 50.5783 20.3271 50.5783 19.7695C50.5783 19.3357 50.6559 18.7914 50.8111 18.1364C50.2246 19.4995 49.5626 20.4842 48.8251 21.0905C48.0877 21.6968 47.2747 22 46.3863 22C45.403 22 44.6634 21.7057 44.1674 21.1171C43.6714 20.5285 43.4235 19.7031 43.4235 18.6409C43.4235 17.03 43.8439 15.3239 44.6849 13.5226C45.5259 11.7214 46.589 10.2144 47.8742 9.00181C49.1594 7.78917 50.4187 7.18286 51.6521 7.18286C52.1265 7.18286 52.5104 7.32891 52.8036 7.621C53.0969 7.9131 53.2694 8.35123 53.3212 8.93542L53.6964 7.56789C55.1454 7.54134 56.4263 7.413 57.539 7.18286L54.0716 19.2915C53.9853 19.619 53.9422 19.8801 53.9422 20.0748C53.9422 20.4643 54.1018 20.659 54.4209 20.659C55.0333 20.659 55.5853 19.9465 56.077 18.5214L56.5428 17.1937H57.0473ZM53.0495 9.586C53.0495 9.14343 52.9718 8.79823 52.8166 8.55039C52.6613 8.30255 52.4414 8.17864 52.1567 8.17864C51.5529 8.17864 50.8694 8.73405 50.106 9.8449C49.3427 10.9557 48.6914 12.3454 48.1524 14.0139C47.6133 15.6824 47.3437 17.2911 47.3437 18.8401C47.3437 19.4508 47.4019 19.8867 47.5184 20.1479C47.6348 20.409 47.8224 20.5395 48.0812 20.5395C48.4607 20.5395 48.8855 20.2629 49.3556 19.7097C49.8257 19.1565 50.2936 18.3555 50.7594 17.3066C51.2252 16.2577 51.6392 15.0207 52.0015 13.5957L51.8721 14.2728L53.0236 10.0241C53.0408 9.82941 53.0495 9.68336 53.0495 9.586ZM85.9749 19.9686C85.9749 20.4289 86.156 20.659 86.5183 20.659C87.0876 20.659 87.6223 19.9465 88.1226 18.5214L88.5884 17.207H89.093L88.4331 19.1986C88.0881 20.2253 87.6008 20.9489 86.9711 21.3693C86.3415 21.7898 85.6514 22 84.901 22C84.0988 22 83.5015 21.7898 83.1091 21.3693C82.7166 20.9489 82.5204 20.3537 82.5204 19.5836C82.5204 19.0082 82.6239 18.371 82.8309 17.6717L86.9841 3.47858C87.0703 3.15107 87.1134 2.89881 87.1134 2.72179C87.1134 2.35888 86.9754 2.09556 86.6994 1.9318C86.4234 1.76805 85.9619 1.68618 85.315 1.68618L85.5091 1.11527C86.7167 1.10642 87.8078 1.00905 88.7825 0.823174C89.7571 0.637295 90.7146 0.362907 91.6547 0L86.0784 19.3048C86.0094 19.5438 85.9749 19.765 85.9749 19.9686ZM100.807 11.9908C99.9833 12.8539 98.9525 13.5907 97.7148 14.2015C96.477 14.8122 95.1854 15.3035 93.8398 15.6752C93.7363 16.3125 93.6845 16.9365 93.6845 17.5473C93.6845 18.5032 93.8592 19.1803 94.2085 19.5787C94.5579 19.977 95.0646 20.1761 95.7288 20.1761C96.2722 20.1761 96.8932 19.9969 97.5919 19.6384C98.2905 19.2799 98.959 18.7157 99.5973 17.9456L100.011 18.158C99.6145 18.8042 99.1121 19.4038 98.504 19.957C97.8959 20.5103 97.1951 20.9572 96.4016 21.298C95.608 21.6388 94.7627 21.8092 93.8657 21.8092C93.0721 21.8092 92.3605 21.6631 91.7309 21.371C91.1012 21.079 90.6074 20.643 90.2495 20.0633C89.8915 19.4835 89.7125 18.7865 89.7125 17.9721C89.7125 16.3612 90.1373 14.6971 90.9869 12.98C91.8366 11.2628 92.9945 9.83555 94.4608 8.69815C95.9272 7.56074 97.5358 6.99205 99.2868 6.99205C100.106 6.99205 100.77 7.17571 101.279 7.54305C101.788 7.91038 102.043 8.44367 102.043 9.14293C102.043 10.1785 101.631 11.1278 100.807 11.9908ZM97.2695 8.87758C96.6226 9.61667 96.021 10.5815 95.4647 11.772C94.9083 12.9625 94.5051 14.1862 94.2549 15.4431C95.5056 14.8766 96.4803 14.2703 97.179 13.6241C97.8863 12.9603 98.4426 12.2079 98.848 11.367C99.2534 10.5261 99.4561 9.62773 99.4561 8.67178C99.4561 8.06989 99.3138 7.76895 99.0291 7.76895C98.503 7.76895 97.9164 8.13848 97.2695 8.87758ZM114.418 7.60943C114.806 8.02102 115 8.54546 115 9.18276C115 9.68729 114.888 10.1564 114.664 10.5901C114.439 11.0238 114.133 11.369 113.745 11.6257C113.357 11.8824 112.93 12.0108 112.464 12.0108C111.947 12.0108 111.548 11.8714 111.267 11.5925C110.987 11.3137 110.847 10.9132 110.847 10.391C110.847 9.9661 110.946 9.56558 111.144 9.1894C111.343 8.81321 111.61 8.49235 111.947 8.22681C112.283 7.96127 112.65 7.77982 113.046 7.68246C112.943 7.6205 112.831 7.58952 112.71 7.58952C111.813 7.58952 110.907 8.24008 109.993 9.54124C109.079 10.8424 108.138 13.1658 107.172 16.5117L105.93 21.4242H102.204L105.413 9.67401C105.508 9.3111 105.555 9.03671 105.555 8.85083C105.555 8.49678 105.409 8.31975 105.115 8.31975C104.796 8.31975 104.501 8.4835 104.229 8.811C103.957 9.1385 103.688 9.68728 103.42 10.4573L102.916 11.8514H102.411L103.123 9.78022C103.761 7.92143 104.977 6.99205 106.771 6.99205C108.134 6.99205 108.816 7.72228 108.816 9.18276C108.816 9.64303 108.747 10.1785 108.609 10.7893L108.402 11.6257C108.841 10.4662 109.281 9.55009 109.721 8.87739C110.161 8.20468 110.629 7.72229 111.125 7.43019C111.621 7.1381 112.188 6.99205 112.826 6.99205C113.499 6.99205 114.03 7.19784 114.418 7.60943ZM75.1682 21.024C76.3067 21.024 78.0212 20.6411 78.7975 19.8755C79.5738 19.1098 80.0266 17.8729 80.156 16.1646H80.7124C80.7124 18.7492 80.7469 20.5415 80.8159 21.5418C79.3927 21.4709 76.9407 21.4355 74.9741 21.4355C73.2404 21.4355 71.4032 21.4798 69.4624 21.5683L79.4936 7.78677H78.0057C75.4957 7.78677 73.3629 9.41098 73.1214 12.6594H72.565C72.565 10.0837 72.5305 8.28688 72.4615 7.26897C73.833 7.34863 76.2849 7.38846 78.3033 7.38846C79.8472 7.38846 81.6844 7.33978 83.8149 7.24242L73.7838 21.024H75.1682ZM65.9274 19.8755C65.1511 20.6411 63.4366 21.024 62.298 21.024H60.9136L70.9448 7.24242C68.8143 7.33978 66.9771 7.38846 65.4331 7.38846C63.4148 7.38846 60.9628 7.34863 59.5914 7.26897C59.6604 8.28688 59.6949 10.0837 59.6949 12.6594H60.2512C60.4927 9.41098 62.6255 7.78677 65.1356 7.78677H66.6234L56.5923 21.5683C58.533 21.4798 60.3702 21.4355 62.104 21.4355C64.0706 21.4355 66.5225 21.4709 67.9457 21.5418C67.8767 20.5415 67.8422 18.7492 67.8422 16.1646H67.2859C67.1565 17.8729 66.7037 19.1098 65.9274 19.8755Z" fill="white"/>
</svg>
