<svg width="48" height="48" viewBox="0 0 48 48" fill="none" xmlns="http://www.w3.org/2000/svg">
<path fill-rule="evenodd" clip-rule="evenodd" d="M15.3833 0L32.6167 0C37.9658 0 39.9055 0.556954 41.8611 1.6028C43.8166 2.64864 45.3514 4.18337 46.3972 6.13893C47.443 8.09448 48 10.0342 48 15.3833V32.6167C48 37.9658 47.443 39.9055 46.3972 41.8611C45.3514 43.8166 43.8166 45.3514 41.8611 46.3972C39.9055 47.443 37.9658 48 32.6167 48H15.3833C10.0342 48 8.09448 47.443 6.13893 46.3972C4.18337 45.3514 2.64864 43.8166 1.6028 41.8611C0.556954 39.9055 0 37.9658 0 32.6167L0 15.3833C0 10.0342 0.556954 8.09448 1.6028 6.13893C2.64864 4.18337 4.18337 2.64864 6.13893 1.6028C8.09448 0.556954 10.0342 0 15.3833 0Z" fill="#4ABBB5" fill-opacity="0.12"/>
<path d="M23.9581 10.2965C24.5232 8.94476 25.814 8.00028 27.3154 8.00028C29.3379 8.00028 30.7945 9.74652 30.9776 11.8277C30.9776 11.8277 31.0764 12.3443 30.8589 13.2743C30.5626 14.541 29.8663 15.6663 28.9274 16.5252L23.9581 21L19.0726 16.5249C18.1337 15.6663 17.4374 14.5407 17.1411 13.274C16.9236 12.344 17.0224 11.8274 17.0224 11.8274C17.2055 9.74624 18.6621 8 20.6846 8C22.1863 8 23.3931 8.94476 23.9581 10.2965Z" fill="#4ABBB5"/>
<path d="M23.9761 12.2366C24.299 11.5087 25.0366 11.0002 25.8945 11.0002C27.0502 11.0002 27.8826 11.9404 27.9872 13.061C27.9872 13.061 28.0437 13.3392 27.9194 13.84C27.7501 14.5221 27.3521 15.128 26.8157 15.5905L23.9761 18L21.1843 15.5903C20.6479 15.128 20.2499 14.5219 20.0806 13.8399C19.9563 13.3391 20.0128 13.0609 20.0128 13.0609C20.1174 11.9403 20.9498 11 22.1055 11C22.9636 11 23.6532 11.5087 23.9761 12.2366Z" fill="white"/>
<path fill-rule="evenodd" clip-rule="evenodd" d="M36 26V30C36 36.6274 30.6274 42 24 42C17.3726 42 12 36.6274 12 30V26H16V30C16 34.4183 19.5817 38 24 38C28.3349 38 31.8645 34.5522 31.9962 30.2492L32 30V26H36Z" fill="#4ABBB5"/>
<path d="M16 20H12V24H16V20Z" fill="#4ABBB5"/>
<path d="M36 20H32V24H36V20Z" fill="#4ABBB5"/>
</svg>
