<svg width="48" height="48" viewBox="0 0 48 48" fill="none" xmlns="http://www.w3.org/2000/svg">
<rect width="48" height="48" rx="12" fill="#4B03BD" fill-opacity="0.12"/>
<path d="M38.5146 10.9727C37.5713 10.2094 36.3506 9.91804 35.1621 10.1713C35.1273 10.1794 35.0934 10.1876 35.0605 10.1973L19.8047 14.7488H14.6667C10.9906 14.7488 8 17.7393 8 21.4154C8 24.6348 10.2939 27.3282 13.3333 27.9473V35.4154C13.3333 36.8861 14.5293 38.0821 16 38.0821H18.6667C20.1374 38.0821 21.3333 36.8861 21.3333 35.4154V28.5382L35.0605 32.6335C35.0941 32.6433 35.1279 32.6514 35.1621 32.6593C35.4427 32.7195 35.7259 32.7488 36.0059 32.7488C36.9115 32.7488 37.7946 32.4408 38.5153 31.8581C39.4587 31.0954 40 29.9613 40 28.7475V14.0834C40 12.8695 39.4587 11.7354 38.5146 10.9727Z" fill="#4B03BD"/>
<path d="M10.666 21.4141C10.666 19.208 12.46 17.4141 14.666 17.4141H18.666V25.4141H14.666C12.46 25.4141 10.666 23.6201 10.666 21.4141Z" fill="white"/>
<path d="M16 35.4154V28.082H18.6667V35.4154H16Z" fill="white"/>
<path d="M37.334 28.7474C37.334 29.152 37.1533 29.5306 36.8385 29.7848C36.5352 30.0299 36.1445 30.1286 35.7646 30.0599L21.334 25.7545V17.0758L35.7646 12.7708C36.1458 12.7034 36.5352 12.8008 36.8385 13.0459C37.1533 13.3001 37.334 13.6787 37.334 14.0833V28.7474Z" fill="white"/>
</svg>
