<svg width="48" height="48" viewBox="0 0 48 48" fill="none" xmlns="http://www.w3.org/2000/svg">
<rect width="48" height="48" rx="12" fill="#4B03BD" fill-opacity="0.0793542"/>
<path fill-rule="evenodd" clip-rule="evenodd" d="M22 40C29.732 40 36 33.732 36 26C36 18.268 29.732 12 22 12C14.268 12 8 18.268 8 26C8 33.732 14.268 40 22 40Z" fill="white"/>
<path d="M39.0609 10.625H37.3115V8.93824C37.3115 8.10392 36.3323 7.6868 35.7457 8.27542L31.7685 12.2525C31.5927 12.4283 31.5064 12.6663 31.5064 12.9153V15.1795L30.8916 15.7826C27.1922 19.482 24.6689 22.0054 21.2004 25.4738C20.8342 25.84 20.8342 26.4333 21.2004 26.7995C21.5667 27.1658 22.1599 27.1658 22.5262 26.7995C23.5708 25.7549 31.3867 17.9382 32.4314 16.8935L32.8196 16.4928H35.0829C35.3319 16.4928 35.5699 16.4064 35.7457 16.2306L39.7237 12.2525C40.3119 11.6644 39.8959 10.625 39.0609 10.625Z" fill="#4B03BD"/>
<path d="M26.6795 25.2996L24.0455 27.9337C23.9535 28.0257 23.847 28.0943 23.7336 28.14C22.4434 29.121 20.9785 28.8442 20.0674 27.9346L20.0664 27.9336C18.9714 26.836 18.9714 25.0524 20.0674 23.9565C20.0747 23.9492 20.0854 23.9473 20.0928 23.94C20.0995 23.9328 20.1016 23.9232 20.1086 23.9162L22.7029 21.3219C21.1121 21.1024 19.7272 21.6443 18.7417 22.6299C16.9142 24.4573 16.9142 27.432 18.7417 29.2594C20.5682 31.086 23.5428 31.0878 25.3712 29.2594C26.4488 28.1812 26.8734 26.7052 26.6795 25.2996Z" fill="#4B03BD"/>
<path d="M29.6455 22.3343L28.2204 23.7594C29.0342 26.069 28.5409 28.7411 26.6972 30.5854C24.1382 33.1445 19.9744 33.1435 17.4163 30.5854C14.8574 28.0265 14.8574 23.8634 17.4163 21.3045C19.2604 19.4611 21.934 18.9671 24.244 19.7814L25.6685 18.357C22.1945 16.7086 18.4645 17.605 16.0906 19.9788C12.798 23.2694 12.7978 28.6203 16.0906 31.9112C19.3813 35.2038 24.7321 35.2041 28.023 31.9112C30.6118 29.3223 31.1312 25.4678 29.6455 22.3343Z" fill="#4B03BD"/>
<path d="M33.7886 18.1876L31.0265 20.9496C33.2048 24.8722 32.6749 29.9071 29.348 33.234C25.3245 37.2594 18.7883 37.2601 14.7641 33.234C10.7387 29.2104 10.738 22.6743 14.7641 18.6501C18.092 15.3222 23.1272 14.7934 27.0496 16.9723L29.8116 14.2103C24.4288 10.6401 16.9783 11.1321 12.1118 15.9987C6.62941 21.4811 6.62941 30.4031 12.1118 35.8863C14.8538 38.6274 18.4547 39.9981 22.0557 39.9981C25.6575 39.9981 29.2583 38.6274 31.9995 35.8863C36.8556 31.0303 37.3663 23.5826 33.7886 18.1876Z" fill="#4B03BD"/>
</svg>
