<svg width="48" height="48" viewBox="0 0 48 48" fill="none" xmlns="http://www.w3.org/2000/svg">
<rect width="48" height="48" rx="12" fill="#BD10E0" fill-opacity="0.12"/>
<rect x="9" y="9" width="30" height="30" rx="5" fill="white" stroke="#BD10E0" stroke-width="2"/>
<rect x="13" y="13" width="14" height="6" rx="2" fill="#BD10E0"/>
<path fill-rule="evenodd" clip-rule="evenodd" d="M32.4928 18.0476L34.084 18.9211C34.508 19.1539 34.9171 18.8439 34.8361 18.3505L34.5322 16.5003C34.5351 16.5183 34.5403 16.5018 34.5278 16.5146L35.815 15.2043C36.158 14.8551 36.0021 14.353 35.5277 14.281L33.7488 14.0111C33.7661 14.0137 33.7527 14.0035 33.7604 14.0199L32.9648 12.3365C32.7528 11.888 32.2473 11.8876 32.0352 12.3365L31.2396 14.0199C31.2474 14.0035 31.2339 14.0137 31.2512 14.0111L29.4723 14.281C28.9982 14.3529 28.8417 14.8549 29.185 15.2043L30.4723 16.5146C30.4598 16.5019 30.4649 16.5184 30.4678 16.5003L30.164 18.3505C30.083 18.8435 30.4917 19.1541 30.916 18.9211L32.5072 18.0476C32.4917 18.0561 32.5083 18.0561 32.4928 18.0476Z" fill="#BD10E0"/>
<rect opacity="0.6" x="13" y="21" width="11" height="6" rx="2" fill="#BD10E0"/>
<rect opacity="0.3" x="13" y="29" width="8" height="6" rx="2" fill="#BD10E0"/>
</svg>
