<svg width="48" height="48" viewBox="0 0 48 48" fill="none" xmlns="http://www.w3.org/2000/svg">
<rect width="48" height="48" rx="12" fill="#BD10E0" fill-opacity="0.12"/>
<rect x="8" y="11" width="32" height="29" rx="5.1" fill="#BD10E0"/>
<path fill-rule="evenodd" clip-rule="evenodd" d="M24.137 31.8825L26.842 33.3675C27.5628 33.7632 28.2583 33.2362 28.1205 32.3974L27.6039 29.2521C27.609 29.2827 27.6177 29.2547 27.5964 29.2764L29.7847 27.0489C30.3679 26.4553 30.1028 25.6017 29.2964 25.4793L26.2722 25.0204C26.3016 25.0249 26.2787 25.0075 26.2919 25.0354L24.9394 22.1737C24.579 21.4111 23.7197 21.4106 23.359 22.1737L22.0066 25.0354C22.0197 25.0076 21.9969 25.0249 22.0263 25.0204L19.0021 25.4793C18.1962 25.6016 17.9302 26.4548 18.5137 27.0489L20.7021 29.2764C20.6808 29.2547 20.6895 29.2828 20.6945 29.2521L20.1779 32.3974C20.0403 33.2355 20.7352 33.7635 21.4565 33.3675L24.1614 31.8825C24.1351 31.8969 24.1634 31.8969 24.137 31.8825Z" fill="white"/>
<rect x="15" y="8" width="3" height="7" rx="1.5" fill="#BD10E0"/>
<rect x="8" y="16" width="32" height="2" fill="white"/>
<rect x="31" y="8" width="3" height="7" rx="1.5" fill="#BD10E0"/>
</svg>
