<svg width="48" height="48" viewBox="0 0 48 48" fill="none" xmlns="http://www.w3.org/2000/svg">
<rect width="48" height="48" rx="12" fill="#4B03BD" fill-opacity="0.0793542"/>
<path d="M39.5301 26.0642L39.0368 25.3909C38.5035 24.6576 38.4901 23.6642 39.0168 22.9176L39.4968 22.2376C40.2301 21.1976 39.8901 19.7509 38.7635 19.1442L38.0301 18.7509C37.2301 18.3242 36.7901 17.4309 36.9435 16.5309L37.0835 15.7109C37.2968 14.4576 36.3568 13.2976 35.0835 13.2442L34.2501 13.2109C33.3435 13.1709 32.5568 12.5576 32.3034 11.6842L32.0701 10.8842C31.7168 9.65755 30.3701 9.02422 29.1968 9.53089L28.4301 9.85755C27.5968 10.2176 26.6234 10.0042 26.0168 9.32422L25.4634 8.70422C24.6168 7.75755 23.1301 7.76422 22.2901 8.73089L21.7435 9.35755C21.1434 10.0442 20.1768 10.2709 19.3368 9.92422L18.5634 9.60422C17.3834 9.11755 16.0501 9.77755 15.7101 11.0042L15.4901 11.8109C15.2501 12.6909 14.4768 13.3176 13.5701 13.3642L12.7368 13.4109C11.4635 13.4842 10.5435 14.6576 10.7768 15.9109L10.9301 16.7309C11.0968 17.6242 10.6701 18.5242 9.87678 18.9642L9.15012 19.3709C8.03678 19.9909 7.71678 21.4442 8.47012 22.4709L8.96345 23.1442C9.49678 23.8776 9.51012 24.8709 8.98345 25.6176L8.50345 26.2976C7.77012 27.3376 8.11012 28.7842 9.23678 29.3909L9.97012 29.7842C10.7701 30.2109 11.2101 31.1042 11.0568 32.0042L10.9168 32.8242C10.7035 34.0776 11.6435 35.2376 12.9168 35.2909L13.7501 35.3242C14.6568 35.3642 15.4434 35.9776 15.6968 36.8509L15.9301 37.6509C16.2835 38.8776 17.6301 39.5109 18.8035 39.0042L19.5701 38.6776C20.4035 38.3176 21.3768 38.5309 21.9834 39.2109L22.5368 39.8309C23.3901 40.7776 24.8768 40.7709 25.7101 39.8042L26.2568 39.1776C26.8568 38.4909 27.8235 38.2642 28.6635 38.6109L29.4368 38.9309C30.6168 39.4176 31.9501 38.7576 32.2901 37.5309L32.5101 36.7242C32.7501 35.8442 33.5235 35.2176 34.4301 35.1709L35.2635 35.1242C36.5368 35.0509 37.4568 33.8776 37.2234 32.6242L37.0701 31.8042C36.9035 30.9109 37.3301 30.0109 38.1235 29.5709L38.8501 29.1642C39.9634 28.5509 40.2835 27.0976 39.5301 26.0642Z" fill="#4B03BD"/>
<path d="M16.3906 21.5027C16.3906 19.6893 17.8573 18.2227 19.6706 18.2227C21.484 18.2227 22.9506 19.6893 22.9506 21.5027C22.9506 23.316 21.484 24.7827 19.6706 24.7827C17.8573 24.7827 16.3906 23.3093 16.3906 21.5027Z" fill="white"/>
<path d="M20.3028 29.9651C20.0228 30.3051 19.5161 30.3518 19.1761 30.0718C18.8361 29.7918 18.7894 29.2851 19.0694 28.9451L27.6761 18.5784C27.9561 18.2384 28.4628 18.1918 28.8028 18.4718C29.1428 18.7518 29.1894 19.2584 28.9094 19.5984L20.3028 29.9651Z" fill="white"/>
<path d="M28.3171 30.3061C26.5038 30.3061 25.0371 28.8394 25.0371 27.0261C25.0371 25.2128 26.5038 23.7461 28.3171 23.7461C30.1304 23.7461 31.5971 25.2128 31.5971 27.0261C31.5971 28.8394 30.1304 30.3061 28.3171 30.3061Z" fill="white"/>
<path d="M19.6764 22.8645C20.4275 22.8645 21.0364 22.2556 21.0364 21.5045C21.0364 20.7534 20.4275 20.1445 19.6764 20.1445C18.9253 20.1445 18.3164 20.7534 18.3164 21.5045C18.3164 22.2556 18.9253 22.8645 19.6764 22.8645Z" fill="#4B03BD"/>
<path d="M28.317 28.3841C29.0681 28.3841 29.677 27.7752 29.677 27.0241C29.677 26.273 29.0681 25.6641 28.317 25.6641C27.5659 25.6641 26.957 26.273 26.957 27.0241C26.957 27.7752 27.5659 28.3841 28.317 28.3841Z" fill="#4B03BD"/>
</svg>
