<svg width="48" height="48" viewBox="0 0 48 48" fill="none" xmlns="http://www.w3.org/2000/svg">
<rect width="48" height="48" rx="12" fill="#4ABBB5" fill-opacity="0.12"/>
<rect x="9" y="10" width="29" height="28" fill="white"/>
<path fill-rule="evenodd" clip-rule="evenodd" d="M38.2801 9H9.71994C8.77162 9 8 9.76306 8 10.7009V37.2991C8 38.2369 8.77162 39 9.71994 39H38.2801C39.2284 39 40 38.2369 40 37.2991V10.7009C40 9.76296 39.2284 9 38.2801 9ZM34.5 12C35.3271 12 36 12.6729 36 13.5C36 14.3271 35.3271 15 34.5 15C33.6729 15 33 14.3271 33 13.5C33 12.6729 33.6729 12 34.5 12ZM31 13.5C31 12.6729 30.3271 12 29.5 12C28.6729 12 28 12.6729 28 13.5C28 14.3271 28.6729 15 29.5 15C30.3271 15 31 14.3271 31 13.5ZM10.7143 12H16.2857C16.6802 12 17 12.4477 17 13C17 13.5523 16.6802 14 16.2857 14H10.7143C10.3198 14 10 13.5523 10 13C10 12.4477 10.3198 12 10.7143 12ZM37.7631 37C37.8938 37 38 36.8979 38 36.7726V18H10V36.7726C10 36.8979 10.1063 37 10.2369 37H37.7631Z" fill="#4ABBB5"/>
<rect x="26" y="11" width="12" height="11" rx="1" fill="white"/>
<path fill-rule="evenodd" clip-rule="evenodd" d="M34.8284 13.1722C34.4379 12.7817 33.8047 12.7817 33.4142 13.1722L32 14.5864L30.5858 13.1722C30.1953 12.7817 29.5621 12.7817 29.1716 13.1722C28.781 13.5627 28.781 14.1959 29.1716 14.5864L30.5858 16.0006L29.1716 17.4148C28.781 17.8053 28.781 18.4385 29.1716 18.829C29.5621 19.2196 30.1953 19.2196 30.5858 18.829L32 17.4148L33.4142 18.829C33.8047 19.2196 34.4379 19.2196 34.8284 18.829C35.219 18.4385 35.219 17.8053 34.8284 17.4148L33.4142 16.0006L34.8284 14.5864C35.219 14.1959 35.219 13.5627 34.8284 13.1722Z" fill="#4ABBB5"/>
<path fill-rule="evenodd" clip-rule="evenodd" d="M21.4392 23.0586C21.5879 23.0586 21.7213 23.1509 21.7737 23.29L23.8816 28.8833C23.9059 28.9317 23.9197 28.9863 23.9197 29.0439C23.9197 29.2415 23.7597 29.4016 23.5622 29.4016H23.5601H23.0142C22.8654 29.4016 22.7323 29.3094 22.6797 29.1701L22.0519 27.5047H20.2418L19.6224 29.1687C19.5703 29.3089 19.4366 29.4017 19.2873 29.4017H18.7422C18.6251 29.4017 18.5154 29.3442 18.4486 29.2481C18.3818 29.1518 18.3664 29.0291 18.4072 28.9193L20.5015 23.2926C20.5535 23.1528 20.6867 23.0601 20.8359 23.0598L21.4384 23.0586H21.4392ZM21.1414 25.0898L20.6981 26.2807H21.5902L21.1414 25.0898Z" fill="#4ABBB5"/>
<path fill-rule="evenodd" clip-rule="evenodd" d="M24.797 23.0352H26.3468C28.1274 23.0352 29.5758 24.4576 29.5757 26.2056C29.5757 27.9497 28.1273 29.3685 26.3468 29.3685H24.797C24.5995 29.3685 24.4395 29.2084 24.4395 29.011V23.3928C24.4395 23.1953 24.5996 23.0352 24.797 23.0352ZM25.6653 28.1428H26.3468C27.4513 28.1428 28.35 27.2738 28.3499 26.2057C28.3499 25.1333 27.4513 24.2612 26.3468 24.2612H25.6653V28.1428Z" fill="#4ABBB5"/>
</svg>
