<svg width="48" height="48" viewBox="0 0 48 48" fill="none" xmlns="http://www.w3.org/2000/svg">
<path opacity="0.01" fill-rule="evenodd" clip-rule="evenodd" d="M24 48C37.2548 48 48 37.2548 48 24C48 10.7452 37.2548 0 24 0C10.7452 0 0 10.7452 0 24C0 37.2548 10.7452 48 24 48Z" fill="#F4F8F9"/>
<path d="M24.6074 39.3222L24.16 39.0984L23.7126 39.3222L18.3641 41.9981L15.6098 36.6895L15.3794 36.2454L14.8859 36.1635L8.98602 35.1845L9.87811 29.2709L9.95274 28.7762L9.60159 28.4199L5.40393 24.16L9.60159 19.9001L9.95274 19.5438L9.87811 19.0491L8.98602 13.1355L14.8859 12.1565L15.3794 12.0746L15.6098 11.6305L18.3641 6.32191L23.7126 8.99776L24.16 9.2216L24.6074 8.99776L29.9559 6.32191L32.7102 11.6305L32.9406 12.0746L33.4341 12.1565L39.334 13.1355L38.4419 19.0491L38.3673 19.5438L38.7184 19.9001L42.9161 24.16L38.7184 28.4199L38.3673 28.7762L38.4419 29.2709L39.334 35.1845L33.4341 36.1635L32.9406 36.2454L32.7102 36.6895L29.9559 41.9981L24.6074 39.3222Z" fill="white" fill-opacity="0.08" stroke="white" stroke-width="2"/>
<path fill-rule="evenodd" clip-rule="evenodd" d="M20.6465 23.9546C18.7 23.9546 17.4395 22.5307 17.4395 20.7166C17.4395 18.8829 18.7 17.4395 20.6465 17.4395C22.6301 17.4395 23.9092 18.8829 23.9092 20.7166C23.9092 22.5307 22.6301 23.9546 20.6465 23.9546ZM21.0173 30.6454H19.423L27.3202 17.6345H28.933L21.0173 30.6454ZM24.4283 27.6414C24.4283 29.4555 25.6888 30.8795 27.6353 30.8795C29.6003 30.8795 30.8795 29.4555 30.8795 27.6414C30.8795 25.8078 29.6003 24.3643 27.6353 24.3643C25.6888 24.3643 24.4283 25.8078 24.4283 27.6414ZM20.6465 22.16C21.3695 22.16 21.9256 21.6529 21.9256 20.7166C21.9256 19.7412 21.3695 19.2341 20.6465 19.2341C19.9421 19.2341 19.4045 19.7412 19.4045 20.7166C19.4045 21.6529 19.9421 22.16 20.6465 22.16ZM28.9144 27.6414C28.9144 28.5972 28.3583 29.0849 27.6353 29.0849C26.9123 29.0849 26.3933 28.5972 26.3933 27.6414C26.3933 26.666 26.9123 26.1589 27.6353 26.1589C28.3583 26.1589 28.9144 26.666 28.9144 27.6414Z" fill="white"/>
</svg>
