<svg width="77" height="77" viewBox="0 0 77 77" fill="none" xmlns="http://www.w3.org/2000/svg">
<rect width="77" height="77" rx="12" fill="#4ABBB5"/>
<path fill-rule="evenodd" clip-rule="evenodd" d="M33 12C34.1046 12 35 11.1046 35 10C35 8.89543 34.1046 8 33 8C31.8954 8 31 8.89543 31 10C31 11.1046 31.8954 12 33 12Z" fill="#73D7D2"/>
<path fill-rule="evenodd" clip-rule="evenodd" d="M12.5 20C13.3284 20 14 19.3284 14 18.5C14 17.6716 13.3284 17 12.5 17C11.6716 17 11 17.6716 11 18.5C11 19.3284 11.6716 20 12.5 20Z" fill="#5DCEC8"/>
<path fill-rule="evenodd" clip-rule="evenodd" d="M19 31H59V77H19V31Z" fill="#73D7D2"/>
<path fill-rule="evenodd" clip-rule="evenodd" d="M21.0452 23.6397C21.7898 22.6099 22.9834 22 24.2542 22H53.7458C55.0166 22 56.2102 22.6099 56.9548 23.6397L63 32H15L21.0452 23.6397Z" fill="#99ECE8"/>
<path fill-rule="evenodd" clip-rule="evenodd" d="M15.0664 32C15.0227 32.2602 15 32.5274 15 32.8C15 35.451 17.149 37.6 19.8 37.6C22.451 37.6 24.6 35.451 24.6 32.8C24.6 35.451 26.749 37.6 29.4 37.6C32.051 37.6 34.2 35.451 34.2 32.8C34.2 35.451 36.349 37.6 39 37.6C41.6499 37.6 43.7983 35.4526 43.8 32.8031C43.8017 35.4526 45.9501 37.6 48.6 37.6C51.251 37.6 53.4 35.451 53.4 32.8C53.4 35.451 55.549 37.6 58.2 37.6C60.851 37.6 63 35.451 63 32.8C63 32.5274 62.9773 32.2602 62.9336 32H53.4664C53.4227 32.2602 53.4 32.5274 53.4 32.8C53.4 32.5274 53.3773 32.2602 53.3336 32H43.8664C43.8229 32.2592 43.8002 32.5254 43.8 32.7969C43.7998 32.5254 43.7771 32.2592 43.7336 32H34.2664C34.2227 32.2602 34.2 32.5274 34.2 32.8C34.2 32.5274 34.1773 32.2602 34.1336 32H24.6664C24.6227 32.2602 24.6 32.5274 24.6 32.8C24.6 32.5274 24.5773 32.2602 24.5336 32H15.0664Z" fill="white"/>
<path d="M24 53C24 49.6863 26.6863 47 30 47C33.3137 47 36 49.6863 36 53V71H24V53Z" fill="#BEF7F5"/>
<path d="M13 77C13 75.3431 14.3431 74 16 74H62C63.6569 74 65 75.3431 65 77H13Z" fill="#BEF7F5"/>
<path d="M16 74C16 72.3431 17.3431 71 19 71H59C60.6569 71 62 72.3431 62 74H16Z" fill="#A0EEEB"/>
<rect x="29" y="47" width="2" height="24" fill="#73D7D2"/>
<path d="M24 49C24 47.8954 24.8954 47 26 47H34C35.1046 47 36 47.8954 36 49V55H24V49Z" fill="white"/>
<g opacity="0.7">
<rect x="24" y="55" width="12" height="2" fill="#BCF0EE" style="mix-blend-mode:multiply"/>
</g>
<rect x="32" y="61" width="2" height="2" fill="#73CFCA"/>
<rect x="26" y="61" width="2" height="2" fill="#73CFCA"/>
<rect x="40" y="47" width="14" height="10" rx="1.98" fill="#BEF7F5"/>
</svg>
