<svg width="20" height="19" viewBox="0 0 20 19" fill="none" xmlns="http://www.w3.org/2000/svg">
<rect x="1.06908" y="2.5" width="18" height="16" rx="2.5" fill="white" stroke="#242424"/>
<path fill-rule="evenodd" clip-rule="evenodd" d="M10.0619 14.0476L11.6531 14.9211C12.077 15.1539 12.4862 14.8439 12.4052 14.3505L12.1013 12.5003C12.1042 12.5183 12.1094 12.5018 12.0968 12.5146L13.3841 11.2043C13.7271 10.8551 13.5712 10.353 13.0968 10.281L11.3179 10.0111C11.3352 10.0137 11.3217 10.0035 11.3295 10.0199L10.5339 8.33655C10.3219 7.88799 9.81642 7.88765 9.60427 8.33655L8.8087 10.0199C8.81643 10.0035 8.80299 10.0137 8.82032 10.0111L7.04137 10.281C6.56733 10.3529 6.41081 10.8549 6.75409 11.2043L8.04135 12.5146C8.02883 12.5019 8.03395 12.5184 8.03691 12.5003L7.73303 14.3505C7.65206 14.8435 8.06082 15.1541 8.48513 14.9211L10.0763 14.0476C10.0608 14.0561 10.0774 14.0561 10.0619 14.0476Z" fill="#242424"/>
<rect x="1.56908" y="5" width="17" height="1" fill="#242424"/>
<rect x="4.56908" width="2" height="3" rx="1" fill="#242424"/>
<rect x="13.5691" width="2" height="3" rx="1" fill="#242424"/>
</svg>
