<svg width="20" height="19" viewBox="0 0 20 19" fill="none" xmlns="http://www.w3.org/2000/svg">
<path d="M10.4961 16.6192L10.2724 16.5073L10.0487 16.6192L7.55363 17.8674L6.26881 15.391L6.15361 15.169L5.90684 15.128L3.15461 14.6714L3.57076 11.9127L3.60808 11.6654L3.4325 11.4872L1.47433 9.5L3.4325 7.51282L3.60808 7.33464L3.57076 7.08729L3.15461 4.32864L5.90684 3.87196L6.15361 3.83101L6.26881 3.60897L7.55363 1.13257L10.0487 2.38082L10.2724 2.49275L10.4961 2.38082L12.9911 1.13257L14.2759 3.60897L14.3911 3.83101L14.6379 3.87196L17.3901 4.32864L16.974 7.08729L16.9367 7.33464L17.1122 7.51282L19.0704 9.5L17.1122 11.4872L16.9367 11.6654L16.974 11.9127L17.3901 14.6714L14.6379 15.128L14.3911 15.169L14.2759 15.391L12.9911 17.8674L10.4961 16.6192Z" fill="white" stroke="#242424"/>
<path fill-rule="evenodd" clip-rule="evenodd" d="M8.44271 9.39332C7.42892 9.39332 6.77237 8.65167 6.77237 7.70682C6.77237 6.75181 7.42892 6 8.44271 6C9.47582 6 10.142 6.75181 10.142 7.70682C10.142 8.65167 9.47582 9.39332 8.44271 9.39332ZM8.63582 12.8781H7.80547L11.9186 6.1016H12.7586L8.63582 12.8781ZM10.412 11.3123C10.412 12.2571 11.0686 12.9988 12.0824 12.9988C13.1058 12.9988 13.772 12.2571 13.772 11.3123C13.772 10.3573 13.1058 9.60547 12.0824 9.60547C11.0686 9.60547 10.412 10.3573 10.412 11.3123ZM8.4427 8.45754C8.81926 8.45754 9.10891 8.19339 9.10891 7.70573C9.10891 7.19774 8.81926 6.93359 8.4427 6.93359C8.07581 6.93359 7.79581 7.19774 7.79581 7.70573C7.79581 8.19339 8.07581 8.45754 8.4427 8.45754ZM12.7486 11.3151C12.7486 11.8129 12.4589 12.0669 12.0824 12.0669C11.7058 12.0669 11.4355 11.8129 11.4355 11.3151C11.4355 10.8071 11.7058 10.543 12.0824 10.543C12.4589 10.543 12.7486 10.8071 12.7486 11.3151Z" fill="#242424"/>
</svg>
