<svg width="10" height="10" viewBox="0 0 10 10" fill="none" xmlns="http://www.w3.org/2000/svg">
<path fill-rule="evenodd" clip-rule="evenodd" d="M4.98976 8.63941L7.26282 9.88731C7.86852 10.2198 8.45301 9.77699 8.33725 9.07215L7.90313 6.42904C7.90735 6.45474 7.9147 6.43118 7.89679 6.44942L9.73573 4.57756C10.2258 4.07876 10.003 3.36143 9.32534 3.25859L6.78398 2.87297C6.80869 2.87672 6.78951 2.86214 6.80058 2.88556L5.66405 0.480782C5.3612 -0.160017 4.63906 -0.160504 4.33598 0.480782L3.19945 2.88556C3.2105 2.86218 3.19129 2.87672 3.21605 2.87297L0.674693 3.25859C-0.00250071 3.36135 -0.226096 4.07839 0.264298 4.57756L2.10324 6.44942C2.08536 6.43122 2.09267 6.45479 2.0969 6.42904L1.66279 9.07215C1.54711 9.77646 2.13105 10.2201 2.73721 9.88731L5.01028 8.63941C4.98817 8.65154 5.0119 8.65156 4.98976 8.63941Z" fill="#BD10E0"/>
</svg>
