<svg width="18" height="18" viewBox="0 0 18 18" fill="none" xmlns="http://www.w3.org/2000/svg">
<path fill-rule="evenodd" clip-rule="evenodd" d="M12.1033 14.0591C10.8574 14.9226 9.34495 15.4286 7.71429 15.4286C3.4538 15.4286 0 11.9748 0 7.71429C0 3.4538 3.4538 0 7.71429 0C11.9748 0 15.4286 3.4538 15.4286 7.71429C15.4286 9.34495 14.9226 10.8574 14.0591 12.1033L17.5949 15.6391C18.135 16.1792 18.135 17.0549 17.5949 17.5949C17.0549 18.135 16.1792 18.135 15.6391 17.5949L12.1033 14.0591ZM7.71429 12.8571C10.5546 12.8571 12.8571 10.5546 12.8571 7.71429C12.8571 4.87396 10.5546 2.57143 7.71429 2.57143C4.87396 2.57143 2.57143 4.87396 2.57143 7.71429C2.57143 10.5546 4.87396 12.8571 7.71429 12.8571Z" fill="white"/>
</svg>
