<svg width="48" height="48" viewBox="0 0 48 48" fill="none" xmlns="http://www.w3.org/2000/svg">
<path opacity="0.01" fill-rule="evenodd" clip-rule="evenodd" d="M24 48C37.2548 48 48 37.2548 48 24C48 10.7452 37.2548 0 24 0C10.7452 0 0 10.7452 0 24C0 37.2548 10.7452 48 24 48Z" fill="#F4F8F9"/>
<path d="M8.30078 39.3496H39.3008V40.2996C39.3008 41.5699 38.271 42.5996 37.0008 42.5996H10.6008C9.33053 42.5996 8.30078 41.5699 8.30078 40.2996V39.3496Z" fill="white" fill-opacity="0.08" stroke="white" stroke-width="2"/>
<rect x="5" y="8.30078" width="37.6" height="31" rx="3.95" fill="white" fill-opacity="0.08" stroke="white" stroke-width="2"/>
<path fill-rule="evenodd" clip-rule="evenodd" d="M23.7857 30.2536L26.7861 31.9009C27.5857 32.3398 28.3572 31.7552 28.2044 30.8248L27.6313 27.3359C27.6369 27.3699 27.6466 27.3388 27.623 27.3628L30.0504 24.892C30.6972 24.2336 30.4032 23.2867 29.5087 23.151L26.1541 22.6419C26.1867 22.6469 26.1614 22.6276 26.176 22.6586L24.6758 19.4842C24.276 18.6384 23.3228 18.6377 22.9227 19.4842L21.4225 22.6586C21.4371 22.6277 21.4117 22.6469 21.4444 22.6419L18.0898 23.151C17.1959 23.2866 16.9008 24.2331 17.5481 24.892L19.9755 27.3628C19.9519 27.3388 19.9615 27.3699 19.9671 27.3359L19.3941 30.8248C19.2414 31.7545 20.0122 32.3401 20.8123 31.9009L23.8128 30.2536C23.7836 30.2696 23.8149 30.2697 23.7857 30.2536Z" fill="white"/>
<rect x="6" y="12" width="36" height="2" fill="white"/>
<rect x="10.5996" y="4" width="3.3" height="4.95" rx="1.65" fill="white"/>
<rect x="33.6992" y="4" width="3.3" height="4.95" rx="1.65" fill="white"/>
</svg>
