<?xml version="1.0" encoding="UTF-8"?>
<svg fill="#5E7988" width="16px" height="14px" viewBox="0 0 16 14" version="1.1" xmlns="http://www.w3.org/2000/svg" xmlns:xlink="http://www.w3.org/1999/xlink">
    <g id="Symbols" stroke="none" stroke-width="1" fill-rule="evenodd">
        <g transform="translate(-1180.000000, -87.000000)">
            <g id="icon-social-twitter">
                <g transform="translate(1180.000000, 87.000000)">
                    <path d="M7.76891299,3.72421921 L7.80359563,4.32975869 L7.22555151,4.255611 C5.12147091,3.97137818 3.28329061,3.00745819 1.72257148,1.38856692 L0.959553241,0.585300266 L0.76301824,1.1784818 C0.346826473,2.5007823 0.612726768,3.89723049 1.47979295,4.83643458 C1.94222825,5.35546842 1.83818031,5.42961611 1.04047942,5.1206674 C0.76301824,5.02180381 0.520239709,4.94765612 0.497117944,4.98472996 C0.416191767,5.0712356 0.693652945,6.19580892 0.913309711,6.64069507 C1.21389265,7.2585925 1.82661942,7.86413198 2.4971506,8.22251249 L3.06363384,8.50674531 L2.39310266,8.51910326 C1.74569325,8.51910326 1.72257148,8.53146121 1.79193678,8.79097813 C2.02315442,9.59424479 2.93646414,10.4469432 3.95382179,10.8176817 L4.6705965,11.0771986 L4.04630885,11.472653 C3.12143825,12.0411186 2.03471531,12.3624253 0.947992359,12.3871412 C0.42775265,12.3994991 2.84217094e-14,12.4489309 2.84217094e-14,12.4860048 C2.84217094e-14,12.6095842 1.41042766,13.3016294 2.23125031,13.5735042 C4.69371826,14.3767709 7.61862152,14.0307483 9.81518918,12.659016 C11.3759083,11.6827381 12.9366274,9.74254017 13.664963,7.86413198 C14.058033,6.86313815 14.451103,5.03416176 14.451103,4.15674741 C14.451103,3.58828177 14.4857857,3.51413408 15.1331951,2.83444691 C15.5147042,2.43899255 15.8730916,2.00646435 15.9424569,1.88288487 C16.0580657,1.64808384 16.0465048,1.64808384 15.4568998,1.85816897 C14.4742248,2.22890743 14.3354942,2.17947563 14.8210513,1.62336795 C15.1794386,1.22791359 15.6071913,0.511152574 15.6071913,0.301067448 C15.6071913,0.263993603 15.433778,0.325783345 15.237243,0.437004883 C15.0291471,0.560584369 14.5667119,0.745953597 14.2198854,0.857175135 L13.5955977,1.06726026 L13.0291145,0.659447957 C12.7169707,0.437004883 12.2776571,0.189845911 12.0464395,0.115698219 C11.4568345,-0.0573130607 10.5550857,-0.0325971635 10.0232851,0.165130014 C8.57817476,0.7212377 7.66486505,2.15475974 7.76891299,3.72421921 Z"></path>
                </g>
            </g>
        </g>
    </g>
</svg>
