<svg width="20" height="16" viewBox="0 0 20 16" fill="none" xmlns="http://www.w3.org/2000/svg">
<path fill-rule="evenodd" clip-rule="evenodd" d="M19.4627 0.524735C19.1093 0.175298 18.6908 0.000488281 18.2074 0.000488281H1.78515C1.21223 0.000488281 0.77176 0.193955 0.463194 0.580488C0.154374 0.967203 0.000217786 1.45083 0.000217786 2.03083C0.000217786 2.49933 0.204791 3.00695 0.613757 3.55385C1.02272 4.10052 1.45789 4.52993 1.91906 4.84227C2.17187 5.02089 2.93427 5.55091 4.20624 6.43214C4.89289 6.90797 5.49002 7.3227 6.00316 7.6806C6.44054 7.98535 6.81775 8.24927 7.12918 8.46829C7.16364 8.49246 7.21711 8.5307 7.28774 8.5812L7.29579 8.58695C7.37619 8.6447 7.47793 8.71798 7.60345 8.80862C7.84515 8.98343 8.04595 9.12473 8.20588 9.23268C8.36559 9.34067 8.55909 9.46129 8.7861 9.59523C9.01292 9.72898 9.22686 9.82956 9.42766 9.89646C9.62849 9.96332 9.81441 9.99686 9.98544 9.99686H10.0077C10.1787 9.99686 10.3646 9.96332 10.5655 9.89646C10.7662 9.82956 10.98 9.7292 11.207 9.59523C11.4338 9.46129 11.627 9.34042 11.7873 9.23268C11.9472 9.12473 12.148 8.98346 12.3897 8.80862C12.515 8.71798 12.6167 8.64466 12.6971 8.58713C12.7718 8.53356 12.828 8.49359 12.864 8.46829C13.1066 8.29947 13.4846 8.03664 13.993 7.68368C14.9179 7.04103 16.2801 6.09515 18.0852 4.84227C18.6281 4.46307 19.0817 4.00546 19.4462 3.47011C19.8101 2.93475 19.9926 2.37319 19.9926 1.78561C19.9926 1.29468 19.8157 0.874608 19.4627 0.524735ZM4.99241 8.69109C3.99365 7.99381 2.70679 7.10989 1.12693 6.03628C0.703085 5.7537 0.327223 5.43007 0 5.06553V13.6835L4.99241 8.69109ZM1.78512 15.709H18.2074C18.6568 15.709 19.0462 15.5606 19.3772 15.2676L13.713 9.60318C13.5771 9.70049 13.4454 9.79512 13.3209 9.8851C12.8971 10.1974 12.553 10.4411 12.2889 10.6157C12.0247 10.7908 11.6733 10.9692 11.2346 11.1513C10.7956 11.3337 10.3866 11.4246 10.0073 11.4246H9.98505C9.60563 11.4246 9.19666 11.3337 8.75771 11.1513C8.31877 10.9692 7.96733 10.7908 7.70345 10.6157C7.43931 10.4411 7.09546 10.1974 6.67136 9.8851C6.55318 9.79846 6.42211 9.70339 6.2804 9.60165L0.6151 15.2676C0.946098 15.5606 1.33575 15.709 1.78512 15.709ZM18.8769 6.03628C19.3008 5.74615 19.6726 5.42274 19.9926 5.06553V13.6837L15.0021 8.69308C16.0658 7.95025 17.3573 7.06481 18.8769 6.03628Z" fill="#B4BCC5"/>
</svg>
