<?xml version="1.0" encoding="UTF-8"?>
<svg fill="#5E7988" width="16px" height="16px" viewBox="0 0 16 16" version="1.1" xmlns="http://www.w3.org/2000/svg" xmlns:xlink="http://www.w3.org/1999/xlink">
    <g id="Symbols" stroke="none" stroke-width="1" fill-rule="evenodd">
        <g id="icon-social-instagram">
            <g>
                <path d="M7.98739606,0.0251528384 C5.81815317,0.0251528384 5.54615317,0.0342707424 4.69423195,0.0731179039 C3.84402626,0.111860262 3.26340481,0.246567686 2.75539606,0.443563319 C2.23012691,0.647231441 1.78468271,0.919755459 1.34063895,1.36282969 C0.896595186,1.80590393 0.623474836,2.25041048 0.419396061,2.77449782 C0.221864333,3.28146725 0.0868621444,3.86082096 0.0481050328,4.70913537 C0.00920787746,5.55919651 3.50109409e-05,5.83056769 3.50109409e-05,7.99507424 C3.50109409e-05,10.1596507 0.00920787746,10.4310218 0.0481050328,11.281083 C0.0868621444,12.1293974 0.221864333,12.7087511 0.419396061,13.2157205 C0.623474836,13.7398079 0.896595186,14.1843144 1.34063895,14.6273886 C1.78468271,15.0704629 2.23012691,15.3429869 2.75539606,15.546655 C3.26340481,15.7436507 3.84402626,15.8783581 4.69423195,15.9171004 C5.54615317,15.9558777 5.81815317,15.9650655 7.98739606,15.9650655 C10.1566389,15.9650655 10.428674,15.9558777 11.2805952,15.9171004 C12.1307659,15.8783581 12.7113873,15.7436507 13.2194311,15.546655 C13.7447002,15.3429869 14.1901094,15.0704629 14.6341532,14.6273886 C15.0781969,14.1843144 15.3513173,13.7398079 15.5554311,13.2157205 C15.7529278,12.7087511 15.88793,12.1293974 15.9267221,11.281083 C15.9656193,10.4310218 15.9747571,10.1596507 15.9747571,7.99507424 C15.9747571,5.83056769 15.9656193,5.55919651 15.9267221,4.70913537 C15.88793,3.86082096 15.7529278,3.28146725 15.5554311,2.77449782 C15.3513173,2.25041048 15.0781969,1.80590393 14.6341532,1.36282969 C14.1901094,0.919755459 13.7447002,0.647231441 13.2194311,0.443563319 C12.7113873,0.246567686 12.1307659,0.111860262 11.2805952,0.0731179039 C10.428674,0.0342707424 10.1566389,0.0251528384 7.98739606,0.0251528384 M7.98739606,1.46117031 C10.1201225,1.46117031 10.3726915,1.46927511 11.2149847,1.50759825 C11.993733,1.54305677 12.4166652,1.67294323 12.6981182,1.78204367 C13.0709847,1.92663755 13.3370678,2.09935371 13.6165252,2.37823581 C13.8960875,2.65715284 14.0691816,2.92262009 14.2140219,3.29463755 C14.3233611,3.57547598 14.4535317,3.99751965 14.4890678,4.77453275 C14.5274748,5.6149869 14.5356324,5.86700437 14.5356324,7.99507424 C14.5356324,10.123214 14.5274748,10.3752314 14.4890678,11.2156157 C14.4535317,11.9926987 14.3233611,12.4147424 14.2140219,12.6955808 C14.0691816,13.0675633 13.8960875,13.3330655 13.6165252,13.6119825 C13.3370678,13.8908646 13.0709847,14.0635808 12.6981182,14.2081397 C12.4166652,14.3172751 11.993733,14.4471616 11.2149847,14.4825502 C10.3728315,14.5209432 10.1202976,14.5290131 7.98739606,14.5290131 C5.85449453,14.5290131 5.60196061,14.5209432 4.75980744,14.4825502 C3.98109409,14.4471616 3.55812691,14.3172751 3.27667396,14.2081397 C2.90384245,14.0635808 2.6377593,13.8908646 2.35826696,13.6119825 C2.07880963,13.3330655 1.90571554,13.0675633 1.76080525,12.6955808 C1.65143107,12.4147424 1.5212954,11.9926987 1.48572429,11.2156157 C1.4473523,10.3752314 1.43919475,10.123214 1.43919475,7.99507424 C1.43919475,5.86700437 1.4473523,5.6149869 1.48572429,4.77453275 C1.5212954,3.99751965 1.65143107,3.57547598 1.76080525,3.29463755 C1.90571554,2.92262009 2.07880963,2.65715284 2.35826696,2.37823581 C2.6377593,2.09935371 2.90384245,1.92663755 3.27667396,1.78204367 C3.55812691,1.67294323 3.98109409,1.54305677 4.75980744,1.50759825 C5.60210066,1.46927511 5.85466958,1.46117031 7.98739606,1.46117031" id="Fill-1"></path>
                <path d="M7.98739606,10.651738 C6.51697155,10.651738 5.32491904,9.46232314 5.32491904,7.99507424 C5.32491904,6.52786026 6.51697155,5.33844541 7.98739606,5.33844541 C9.45785558,5.33844541 10.6498731,6.52786026 10.6498731,7.99507424 C10.6498731,9.46232314 9.45785558,10.651738 7.98739606,10.651738 M7.98739606,3.90242795 C5.72215317,3.90242795 3.88579431,5.73481223 3.88579431,7.99507424 C3.88579431,10.255441 5.72215317,12.0877555 7.98739606,12.0877555 C10.2526389,12.0877555 12.0889978,10.255441 12.0889978,7.99507424 C12.0889978,5.73481223 10.2526389,3.90242795 7.98739606,3.90242795" id="Fill-4"></path>
                <path d="M13.209593,3.74071616 C13.209593,4.26889083 12.7804639,4.6971179 12.2510985,4.6971179 C11.7217681,4.6971179 11.2926039,4.26889083 11.2926039,3.74071616 C11.2926039,3.21250655 11.7217681,2.78431441 12.2510985,2.78431441 C12.7804639,2.78431441 13.209593,3.21250655 13.209593,3.74071616" id="Fill-5"></path>
            </g>
        </g>
    </g>
</svg>
