<svg width="20" height="20" viewBox="0 0 20 20" fill="none" xmlns="http://www.w3.org/2000/svg">
<rect width="19.9882" height="19.9882" fill="#50ABF1"/>
<path d="M2.64829 14.8168C3.97856 15.6605 5.55654 16.1488 7.24808 16.1488C12.0002 16.1488 15.8525 12.2961 15.8525 7.54438C15.8525 7.42574 15.85 7.30797 15.8454 7.19056C16.0173 7.0553 17.0804 6.20324 17.3409 5.65547C17.3409 5.65547 16.4776 6.01424 15.6327 6.09876C15.6311 6.09876 15.629 6.09916 15.6273 6.09916C15.6273 6.09916 15.629 6.09832 15.6319 6.09626C15.7097 6.04424 16.7982 5.30332 16.9455 4.42052C16.9455 4.42052 16.3349 4.74644 15.48 5.03157C15.3384 5.07859 15.1903 5.12481 15.0375 5.16767C14.4864 4.57951 13.7031 4.2124 12.8336 4.2124C11.1657 4.2124 9.81422 5.5635 9.81422 7.23008C9.81422 7.46525 9.84128 7.69416 9.89246 7.91394C9.65939 7.90438 6.11014 7.70538 3.69557 4.78135C3.69557 4.78135 2.2525 6.75139 4.55553 8.77718C4.55553 8.77718 3.85544 8.74929 3.25145 8.38841C3.25145 8.38841 3.02961 10.7751 5.63772 11.3853C5.63772 11.3853 5.12452 11.5797 4.30579 11.4411C4.30579 11.4411 4.76365 13.3695 7.08084 13.5497C7.08084 13.5497 5.24851 15.205 2.64746 14.8166L2.64829 14.8168Z" fill="white"/>
</svg>
